<svg xmlns="http://www.w3.org/2000/svg" xmlns:xlink="http://www.w3.org/1999/xlink" width="1600" height="130" viewBox="0 0 1600 130">
  <defs>
    <clipPath id="clip-path">
      <rect id="mask" width="1600" height="130" transform="translate(160 527)" fill="none"/>
    </clipPath>
  </defs>
  <g id="bt_event_txt" transform="translate(-160 -527)">
    <g id="mask-2" data-name="mask" clip-path="url(#clip-path)">
      <g id="ONE_S_AUTHENTIC_COLOR" data-name="ONE’S AUTHENTIC COLOR" transform="translate(155.136 636.776)" fill="none">
        <path d="M51.126-91.71a46.621,46.621,0,0,1,23.52,6.025A43.9,43.9,0,0,1,91.3-68.972a47.936,47.936,0,0,1,6.091,24.164,47.893,47.893,0,0,1-6.155,24.228A44.231,44.231,0,0,1,74.517-3.8a46.37,46.37,0,0,1-23.39,6.025A46.37,46.37,0,0,1,27.736-3.8,44.231,44.231,0,0,1,11.019-20.579,47.893,47.893,0,0,1,4.864-44.808a47.539,47.539,0,0,1,6.155-24.164A44.364,44.364,0,0,1,27.736-85.685,46.37,46.37,0,0,1,51.126-91.71Zm0,20.6q-10.885,0-17.3,7.061t-6.415,19.24q0,12.049,6.415,19.175t17.3,7.126q10.756,0,17.235-7.126t6.479-19.175q0-12.049-6.415-19.176T51.126-71.109ZM191.209,1.317H169.05L131.988-54.914V1.317H109.829v-91.6h22.159L169.05-33.536V-90.285h22.159Zm37.45-73.981v19.176H259.63v16.714H228.659v20.342h34.859V1.317H206.5v-91.6h57.018v17.621Zm62.72-35.112a48.022,48.022,0,0,1,2.462,15.289q0,8.94-4.6,14.317t-13.412,5.377v-8.292q6.738,0,6.738-8.681V-91.84H274.4v-15.936Zm81.769,83.31a25.252,25.252,0,0,1-3.693,13.345A26.045,26.045,0,0,1,358.569-1.4q-7.192,3.628-17.429,3.628-15.421,0-25.4-7.515T304.856-26.28h23.585a12.445,12.445,0,0,0,3.693,8.163,11.362,11.362,0,0,0,8.1,2.98,9.4,9.4,0,0,0,6.738-2.332,8.163,8.163,0,0,0,2.462-6.219,8.029,8.029,0,0,0-2.268-5.83,17.781,17.781,0,0,0-5.637-3.822q-3.369-1.49-9.33-3.563a114.564,114.564,0,0,1-14.19-5.766,26.132,26.132,0,0,1-9.46-8.292Q304.6-56.469,304.6-65.279A24.1,24.1,0,0,1,308.743-79.4a26.359,26.359,0,0,1,11.468-9.134,41.836,41.836,0,0,1,16.781-3.174q15.291,0,24.3,7.256T371.463-64.5H347.49a12.291,12.291,0,0,0-3.3-7.191,9.719,9.719,0,0,0-7.192-2.656,9.268,9.268,0,0,0-6.285,2.073,7.612,7.612,0,0,0-2.4,6.09,7.732,7.732,0,0,0,2.138,5.506,16.3,16.3,0,0,0,5.378,3.693q3.24,1.425,9.33,3.628a102.567,102.567,0,0,1,14.384,5.9,27.516,27.516,0,0,1,9.589,8.486Q373.148-33.406,373.148-24.466ZM468.134-15.4h-34.34l-5.7,16.714H404.767L438.33-89.637h25.528L497.421,1.317H473.836Zm-5.7-16.843-11.4-33.687L439.5-32.24Zm65.052-58.045v52.862q0,9.069,4.082,13.863t11.857,4.794q7.775,0,11.857-4.794t4.082-13.863V-90.285h22.159v52.862q0,12.956-5.054,21.832a32.851,32.851,0,0,1-13.8,13.345,42.8,42.8,0,0,1-19.762,4.47,41.341,41.341,0,0,1-19.438-4.405A31.289,31.289,0,0,1,510.25-15.526q-4.795-8.94-4.795-21.9V-90.285Zm134.64,0v17.621H637.244V1.317H614.956V-72.664H590.334V-90.285Zm88.507,0v91.6H728.343V-36.9H693.614V1.317H671.455v-91.6h22.159v35.5h34.729v-35.5Zm37.45,17.621v19.176h30.971v16.714H788.083v20.342h34.859V1.317H765.923v-91.6h57.018v17.621ZM916.891,1.317H894.732L857.67-54.914V1.317H835.511v-91.6H857.67l37.062,56.749V-90.285h22.159Zm81.121-91.6v17.621H973.132V1.317H950.843V-72.664H926.221V-90.285Zm31.489,0v91.6h-22.159v-91.6Zm57.147-.907q17.494,0,28.963,9.2t14.838,24.876h-23.455a21.518,21.518,0,0,0-7.97-9.976,22.278,22.278,0,0,0-12.764-3.628,19.445,19.445,0,0,0-15.68,7.126q-5.961,7.126-5.961,19.046t5.961,18.981a19.519,19.519,0,0,0,15.68,7.061,22.278,22.278,0,0,0,12.764-3.628,21.61,21.61,0,0,0,7.97-9.847h23.455q-3.369,15.548-14.838,24.812t-28.963,9.264q-13.347,0-23.455-5.9a40.018,40.018,0,0,1-15.615-16.519,51.88,51.88,0,0,1-5.507-24.228,51.88,51.88,0,0,1,5.507-24.229A40.018,40.018,0,0,1,1063.194-85.3Q1073.3-91.192,1086.649-91.192Zm124.014,0q17.494,0,28.963,9.2t14.838,24.876h-23.455a21.517,21.517,0,0,0-7.97-9.976,22.279,22.279,0,0,0-12.764-3.628,19.444,19.444,0,0,0-15.68,7.126q-5.961,7.126-5.961,19.046t5.961,18.981a19.519,19.519,0,0,0,15.68,7.061,22.279,22.279,0,0,0,12.764-3.628,21.609,21.609,0,0,0,7.97-9.847h23.455q-3.369,15.548-14.838,24.812t-28.963,9.264q-13.347,0-23.455-5.9a40.018,40.018,0,0,1-15.615-16.519,51.88,51.88,0,0,1-5.507-24.228,51.88,51.88,0,0,1,5.507-24.229A40.018,40.018,0,0,1,1187.208-85.3Q1197.315-91.192,1210.663-91.192Zm99.781-.518a46.621,46.621,0,0,1,23.52,6.025,43.9,43.9,0,0,1,16.652,16.714,47.936,47.936,0,0,1,6.09,24.164,47.892,47.892,0,0,1-6.155,24.228A44.231,44.231,0,0,1,1333.834-3.8a46.369,46.369,0,0,1-23.39,6.025,46.37,46.37,0,0,1-23.39-6.025,44.231,44.231,0,0,1-16.717-16.779,47.893,47.893,0,0,1-6.155-24.228,47.539,47.539,0,0,1,6.155-24.164,44.364,44.364,0,0,1,16.717-16.714A46.37,46.37,0,0,1,1310.444-91.71Zm0,20.6q-10.885,0-17.3,7.061t-6.415,19.24q0,12.049,6.415,19.175t17.3,7.126q10.756,0,17.235-7.126t6.479-19.175q0-12.049-6.415-19.176T1310.444-71.109Zm80.862,55.453h29.546V1.317h-51.7v-91.6h22.159ZM1474.63-91.71a46.621,46.621,0,0,1,23.52,6.025A43.9,43.9,0,0,1,1514.8-68.972a47.935,47.935,0,0,1,6.091,24.164,47.893,47.893,0,0,1-6.155,24.228A44.231,44.231,0,0,1,1498.02-3.8a46.369,46.369,0,0,1-23.39,6.025A46.37,46.37,0,0,1,1451.24-3.8a44.231,44.231,0,0,1-16.717-16.779,47.892,47.892,0,0,1-6.155-24.228,47.538,47.538,0,0,1,6.155-24.164,44.364,44.364,0,0,1,16.717-16.714A46.37,46.37,0,0,1,1474.63-91.71Zm0,20.6q-10.885,0-17.3,7.061t-6.415,19.24q0,12.049,6.415,19.175t17.3,7.126q10.756,0,17.235-7.126t6.479-19.175q0-12.049-6.415-19.176T1474.63-71.109ZM1580.372,1.317l-19.827-34.594h-5.054V1.317h-22.159v-91.6h37.839q10.885,0,18.4,3.757a25.949,25.949,0,0,1,11.274,10.3,29.5,29.5,0,0,1,3.758,14.965A26.6,26.6,0,0,1,1599.1-44.29q-5.507,7-16,9.588l21.771,36.019Zm-24.881-49.753h13.736q6.609,0,9.719-2.915t3.11-8.616q0-5.442-3.175-8.551t-9.654-3.11h-13.736Z" stroke="none"/>
        <path d="M 275.603271484375 -106.5760116577148 L 275.603271484375 -93.03961181640625 L 283.7669677734375 -93.03961181640625 L 283.7669677734375 -89.76660919189453 C 283.7669677734375 -86.61380767822266 283.1153564453125 -84.17581176757812 281.8304443359375 -82.52021026611328 C 280.68798828125 -81.04864501953125 279.076416015625 -80.18772888183594 277.028564453125 -79.95223236083984 L 277.028564453125 -74.02096557617188 C 279.3128662109375 -74.12679290771484 281.3643798828125 -74.53939819335938 283.1409912109375 -75.25160980224609 C 285.1844482421875 -76.07100677490234 286.9298095703125 -77.31540679931641 288.328857421875 -78.9508056640625 C 289.7509765625 -80.61300659179688 290.834228515625 -82.58280944824219 291.5484619140625 -84.80540466308594 C 292.2734375 -87.06140899658203 292.6409912109375 -89.64601135253906 292.6409912109375 -92.48741149902344 C 292.6409912109375 -97.31107330322266 291.9229736328125 -102.0459899902344 290.5054931640625 -106.5760116577148 L 275.603271484375 -106.5760116577148 M 51.126220703125 -90.510009765625 C 46.9708251953125 -90.510009765625 42.946044921875 -90.01600646972656 39.1634521484375 -89.04180908203125 C 35.3865966796875 -88.06900787353516 31.7418212890625 -86.58900451660156 28.33056640625 -84.64300537109375 C 24.91943359375 -82.69720458984375 21.822021484375 -80.34300994873047 19.1246337890625 -77.64601135253906 C 16.426025390625 -74.94780731201172 14.048828125 -71.82780456542969 12.0592041015625 -68.37281036376953 C 10.0716552734375 -64.92100524902344 8.559814453125 -61.19220733642578 7.565673828125 -57.28981018066406 C 6.5692138671875 -53.37820816040039 6.06396484375 -49.17860794067383 6.06396484375 -44.80780792236328 C 6.06396484375 -40.43680572509766 6.5694580078125 -36.23160552978516 7.5657958984375 -32.30880737304688 C 8.5601806640625 -28.39501190185547 10.0723876953125 -24.64920806884766 12.0606689453125 -21.17560577392578 C 14.0504150390625 -17.69921112060547 16.4276123046875 -14.56320953369141 19.126220703125 -11.85460662841797 C 21.8232421875 -9.147605895996094 24.9200439453125 -6.788612365722656 28.33056640625 -4.843208312988281 C 31.7418212890625 -2.897010803222656 35.3865966796875 -1.417007446289062 39.1634521484375 -0.4442062377929688 C 42.946044921875 0.5299911499023438 46.9708251953125 1.023994445800781 51.126220703125 1.023994445800781 C 55.2818603515625 1.023994445800781 59.306640625 0.5299911499023438 63.0889892578125 -0.4442062377929688 C 66.8658447265625 -1.417007446289062 70.5106201171875 -2.897010803222656 73.9219970703125 -4.843208312988281 C 77.3323974609375 -6.788612365722656 80.42919921875 -9.147605895996094 83.126220703125 -11.85460662841797 C 85.8248291015625 -14.56320953369141 88.2020263671875 -17.69921112060547 90.1917724609375 -21.17560577392578 C 92.1800537109375 -24.64920806884766 93.6922607421875 -28.39501190185547 94.6866455078125 -32.30880737304688 C 95.6832275390625 -36.23160552978516 96.1885986328125 -40.43680572509766 96.1885986328125 -44.80780792236328 C 96.1885986328125 -49.17940902709961 95.6885986328125 -53.38000869750977 94.7022705078125 -57.29280853271484 C 93.7183837890625 -61.19580841064453 92.22216796875 -64.92540740966797 90.25537109375 -68.37760925292969 C 88.287353515625 -71.83140563964844 85.9267578125 -74.95040893554688 83.2396240234375 -77.64760589599609 C 80.55322265625 -80.34381103515625 77.4620361328125 -82.69760894775391 74.0513916015625 -84.64300537109375 C 70.640625 -86.58880615234375 66.985595703125 -88.06861114501953 63.1878662109375 -89.04141235351562 C 59.3834228515625 -90.01580810546875 55.3251953125 -90.510009765625 51.126220703125 -90.510009765625 M 51.126220703125 -17.30620574951172 C 47.357177734375 -17.30620574951172 43.917236328125 -17.93601226806641 40.901611328125 -19.17820739746094 C 37.8643798828125 -20.42940521240234 35.183837890625 -22.330810546875 32.9345703125 -24.82960510253906 C 30.695556640625 -27.31681060791016 28.9942626953125 -30.27060699462891 27.8775634765625 -33.60861206054688 C 26.7724609375 -36.91240692138672 26.2120361328125 -40.68041229248047 26.2120361328125 -44.80780792236328 C 26.2120361328125 -48.97780990600586 26.772216796875 -52.77260971069336 27.877197265625 -56.08700942993164 C 28.994384765625 -59.43800735473633 30.697265625 -62.38780975341797 32.938232421875 -64.85481262207031 C 35.1878662109375 -67.33120727539062 37.8681640625 -69.21540832519531 40.9052734375 -70.45500946044922 C 43.9195556640625 -71.68560791015625 47.358642578125 -72.30941009521484 51.126220703125 -72.30941009521484 C 54.895263671875 -72.30941009521484 58.335205078125 -71.67961120605469 61.350830078125 -70.43740844726562 C 64.3880615234375 -69.18640899658203 67.068603515625 -67.28500366210938 69.31787109375 -64.78620910644531 C 71.5567626953125 -62.29880905151367 73.2584228515625 -59.34520721435547 74.375 -56.00720977783203 C 75.480224609375 -52.70320892333984 76.0406494140625 -48.93520736694336 76.0406494140625 -44.80780792236328 C 76.0404052734375 -40.67900848388672 75.4742431640625 -36.91001129150391 74.357666015625 -33.60501098632812 C 73.2293701171875 -30.26641082763672 71.5106201171875 -27.31240844726562 69.2490234375 -24.82521057128906 C 66.9793701171875 -22.32881164550781 64.295166015625 -20.42920684814453 61.271240234375 -19.17881011962891 C 58.2659912109375 -17.93621063232422 54.852783203125 -17.30620574951172 51.126220703125 -17.30620574951172 M 336.9931640625 -90.510009765625 C 330.8812255859375 -90.510009765625 325.3956298828125 -89.47541046142578 320.689208984375 -87.43480682373047 C 318.3568115234375 -86.42360687255859 316.2515869140625 -85.17601013183594 314.431640625 -83.72640991210938 C 312.6202392578125 -82.28360748291016 311.037841796875 -80.59800720214844 309.7283935546875 -78.71601104736328 C 308.4266357421875 -76.84500885009766 307.4361572265625 -74.77140808105469 306.7847900390625 -72.55281066894531 C 306.1290283203125 -70.31980895996094 305.796630859375 -67.87260437011719 305.796630859375 -65.27900695800781 C 305.796630859375 -62.46380996704102 306.1146240234375 -59.885009765625 306.741455078125 -57.61380767822266 C 307.359375 -55.37580871582031 308.29541015625 -53.37340927124023 309.5238037109375 -51.66201019287109 C 312.033203125 -48.16621017456055 315.070068359375 -45.50100708007812 318.5504150390625 -43.74081039428711 C 322.1572265625 -41.91680908203125 326.8802490234375 -39.99840545654297 332.5927734375 -38.03781127929688 C 336.5780029296875 -36.65180969238281 339.747802734375 -35.44100952148438 342.01416015625 -34.43881225585938 C 344.3909912109375 -33.38761138916016 346.41357421875 -32.01380920410156 348.0262451171875 -30.35581207275391 C 349.7564697265625 -28.57640838623047 350.6336669921875 -26.33320617675781 350.6336669921875 -23.68881225585938 C 350.6336669921875 -20.7672119140625 349.67919921875 -18.38180541992188 347.796630859375 -16.59860992431641 C 345.9326171875 -14.83280944824219 343.3878173828125 -13.93760681152344 340.2327880859375 -13.93760681152344 C 336.650390625 -13.93760681152344 333.649169921875 -15.04960632324219 331.3126220703125 -17.24260711669922 C 329.216552734375 -19.20987701416016 327.8983154296875 -21.84283447265625 327.3856201171875 -25.08020782470703 L 306.162353515625 -25.08020782470703 C 306.55517578125 -21.28515625 307.5400390625 -17.84844207763672 309.0960693359375 -14.84800720214844 C 310.818359375 -11.526611328125 313.2969970703125 -8.633811950683594 316.4632568359375 -6.249404907226562 C 319.6585693359375 -3.842811584472656 323.34521484375 -2.011207580566406 327.42041015625 -0.8054122924804688 C 331.523193359375 0.4083938598632812 336.1390380859375 1.023994445800781 341.1400146484375 1.023994445800781 C 347.74365234375 1.023994445800781 353.42578125 -0.153411865234375 358.02880859375 -2.475212097167969 C 360.3214111328125 -3.631607055664062 362.3599853515625 -5.000007629394531 364.08740234375 -6.542205810546875 C 365.804443359375 -8.07501220703125 367.2650146484375 -9.824806213378906 368.4285888671875 -11.74360656738281 C 369.5968017578125 -13.66960906982422 370.48486328125 -15.71460723876953 371.0679931640625 -17.82221221923828 C 371.65185546875 -19.93180847167969 371.94775390625 -22.16720581054688 371.94775390625 -24.46620941162109 C 371.94775390625 -27.32400512695312 371.6246337890625 -29.94081115722656 370.987060546875 -32.24380493164062 C 370.358642578125 -34.51340484619141 369.4066162109375 -36.54280853271484 368.1572265625 -38.27561187744141 C 365.6015625 -41.81980895996094 362.515625 -44.55340957641602 358.98486328125 -46.40060806274414 C 355.34326171875 -48.30600738525391 350.5616455078125 -50.26461029052734 344.7728271484375 -52.22220993041992 L 344.7490234375 -52.23060989379883 C 340.6820068359375 -53.70140838623047 337.517578125 -54.9320068359375 335.3438720703125 -55.88840866088867 C 333.0460205078125 -56.89920806884766 331.1055908203125 -58.23420715332031 329.576171875 -59.85601043701172 C 327.9404296875 -61.59061050415039 327.1109619140625 -63.72020721435547 327.1109619140625 -66.18580627441406 C 327.1109619140625 -69.2152099609375 328.0572509765625 -71.56961059570312 329.9234619140625 -73.18301391601562 C 331.7386474609375 -74.75260925292969 334.1171875 -75.54840850830078 336.9931640625 -75.54840850830078 C 340.3323974609375 -75.54840850830078 343.03759765625 -74.53660583496094 345.0335693359375 -72.54100799560547 C 346.775146484375 -70.79965209960938 347.9390869140625 -68.50239562988281 348.5013427734375 -65.70160675048828 L 370.1239013671875 -65.70160675048828 C 369.6685791015625 -69.24333953857422 368.7099609375 -72.46479034423828 367.267822265625 -75.29341125488281 C 365.6575927734375 -78.45160675048828 363.3931884765625 -81.2196044921875 360.537841796875 -83.52000427246094 C 357.671630859375 -85.82901000976562 354.2506103515625 -87.58740997314453 350.369873046875 -88.74640655517578 C 346.4508056640625 -89.91661071777344 341.9501953125 -90.510009765625 336.9931640625 -90.510009765625 M 1310.444213867188 -90.510009765625 C 1306.288818359375 -90.510009765625 1302.264038085938 -90.01600646972656 1298.4814453125 -89.04180908203125 C 1294.70458984375 -88.06900787353516 1291.059814453125 -86.58900451660156 1287.648681640625 -84.64300537109375 C 1284.237426757812 -82.69720458984375 1281.140014648438 -80.34300994873047 1278.442626953125 -77.64601135253906 C 1275.744018554688 -74.94780731201172 1273.366821289062 -71.82780456542969 1271.377197265625 -68.37281036376953 C 1269.3896484375 -64.92100524902344 1267.877807617188 -61.19220733642578 1266.883544921875 -57.28981018066406 C 1265.88720703125 -53.37820816040039 1265.382080078125 -49.17860794067383 1265.382080078125 -44.80780792236328 C 1265.382080078125 -40.43680572509766 1265.887451171875 -36.23160552978516 1266.8837890625 -32.30880737304688 C 1267.878173828125 -28.39501190185547 1269.390380859375 -24.64920806884766 1271.378662109375 -21.17560577392578 C 1273.368408203125 -17.69921112060547 1275.74560546875 -14.56320953369141 1278.444213867188 -11.85460662841797 C 1281.141235351562 -9.147605895996094 1284.238037109375 -6.788612365722656 1287.648681640625 -4.843208312988281 C 1291.059814453125 -2.897010803222656 1294.70458984375 -1.417007446289062 1298.4814453125 -0.4442062377929688 C 1302.264038085938 0.5299911499023438 1306.288818359375 1.023994445800781 1310.444213867188 1.023994445800781 C 1314.599853515625 1.023994445800781 1318.624633789062 0.5299911499023438 1322.406982421875 -0.4442062377929688 C 1326.183837890625 -1.417007446289062 1329.828369140625 -2.897010803222656 1333.23974609375 -4.843208312988281 C 1336.650390625 -6.788612365722656 1339.747192382812 -9.147605895996094 1342.444213867188 -11.85460662841797 C 1345.142822265625 -14.56320953369141 1347.52001953125 -17.69921112060547 1349.509765625 -21.17560577392578 C 1351.498046875 -24.64900970458984 1353.01025390625 -28.39480590820312 1354.004638671875 -32.30880737304688 C 1355.001220703125 -36.23140716552734 1355.50634765625 -40.43680572509766 1355.50634765625 -44.80780792236328 C 1355.50634765625 -49.17960739135742 1355.00634765625 -53.38020706176758 1354.020263671875 -57.29280853271484 C 1353.036376953125 -61.19600677490234 1351.540283203125 -64.92540740966797 1349.573486328125 -68.37760925292969 C 1347.60546875 -71.83140563964844 1345.244873046875 -74.95040893554688 1342.5576171875 -77.64760589599609 C 1339.871215820312 -80.34381103515625 1336.780029296875 -82.69760894775391 1333.369384765625 -84.64300537109375 C 1329.958618164062 -86.58880615234375 1326.303466796875 -88.06861114501953 1322.505859375 -89.04141235351562 C 1318.701416015625 -90.01580810546875 1314.643188476562 -90.510009765625 1310.444213867188 -90.510009765625 M 1310.444213867188 -17.30620574951172 C 1306.675170898438 -17.30620574951172 1303.235229492188 -17.93601226806641 1300.219604492188 -19.17820739746094 C 1297.182373046875 -20.42940521240234 1294.501831054688 -22.330810546875 1292.252685546875 -24.82960510253906 C 1290.013671875 -27.31681060791016 1288.312255859375 -30.27060699462891 1287.195556640625 -33.60861206054688 C 1286.090454101562 -36.91240692138672 1285.530029296875 -40.68041229248047 1285.530029296875 -44.80780792236328 C 1285.530029296875 -48.97780990600586 1286.090209960938 -52.77260971069336 1287.195190429688 -56.08700942993164 C 1288.312377929688 -59.43800735473633 1290.015258789062 -62.38780975341797 1292.256225585938 -64.85481262207031 C 1294.505859375 -67.33120727539062 1297.186279296875 -69.21540832519531 1300.22314453125 -70.45500946044922 C 1303.237548828125 -71.68560791015625 1306.676635742188 -72.30941009521484 1310.444213867188 -72.30941009521484 C 1314.213256835938 -72.30941009521484 1317.653198242188 -71.67961120605469 1320.668579101562 -70.43740844726562 C 1323.705810546875 -69.18640899658203 1326.386474609375 -67.28500366210938 1328.635620117188 -64.78620910644531 C 1330.874633789062 -62.29880905151367 1332.576171875 -59.34520721435547 1333.69287109375 -56.00720977783203 C 1334.797973632812 -52.70320892333984 1335.3583984375 -48.93520736694336 1335.3583984375 -44.80780792236328 C 1335.3583984375 -40.67920684814453 1334.792236328125 -36.91001129150391 1333.675659179688 -33.60501098632812 C 1332.54736328125 -30.26641082763672 1330.82861328125 -27.31240844726562 1328.567016601562 -24.82521057128906 C 1326.29736328125 -22.32881164550781 1323.61328125 -20.42920684814453 1320.58935546875 -19.17881011962891 C 1317.584228515625 -17.93621063232422 1314.170776367188 -17.30620574951172 1310.444213867188 -17.30620574951172 M 1474.629760742188 -90.510009765625 C 1470.474365234375 -90.510009765625 1466.449584960938 -90.01600646972656 1462.6669921875 -89.04180908203125 C 1458.890258789062 -88.06900787353516 1455.245361328125 -86.58900451660156 1451.834228515625 -84.64300537109375 C 1448.422973632812 -82.69720458984375 1445.325561523438 -80.34300994873047 1442.628173828125 -77.64601135253906 C 1439.929565429688 -74.94780731201172 1437.552368164062 -71.82780456542969 1435.562866210938 -68.37281036376953 C 1433.5751953125 -64.92120361328125 1432.0634765625 -61.19240951538086 1431.069213867188 -57.28981018066406 C 1430.07275390625 -53.37820816040039 1429.567626953125 -49.17860794067383 1429.567626953125 -44.80780792236328 C 1429.567626953125 -40.43660736083984 1430.07275390625 -36.23140716552734 1431.069458007812 -32.30880737304688 C 1432.063842773438 -28.39480590820312 1433.576171875 -24.64900970458984 1435.564453125 -21.17540740966797 C 1437.55419921875 -17.69921112060547 1439.93115234375 -14.56320953369141 1442.629760742188 -11.85460662841797 C 1445.326782226562 -9.147605895996094 1448.423583984375 -6.788612365722656 1451.834228515625 -4.843208312988281 C 1455.245361328125 -2.897010803222656 1458.890258789062 -1.417007446289062 1462.6669921875 -0.4442062377929688 C 1466.449584960938 0.5299911499023438 1470.474365234375 1.023994445800781 1474.629760742188 1.023994445800781 C 1478.785400390625 1.023994445800781 1482.810180664062 0.5299911499023438 1486.592651367188 -0.4442062377929688 C 1490.36962890625 -1.417007446289062 1494.014404296875 -2.897010803222656 1497.425659179688 -4.843208312988281 C 1500.836059570312 -6.788612365722656 1503.932861328125 -9.147605895996094 1506.629760742188 -11.85460662841797 C 1509.328369140625 -14.56320953369141 1511.70556640625 -17.69921112060547 1513.695434570312 -21.17560577392578 C 1515.68359375 -24.64920806884766 1517.19580078125 -28.39501190185547 1518.190185546875 -32.30880737304688 C 1519.186645507812 -36.23160552978516 1519.692016601562 -40.43680572509766 1519.692016601562 -44.80780792236328 C 1519.692016601562 -49.17960739135742 1519.192016601562 -53.38020706176758 1518.205810546875 -57.29280853271484 C 1517.222045898438 -61.19600677490234 1515.725830078125 -64.92540740966797 1513.7587890625 -68.37760925292969 C 1511.790771484375 -71.83140563964844 1509.430419921875 -74.95040893554688 1506.7431640625 -77.64760589599609 C 1504.057006835938 -80.34381103515625 1500.965576171875 -82.69741058349609 1497.55517578125 -84.64300537109375 C 1494.144165039062 -86.58880615234375 1490.4892578125 -88.06861114501953 1486.69140625 -89.04141235351562 C 1482.886962890625 -90.01580810546875 1478.828857421875 -90.510009765625 1474.629760742188 -90.510009765625 M 1474.629760742188 -17.30620574951172 C 1470.86083984375 -17.30620574951172 1467.420776367188 -17.93601226806641 1464.4052734375 -19.17820739746094 C 1461.3681640625 -20.42920684814453 1458.687622070312 -22.33061218261719 1456.4384765625 -24.82960510253906 C 1454.199462890625 -27.31681060791016 1452.497802734375 -30.27040863037109 1451.381225585938 -33.60861206054688 C 1450.276000976562 -36.91240692138672 1449.715576171875 -40.68041229248047 1449.715576171875 -44.80780792236328 C 1449.715576171875 -48.97780990600586 1450.27587890625 -52.77260971069336 1451.380859375 -56.08700942993164 C 1452.498046875 -59.43800735473633 1454.200805664062 -62.38800811767578 1456.442016601562 -64.85481262207031 C 1458.691650390625 -67.33120727539062 1461.3720703125 -69.21540832519531 1464.408813476562 -70.45500946044922 C 1467.423217773438 -71.68560791015625 1470.862182617188 -72.30941009521484 1474.629760742188 -72.30941009521484 C 1478.398803710938 -72.30941009521484 1481.8388671875 -71.67961120605469 1484.854370117188 -70.43740844726562 C 1487.8916015625 -69.18640899658203 1490.572265625 -67.28500366210938 1492.821655273438 -64.78620910644531 C 1495.060424804688 -62.29880905151367 1496.761840820312 -59.34500885009766 1497.87841796875 -56.00720977783203 C 1498.983642578125 -52.70320892333984 1499.544067382812 -48.93520736694336 1499.544067382812 -44.80780792236328 C 1499.544067382812 -40.67920684814453 1498.977783203125 -36.91001129150391 1497.861206054688 -33.60501098632812 C 1496.733032226562 -30.26641082763672 1495.01416015625 -27.31240844726562 1492.752563476562 -24.82521057128906 C 1490.483032226562 -22.32881164550781 1487.798828125 -20.42920684814453 1484.774780273438 -19.17881011962891 C 1481.769653320312 -17.93621063232422 1478.3564453125 -17.30620574951172 1474.629760742188 -17.30620574951172 M 1086.64892578125 -89.99180603027344 C 1082.319213867188 -89.99180603027344 1078.199462890625 -89.50820922851562 1074.404052734375 -88.55420684814453 C 1070.62255859375 -87.60380554199219 1067.054443359375 -86.15901184082031 1063.798583984375 -84.260009765625 C 1060.5439453125 -82.36180877685547 1057.620239257812 -80.05220794677734 1055.1083984375 -77.39480590820312 C 1052.5947265625 -74.73580932617188 1050.420043945312 -71.65060424804688 1048.644287109375 -68.22500610351562 C 1046.86376953125 -64.79060363769531 1045.509399414062 -61.06180953979492 1044.618408203125 -57.14200973510742 C 1043.724609375 -53.20980834960938 1043.271484375 -48.97280883789062 1043.271484375 -44.54860687255859 C 1043.271484375 -40.12440490722656 1043.724609375 -35.88740539550781 1044.618408203125 -31.95540618896484 C 1045.509399414062 -28.03560638427734 1046.86376953125 -24.30680847167969 1048.644287109375 -20.87240600585938 C 1050.420043945312 -17.44680786132812 1052.5947265625 -14.36161041259766 1055.1083984375 -11.70260620117188 C 1057.620239257812 -9.045211791992188 1060.5439453125 -6.735610961914062 1063.798583984375 -4.837409973144531 C 1067.054443359375 -2.938407897949219 1070.62255859375 -1.493606567382812 1074.404052734375 -0.5432052612304688 C 1078.199462890625 0.4107894897460938 1082.319213867188 0.8943939208984375 1086.64892578125 0.8943939208984375 C 1092.328857421875 0.8943939208984375 1097.5849609375 0.1343917846679688 1102.271240234375 -1.364608764648438 C 1106.933837890625 -2.856010437011719 1111.16845703125 -5.123008728027344 1114.857666015625 -8.102806091308594 C 1118.55224609375 -11.08740997314453 1121.636596679688 -14.62580871582031 1124.025146484375 -18.62001037597656 C 1126.186645507812 -22.23451995849609 1127.836791992188 -26.319580078125 1128.939208984375 -30.781005859375 L 1107.780395507812 -30.781005859375 C 1105.962890625 -26.77511596679688 1103.245971679688 -23.53435516357422 1099.695434570312 -21.13920593261719 C 1095.925048828125 -18.59580993652344 1091.40478515625 -17.30620574951172 1086.26025390625 -17.30620574951172 C 1079.441162109375 -17.30620574951172 1073.857177734375 -19.82540893554688 1069.663208007812 -24.79360961914062 C 1067.582275390625 -27.25860595703125 1066.00146484375 -30.18241119384766 1064.964599609375 -33.48381042480469 C 1063.939453125 -36.74900817871094 1063.41943359375 -40.47180938720703 1063.41943359375 -44.54860687255859 C 1063.41943359375 -48.62500762939453 1063.939208984375 -52.35300827026367 1064.96435546875 -55.62860870361328 C 1066.000610351562 -58.93940734863281 1067.580322265625 -61.87880706787109 1069.659790039062 -64.36460876464844 C 1073.853759765625 -69.37841033935547 1079.43896484375 -71.92060852050781 1086.26025390625 -71.92060852050781 C 1091.405029296875 -71.92060852050781 1095.925415039062 -70.63101196289062 1099.695434570312 -68.08760833740234 C 1103.250366210938 -65.68974304199219 1105.969360351562 -62.40542221069336 1107.786865234375 -58.31641006469727 L 1128.942138671875 -58.31641006469727 C 1127.839599609375 -62.81925964355469 1126.188354492188 -66.93157958984375 1124.0244140625 -70.55941009521484 C 1121.636840820312 -74.56260681152344 1118.553588867188 -78.09440612792969 1114.86083984375 -81.05680847167969 C 1111.171630859375 -84.01580810546875 1106.936645507812 -86.2672119140625 1102.2734375 -87.7484130859375 C 1097.586669921875 -89.23700714111328 1092.329833984375 -89.99180603027344 1086.64892578125 -89.99180603027344 M 1210.662841796875 -89.99180603027344 C 1206.3330078125 -89.99180603027344 1202.213256835938 -89.50820922851562 1198.417846679688 -88.55420684814453 C 1194.636474609375 -87.60380554199219 1191.068237304688 -86.15901184082031 1187.812377929688 -84.260009765625 C 1184.557861328125 -82.36180877685547 1181.634033203125 -80.05200958251953 1179.122192382812 -77.39480590820312 C 1176.608642578125 -74.73580932617188 1174.433837890625 -71.65060424804688 1172.657958984375 -68.22500610351562 C 1170.877807617188 -64.79060363769531 1169.5234375 -61.06180953979492 1168.632446289062 -57.14200973510742 C 1167.738647460938 -53.20980834960938 1167.285400390625 -48.97280883789062 1167.285400390625 -44.54860687255859 C 1167.285400390625 -40.12440490722656 1167.738647460938 -35.88761138916016 1168.632446289062 -31.95540618896484 C 1169.5234375 -28.03560638427734 1170.877807617188 -24.30680847167969 1172.657958984375 -20.87240600585938 C 1174.433837890625 -17.44680786132812 1176.608642578125 -14.36161041259766 1179.122192382812 -11.70260620117188 C 1181.634033203125 -9.04541015625 1184.557861328125 -6.735610961914062 1187.812377929688 -4.837409973144531 C 1191.068237304688 -2.938407897949219 1194.636474609375 -1.493606567382812 1198.417846679688 -0.5432052612304688 C 1202.213256835938 0.4107894897460938 1206.3330078125 0.8943939208984375 1210.662841796875 0.8943939208984375 C 1216.342651367188 0.8943939208984375 1221.598876953125 0.1343917846679688 1226.285034179688 -1.364608764648438 C 1230.947631835938 -2.856010437011719 1235.182250976562 -5.123008728027344 1238.871337890625 -8.102806091308594 C 1242.566040039062 -11.08721160888672 1245.650390625 -14.62580871582031 1248.0390625 -18.62001037597656 C 1250.20068359375 -22.23451995849609 1251.8505859375 -26.319580078125 1252.953125 -30.781005859375 L 1231.794189453125 -30.781005859375 C 1229.977172851562 -26.77559661865234 1227.260375976562 -23.53473663330078 1223.70947265625 -21.13920593261719 C 1219.938842773438 -18.59580993652344 1215.41845703125 -17.30620574951172 1210.274047851562 -17.30620574951172 C 1203.455200195312 -17.30620574951172 1197.871215820312 -19.82540893554688 1193.67724609375 -24.79360961914062 C 1191.59619140625 -27.25860595703125 1190.015380859375 -30.18241119384766 1188.978637695312 -33.48381042480469 C 1187.953247070312 -36.74900817871094 1187.433227539062 -40.47180938720703 1187.433227539062 -44.54860687255859 C 1187.433227539062 -48.62500762939453 1187.953002929688 -52.35280990600586 1188.978271484375 -55.62860870361328 C 1190.014404296875 -58.93940734863281 1191.59423828125 -61.87860870361328 1193.673828125 -64.36460876464844 C 1197.867797851562 -69.37841033935547 1203.453002929688 -71.92060852050781 1210.274047851562 -71.92060852050781 C 1215.418823242188 -71.92060852050781 1219.93896484375 -70.63101196289062 1223.70947265625 -68.08760833740234 C 1227.2646484375 -65.68952178955078 1229.983642578125 -62.40488433837891 1231.800659179688 -58.31641006469727 L 1252.9560546875 -58.31641006469727 C 1251.853393554688 -62.81937408447266 1250.2021484375 -66.93157958984375 1248.038452148438 -70.55941009521484 C 1245.650634765625 -74.56280517578125 1242.5673828125 -78.0946044921875 1238.874633789062 -81.05680847167969 C 1235.185424804688 -84.01580810546875 1230.950439453125 -86.2672119140625 1226.287231445312 -87.7484130859375 C 1221.600341796875 -89.23700714111328 1216.343627929688 -89.99180603027344 1210.662841796875 -89.99180603027344 M 111.028564453125 -89.08480834960938 L 111.028564453125 0.1169891357421875 L 130.7879638671875 0.1169891357421875 L 130.7879638671875 -58.91500854492188 L 169.6959228515625 0.1169891357421875 L 190.0087890625 0.1169891357421875 L 190.0087890625 -89.08480834960938 L 170.2496337890625 -89.08480834960938 L 170.2496337890625 -29.50380706787109 L 131.33837890625 -89.08480834960938 L 111.028564453125 -89.08480834960938 M 207.7000732421875 -89.08480834960938 L 207.7000732421875 0.1169891357421875 L 262.3179931640625 0.1169891357421875 L 262.3179931640625 -15.23320770263672 L 227.459228515625 -15.23320770263672 L 227.459228515625 -37.97480773925781 L 258.430419921875 -37.97480773925781 L 258.430419921875 -52.28860855102539 L 227.459228515625 -52.28860855102539 L 227.459228515625 -73.86421203613281 L 262.3179931640625 -73.86421203613281 L 262.3179931640625 -89.08480834960938 L 207.7000732421875 -89.08480834960938 M 506.6552734375 -89.08480834960938 L 506.6552734375 -37.422607421875 C 506.6552734375 -33.210205078125 507.0491943359375 -29.27520751953125 507.826171875 -25.72700500488281 C 508.5977783203125 -22.20301055908203 509.76904296875 -18.96180725097656 511.3076171875 -16.09340667724609 C 512.8436279296875 -13.22920989990234 514.69287109375 -10.69620513916016 516.80419921875 -8.564605712890625 C 518.9097900390625 -6.438606262207031 521.3388671875 -4.648811340332031 524.0238037109375 -3.244606018066406 C 526.7265625 -1.831008911132812 529.6806640625 -0.7554092407226562 532.803955078125 -0.047607421875 C 535.941650390625 0.66339111328125 539.3402099609375 1.023994445800781 542.9056396484375 1.023994445800781 C 546.47119140625 1.023994445800781 549.897216796875 0.657989501953125 553.0888671875 -0.0640106201171875 C 556.2694091796875 -0.7834091186523438 559.3084716796875 -1.877006530761719 562.1214599609375 -3.314605712890625 C 564.9176025390625 -4.743606567382812 567.4530029296875 -6.548606872558594 569.656982421875 -8.680007934570312 C 571.8643798828125 -10.81440734863281 573.80517578125 -13.33940887451172 575.4256591796875 -16.18480682373047 C 577.0447998046875 -19.02820587158203 578.277587890625 -22.24880981445312 579.089599609375 -25.75720977783203 C 579.9075927734375 -29.29020690917969 580.322265625 -33.21501159667969 580.322265625 -37.422607421875 L 580.322265625 -89.08480834960938 L 560.56298828125 -89.08480834960938 L 560.56298828125 -37.422607421875 C 560.56298828125 -34.29880523681641 560.2032470703125 -31.49301147460938 559.49365234375 -29.08320617675781 C 558.7685546875 -26.62100982666016 557.6588134765625 -24.5006103515625 556.194580078125 -22.78121185302734 C 553.24755859375 -19.32020568847656 548.9510498046875 -17.56540679931641 543.424072265625 -17.56540679931641 C 537.8968505859375 -17.56540679931641 533.6002197265625 -19.32020568847656 530.6531982421875 -22.78121185302734 C 529.18896484375 -24.5006103515625 528.0792236328125 -26.62100982666016 527.354248046875 -29.08320617675781 C 526.6446533203125 -31.49301147460938 526.2847900390625 -34.29880523681641 526.2847900390625 -37.422607421875 L 526.2847900390625 -89.08480834960938 L 506.6552734375 -89.08480834960938 M 591.5342407226562 -89.08480834960938 L 591.5342407226562 -73.86421203613281 L 616.1553955078125 -73.86421203613281 L 616.1553955078125 0.1169891357421875 L 636.04443359375 0.1169891357421875 L 636.04443359375 -73.86421203613281 L 660.9248046875 -73.86421203613281 L 660.9248046875 -89.08480834960938 L 591.5342407226562 -89.08480834960938 M 672.655029296875 -89.08480834960938 L 672.655029296875 0.1169891357421875 L 692.4141845703125 0.1169891357421875 L 692.4141845703125 -38.10440826416016 L 729.5433959960938 -38.10440826416016 L 729.5433959960938 0.1169891357421875 L 749.4321899414062 0.1169891357421875 L 749.4321899414062 -89.08480834960938 L 729.5433959960938 -89.08480834960938 L 729.5433959960938 -53.58420944213867 L 692.4141845703125 -53.58420944213867 L 692.4141845703125 -89.08480834960938 L 672.655029296875 -89.08480834960938 M 767.1234130859375 -89.08480834960938 L 767.1234130859375 0.1169891357421875 L 821.7412109375 0.1169891357421875 L 821.7412109375 -15.23320770263672 L 786.8826293945312 -15.23320770263672 L 786.8826293945312 -37.97480773925781 L 817.8536376953125 -37.97480773925781 L 817.8536376953125 -52.28860855102539 L 786.8826293945312 -52.28860855102539 L 786.8826293945312 -73.86421203613281 L 821.7412109375 -73.86421203613281 L 821.7412109375 -89.08480834960938 L 767.1234130859375 -89.08480834960938 M 836.7112426757812 -89.08480834960938 L 836.7112426757812 0.1169891357421875 L 856.4703979492188 0.1169891357421875 L 856.4703979492188 -58.91500854492188 L 895.3783569335938 0.1169891357421875 L 915.6912231445312 0.1169891357421875 L 915.6912231445312 -89.08480834960938 L 895.9320068359375 -89.08480834960938 L 895.9320068359375 -29.50380706787109 L 857.020751953125 -89.08480834960938 L 836.7112426757812 -89.08480834960938 M 927.42138671875 -89.08480834960938 L 927.42138671875 -73.86421203613281 L 952.0427856445312 -73.86421203613281 L 952.0427856445312 0.1169891357421875 L 971.931640625 0.1169891357421875 L 971.931640625 -73.86421203613281 L 996.8121948242188 -73.86421203613281 L 996.8121948242188 -89.08480834960938 L 927.42138671875 -89.08480834960938 M 1008.542419433594 -89.08480834960938 L 1008.542419433594 0.1169891357421875 L 1028.301635742188 0.1169891357421875 L 1028.301635742188 -89.08480834960938 L 1008.542419433594 -89.08480834960938 M 1370.346801757812 -89.08480834960938 L 1370.346801757812 0.1169891357421875 L 1419.651611328125 0.1169891357421875 L 1419.651611328125 -14.455810546875 L 1390.10595703125 -14.455810546875 L 1390.10595703125 -89.08480834960938 L 1370.346801757812 -89.08480834960938 M 1534.532470703125 -89.08480834960938 L 1534.532470703125 0.1169891357421875 L 1554.291625976562 0.1169891357421875 L 1554.291625976562 -34.47660827636719 L 1561.240844726562 -34.47660827636719 L 1561.586669921875 -33.87340545654297 L 1581.067749023438 0.1169891357421875 L 1602.736450195312 0.1169891357421875 L 1581.223266601562 -35.47621154785156 L 1582.805786132812 -35.86680603027344 C 1586.17236328125 -36.69800567626953 1589.173583984375 -37.89480590820312 1591.72607421875 -39.42380523681641 C 1594.255249023438 -40.93901062011719 1596.41796875 -42.82580947875977 1598.154418945312 -45.03180694580078 C 1599.893798828125 -47.24140930175781 1601.216796875 -49.72080993652344 1602.086669921875 -52.40140914916992 C 1602.961181640625 -55.09700775146484 1603.40478515625 -58.07840728759766 1603.40478515625 -61.26240921020508 C 1603.40478515625 -63.9580078125 1603.100830078125 -66.53520965576172 1602.50146484375 -68.92221069335938 C 1601.905029296875 -71.29780578613281 1600.998168945312 -73.55441284179688 1599.80615234375 -75.62960815429688 C 1598.621215820312 -77.69281005859375 1597.118408203125 -79.56280517578125 1595.33984375 -81.18780517578125 C 1593.551391601562 -82.82180786132812 1591.4306640625 -84.25701141357422 1589.036254882812 -85.45401000976562 C 1584.217041015625 -87.86320495605469 1578.206665039062 -89.08480834960938 1571.171630859375 -89.08480834960938 L 1534.532470703125 -89.08480834960938 M 1569.227783203125 -47.2356071472168 L 1554.291625976562 -47.2356071472168 L 1554.291625976562 -72.82760620117188 L 1569.227783203125 -72.82760620117188 C 1573.85205078125 -72.82760620117188 1577.3828125 -71.66600799560547 1579.721557617188 -69.37521362304688 C 1582.0673828125 -67.07760620117188 1583.2568359375 -63.91220855712891 1583.2568359375 -59.9668083190918 C 1583.2568359375 -55.83880996704102 1582.082763671875 -52.64540863037109 1579.767456054688 -50.4752082824707 C 1578.598999023438 -49.38020706176758 1577.098266601562 -48.55241012573242 1575.306762695312 -48.01500701904297 C 1573.582641601562 -47.49781036376953 1571.537353515625 -47.2356071472168 1569.227783203125 -47.2356071472168 M 439.1658935546875 -88.43701171875 L 406.48876953125 0.1169891357421875 L 427.233642578125 0.1169891357421875 L 432.9356689453125 -16.59680938720703 L 468.9930419921875 -16.59680938720703 L 474.69482421875 0.1169891357421875 L 495.698974609375 0.1169891357421875 L 463.02197265625 -88.43701171875 L 439.1658935546875 -88.43701171875 M 464.1058349609375 -31.04000854492188 L 437.816650390625 -31.04000854492188 L 451.035400390625 -69.65040588378906 L 464.1058349609375 -31.04000854492188 M 274.4031982421875 -107.776008605957 L 291.3787841796875 -107.776008605957 C 293.0203857421875 -102.8526077270508 293.841064453125 -97.75640869140625 293.841064453125 -92.48741149902344 C 293.841064453125 -86.52740478515625 292.3076171875 -81.75521087646484 289.2406005859375 -78.17060852050781 C 286.174072265625 -74.58600616455078 281.7030029296875 -72.79360961914062 275.82861328125 -72.79360961914062 L 275.82861328125 -81.08580780029297 C 280.32080078125 -81.08580780029297 282.5670166015625 -83.97940826416016 282.5670166015625 -89.76660919189453 L 282.5670166015625 -91.83960723876953 L 274.4031982421875 -91.83960723876953 L 274.4031982421875 -107.776008605957 Z M 51.126220703125 -91.71000671386719 C 59.765380859375 -91.71000671386719 67.60546875 -89.70181274414062 74.64599609375 -85.68540954589844 C 81.68701171875 -81.66880798339844 87.2376708984375 -76.09761047363281 91.2979736328125 -68.97160339355469 C 95.358154296875 -61.84540939331055 97.388671875 -53.79100799560547 97.388671875 -44.80780792236328 C 97.388671875 -35.82460784912109 95.336669921875 -27.74861145019531 91.233154296875 -20.57940673828125 C 87.129638671875 -13.41001129150391 81.557373046875 -7.817207336425781 74.5166015625 -3.800811767578125 C 67.4755859375 0.215789794921875 59.678955078125 2.223991394042969 51.126220703125 2.223991394042969 C 42.5736083984375 2.223991394042969 34.77685546875 0.215789794921875 27.7359619140625 -3.800811767578125 C 20.695068359375 -7.817207336425781 15.122802734375 -13.41001129150391 11.0191650390625 -20.57940673828125 C 6.915771484375 -27.74861145019531 4.864013671875 -35.82460784912109 4.864013671875 -44.80780792236328 C 4.864013671875 -53.79100799560547 6.915771484375 -61.84540939331055 11.0191650390625 -68.97160339355469 C 15.122802734375 -76.09761047363281 20.695068359375 -81.66880798339844 27.7359619140625 -85.68540954589844 C 34.77685546875 -89.70181274414062 42.5736083984375 -91.71000671386719 51.126220703125 -91.71000671386719 Z M 51.126220703125 -18.50621032714844 C 58.296630859375 -18.50621032714844 64.0416259765625 -20.88160705566406 68.3612060546875 -25.63240814208984 C 72.6807861328125 -30.38301086425781 74.8404541015625 -36.77481079101562 74.840576171875 -44.80780792236328 C 74.840576171875 -52.8408088684082 72.702392578125 -59.23260879516602 68.426025390625 -63.9834098815918 C 64.149658203125 -68.7340087890625 58.383056640625 -71.10940551757812 51.126220703125 -71.10940551757812 C 43.869384765625 -71.10940551757812 38.102783203125 -68.75560760498047 33.826416015625 -64.04800415039062 C 29.5501708984375 -59.34061050415039 27.4119873046875 -52.92720794677734 27.4119873046875 -44.80780792236328 C 27.4119873046875 -36.77481079101562 29.5501708984375 -30.38301086425781 33.826416015625 -25.63240814208984 C 38.102783203125 -20.88160705566406 43.869384765625 -18.50621032714844 51.126220703125 -18.50621032714844 Z M 336.9931640625 -91.71000671386719 C 347.1873779296875 -91.71000671386719 355.286376953125 -89.29161071777344 361.2906494140625 -84.45440673828125 C 367.2947998046875 -79.61740875244141 370.6856689453125 -72.96640777587891 371.4630126953125 -64.50160980224609 L 347.4898681640625 -64.50160980224609 C 347.057861328125 -67.52481079101562 345.9561767578125 -69.92160797119141 344.1851806640625 -71.69241333007812 C 342.4141845703125 -73.4630126953125 340.0169677734375 -74.34840393066406 336.9931640625 -74.34840393066406 C 334.401611328125 -74.34840393066406 332.306640625 -73.65740966796875 330.7083740234375 -72.27540588378906 C 329.1099853515625 -70.89340972900391 328.31103515625 -68.86360931396484 328.31103515625 -66.18580627441406 C 328.31103515625 -64.02641296386719 329.0235595703125 -62.19100952148438 330.44921875 -60.67940902709961 C 331.8746337890625 -59.16780853271484 333.667236328125 -57.93700790405273 335.8270263671875 -56.98680877685547 C 337.98681640625 -56.0366096496582 341.0968017578125 -54.82740783691406 345.1572265625 -53.3590087890625 C 351.0316162109375 -51.37240982055664 355.826416015625 -49.40740966796875 359.541259765625 -47.46380996704102 C 363.2559814453125 -45.52040863037109 366.452392578125 -42.69160842895508 369.130615234375 -38.97740936279297 C 371.80859375 -35.26320648193359 373.1478271484375 -30.42620849609375 373.1478271484375 -24.46620941162109 C 373.1478271484375 -19.62921142578125 371.9168701171875 -15.18080902099609 369.45458984375 -11.12120819091797 C 366.992431640625 -7.061408996582031 363.364013671875 -3.822410583496094 358.5692138671875 -1.40380859375 C 353.774658203125 1.014793395996094 347.96484375 2.223991394042969 341.1400146484375 2.223991394042969 C 330.859375 2.223991394042969 322.3931884765625 -0.281005859375 315.7412109375 -5.290809631347656 C 309.0889892578125 -10.30060577392578 305.4605712890625 -17.29701232910156 304.85595703125 -26.28021240234375 L 328.440673828125 -26.28021240234375 C 328.7860107421875 -22.82501220703125 330.0172119140625 -20.10420989990234 332.1337890625 -18.11760711669922 C 334.2503662109375 -16.13101196289062 336.9500732421875 -15.13761138916016 340.2327880859375 -15.13761138916016 C 343.0838623046875 -15.13761138916016 345.3299560546875 -15.91500854492188 346.971435546875 -17.46981048583984 C 348.61279296875 -19.02460479736328 349.43359375 -21.09761047363281 349.43359375 -23.68881225585938 C 349.43359375 -26.02101135253906 348.6776123046875 -27.96440887451172 347.165771484375 -29.51921081542969 C 345.65380859375 -31.07400512695312 343.7747802734375 -32.34800720214844 341.52880859375 -33.34140777587891 C 339.2825927734375 -34.33460998535156 336.17236328125 -35.52240753173828 332.1986083984375 -36.90441131591797 C 326.410400390625 -38.89100646972656 321.6806640625 -40.81301116943359 318.0087890625 -42.67000961303711 C 314.337158203125 -44.52700805664062 311.1839599609375 -47.29121017456055 308.549072265625 -50.96220779418945 C 305.9141845703125 -54.63300704956055 304.5965576171875 -59.4054069519043 304.5965576171875 -65.27900695800781 C 304.5965576171875 -70.72061157226562 305.97900390625 -75.42820739746094 308.743408203125 -79.40141296386719 C 311.508056640625 -83.37480926513672 315.330810546875 -86.41960906982422 320.2117919921875 -88.53581237792969 C 325.0927734375 -90.65200805664062 330.686767578125 -91.71000671386719 336.9931640625 -91.71000671386719 Z M 1310.444213867188 -91.71000671386719 C 1319.083374023438 -91.71000671386719 1326.923217773438 -89.70181274414062 1333.963989257812 -85.68540954589844 C 1341.005004882812 -81.66880798339844 1346.5556640625 -76.09761047363281 1350.615966796875 -68.97160339355469 C 1354.67626953125 -61.84540939331055 1356.706420898438 -53.79100799560547 1356.706420898438 -44.80780792236328 C 1356.706420898438 -35.82460784912109 1354.65478515625 -27.74861145019531 1350.55126953125 -20.57940673828125 C 1346.447631835938 -13.41001129150391 1340.87548828125 -7.817207336425781 1333.83447265625 -3.800811767578125 C 1326.793579101562 0.215789794921875 1318.9970703125 2.223991394042969 1310.444213867188 2.223991394042969 C 1301.8916015625 2.223991394042969 1294.094848632812 0.215789794921875 1287.053955078125 -3.800811767578125 C 1280.012939453125 -7.817207336425781 1274.440795898438 -13.41001129150391 1270.337158203125 -20.57940673828125 C 1266.23388671875 -27.74861145019531 1264.182006835938 -35.82460784912109 1264.182006835938 -44.80780792236328 C 1264.182006835938 -53.79100799560547 1266.23388671875 -61.84540939331055 1270.337158203125 -68.97160339355469 C 1274.440795898438 -76.09761047363281 1280.012939453125 -81.66880798339844 1287.053955078125 -85.68540954589844 C 1294.094848632812 -89.70181274414062 1301.8916015625 -91.71000671386719 1310.444213867188 -91.71000671386719 Z M 1310.444213867188 -18.50621032714844 C 1317.61474609375 -18.50621032714844 1323.359619140625 -20.88160705566406 1327.67919921875 -25.63240814208984 C 1331.998779296875 -30.38301086425781 1334.158447265625 -36.77481079101562 1334.158447265625 -44.80780792236328 C 1334.158447265625 -52.8408088684082 1332.020263671875 -59.23260879516602 1327.743774414062 -63.9834098815918 C 1323.467407226562 -68.7340087890625 1317.701049804688 -71.10940551757812 1310.444213867188 -71.10940551757812 C 1303.187377929688 -71.10940551757812 1297.420776367188 -68.75560760498047 1293.144409179688 -64.04800415039062 C 1288.8681640625 -59.34061050415039 1286.72998046875 -52.92720794677734 1286.72998046875 -44.80780792236328 C 1286.72998046875 -36.77481079101562 1288.8681640625 -30.38301086425781 1293.144409179688 -25.63240814208984 C 1297.420776367188 -20.88160705566406 1303.187377929688 -18.50621032714844 1310.444213867188 -18.50621032714844 Z M 1474.629760742188 -91.71000671386719 C 1483.26904296875 -91.71000671386719 1491.108764648438 -89.70181274414062 1498.149780273438 -85.68540954589844 C 1505.190673828125 -81.66880798339844 1510.7412109375 -76.09761047363281 1514.801391601562 -68.97160339355469 C 1518.86181640625 -61.84540939331055 1520.891967773438 -53.79100799560547 1520.891967773438 -44.80780792236328 C 1520.891967773438 -35.82460784912109 1518.840209960938 -27.74861145019531 1514.73681640625 -20.57940673828125 C 1510.633178710938 -13.41001129150391 1505.06103515625 -7.817207336425781 1498.020263671875 -3.800811767578125 C 1490.979370117188 0.215789794921875 1483.1826171875 2.223991394042969 1474.629760742188 2.223991394042969 C 1466.0771484375 2.223991394042969 1458.280395507812 0.215789794921875 1451.239624023438 -3.800811767578125 C 1444.198608398438 -7.817207336425781 1438.62646484375 -13.41001129150391 1434.52294921875 -20.57940673828125 C 1430.419189453125 -27.74861145019531 1428.36767578125 -35.82460784912109 1428.36767578125 -44.80780792236328 C 1428.36767578125 -53.79100799560547 1430.419189453125 -61.84540939331055 1434.52294921875 -68.97160339355469 C 1438.62646484375 -76.09761047363281 1444.198608398438 -81.66880798339844 1451.239624023438 -85.68540954589844 C 1458.280395507812 -89.70181274414062 1466.0771484375 -91.71000671386719 1474.629760742188 -91.71000671386719 Z M 1474.629760742188 -18.50621032714844 C 1481.800170898438 -18.50621032714844 1487.545166015625 -20.88160705566406 1491.864868164062 -25.63240814208984 C 1496.184448242188 -30.38301086425781 1498.343994140625 -36.77481079101562 1498.343994140625 -44.80780792236328 C 1498.343994140625 -52.8408088684082 1496.205810546875 -59.23260879516602 1491.929565429688 -63.9834098815918 C 1487.653198242188 -68.7340087890625 1481.886596679688 -71.10940551757812 1474.629760742188 -71.10940551757812 C 1467.373046875 -71.10940551757812 1461.606567382812 -68.75560760498047 1457.330200195312 -64.04800415039062 C 1453.053833007812 -59.34061050415039 1450.915649414062 -52.92720794677734 1450.915649414062 -44.80780792236328 C 1450.915649414062 -36.77481079101562 1453.053833007812 -30.38301086425781 1457.330200195312 -25.63240814208984 C 1461.606567382812 -20.88160705566406 1467.373046875 -18.50621032714844 1474.629760742188 -18.50621032714844 Z M 1086.64892578125 -91.19181060791016 C 1098.311767578125 -91.19181060791016 1107.966064453125 -88.12541198730469 1115.611572265625 -81.99281311035156 C 1123.257080078125 -75.86000823974609 1128.203002929688 -67.56800842285156 1130.448974609375 -57.11640930175781 L 1106.994018554688 -57.11640930175781 C 1105.265991210938 -61.34880828857422 1102.60986328125 -64.67440795898438 1099.0244140625 -67.09280395507812 C 1095.439208984375 -69.51141357421875 1091.184326171875 -70.72061157226562 1086.26025390625 -70.72061157226562 C 1079.78076171875 -70.72061157226562 1074.55419921875 -68.34541320800781 1070.580200195312 -63.59460830688477 C 1066.606201171875 -58.84400939941406 1064.619384765625 -52.49520874023438 1064.619384765625 -44.54860687255859 C 1064.619384765625 -36.60200500488281 1066.606201171875 -30.27500915527344 1070.580200195312 -25.56761169433594 C 1074.55419921875 -20.86000823974609 1079.78076171875 -18.50621032714844 1086.26025390625 -18.50621032714844 C 1091.184326171875 -18.50621032714844 1095.439208984375 -19.71560668945312 1099.0244140625 -22.13401031494141 C 1102.60986328125 -24.5526123046875 1105.265991210938 -27.83480834960938 1106.994018554688 -31.98101043701172 L 1130.448974609375 -31.98101043701172 C 1128.203002929688 -21.61580657958984 1123.257080078125 -13.34520721435547 1115.611572265625 -7.169410705566406 C 1107.966064453125 -0.9936065673828125 1098.311767578125 2.094390869140625 1086.64892578125 2.094390869140625 C 1077.750732421875 2.094390869140625 1069.932373046875 0.12939453125 1063.194091796875 -3.800811767578125 C 1056.455322265625 -7.730812072753906 1051.25048828125 -13.23741149902344 1047.578857421875 -20.32020568847656 C 1043.9072265625 -27.40300750732422 1042.071411132812 -35.47920989990234 1042.071411132812 -44.54860687255859 C 1042.071411132812 -53.61820983886719 1043.9072265625 -61.69440841674805 1047.578857421875 -68.77720642089844 C 1051.25048828125 -75.86000823974609 1056.455322265625 -81.36660766601562 1063.194091796875 -85.29660797119141 C 1069.932373046875 -89.226806640625 1077.750732421875 -91.19181060791016 1086.64892578125 -91.19181060791016 Z M 1210.662841796875 -91.19181060791016 C 1222.32568359375 -91.19181060791016 1231.979858398438 -88.12541198730469 1239.62548828125 -81.99281311035156 C 1247.27099609375 -75.86000823974609 1252.216796875 -67.56800842285156 1254.463012695312 -57.11640930175781 L 1231.0078125 -57.11640930175781 C 1229.2802734375 -61.34880828857422 1226.623657226562 -64.67440795898438 1223.038452148438 -67.09280395507812 C 1219.453002929688 -69.51141357421875 1215.198486328125 -70.72061157226562 1210.274047851562 -70.72061157226562 C 1203.794799804688 -70.72061157226562 1198.568237304688 -68.34541320800781 1194.59423828125 -63.59460830688477 C 1190.620239257812 -58.84400939941406 1188.633178710938 -52.49520874023438 1188.633178710938 -44.54860687255859 C 1188.633178710938 -36.60200500488281 1190.620239257812 -30.27500915527344 1194.59423828125 -25.56761169433594 C 1198.568237304688 -20.86000823974609 1203.794799804688 -18.50621032714844 1210.274047851562 -18.50621032714844 C 1215.198486328125 -18.50621032714844 1219.453002929688 -19.71560668945312 1223.038452148438 -22.13401031494141 C 1226.623657226562 -24.5526123046875 1229.2802734375 -27.83480834960938 1231.0078125 -31.98101043701172 L 1254.463012695312 -31.98101043701172 C 1252.216796875 -21.61580657958984 1247.27099609375 -13.34520721435547 1239.62548828125 -7.169410705566406 C 1231.979858398438 -0.9936065673828125 1222.32568359375 2.094390869140625 1210.662841796875 2.094390869140625 C 1201.7646484375 2.094390869140625 1193.9462890625 0.12939453125 1187.207763671875 -3.800811767578125 C 1180.469482421875 -7.730812072753906 1175.26416015625 -13.23741149902344 1171.592651367188 -20.32020568847656 C 1167.921142578125 -27.40300750732422 1166.08544921875 -35.47920989990234 1166.08544921875 -44.54860687255859 C 1166.08544921875 -53.61820983886719 1167.921142578125 -61.69440841674805 1171.592651367188 -68.77720642089844 C 1175.26416015625 -75.86000823974609 1180.469482421875 -81.36660766601562 1187.207763671875 -85.29660797119141 C 1193.9462890625 -89.226806640625 1201.7646484375 -91.19181060791016 1210.662841796875 -91.19181060791016 Z M 109.82861328125 -90.28480529785156 L 131.988037109375 -90.28480529785156 L 169.049560546875 -33.53581237792969 L 169.049560546875 -90.28480529785156 L 191.2088623046875 -90.28480529785156 L 191.2088623046875 1.316993713378906 L 169.049560546875 1.316993713378906 L 131.988037109375 -54.9138069152832 L 131.988037109375 1.316993713378906 L 109.82861328125 1.316993713378906 L 109.82861328125 -90.28480529785156 Z M 206.5 -90.28480529785156 L 263.51806640625 -90.28480529785156 L 263.51806640625 -72.66420745849609 L 228.6591796875 -72.66420745849609 L 228.6591796875 -53.48860931396484 L 259.63037109375 -53.48860931396484 L 259.63037109375 -36.77481079101562 L 228.6591796875 -36.77481079101562 L 228.6591796875 -16.43321228027344 L 263.51806640625 -16.43321228027344 L 263.51806640625 1.316993713378906 L 206.5 1.316993713378906 L 206.5 -90.28480529785156 Z M 505.4552001953125 -90.28480529785156 L 527.48486328125 -90.28480529785156 L 527.48486328125 -37.422607421875 C 527.48486328125 -31.37641143798828 528.845458984375 -26.75521087646484 531.5667724609375 -23.55921173095703 C 534.2879638671875 -20.36341094970703 538.2403564453125 -18.76541137695312 543.424072265625 -18.76541137695312 C 548.607421875 -18.76541137695312 552.559814453125 -20.36341094970703 555.281005859375 -23.55921173095703 C 558.00244140625 -26.75521087646484 559.363037109375 -31.37641143798828 559.363037109375 -37.422607421875 L 559.363037109375 -90.28480529785156 L 581.522216796875 -90.28480529785156 L 581.522216796875 -37.422607421875 C 581.522216796875 -28.78501129150391 579.837646484375 -21.50780487060547 576.4683837890625 -15.59101104736328 C 573.0989990234375 -9.674407958984375 568.498779296875 -5.226005554199219 562.6673583984375 -2.246009826660156 C 556.836181640625 0.7339935302734375 550.248779296875 2.223991394042969 542.9056396484375 2.223991394042969 C 535.5623779296875 2.223991394042969 529.083251953125 0.7555923461914062 523.4676513671875 -2.181205749511719 C 517.8521728515625 -5.118011474609375 513.4461669921875 -9.56640625 510.25 -15.52620697021484 C 507.053466796875 -21.4862060546875 505.4552001953125 -28.78501129150391 505.4552001953125 -37.422607421875 L 505.4552001953125 -90.28480529785156 Z M 590.334228515625 -90.28480529785156 L 662.1248168945312 -90.28480529785156 L 662.1248168945312 -72.66420745849609 L 637.244384765625 -72.66420745849609 L 637.244384765625 1.316993713378906 L 614.9553833007812 1.316993713378906 L 614.9553833007812 -72.66420745849609 L 590.334228515625 -72.66420745849609 L 590.334228515625 -90.28480529785156 Z M 671.4550170898438 -90.28480529785156 L 693.6141967773438 -90.28480529785156 L 693.6141967773438 -54.78421020507812 L 728.3433837890625 -54.78421020507812 L 728.3433837890625 -90.28480529785156 L 750.6322021484375 -90.28480529785156 L 750.6322021484375 1.316993713378906 L 728.3433837890625 1.316993713378906 L 728.3433837890625 -36.90441131591797 L 693.6141967773438 -36.90441131591797 L 693.6141967773438 1.316993713378906 L 671.4550170898438 1.316993713378906 L 671.4550170898438 -90.28480529785156 Z M 765.9234008789062 -90.28480529785156 L 822.9412231445312 -90.28480529785156 L 822.9412231445312 -72.66420745849609 L 788.0826416015625 -72.66420745849609 L 788.0826416015625 -53.48860931396484 L 819.0535888671875 -53.48860931396484 L 819.0535888671875 -36.77481079101562 L 788.0826416015625 -36.77481079101562 L 788.0826416015625 -16.43321228027344 L 822.9412231445312 -16.43321228027344 L 822.9412231445312 1.316993713378906 L 765.9234008789062 1.316993713378906 L 765.9234008789062 -90.28480529785156 Z M 835.51123046875 -90.28480529785156 L 857.67041015625 -90.28480529785156 L 894.7319946289062 -33.53581237792969 L 894.7319946289062 -90.28480529785156 L 916.8912353515625 -90.28480529785156 L 916.8912353515625 1.316993713378906 L 894.7319946289062 1.316993713378906 L 857.67041015625 -54.9138069152832 L 857.67041015625 1.316993713378906 L 835.51123046875 1.316993713378906 L 835.51123046875 -90.28480529785156 Z M 926.221435546875 -90.28480529785156 L 998.01220703125 -90.28480529785156 L 998.01220703125 -72.66420745849609 L 973.131591796875 -72.66420745849609 L 973.131591796875 1.316993713378906 L 950.8428344726562 1.316993713378906 L 950.8428344726562 -72.66420745849609 L 926.221435546875 -72.66420745849609 L 926.221435546875 -90.28480529785156 Z M 1007.342407226562 -90.28480529785156 L 1029.501586914062 -90.28480529785156 L 1029.501586914062 1.316993713378906 L 1007.342407226562 1.316993713378906 L 1007.342407226562 -90.28480529785156 Z M 1369.146850585938 -90.28480529785156 L 1391.306030273438 -90.28480529785156 L 1391.306030273438 -15.65580749511719 L 1420.8515625 -15.65580749511719 L 1420.8515625 1.316993713378906 L 1369.146850585938 1.316993713378906 L 1369.146850585938 -90.28480529785156 Z M 1533.332397460938 -90.28480529785156 L 1571.171630859375 -90.28480529785156 C 1578.428466796875 -90.28480529785156 1584.56201171875 -89.03240966796875 1589.57275390625 -86.52740478515625 C 1594.583374023438 -84.02260589599609 1598.341430664062 -80.58921051025391 1600.846801757812 -76.22721099853516 C 1603.352172851562 -71.86520385742188 1604.604858398438 -66.87680816650391 1604.604858398438 -61.26240921020508 C 1604.604858398438 -54.61140823364258 1602.76904296875 -48.95380783081055 1599.097412109375 -44.28960800170898 C 1595.42578125 -39.62520599365234 1590.091186523438 -36.42940521240234 1583.093383789062 -34.70180511474609 L 1604.864013671875 1.316993713378906 L 1580.372192382812 1.316993713378906 L 1560.54541015625 -33.276611328125 L 1555.491577148438 -33.276611328125 L 1555.491577148438 1.316993713378906 L 1533.332397460938 1.316993713378906 L 1533.332397460938 -90.28480529785156 Z M 1569.227783203125 -48.43560791015625 C 1573.6337890625 -48.43560791015625 1576.873413085938 -49.40740966796875 1578.94677734375 -51.35080718994141 C 1581.020263671875 -53.29420852661133 1582.056762695312 -56.16621017456055 1582.056762695312 -59.9668083190918 C 1582.056762695312 -63.59460830688477 1580.998413085938 -66.44500732421875 1578.881958007812 -68.51800537109375 C 1576.765380859375 -70.59100341796875 1573.54736328125 -71.62760925292969 1569.227783203125 -71.62760925292969 L 1555.491577148438 -71.62760925292969 L 1555.491577148438 -48.43560791015625 L 1569.227783203125 -48.43560791015625 Z M 438.32958984375 -89.63700866699219 L 463.858154296875 -89.63700866699219 L 497.4207763671875 1.316993713378906 L 473.836181640625 1.316993713378906 L 468.1343994140625 -15.39680480957031 L 433.794189453125 -15.39680480957031 L 428.0921630859375 1.316993713378906 L 404.766845703125 1.316993713378906 L 438.32958984375 -89.63700866699219 Z M 462.4326171875 -32.24000549316406 L 451.029052734375 -65.92680358886719 L 439.495849609375 -32.24000549316406 L 462.4326171875 -32.24000549316406 Z" stroke="none" fill="#dbdbdb"/>
      </g>
    </g>
  </g>
</svg>
