<svg xmlns="http://www.w3.org/2000/svg" width="60" height="60" viewBox="0 0 60 60">
    <path style="fill:none" d="M0 0h60v60H0z"/>
    <path d="M27.455 9h0a35.135 35.135 0 0 0 18.454 18.454 35.135 35.135 0 0 0-18.454 18.455A35.135 35.135 0 0 0 9 27.454 35.135 35.135 0 0 0 27.455 9z" transform="translate(2.544 2.546)" style="stroke:#dbf068;stroke-linecap:round;stroke-linejoin:round;stroke-width:2px;fill:none"/>
    <path transform="translate(29.999 1)" style="stroke:#dbf068;stroke-linecap:round;stroke-linejoin:round;stroke-width:2px;fill:none" d="M0 5.273V0"/>
    <path data-name="line" transform="translate(29.999 53.728)" style="stroke:#dbf068;stroke-linecap:round;stroke-linejoin:round;stroke-width:2px;fill:none" d="M0 5.273V0"/>
    <path data-name="line" transform="translate(1 30)" style="stroke:#dbf068;stroke-linecap:round;stroke-linejoin:round;stroke-width:2px;fill:none" d="M5.273 0H0"/>
    <path data-name="line" transform="translate(53.727 30)" style="stroke:#dbf068;stroke-linecap:round;stroke-linejoin:round;stroke-width:2px;fill:none" d="M5.273 0H0"/>
    <path data-name="line" transform="translate(46.777 9.495)" style="stroke:#dbf068;stroke-linecap:round;stroke-linejoin:round;stroke-width:2px;fill:none" d="M0 3.728 3.728 0"/>
    <path data-name="line" transform="translate(9.493 46.779)" style="stroke:#dbf068;stroke-linecap:round;stroke-linejoin:round;stroke-width:2px;fill:none" d="M0 3.728 3.728 0"/>
    <path data-name="line" transform="translate(9.493 9.495)" style="stroke:#dbf068;stroke-linecap:round;stroke-linejoin:round;stroke-width:2px;fill:none" d="M3.728 3.728 0 0"/>
    <path data-name="line" transform="translate(46.777 46.779)" style="stroke:#dbf068;stroke-linecap:round;stroke-linejoin:round;stroke-width:2px;fill:none" d="M3.728 3.728 0 0"/>
</svg>
