<svg xmlns="http://www.w3.org/2000/svg" width="60" height="60" viewBox="0 0 60 60">
    <path style="fill:none" d="M0 0h60v60H0z"/>
    <g transform="translate(.695 .696)">
        <circle cx="28" cy="28" r="28" transform="translate(1.305 1.304)" style="stroke:#dbf068;stroke-linejoin:round;stroke-width:2px;fill:none"/>
        <path d="M23 1c8.676 0 15.273 12.536 15.273 28S31.676 57 23 57" transform="translate(6.304 .304)" style="stroke:#dbf068;stroke-linejoin:round;stroke-width:2px;fill:none"/>
        <path data-name="path" d="M26.273 1C17.6 1 11 13.536 11 29s6.6 28 15.273 28" transform="translate(3.031 .304)" style="stroke:#dbf068;stroke-linejoin:round;stroke-width:2px;fill:none"/>
        <path data-name="path" d="M7.373 39.432C12.447 36.669 19.484 35 27.262 35c7.732 0 14.732 1.649 19.8 4.383" transform="translate(2.043 9.577)" style="stroke:#dbf068;stroke-linejoin:round;stroke-width:2px;fill:none"/>
        <path data-name="path" d="M7.372 7.518c5.074 2.763 12.111 4.432 19.89 4.432 7.732 0 14.732-1.648 19.8-4.382" transform="translate(2.043 2.082)" style="stroke:#dbf068;stroke-linejoin:round;stroke-width:2px;fill:none"/>
        <path transform="translate(29.304 1.304)" style="stroke:#dbf068;stroke-linejoin:round;stroke-width:2px;fill:none" d="M0 0v56"/>
        <path data-name="line" transform="translate(1.305 29.304)" style="stroke:#dbf068;stroke-linejoin:round;stroke-width:2px;fill:none" d="M0 0h56"/>
    </g>
</svg>
