<svg xmlns="http://www.w3.org/2000/svg" width="26" height="26" viewBox="0 0 26 26">
  <g id="ico_26_photo_edit" transform="translate(-684 -255)">
    <path id="base" d="M0,0H26V26H0Z" transform="translate(684 255)" fill="none" opacity="0"/>
    <g id="icon" transform="translate(684 255)">
      <path id="path" d="M14.488,8.675l1.452-1.538c1.538-1.625,2.232-3.477-.163-5.742s-4.2-1.463-5.742.162L1.141,10.971A3.3,3.3,0,0,0,.415,12.52l-.4,3.51A1.654,1.654,0,0,0,2.04,17.948l3.488-.6a3.111,3.111,0,0,0,1.506-.813l4.279-4.528" transform="translate(4.33 4.343)" fill="none" stroke="#1c1c1b" stroke-linecap="round" stroke-linejoin="round" stroke-width="1.5"/>
      <path id="path-2" data-name="path" d="M0,0A6.637,6.637,0,0,0,5.9,5.579" transform="translate(12.881 7.471)" fill="none" stroke="#1c1c1b" stroke-linecap="round" stroke-linejoin="round" stroke-width="1.5"/>
    </g>
  </g>
</svg>
