<svg id="ico_60_option01" xmlns="http://www.w3.org/2000/svg" width="60" height="60" viewBox="0 0 60 60">
  <rect id="base" width="60" height="60" fill="none"/>
  <g id="icon">
    <path id="path" d="M4,15V41.714A7.1,7.1,0,0,0,10.9,49H43.1A7.1,7.1,0,0,0,50,41.714V15Z" transform="translate(3 6)" fill="none" stroke="#1c1c1b" stroke-linejoin="round" stroke-width="2"/>
    <path id="path-2" data-name="path" d="M2,0H54a2,2,0,0,1,2,2V8a2,2,0,0,1-2,2H2A2,2,0,0,1,0,8V2A2,2,0,0,1,2,0Z" transform="translate(2 11)" fill="none" stroke="#1c1c1b" stroke-width="2"/>
    <path id="path-3" data-name="path" d="M12,9a7.762,7.762,0,0,1,7.5-8A7.762,7.762,0,0,1,27,9" transform="translate(3 3)" fill="none" stroke="#1c1c1b" stroke-linejoin="round" stroke-width="2"/>
    <path id="path-4" data-name="path" d="M12,9a7.762,7.762,0,0,1,7.5-8A7.762,7.762,0,0,1,27,9" transform="translate(18 3)" fill="none" stroke="#1c1c1b" stroke-linejoin="round" stroke-width="2"/>
    <line id="line" y2="35" transform="translate(30 21)" fill="none" stroke="#1c1c1b" stroke-linejoin="round" stroke-width="2"/>
  </g>
</svg>
