<svg xmlns="http://www.w3.org/2000/svg" width="32" height="32" viewBox="0 0 32 32">
  <g id="ico_26_solution02" transform="translate(-364 -380)">
    <path id="base" d="M0,0H32V32H0Z" transform="translate(364 380)" fill="none" opacity="0"/>
    <g id="icon" transform="translate(365.231 381.231)">
      <path id="path" d="M17.723,7.695a8.783,8.783,0,0,1-2.954,6.587,8.759,8.759,0,0,1-5.908,2.274A8.853,8.853,0,0,1,4.49,0a11.063,11.063,0,0,0,7.355,6.558,10.594,10.594,0,0,0,2.924.4,11.366,11.366,0,0,0,2.865-.369A6.864,6.864,0,0,1,17.723,7.695Z" transform="translate(0 12.983)" fill="#d9a371"/>
      <path id="path-2" data-name="path" d="M17.723,8.862A8.854,8.854,0,0,1,11.2,17.413a8.934,8.934,0,0,1-4.667,0,8.863,8.863,0,1,1,11.2-8.551Z" transform="translate(5.908 0)" fill="#c8865b"/>
      <path id="path-3" data-name="path" d="M12.923,7.695a8.869,8.869,0,0,1-8.862,8.862A8.736,8.736,0,0,1,0,15.567,10.92,10.92,0,0,0,3.323,7.695,9.645,9.645,0,0,0,3.2,6.218L3.131,5.76A10.992,10.992,0,0,0,8.433,0,8.861,8.861,0,0,1,12.923,7.695Z" transform="translate(16.615 12.983)" fill="#a16c48"/>
    </g>
  </g>
</svg>
