<svg xmlns="http://www.w3.org/2000/svg" width="26" height="26" viewBox="0 0 26 26">
  <g id="ico_26_language" transform="translate(-173 -253)">
    <rect id="base" width="26" height="26" transform="translate(173 253)" fill="none"/>
    <g id="icon">
      <path id="path" d="M24,12A12,12,0,1,1,12,0,12,12,0,0,1,24,12Z" transform="translate(174 254)" fill="none" stroke="#fff" stroke-linecap="round" stroke-linejoin="round" stroke-width="1.5"/>
      <path id="path-2" data-name="path" d="M.555,0h1.2a34.108,34.108,0,0,0,0,21.6H.555" transform="translate(180.645 255.2)" fill="none" stroke="#fff" stroke-linecap="round" stroke-linejoin="round" stroke-width="1.5"/>
      <path id="path-3" data-name="path" d="M0,0A34.108,34.108,0,0,1,0,21.6" transform="translate(189.6 255.2)" fill="none" stroke="#fff" stroke-linecap="round" stroke-linejoin="round" stroke-width="1.5"/>
      <path id="path-4" data-name="path" d="M0,1.2V0A34.108,34.108,0,0,0,21.6,0V1.2" transform="translate(175.2 269.6)" fill="none" stroke="#fff" stroke-linecap="round" stroke-linejoin="round" stroke-width="1.5"/>
      <path id="path-5" data-name="path" d="M0,1.755a34.108,34.108,0,0,1,21.6,0" transform="translate(175.2 260.645)" fill="none" stroke="#fff" stroke-linecap="round" stroke-linejoin="round" stroke-width="1.5"/>
    </g>
  </g>
</svg>
