<svg id="ico_60_faq04" xmlns="http://www.w3.org/2000/svg" width="60" height="60" viewBox="0 0 60 60">
  <rect id="base" width="60" height="60" fill="none"/>
  <g id="icon" transform="translate(1)">
    <g id="path" transform="translate(23 45)" fill="none">
      <path d="M0,0H12V12H0Z" stroke="none"/>
      <path d="M 2 2 L 2 10 L 10 10 L 10 2 L 2 2 M 0 0 L 12 0 L 12 12 L 0 12 L 0 0 Z" stroke="none" fill="#1c1c1b"/>
    </g>
    <path id="path-2" data-name="path" d="M1,5.941V33.118A9.812,9.812,0,0,0,10.739,43H47.261A9.812,9.812,0,0,0,57,33.118V5.941A4.906,4.906,0,0,0,52.13,1H5.87A4.906,4.906,0,0,0,1,5.941Z" transform="translate(0 3)" fill="none" stroke="#1c1c1b" stroke-linecap="round" stroke-linejoin="round" stroke-width="2"/>
    <line id="line" x2="32" transform="translate(13 56)" fill="none" stroke="#1c1c1b" stroke-linecap="round" stroke-linejoin="round" stroke-width="2"/>
    <line id="line-2" data-name="line" x2="56" transform="translate(1 36)" fill="none" stroke="#1c1c1b" stroke-linecap="round" stroke-linejoin="round" stroke-width="2"/>
  </g>
</svg>
