<svg xmlns="http://www.w3.org/2000/svg" width="26" height="26" viewBox="0 0 26 26">
  <g id="ico_26_photo" transform="translate(-364 -252)">
    <rect id="base" width="26" height="26" transform="translate(364 252)" fill="none"/>
    <g id="icon" transform="translate(364 252)">
      <path id="path" d="M0,11.906v2.177c0,5.417,2.167,7.583,7.583,7.583h6.5c5.417,0,7.583-2.167,7.583-7.583v-6.5C21.667,2.167,19.5,0,14.083,0h-6.5C2.167,0,0,2.167,0,7.583" transform="translate(2.167 2.167)" fill="none" stroke="#1c1c1b" stroke-linecap="round" stroke-linejoin="round" stroke-width="1.5"/>
      <path id="path-2" data-name="path" d="M4.333,2.167A2.167,2.167,0,1,1,2.167,0" transform="translate(7.583 6.5)" fill="none" stroke="#1c1c1b" stroke-linecap="round" stroke-linejoin="round" stroke-width="1.5"/>
      <path id="path-3" data-name="path" d="M0,7.532,5.341,3.946A2.441,2.441,0,0,1,8.2,4.1l.358.314a2.415,2.415,0,0,0,3.055,0L16.12.544a2.415,2.415,0,0,1,3.055,0l1.766,1.517" transform="translate(2.893 12.997)" fill="none" stroke="#1c1c1b" stroke-linecap="round" stroke-linejoin="round" stroke-width="1.5"/>
    </g>
  </g>
</svg>
