<svg xmlns="http://www.w3.org/2000/svg" width="26" height="26" viewBox="0 0 26 26">
  <g id="ico_26_lock" transform="translate(-171 -251)">
    <path id="base" d="M0,0H26V26H0Z" transform="translate(197 277) rotate(180)" fill="none" opacity="0"/>
    <g id="icon" transform="translate(1)">
      <path id="path" d="M14.652,6.777V5.652C14.652,3.222,14.067,0,9,0S3.348,3.222,3.348,5.652V6.777C.828,7.092,0,8.37,0,11.511v2.674C0,17.875,1.125,19,4.815,19h8.37C16.875,19,18,17.875,18,14.185V11.511C18,8.37,17.172,7.092,14.652,6.777ZM4.815,6.7H4.608V5.652C4.608,3.015,5.355,1.26,9,1.26s4.392,1.755,4.392,4.392V6.7H4.815Z" transform="translate(174 254)" fill="#1c1c1b"/>
      <g id="path-2" data-name="path" transform="translate(181 265)" fill="#1c1c1b">
        <path d="M 1.99999988079071 4.75 C 0.4836398661136627 4.75 -0.7500001192092896 3.516359806060791 -0.7500001192092896 1.99999988079071 C -0.7500001192092896 0.4836398661136627 0.4836398661136627 -0.7500001192092896 1.99999988079071 -0.7500001192092896 C 3.516359806060791 -0.7500001192092896 4.75 0.4836398661136627 4.75 1.99999988079071 C 4.75 3.516359806060791 3.516359806060791 4.75 1.99999988079071 4.75 Z" stroke="none"/>
        <path d="M 1.99999988079071 -2.384185791015625e-07 C 0.8954298496246338 -2.384185791015625e-07 -2.384185791015625e-07 0.8954298496246338 -2.384185791015625e-07 1.99999988079071 C -2.384185791015625e-07 3.104569911956787 0.8954298496246338 4 1.99999988079071 4 C 3.104569911956787 4 4 3.104569911956787 4 1.99999988079071 C 4 0.8954298496246338 3.104569911956787 -2.384185791015625e-07 1.99999988079071 -2.384185791015625e-07 M 1.99999988079071 -1.500000238418579 C 3.929909944534302 -1.500000238418579 5.5 0.07008981704711914 5.5 1.99999988079071 C 5.5 3.929909944534302 3.929909944534302 5.5 1.99999988079071 5.5 C 0.07008981704711914 5.5 -1.500000238418579 3.929909944534302 -1.500000238418579 1.99999988079071 C -1.500000238418579 0.07008981704711914 0.07008981704711914 -1.500000238418579 1.99999988079071 -1.500000238418579 Z" stroke="none" fill="#fff"/>
      </g>
    </g>
  </g>
</svg>
