<svg id="ico_60_option07" xmlns="http://www.w3.org/2000/svg" width="60" height="60" viewBox="0 0 60 60">
  <rect id="base" width="60" height="60" fill="none"/>
  <g id="icon" transform="translate(0 1)">
    <path id="path" d="M10,0H28A9.8,9.8,0,0,1,38,9.583V36.417A9.8,9.8,0,0,1,28,46H10A9.8,9.8,0,0,1,0,36.417V9.583A9.8,9.8,0,0,1,10,0Z" transform="translate(7 10)" fill="none" stroke="#1c1c1b" stroke-width="2"/>
    <path id="path-2" data-name="path" d="M9.474,0H19.6c2.335,0,.694,9.187,2.758,9.583C29.547,10.955,25.2,7.866,36,16.147v20.27A9.529,9.529,0,0,1,26.526,46H9.474A9.529,9.529,0,0,1,0,36.417V9.583A9.529,9.529,0,0,1,9.474,0Z" transform="translate(17 2)" fill="#fff" stroke="#1c1c1b" stroke-width="2"/>
    <path id="path-3" data-name="path" d="M29,1v9.143A6.857,6.857,0,0,0,35.857,17H45Z" transform="translate(8 1)" fill="#fff" stroke="#1c1c1b" stroke-linecap="round" stroke-linejoin="round" stroke-width="2"/>
  </g>
</svg>
