<svg xmlns="http://www.w3.org/2000/svg" width="26" height="26" viewBox="0 0 26 26">
  <g id="link_instagram" transform="translate(26 -1)">
    <rect id="base" width="26" height="26" transform="translate(-26 1)" fill="none"/>
    <g id="icon" transform="translate(-28 -1)">
      <g id="path" transform="translate(4 4)" fill="none">
        <path class="" d="M5.495,0H16.505A5.5,5.5,0,0,1,22,5.495V16.505A5.5,5.5,0,0,1,16.505,22H5.495A5.5,5.5,0,0,1,0,16.505V5.495A5.5,5.5,0,0,1,5.495,0Z" stroke="none"/>
        <path d="M 5.494831085205078 1.5 C 3.292070388793945 1.5 1.5 3.292070388793945 1.5 5.494831085205078 L 1.5 16.50539016723633 C 1.5 18.70815086364746 3.292070388793945 20.50022125244141 5.494831085205078 20.50022125244141 L 16.50539016723633 20.50022125244141 C 18.70815086364746 20.50022125244141 20.50022125244141 18.70815086364746 20.50022125244141 16.50539016723633 L 20.50022125244141 5.494831085205078 C 20.50022125244141 3.292070388793945 18.70815086364746 1.5 16.50539016723633 1.5 L 5.494831085205078 1.5 M 5.494831085205078 0 L 16.50539016723633 0 C 19.54010009765625 0 22.00022125244141 2.459671020507812 22.00022125244141 5.494831085205078 L 22.00022125244141 16.50539016723633 C 22.00022125244141 19.54010009765625 19.54055023193359 22.00022125244141 16.50539016723633 22.00022125244141 L 5.494831085205078 22.00022125244141 C 2.460121154785156 22.00022125244141 0 19.54055023193359 0 16.50539016723633 L 0 5.494831085205078 C 0 2.460121154785156 2.459671020507812 0 5.494831085205078 0 Z" stroke="none" fill="#1c1c1b"/>
      </g>
      <g id="path-2" data-name="path" transform="translate(9.5 9.5)" fill="none">
        <path d="M0,5.5A5.5,5.5,0,1,1,5.5,11,5.5,5.5,0,0,1,0,5.5Z" stroke="none"/>
        <path d="M 5.500055313110352 1.499995231628418 C 3.294415473937988 1.499995231628418 1.499995231628418 3.294415473937988 1.499995231628418 5.500055313110352 C 1.499995231628418 7.705695152282715 3.294415473937988 9.500115394592285 5.500055313110352 9.500115394592285 C 7.705695152282715 9.500115394592285 9.500115394592285 7.705695152282715 9.500115394592285 5.500055313110352 C 9.500115394592285 3.294415473937988 7.705695152282715 1.499995231628418 5.500055313110352 1.499995231628418 M 5.500055313110352 -4.76837158203125e-06 C 8.537654876708984 -4.76837158203125e-06 11.00011539459229 2.462455749511719 11.00011539459229 5.500055313110352 C 11.00011539459229 8.537654876708984 8.537654876708984 11.00011539459229 5.500055313110352 11.00011539459229 C 2.462455749511719 11.00011539459229 -4.76837158203125e-06 8.537654876708984 -4.76837158203125e-06 5.500055313110352 C -4.76837158203125e-06 2.462455749511719 2.462455749511719 -4.76837158203125e-06 5.500055313110352 -4.76837158203125e-06 Z" stroke="none" fill="#1c1c1b"/>
      </g>
      <path id="path-3" data-name="path" d="M1.1,2.2A1.1,1.1,0,1,1,2.2,1.1,1.1,1.1,0,0,1,1.1,2.2Z" transform="translate(19.4 8.4)" fill="#1c1c1b"/>
    </g>
  </g>
</svg>
