<svg xmlns="http://www.w3.org/2000/svg" width="26" height="26.125" viewBox="0 0 26 26.125">
  <g id="ico_26_share" transform="translate(-1330 -212.875)">
    <rect id="base" width="26" height="26" transform="translate(1330 213)" fill="none"/>
    <g id="icon" transform="translate(2.952 -1.572)">
      <path id="Vector" d="M0,3.012A3.012,3.012,0,1,1,3.012,6.024" transform="translate(1342.658 219.767) rotate(-45)" fill="none" stroke="#1c1c1b" stroke-linecap="round" stroke-linejoin="round" stroke-width="1.5"/>
      <path id="Vector-2" data-name="Vector" d="M6.023,3.012A3.012,3.012,0,1,1,3.012,0,3.012,3.012,0,0,1,6.023,3.012Z" transform="matrix(0.819, 0.574, -0.574, 0.819, 1332.503, 221.924)" fill="none" stroke="#1c1c1b" stroke-linecap="round" stroke-linejoin="round" stroke-width="1.5"/>
      <path id="Vector-3" data-name="Vector" d="M6.023,3.012A3.012,3.012,0,1,1,3.012,0,3.012,3.012,0,0,1,6.023,3.012Z" transform="matrix(0.819, 0.574, -0.574, 0.819, 1346.178, 230.824)" fill="none" stroke="#1c1c1b" stroke-linecap="round" stroke-linejoin="round" stroke-width="1.5"/>
      <path id="line" d="M-.147.282,8.515,5.026" transform="matrix(0.996, 0.087, -0.087, 0.996, 1335.934, 227.84)" fill="none" stroke="#1c1c1b" stroke-linecap="round" stroke-width="1.5"/>
      <line id="line-2" data-name="line" x1="6.828" y2="4.18" transform="matrix(0.996, 0.087, -0.087, 0.996, 1337.151, 220.915)" fill="none" stroke="#1c1c1b" stroke-linecap="round" stroke-linejoin="round" stroke-width="1.5"/>
    </g>
  </g>
</svg>
