<svg xmlns="http://www.w3.org/2000/svg" width="60" height="60" viewBox="0 0 60 60">
  <g id="ico_60_option06" transform="translate(0 0.5)">
    <rect id="base" width="60" height="60" transform="translate(0 -0.5)" fill="none"/>
    <g id="icon" transform="translate(5)">
      <path id="path" d="M7.39,28.265,1,45.386l9.524-.522,6.954,6.4L23,36.467A21.346,21.346,0,0,1,7.39,28.265Z" transform="translate(1 7.235)" fill="none" stroke="#1c1c1b" stroke-linejoin="round" stroke-width="2"/>
      <path id="path-2" data-name="path" d="M16.61,28.265,23,45.386l-9.524-.522-6.954,6.4L1,36.467A21.346,21.346,0,0,0,16.61,28.265Z" transform="translate(25 7.235)" fill="none" stroke="#1c1c1b" stroke-linejoin="round" stroke-width="2"/>
      <path id="path-3" data-name="path" d="M23.63,1a20.987,20.987,0,0,0-1.316,41.933c.437.027.872.067,1.316.067.462,0,.915-.04,1.37-.069A20.987,20.987,0,0,0,23.63,1Z" transform="translate(1.37 0.5)" fill="none" stroke="#1c1c1b" stroke-linejoin="round" stroke-width="2"/>
      <g id="icon_26_star_outline" transform="translate(7972.001 10.501)" fill="none">
        <path d="M-7960,12s12.741-.258,13.129-13c0,0,.9,13,12.869,13-11.968,0-12.869,13-12.869,13C-7947.259,12.258-7960,12-7960,12Z" stroke="none"/>
        <path d="M -7946.72119140625 17.61812019348145 C -7946.7119140625 17.59996795654297 -7946.7021484375 17.58170890808105 -7946.6923828125 17.56355476379395 C -7945.67333984375 15.63893222808838 -7944.07568359375 13.50816822052002 -7941.61669921875 12.00003719329834 C -7944.07568359375 10.49168491363525 -7945.67333984375 8.360572814941406 -7946.6923828125 6.435665607452393 C -7946.7021484375 6.417510509490967 -7946.7119140625 6.399362087249756 -7946.72119140625 6.381208419799805 C -7948.26318359375 9.198394775390625 -7950.5244140625 10.93801593780518 -7952.556640625 12.00003528594971 C -7950.5244140625 13.06190967559814 -7948.26318359375 14.80130100250244 -7946.72119140625 17.61812019348145 M -7946.87158203125 24.99917602539062 C -7947.25927734375 12.25786590576172 -7960.00048828125 12.00016593933105 -7960.00048828125 12.00016593933105 C -7960.00048828125 12.00016593933105 -7947.25927734375 11.74246597290039 -7946.87158203125 -1.000844478607178 C -7946.87158203125 -1.000844478607178 -7945.970703125 12.00016593933105 -7934.00244140625 12.00016593933105 C -7945.970703125 12.00016593933105 -7946.87158203125 24.99917602539062 -7946.87158203125 24.99917602539062 Z" stroke="none" fill="#1c1c1b"/>
      </g>
    </g>
  </g>
</svg>
