<svg xmlns="http://www.w3.org/2000/svg" width="60" height="60" viewBox="0 0 60 60">
  <g id="ico_60_user" transform="translate(7)">
    <rect id="base" width="60" height="60" transform="translate(-7)" fill="none"/>
    <g id="icon" transform="translate(0 1)">
      <g id="icon-2" data-name="icon" transform="translate(-2)">
        <circle id="oval" cx="6" cy="6" r="6" transform="translate(19 1)" fill="none" stroke="#dbf068" stroke-linejoin="round" stroke-width="2"/>
        <path id="path" d="M12,39V37.8C12,31.835,17.372,27,24,27s12,4.835,12,10.8V39" transform="translate(1 -13)" fill="none" stroke="#dbf068" stroke-linecap="round" stroke-linejoin="round" stroke-width="2"/>
      </g>
      <g id="icon-3" data-name="icon" transform="translate(-18 31)">
        <circle id="oval-2" data-name="oval" cx="6" cy="6" r="6" transform="translate(19 1)" fill="none" stroke="#dbf068" stroke-linejoin="round" stroke-width="2"/>
        <path id="path-2" data-name="path" d="M12,39V37.8C12,31.835,17.372,27,24,27s12,4.835,12,10.8V39" transform="translate(1 -13)" fill="none" stroke="#dbf068" stroke-linecap="round" stroke-linejoin="round" stroke-width="2"/>
      </g>
      <g id="icon-4" data-name="icon" transform="translate(14 31)">
        <circle id="oval-3" data-name="oval" cx="6" cy="6" r="6" transform="translate(19 1)" fill="none" stroke="#dbf068" stroke-linejoin="round" stroke-width="2"/>
        <path id="path-3" data-name="path" d="M12,39V37.8C12,31.835,17.372,27,24,27s12,4.835,12,10.8V39" transform="translate(1 -13)" fill="none" stroke="#dbf068" stroke-linecap="round" stroke-linejoin="round" stroke-width="2"/>
      </g>
    </g>
  </g>
</svg>
