<svg xmlns="http://www.w3.org/2000/svg" xmlns:xlink="http://www.w3.org/1999/xlink" width="40" height="40" viewBox="0 0 40 40">
  <defs>
    <clipPath id="clip-path">
      <path id="사각형_1070" data-name="사각형 1070" d="M0,0H31.111V31.111H0Z" fill="none"/>
    </clipPath>
  </defs>
  <g id="ico_40_mypage_facebook" transform="translate(-20 -1580)">
    <circle id="타원_328" data-name="타원 328" cx="20" cy="20" r="20" transform="translate(20 1580)" fill="#1877f2"/>
    <g id="그룹_1267" data-name="그룹 1267" transform="translate(24.444 1582.667)">
      <g id="그룹_1266" data-name="그룹 1266" clip-path="url(#clip-path)">
        <path id="패스_1135" data-name="패스 1135" d="M30.667,15.334A15.333,15.333,0,1,0,12.938,30.48V19.766H9.044V15.334h3.893V11.956c0-3.843,2.289-5.965,5.792-5.965a23.579,23.579,0,0,1,3.432.3v3.772H20.227a2.216,2.216,0,0,0-2.5,2.395v2.876h4.252l-.68,4.432H17.729V30.48A15.337,15.337,0,0,0,30.667,15.334" transform="translate(0 0)" fill="#1877f2"/>
        <path id="패스_1136" data-name="패스 1136" d="M314.258,213.778l.68-4.432h-4.253v-2.876a2.216,2.216,0,0,1,2.5-2.395h1.933V200.3a23.577,23.577,0,0,0-3.428-.3c-3.5,0-5.792,2.123-5.792,5.965v3.378H302v4.435h3.893v10.715a15.5,15.5,0,0,0,4.792,0V213.778Z" transform="translate(-292.956 -194.011)" fill="#fff"/>
      </g>
    </g>
  </g>
</svg>
