<svg xmlns="http://www.w3.org/2000/svg" xmlns:xlink="http://www.w3.org/1999/xlink" width="16" height="16" viewBox="0 0 16 16">
  <defs>
    <clipPath id="clip-path">
      <rect id="mask" width="16" height="16" fill="none"/>
    </clipPath>
  </defs>
  <g id="ico_16_star" clip-path="url(#clip-path)">
    <path id="star" d="M24,32a7.993,7.993,0,0,1-8-7.992A8,8,0,0,1,.629,27.114,8,8,0,0,1,7.989,16,8,8,0,0,1,2.343,2.343,8,8,0,0,1,16,7.992,8,8,0,1,1,24.008,16,8,8,0,1,1,24,32ZM8,16v8H24V16h0a8.024,8.024,0,0,0-8,7.929h0A8.033,8.033,0,0,0,8.05,16,8.029,8.029,0,0,0,16,8.05,8.019,8.019,0,0,0,24,16h0V8H8v8Z" transform="translate(-8 -8)" fill="#1c1c1b"/>
  </g>
</svg>
