<svg xmlns="http://www.w3.org/2000/svg" xmlns:xlink="http://www.w3.org/1999/xlink" width="32" height="32" viewBox="0 0 32 32">
  <defs>
    <clipPath id="clip-path">
      <rect id="mask" width="32" height="32" fill="none"/>
    </clipPath>
  </defs>
  <g id="ico_32_star_outline" clip-path="url(#clip-path)">
    <g id="star" transform="translate(-16 -16)" fill="none">
      <path d="M48,64A15.985,15.985,0,0,1,32,48.016,16,16,0,0,1,1.257,54.228,16,16,0,0,1,15.978,32,15.994,15.994,0,0,1,4.687,4.686,15.995,15.995,0,0,1,32,15.984,16.009,16.009,0,1,1,48.017,32,16,16,0,1,1,48,64ZM16,32V48H48V32h0A16.047,16.047,0,0,0,32,47.859h0A16.066,16.066,0,0,0,16.1,32,16.059,16.059,0,0,0,32,16.1,16.038,16.038,0,0,0,48,32h0V16H16V32Z" stroke="none"/>
      <path d="M 48.0009765625 63.00036239624023 C 50.02534866333008 63.00036239624023 51.98920822143555 62.60387420654297 53.83823776245117 61.82181167602539 C 55.62422943115234 61.06696319580078 57.22880935668945 59.98529434204102 58.60711669921875 58.60709381103516 C 59.98573684692383 57.22755432128906 61.06742858886719 55.62318420410156 61.82209777832031 53.8386344909668 C 62.60434722900391 51.98834228515625 63.0009765625 50.02402496337891 63.0009765625 48.000244140625 C 63.0009765625 45.97649383544922 62.60434722900391 44.01213455200195 61.82214736938477 42.16186141967773 C 61.06740951538086 40.37726211547852 59.9857177734375 38.77291488647461 58.60737991333008 37.39366149902344 C 57.22878646850586 36.01518249511719 55.62420654296875 34.93351364135742 53.83792877197266 34.17855453491211 C 52.29573440551758 33.52613830566406 50.67283630371094 33.14204025268555 49.0009765625 33.0327033996582 L 49.0009765625 49.000244140625 L 33.03242492675781 49.000244140625 C 33.14151763916016 50.67229461669922 33.52545547485352 52.29555892944336 34.17770004272461 53.83814239501953 C 34.93429946899414 55.62509155273438 36.01628875732422 57.22952270507812 37.39374923706055 58.60697174072266 C 38.77093887329102 59.98462295532227 40.37519836425781 61.0662841796875 42.16200637817383 61.82191467285156 C 44.01079940795898 62.60387420654297 45.97530746459961 63.00036239624023 48.0009765625 63.00036239624023 M 15.99999809265137 63.00036239624023 C 18.0250186920166 63.00036239624023 19.98920822143555 62.60387420654297 21.83796882629395 61.82192230224609 C 23.62547874450684 61.06583404541016 25.22973823547363 59.98418426513672 26.60637855529785 58.60685348510742 C 27.98371887207031 57.22952270507812 29.06570816040039 55.62509155273438 29.82198905944824 53.83889389038086 C 30.47364044189453 52.29627990722656 30.85752487182617 50.67267990112305 30.96718406677246 49.000244140625 L 14.99999809265137 49.000244140625 L 14.99999809265137 33.03267669677734 C 13.32792186737061 33.14199066162109 11.70468616485596 33.5261116027832 10.16192817687988 34.17861175537109 C 8.376288414001465 34.93368148803711 6.771998405456543 36.01538467407227 5.393638134002686 37.39363479614258 C 4.016318321228027 38.77095413208008 2.93431830406189 40.3753547668457 2.177918195724487 42.1617317199707 C 1.396308302879333 44.01059341430664 0.9999982714653015 45.97495269775391 0.9999982714653015 48.000244140625 C 0.9999982714653015 50.02545166015625 1.396308302879333 51.98978424072266 2.177698373794556 53.83814239501953 C 2.934298276901245 55.62509155273438 4.016288280487061 57.22952270507812 5.393608093261719 58.60683441162109 C 6.771978378295898 59.98509216308594 8.37626838684082 61.06679153442383 10.16200828552246 61.82191467285156 C 12.01079845428467 62.60387420654297 13.97498798370361 63.00036239624023 15.99999809265137 63.00036239624023 M 31.99800109863281 42.27417373657227 C 33.7153205871582 37.51077651977539 37.50809860229492 33.7198371887207 42.26789855957031 32.00136947631836 C 37.50608444213867 30.2851448059082 33.71491241455078 26.49650382995605 31.99788856506348 21.73271369934082 C 30.27726364135742 26.49032592773438 26.4830265045166 30.28293228149414 21.72419548034668 32.00121688842773 C 26.4813232421875 33.72115325927734 30.27720260620117 37.51586151123047 31.99800109863281 42.27417373657227 M 49.00006103515625 30.96764183044434 C 50.67190551757812 30.85843467712402 52.29519271850586 30.47432327270508 53.83818817138672 29.82170295715332 C 55.62419891357422 29.06675338745117 57.22879791259766 27.98506355285645 58.60711669921875 26.60697364807129 C 59.9857177734375 25.22745323181152 61.06740951538086 23.62310218811035 61.82209014892578 21.83864402770996 C 62.60434722900391 19.98823356628418 63.0009765625 18.02387237548828 63.0009765625 16.00012397766113 C 63.0009765625 13.97647285461426 62.60433959960938 12.01212310791016 61.82214736938477 10.1618127822876 C 61.06737899780273 8.377193450927734 59.98567962646484 6.772813320159912 58.60736846923828 5.393523216247559 C 57.22882843017578 4.015043258666992 55.62425994873047 2.933353185653687 53.83801651000977 2.17840313911438 C 51.98917770385742 1.396473050117493 50.02531814575195 1.000003099441528 48.0009765625 1.000003099441528 C 45.97534942626953 1.000003099441528 44.01082992553711 1.396473050117493 42.162109375 2.178343057632446 C 40.37473678588867 2.934553146362305 38.77043914794922 4.016252994537354 37.39361953735352 5.393523216247559 C 36.01628875732422 6.770802974700928 34.93429946899414 8.375203132629395 34.1779899597168 10.16150283813477 C 33.5256233215332 11.70543575286865 33.14162826538086 13.32900428771973 33.0324592590332 15.00012302398682 L 49.00103759765625 15.00012302398682 L 49.00006103515625 30.96764183044434 M 14.99999809265137 30.96763610839844 L 14.99999809265137 15.00012302398682 L 30.96723365783691 15.00012302398682 C 30.8576545715332 13.32649803161621 30.47381973266602 11.70307159423828 29.82230758666992 10.1621732711792 C 29.06570816040039 8.375203132629395 27.98371887207031 6.770802974700928 26.6064281463623 5.39357328414917 C 25.22794914245605 4.015323162078857 23.62361907958984 2.93358302116394 21.8380184173584 2.17840313911438 C 19.98917770385742 1.396473050117493 18.02498817443848 1.000003099441528 15.99999809265137 1.000003099441528 C 13.97501850128174 1.000003099441528 12.01082801818848 1.396473050117493 10.16192817687988 2.178423166275024 C 8.376237869262695 2.933523178100586 6.771948337554932 4.015243053436279 5.393648147583008 5.393493175506592 C 4.016348361968994 6.770853042602539 2.934338331222534 8.375283241271973 2.177918195724487 10.16166305541992 C 1.396308302879333 12.01058292388916 0.9999982714653015 13.9749231338501 0.9999982714653015 16.00012397766113 C 0.9999982714653015 18.02541351318359 1.396308302879333 19.98977279663086 2.177688360214233 21.83811378479004 C 2.93431830406189 23.62501335144043 4.016318321228027 25.22941398620605 5.393578052520752 26.6066837310791 C 6.771988391876221 27.98486328125 8.376308441162109 29.06657218933105 10.16210842132568 29.82183265686035 C 11.70429706573486 30.47430992126465 13.32765674591064 30.85840225219727 14.99999809265137 30.96763610839844 M 48.0009765625 64.0003662109375 C 45.84081649780273 64.0003662109375 43.7451171875 63.57727432250977 41.77245712280273 62.74292373657227 C 39.86620712280273 61.93677139282227 38.15527725219727 60.783203125 36.68652725219727 59.31396484375 C 35.216796875 57.84424209594727 34.0634765625 56.13318252563477 33.25683975219727 54.22803497314453 C 32.42480850219727 52.26025390625 32.00194931030273 50.1705322265625 31.99999809265137 48.01648330688477 C 31.99706840515137 50.1712646484375 31.57421875 52.2607421875 30.74316787719727 54.22803497314453 C 29.9365291595459 56.13318252563477 28.7832088470459 57.84424209594727 27.31347846984863 59.31396484375 C 25.84472846984863 60.78345489501953 24.13280868530273 61.93701171875 22.2275390625 62.74292373657227 C 20.2548885345459 63.57727432250977 18.16015815734863 64.0003662109375 15.99999809265137 64.0003662109375 C 13.83984851837158 64.0003662109375 11.74511814117432 63.57727432250977 9.772458076477051 62.74292373657227 C 7.867188453674316 61.93725204467773 6.156248092651367 60.78357315063477 4.686528205871582 59.31396484375 C 3.216798305511475 57.84424209594727 2.063478231430054 56.13318252563477 1.256838321685791 54.22803497314453 C 0.4228482842445374 52.25525283813477 -1.718750013424142e-06 50.159912109375 -1.718750013424142e-06 48.000244140625 C -1.718750013424142e-06 45.8404541015625 0.4228482842445374 43.74511337280273 1.256838321685791 41.77234268188477 C 2.063478231430054 39.86731338500977 3.216798305511475 38.15625381469727 4.686528205871582 36.6865234375 C 6.156248092651367 35.21692276000977 7.867188453674316 34.063232421875 9.772458076477051 33.25757217407227 C 11.73827838897705 32.42614364624023 13.82519817352295 32.003173828125 15.97753810882568 32.0001220703125 C 13.82519817352295 31.9971923828125 11.73730850219727 31.57409286499023 9.772458076477051 30.74279403686523 C 7.867188453674316 29.93701362609863 6.156248092651367 28.78332328796387 4.686528205871582 27.3138427734375 C 3.216798305511475 25.84411239624023 2.063478231430054 24.13305282592773 1.256838321685791 22.22802352905273 C 0.4228482842445374 20.25525283813477 -1.718750013424142e-06 18.15991401672363 -1.718750013424142e-06 16.00012397766113 C -1.718750013424142e-06 13.84033298492432 0.4228482842445374 11.74511337280273 1.256838321685791 9.772283554077148 C 2.063478231430054 7.867312908172607 3.216798305511475 6.156193256378174 4.686528205871582 4.686403274536133 C 6.156248092651367 3.21673321723938 7.867188453674316 2.063053131103516 9.772458076477051 1.257383108139038 C 11.74511814117432 0.4230931103229523 13.83984851837158 3.105468749708962e-06 15.99999809265137 3.105468749708962e-06 C 18.16015815734863 3.105468749708962e-06 20.2548885345459 0.4230931103229523 22.2275390625 1.257383108139038 C 24.13280868530273 2.063173055648804 25.84374809265137 3.216922998428345 27.31347846984863 4.686403274536133 C 28.7832088470459 6.156073093414307 29.9365291595459 7.867123126983643 30.74316787719727 9.772283554077148 C 31.57519912719727 11.74011325836182 31.99706840515137 13.82983303070068 31.99999809265137 15.98388290405273 C 32.00194931030273 13.82885265350342 32.42577743530273 11.73913288116455 33.25683975219727 9.772283554077148 C 34.0634765625 7.867123126983643 35.216796875 6.156073093414307 36.68652725219727 4.686403274536133 C 38.15527725219727 3.2171630859375 39.8671875 2.063473224639893 41.77245712280273 1.257383108139038 C 43.7451171875 0.4230931103229523 45.84081649780273 3.105468749708962e-06 48.0009765625 3.105468749708962e-06 C 50.16016006469727 3.105468749708962e-06 52.25488662719727 0.4230931103229523 54.2275390625 1.257383108139038 C 56.1337890625 2.063053131103516 57.8447265625 3.21673321723938 59.31445693969727 4.686403274536133 C 60.78320693969727 6.156193256378174 61.9375 7.867312908172607 62.74316787719727 9.772283554077148 C 63.5771484375 11.74511337280273 64.0009765625 13.84033298492432 64.0009765625 16.00012397766113 C 64.0009765625 18.15991401672363 63.5771484375 20.25525283813477 62.74316787719727 22.22802352905273 C 61.9375 24.13305282592773 60.78320693969727 25.84411239624023 59.31445693969727 27.3138427734375 C 57.8447265625 28.78332328796387 56.1337890625 29.93701362609863 54.2275390625 30.74279403686523 C 52.25976943969727 31.5750732421875 50.1708984375 31.99804306030273 48.01659774780273 32.0001220703125 C 50.1708984375 32.00232315063477 52.26073837280273 32.42553329467773 54.2275390625 33.25757217407227 C 56.1337890625 34.063232421875 57.8447265625 35.21692276000977 59.31445693969727 36.6865234375 C 60.78320693969727 38.15625381469727 61.9375 39.86731338500977 62.74316787719727 41.77234268188477 C 63.5771484375 43.74511337280273 64.0009765625 45.8404541015625 64.0009765625 48.000244140625 C 64.0009765625 50.159912109375 63.5771484375 52.25537490844727 62.74316787719727 54.22803497314453 C 61.9375 56.13318252563477 60.78320693969727 57.84424209594727 59.31445693969727 59.31396484375 C 57.8447265625 60.78357315063477 56.1337890625 61.93725204467773 54.2275390625 62.74292373657227 C 52.25488662719727 63.57727432250977 50.16016006469727 64.0003662109375 48.0009765625 64.0003662109375 Z M 15.99999809265137 16.00012397766113 L 15.99999809265137 48.000244140625 L 48.0009765625 48.000244140625 L 48.0009765625 16.00012397766113 L 15.99999809265137 16.00012397766113 Z M 32.0009765625 47.8587646484375 L 31.9990291595459 47.8587646484375 C 31.92284774780273 39.16797256469727 24.79101753234863 32.05395126342773 16.10058784484863 32.00049209594727 C 24.81347846984863 31.94616317749023 31.9462890625 24.81396293640137 31.99999809265137 16.10034370422363 C 32.05370712280273 24.8675537109375 39.23144912719727 32.0001220703125 48.0009765625 32.0001220703125 L 48 32.0001220703125 C 39.25391006469727 32.0013427734375 32.0771484375 39.11499404907227 32.0009765625 47.8587646484375 Z" stroke="none" fill="#1c1c1b"/>
    </g>
  </g>
</svg>
