<svg xmlns="http://www.w3.org/2000/svg" xmlns:xlink="http://www.w3.org/1999/xlink" width="150" height="150" viewBox="0 0 150 150">
  <defs>
    <clipPath id="clip-path">
      <rect id="mask" width="150" height="150" fill="none"/>
    </clipPath>
  </defs>
  <g id="ico_150_star_outline" clip-path="url(#clip-path)">
    <g id="star" transform="translate(-75 -75.001)" fill="none">
      <path d="M225,300a74.941,74.941,0,0,1-75-74.924A75.019,75.019,0,0,1,5.895,254.194,74.981,74.981,0,0,1,74.895,150,75.019,75.019,0,0,1,45.812,5.894,74.973,74.973,0,0,1,150,74.924,75.042,75.042,0,1,1,225.079,150,75,75,0,1,1,225,300ZM75,150v75H225V150h0a75.221,75.221,0,0,0-75,74.337H150C149.64,183.6,116.206,150.253,75.472,150A75.274,75.274,0,0,0,150,75.47,75.179,75.179,0,0,0,225,150l0,0,0-75H75v75Z" stroke="none"/>
      <path d="M 225.0029296875 299.00146484375 C 234.9912719726562 299.00146484375 244.6816253662109 297.0450744628906 253.8048858642578 293.1866149902344 C 262.6140441894531 289.4617309570312 270.5286865234375 284.125732421875 277.3289794921875 277.3268737792969 C 284.1248474121094 270.5299682617188 289.46142578125 262.6158142089844 293.1902465820312 253.8046569824219 C 297.0472717285156 244.6785430908203 299.0029296875 234.9876556396484 299.0029296875 225.0011138916016 C 299.0029296875 215.0143127441406 297.0472717285156 205.3232727050781 293.1904296875 196.1975860595703 C 289.4613037109375 187.3861999511719 284.1247253417969 179.4721527099609 277.3291320800781 172.6754608154297 C 270.5280456542969 165.8761901855469 262.6133728027344 160.5401611328125 253.8048553466797 156.8155822753906 C 244.9860687255859 153.0862121582031 235.6367340087891 151.1335906982422 226.0029296875 151.0072326660156 L 226.0029296875 226.0011138916016 L 151.0066680908203 226.0011138916016 C 151.1344909667969 235.6431884765625 153.0872497558594 244.9920959472656 156.8155822753906 253.8045043945312 C 160.5408477783203 262.6141662597656 165.8763885498047 270.5282287597656 172.6738891601562 277.3267822265625 C 179.4700012207031 284.1221923828125 187.3856964111328 289.4581909179688 196.2011566162109 293.1867065429688 C 205.3213500976562 297.0450744628906 215.0116882324219 299.00146484375 225.0029296875 299.00146484375 M 75 299.00146484375 C 84.99031066894531 299.00146484375 94.68161773681641 297.0450744628906 103.8047332763672 293.1867065429688 C 112.6177368164062 289.4582214355469 120.5314254760742 284.1222229003906 127.326042175293 277.3268737792969 C 134.1217346191406 270.5301208496094 139.4582672119141 262.615966796875 143.1872406005859 253.8047637939453 C 146.9134979248047 244.9857330322266 148.8653411865234 235.6359100341797 148.9933319091797 226.0011138916016 L 74 226.0011138916016 L 74 151.0072326660156 C 64.36366271972656 151.1336669921875 55.01587295532227 153.0863037109375 46.20100402832031 156.8155822753906 C 37.38911819458008 160.5416107177734 29.47342681884766 165.8776550292969 22.67396545410156 172.6753082275391 C 15.87650299072266 179.4738922119141 10.54096508026123 187.3878021240234 6.815541744232178 196.1973876953125 C 2.956618785858154 205.3210754394531 1.000003337860107 215.0120391845703 1.000003337860107 225.0011138916016 C 1.000003337860107 234.9895782470703 2.956618785858154 244.6803894042969 6.815580368041992 253.8045043945312 C 10.54084968566895 262.6141662597656 15.87638759613037 270.5282287597656 22.6738109588623 277.3267211914062 C 29.47342681884766 284.1245422363281 37.38911819458008 289.4605712890625 46.20115661621094 293.1867065429688 C 55.32135009765625 297.0450744628906 65.01069641113281 299.00146484375 75 299.00146484375 M 149.9975433349609 212.7207489013672 C 155.2543334960938 180.6889495849609 180.7172393798828 155.2649993896484 212.7124786376953 150.0025177001953 C 180.6970520019531 144.7506103515625 155.2557830810547 119.3426284790039 149.9978179931641 87.30025482177734 C 144.7273864746094 119.2835540771484 119.266845703125 144.7395935058594 87.28047943115234 150.0027770996094 C 119.2430191040039 155.2705078125 144.7257690429688 180.7441101074219 149.9975433349609 212.7207489013672 M 226.0000457763672 148.9942626953125 C 235.6348876953125 148.8683166503906 244.9846954345703 146.9157104492188 253.8048858642578 143.1858825683594 C 262.6133728027344 139.4613037109375 270.5280456542969 134.1252746582031 277.3289794921875 127.3261566162109 C 284.1247253417969 120.5293121337891 289.4613037109375 112.6152725219727 293.1902465820312 103.8043441772461 C 297.0472412109375 94.67784881591797 299.0029296875 84.98677062988281 299.0029296875 75.00038909912109 C 299.0029296875 65.01419067382812 297.0472412109375 55.3232307434082 293.1904296875 46.19726943969727 C 289.46142578125 37.3864631652832 284.1248474121094 29.47227096557617 277.3290710449219 22.67473220825195 C 270.5280456542969 15.87511730194092 262.6133728027344 10.53911685943604 253.8048095703125 6.814809322357178 C 244.6824188232422 2.95638632774353 234.9920806884766 1.000001668930054 225.0029296875 1.000001668930054 C 215.0108947753906 1.000001668930054 205.3205871582031 2.95638632774353 196.2011566162109 6.814770698547363 C 187.3841552734375 10.54480934143066 179.4684600830078 15.8808479309082 172.6739654541016 22.6745777130127 C 165.8763885498047 29.47323226928711 160.5408477783203 37.38731002807617 156.8155364990234 46.19704055786133 C 153.0872497558594 55.01212692260742 151.1344909667969 64.36093902587891 151.0066680908203 74.00038909912109 L 226.0029602050781 74.00038909912109 L 226.0000457763672 148.9942626953125 M 74 148.9942169189453 L 74 74.00038909912109 L 148.9933319091797 74.00038909912109 C 148.8655700683594 64.36069488525391 146.9137420654297 55.01183319091797 143.1874694824219 46.19723129272461 C 139.4585418701172 37.3857307434082 134.1219635009766 29.47157859802246 127.3261947631836 22.67477035522461 C 120.5258483886719 15.876540184021 112.6120834350586 10.54050159454346 103.8048095703125 6.814809322357178 C 94.68242645263672 2.95638632774353 84.99111938476562 1.000001668930054 75 1.000001668930054 C 65.0098876953125 1.000001668930054 55.32057952880859 2.95638632774353 46.20096588134766 6.814886093139648 C 37.38911819458008 10.54053974151611 29.47342681884766 15.87657833099365 22.67400360107422 22.67453956604004 C 15.87638759613037 29.47400093078613 10.54084968566895 37.38807678222656 6.815541744232178 46.19704055786133 C 2.956618785858154 55.32107925415039 1.000003337860107 65.01192474365234 1.000003337860107 75.00038909912109 C 1.000003337860107 84.98903656005859 2.956618785858154 94.68000030517578 6.815580368041992 103.8041152954102 C 10.54096508026123 112.613655090332 15.87650299072266 120.5275802612305 22.6738109588623 127.3260040283203 C 29.47342681884766 134.1238098144531 37.38911819458008 139.4598541259766 46.20123291015625 143.1860046386719 C 55.01308059692383 146.9148712158203 64.36099243164062 148.8674621582031 74 148.9942169189453 M 225.0029296875 300.00146484375 C 214.8779296875 300.00146484375 205.0547027587891 298.01806640625 195.8115386962891 294.107666015625 C 186.8759613037109 290.3283996582031 178.8545074462891 284.9208984375 171.9668121337891 278.033935546875 C 165.0791168212891 271.1451416015625 159.6708831787109 263.1243896484375 155.8945465087891 254.1939697265625 C 151.9922027587891 244.9702301025391 150.0117340087891 235.1744232177734 150 225.0772705078125 C 149.9882659912109 235.1773834228516 148.0048828125 244.9720458984375 144.1083831787109 254.1939697265625 C 140.3291168212891 263.1240539550781 134.9208831787109 271.1451416015625 128.033203125 278.033935546875 C 121.1455001831055 284.9223937988281 113.1240386962891 290.329833984375 104.1943511962891 294.107666015625 C 94.94823455810547 298.01806640625 85.125 300.00146484375 75 300.00146484375 C 64.875 300.00146484375 55.05469512939453 298.01806640625 45.81154251098633 294.107666015625 C 36.87892532348633 290.33056640625 28.85742568969727 284.9227294921875 21.96681022644043 278.033935546875 C 15.0791187286377 271.1451416015625 9.67088794708252 263.1243896484375 5.89454174041748 254.1939697265625 C 1.98338794708252 244.9464263916016 3.305288373667281e-06 235.1246490478516 3.305288373667281e-06 225.0011138916016 C 3.305288373667281e-06 214.877197265625 1.98338794708252 205.0550384521484 5.89454174041748 195.8078460693359 C 9.67088794708252 186.8778076171875 15.0791187286377 178.8570404052734 21.96681022644043 171.9682769775391 C 28.85742568969727 165.0794677734375 36.87892532348633 159.6716156005859 45.81154251098633 155.8945465087891 C 55.02246475219727 151.9976959228516 64.8076171875 150.0146484375 74.89453887939453 150.000732421875 C 64.80469512939453 149.9864654541016 55.0195426940918 148.00341796875 45.81154251098633 144.1069183349609 C 36.87892532348633 140.3298492431641 28.85742568969727 134.9219970703125 21.96681022644043 128.0331878662109 C 15.0791187286377 121.1444244384766 9.67088794708252 113.1236572265625 5.89454174041748 104.1936187744141 C 1.98338794708252 94.94603729248047 3.305288373667281e-06 85.124267578125 3.305288373667281e-06 75.00038909912109 C 3.305288373667281e-06 64.87684631347656 1.98338794708252 55.05503845214844 5.89454174041748 45.80750274658203 C 9.67088794708252 36.8778076171875 15.0791187286377 28.85707855224609 21.96681022644043 21.9675407409668 C 28.85742568969727 15.0783863067627 36.87892532348633 9.670539855957031 45.81154251098633 5.89380931854248 C 55.05469512939453 1.98304009437561 64.875 1.652644186833641e-06 75 1.652644186833641e-06 C 85.125 1.652644186833641e-06 94.94823455810547 1.98304009437561 104.1943511962891 5.89380931854248 C 113.1240386962891 9.671271324157715 121.142578125 15.07911682128906 128.033203125 21.9675407409668 C 134.9208831787109 28.85630989074707 140.3291168212891 36.87707901000977 144.1083831787109 45.80750274658203 C 148.0078125 55.0316162109375 149.9882659912109 64.82738494873047 150 74.9241943359375 C 150.0117340087891 64.822998046875 151.9951171875 55.0272331237793 155.8945465087891 45.80750274658203 C 159.6708831787109 36.87707901000977 165.0791168212891 28.85630989074707 171.9668121337891 21.9675407409668 C 178.8545074462891 15.08057880401611 186.8789215087891 9.672732353210449 195.8115386962891 5.89380931854248 C 205.0547027587891 1.98304009437561 214.8779296875 1.652644186833641e-06 225.0029296875 1.652644186833641e-06 C 235.1279296875 1.652644186833641e-06 244.9482269287109 1.98304009437561 254.1943511962891 5.89380931854248 C 263.126953125 9.670539855957031 271.1455078125 15.0783863067627 278.0361328125 21.9675407409668 C 284.9238586425781 28.85707855224609 290.33203125 36.8778076171875 294.1113586425781 45.80750274658203 C 298.01953125 55.05503845214844 300.0029296875 64.87684631347656 300.0029296875 75.00038909912109 C 300.0029296875 85.124267578125 298.01953125 94.94603729248047 294.1113586425781 104.1936187744141 C 290.33203125 113.1236572265625 284.9238586425781 121.1444244384766 278.0361328125 128.0331878662109 C 271.1455078125 134.9219970703125 263.126953125 140.3298492431641 254.1943511962891 144.1069183349609 C 244.9687652587891 148.0081939697266 235.1748046875 149.9908447265625 225.0791168212891 150.000732421875 C 235.177734375 150.0106201171875 244.9716949462891 151.994384765625 254.1943511962891 155.8945465087891 C 263.126953125 159.6716156005859 271.1455078125 165.0794677734375 278.0361328125 171.9682769775391 C 284.9238586425781 178.8570404052734 290.33203125 186.8778076171875 294.1113586425781 195.8078460693359 C 298.01953125 205.0550384521484 300.0029296875 214.877197265625 300.0029296875 225.0011138916016 C 300.0029296875 235.1246490478516 298.01953125 244.94677734375 294.1113586425781 254.1939697265625 C 290.33203125 263.1243896484375 284.9238586425781 271.1451416015625 278.0361328125 278.033935546875 C 271.1455078125 284.9231262207031 263.126953125 290.33056640625 254.1943511962891 294.107666015625 C 244.9482269287109 298.01806640625 235.1279296875 300.00146484375 225.0029296875 300.00146484375 Z M 75 75.00038909912109 L 75 225.0011138916016 L 225.0029296875 225.0011138916016 L 225.0029296875 150.000732421875 L 225 149.997802734375 L 225.0029296875 75.00038909912109 L 75 75.00038909912109 Z M 150.0029296875 224.337890625 L 149.9970855712891 224.337890625 C 149.6396636962891 183.599853515625 116.2060394287109 150.2527008056641 75.47169494628906 150.002197265625 C 116.3144683837891 149.7476959228516 149.748046875 116.3151931762695 150 75.47023010253906 C 150.2548828125 116.5664215087891 183.8964996337891 150.000732421875 225.0029296875 150.000732421875 L 225 150.000732421875 C 184.0019683837891 150.0062255859375 150.3603515625 183.3515777587891 150.0029296875 224.337890625 Z" stroke="none" fill="#1c1c1b"/>
    </g>
  </g>
</svg>
