<svg xmlns="http://www.w3.org/2000/svg" xmlns:xlink="http://www.w3.org/1999/xlink" width="16" height="16" viewBox="0 0 16 16">
  <defs>
    <clipPath id="clip-path">
      <rect id="mask" width="16" height="16" fill="none"/>
    </clipPath>
  </defs>
  <g id="ico_16_star_outline" clip-path="url(#clip-path)">
    <g id="star" transform="translate(-8 -8)" fill="none">
      <path d="M24,32a7.993,7.993,0,0,1-8-7.992A8,8,0,0,1,.629,27.114,8,8,0,0,1,7.989,16,8,8,0,0,1,2.343,2.343,8,8,0,0,1,16,7.992,8,8,0,1,1,24.008,16,8,8,0,1,1,24,32ZM8,16v8H24V16h0a8.024,8.024,0,0,0-8,7.929h0A8.033,8.033,0,0,0,8.05,16,8.029,8.029,0,0,0,16,8.05,8.019,8.019,0,0,0,24,16h0V8H8v8Z" stroke="none"/>
      <path d="M 24.00030136108398 31.00015640258789 C 24.94552040100098 31.00015640258789 25.86201095581055 30.81521606445312 26.72445106506348 30.45042610168457 C 27.55774116516113 30.09809684753418 28.30657005310059 29.59320640563965 28.94997024536133 28.94993591308594 C 29.59331130981445 28.30646705627441 30.09823036193848 27.55770683288574 30.45065116882324 26.72459602355957 C 30.81537055969238 25.86200714111328 31.00030136108398 24.94535636901855 31.00030136108398 24.0001163482666 C 31.00030136108398 23.05487632751465 30.81537055969238 22.13820648193359 30.45071983337402 21.27576637268066 C 30.09822082519531 20.44249534606934 29.59329986572266 19.69374656677246 28.95013046264648 19.05045700073242 C 28.30652046203613 18.40701675415039 27.55770111083984 17.9021167755127 26.72430038452148 17.54974555969238 C 26.1697940826416 17.315185546875 25.59289741516113 17.15499114990234 25.00030136108398 17.07051658630371 L 25.00030136108398 25.0001163482666 L 17.07046699523926 25.0001163482666 C 17.15494537353516 25.5930347442627 17.31511878967285 26.17009353637695 17.54960060119629 26.72444534301758 C 17.90207099914551 27.55769538879395 18.40699005126953 28.30645561218262 19.05022048950195 28.94981575012207 C 19.6934814453125 29.59301567077637 20.44231986999512 30.0979061126709 21.27599143981934 30.45047569274902 C 22.13829040527344 30.81521606445312 23.05488014221191 31.00015640258789 24.00030136108398 31.00015640258789 M 8.000000953674316 31.00015640258789 C 8.945420265197754 31.00015640258789 9.862010955810547 30.81521606445312 10.72428035736084 30.45049667358398 C 11.5580005645752 30.09780693054199 12.30674076080322 29.59292602539062 12.94967079162598 28.94993591308594 C 13.59299087524414 28.30648612976074 14.09791088104248 27.55772590637207 14.45032024383545 26.7246265411377 C 14.6847972869873 26.17002296447754 14.84498500823975 25.59286499023438 14.92948722839355 25.0001163482666 L 7.000000476837158 25.0001163482666 L 7.000000476837158 17.07051467895508 C 6.407354831695557 17.15499687194824 5.830372333526611 17.31521415710449 5.275850772857666 17.54980659484863 C 4.442600727081299 17.9021167755127 3.693780660629272 18.40701675415039 3.050320625305176 19.05030632019043 C 2.407000780105591 19.69375610351562 1.902080655097961 20.44250679016113 1.549660682678223 21.27559661865234 C 1.184930682182312 22.13820648193359 1.000000715255737 23.05486679077148 1.000000715255737 24.0001163482666 C 1.000000715255737 24.94532585144043 1.184930682182312 25.86197662353516 1.549600720405579 26.72444534301758 C 1.902070641517639 27.55769538879395 2.406990766525269 28.30645561218262 3.050170660018921 28.94977569580078 C 3.693780660629272 29.59321594238281 4.442600727081299 30.09811592102051 5.27599048614502 30.45047569274902 C 6.138290882110596 30.81521606445312 7.05478048324585 31.00015640258789 8.000000953674316 31.00015640258789 M 15.99828720092773 19.89225387573242 C 16.8591251373291 18.22781944274902 18.22480773925781 16.86228561401367 19.88826942443848 16.00104713439941 C 18.2239990234375 15.14052486419678 16.85887145996094 13.77578830718994 15.99817276000977 12.11098957061768 C 15.13610458374023 13.77428436279297 13.76981544494629 15.1396598815918 12.10601329803467 16.00086975097656 C 13.76956748962402 16.8626880645752 15.13593196868896 18.22864151000977 15.99828720092773 19.89225387573242 M 25.00004005432129 14.92966651916504 C 25.59270477294922 14.84519195556641 26.1697826385498 14.68496036529541 26.72445106506348 14.45034599304199 C 27.55770111083984 14.09803676605225 28.30652046203613 13.59313583374023 28.94997978210449 12.9498462677002 C 29.59329986572266 12.30640602111816 30.09822082519531 11.55765628814697 30.45064163208008 10.72456645965576 C 30.81537055969238 9.861946105957031 31.00030136108398 8.945276260375977 31.00030136108398 8.000036239624023 C 31.00030136108398 7.054826259613037 30.81537055969238 6.138176441192627 30.45073127746582 5.275736331939697 C 30.09823036193848 4.442516326904297 29.59329032897949 3.69373631477356 28.95012092590332 3.050366401672363 C 28.30652046203613 2.406896352767944 27.55770111083984 1.902016282081604 26.72430038452148 1.549676299095154 C 25.86202049255371 1.184936285018921 24.94552993774414 0.9999963045120239 24.00030136108398 0.9999963045120239 C 23.05487060546875 0.9999963045120239 22.13828086853027 1.184936285018921 21.2760009765625 1.549676299095154 C 20.44222068786621 1.902376294136047 19.69336128234863 2.40726637840271 19.05033111572266 3.050216197967529 C 18.40699005126953 3.693696260452271 17.90207099914551 4.442456245422363 17.54964065551758 5.275596141815186 C 17.31516075134277 5.83009672164917 17.15498161315918 6.407204151153564 17.07049179077148 7.000036239624023 L 25.00034141540527 7.000036239624023 L 25.00004005432129 14.92966651916504 M 7.000000476837158 14.92966079711914 L 7.000000476837158 7.000036239624023 L 14.92953014373779 7.000036239624023 C 14.84505271911621 6.407122611999512 14.68488216400146 5.830078601837158 14.45040035247803 5.27570629119873 C 14.09793090820312 4.442456245422363 13.59301090240479 3.693696260452271 12.94985103607178 3.050396203994751 C 12.30627059936523 2.407016277313232 11.5575008392334 1.902106285095215 10.72430038452148 1.549676299095154 C 9.862020492553711 1.184936285018921 8.945430755615234 0.9999963045120239 8.000000953674316 0.9999963045120239 C 7.054770469665527 0.9999963045120239 6.138280868530273 1.184936285018921 5.275820732116699 1.549756288528442 C 4.442600727081299 1.902016282081604 3.693780660629272 2.406896352767944 3.050360679626465 3.050186395645142 C 2.407010793685913 3.69373631477356 1.902070641517639 4.442516326904297 1.549660682678223 5.275556087493896 C 1.184930682182312 6.138176441192627 1.000000715255737 7.054826259613037 1.000000715255737 8.000036239624023 C 1.000000715255737 8.945286750793457 1.184930682182312 9.861946105957031 1.549590706825256 10.72439670562744 C 1.902080655097961 11.55764675140381 2.407000780105591 12.306396484375 3.050170660018921 12.94969654083252 C 3.693780660629272 13.59313583374023 4.442600727081299 14.09803676605225 5.276110649108887 14.45044612884521 C 5.83042049407959 14.68500137329102 6.407289505004883 14.84519481658936 7.000000476837158 14.92966079711914 M 24.00030136108398 32.00015640258789 C 22.92037010192871 32.00015640258789 21.87260055541992 31.78861618041992 20.88642120361328 31.3714771270752 C 19.93329048156738 30.96837615966797 19.07783126831055 30.39156723022461 18.3431510925293 29.65696716308594 C 17.60847091674805 28.9221363067627 17.03155136108398 28.06659698486328 16.62861061096191 27.11403656005859 C 16.21244049072266 26.13014602661133 16.00120162963867 25.08526611328125 16 24.00822639465332 C 15.99880027770996 25.08559608459473 15.78726100921631 26.1303768157959 15.3713903427124 27.11403656005859 C 14.96845054626465 28.06655693054199 14.39153099060059 28.9221363067627 13.65685081481934 29.65696716308594 C 12.92218112945557 30.39171600341797 12.06641101837158 30.96852684020996 11.11388111114502 31.3714771270752 C 10.12770080566406 31.78861618041992 9.079930305480957 32.00015640258789 8.000000953674316 32.00015640258789 C 6.920070648193359 32.00015640258789 5.872600555419922 31.78861618041992 4.886420726776123 31.3714771270752 C 3.933590650558472 30.96860694885254 3.078120708465576 30.39175605773926 2.343150615692139 29.65696716308594 C 1.608470678329468 28.9221363067627 1.031550645828247 28.06659698486328 0.6286106705665588 27.11403656005859 C 0.2115406841039658 26.12762641906738 6.805419729971618e-07 25.07996559143066 6.805419729971618e-07 24.0001163482666 C 6.805419729971618e-07 22.92022705078125 0.2115406841039658 21.87255668640137 0.6286106705665588 20.88615608215332 C 1.031550645828247 19.93363571166992 1.608470678329468 19.07808685302734 2.343150615692139 18.34326553344727 C 3.078120708465576 17.60847663879395 3.933590650558472 17.03162574768066 4.886420726776123 16.62875556945801 C 5.868990898132324 16.21307563781738 6.912860870361328 16.0015754699707 7.988580703735352 16.00007629394531 C 6.91256046295166 15.99857616424561 5.868690490722656 15.78703594207764 4.886420726776123 15.3713960647583 C 3.933590650558472 14.96852588653564 3.078120708465576 14.39167594909668 2.343150615692139 13.65688610076904 C 1.608470678329468 12.9220666885376 1.031550645828247 12.06651592254639 0.6286106705665588 11.1139965057373 C 0.2115406841039658 10.12759590148926 6.805419729971618e-07 9.079926490783691 6.805419729971618e-07 8.000036239624023 C 6.805419729971618e-07 6.920186519622803 0.2115406841039658 5.872526168823242 0.6286106705665588 4.886116504669189 C 1.031550645828247 3.93363618850708 1.608470678329468 3.078086376190186 2.343150615692139 2.343186378479004 C 3.078120708465576 1.608366250991821 3.933590650558472 1.031516313552856 4.886420726776123 0.6286863088607788 C 5.872600555419922 0.2115362882614136 6.920070648193359 -3.706054712893092e-06 8.000000953674316 -3.706054712893092e-06 C 9.079930305480957 -3.706054712893092e-06 10.12770080566406 0.2115362882614136 11.11388111114502 0.6286863088607788 C 12.06641101837158 1.031586289405823 12.9218807220459 1.608436346054077 13.65685081481934 2.343186378479004 C 14.39153099060059 3.07801628112793 14.96845054626465 3.933556318283081 15.3713903427124 4.886116504669189 C 15.78756046295166 5.870046138763428 15.99880027770996 6.914926528930664 16 7.991926193237305 C 16.00120162963867 6.914436340332031 16.21273994445801 5.869556427001953 16.62861061096191 4.886116504669189 C 17.03155136108398 3.933556318283081 17.60847091674805 3.07801628112793 18.3431510925293 2.343186378479004 C 19.07783126831055 1.608586311340332 19.93358993530273 1.031736254692078 20.88642120361328 0.6286863088607788 C 21.87260055541992 0.2115362882614136 22.92037010192871 -3.706054712893092e-06 24.00030136108398 -3.706054712893092e-06 C 25.08023071289062 -3.706054712893092e-06 26.12770080566406 0.2115362882614136 27.1138801574707 0.6286863088607788 C 28.06671142578125 1.031516313552856 28.92218017578125 1.608366250991821 29.65715026855469 2.343186378479004 C 30.39183044433594 3.078086376190186 30.96875 3.93363618850708 31.37170028686523 4.886116504669189 C 31.78876113891602 5.872526168823242 32.00030136108398 6.920186519622803 32.00030136108398 8.000036239624023 C 32.00030136108398 9.079926490783691 31.78876113891602 10.12759590148926 31.37170028686523 11.1139965057373 C 30.96875 12.06651592254639 30.39183044433594 12.9220666885376 29.65715026855469 13.65688610076904 C 28.92218017578125 14.39167594909668 28.06671142578125 14.96852588653564 27.1138801574707 15.3713960647583 C 26.1301097869873 15.78752613067627 25.08534049987793 15.99902629852295 24.0084114074707 16.00007629394531 C 25.08563995361328 16.00112724304199 26.13041114807129 16.21274566650391 27.1138801574707 16.62875556945801 C 28.06671142578125 17.03162574768066 28.92218017578125 17.60847663879395 29.65715026855469 18.34326553344727 C 30.39183044433594 19.07808685302734 30.96875 19.93363571166992 31.37170028686523 20.88615608215332 C 31.78876113891602 21.87255668640137 32.00030136108398 22.92022705078125 32.00030136108398 24.0001163482666 C 32.00030136108398 25.07996559143066 31.78876113891602 26.12766647338867 31.37170028686523 27.11403656005859 C 30.96875 28.06659698486328 30.39183044433594 28.9221363067627 29.65715026855469 29.65696716308594 C 28.92218017578125 30.39178657531738 28.06671142578125 30.96860694885254 27.1138801574707 31.3714771270752 C 26.12770080566406 31.78861618041992 25.08023071289062 32.00015640258789 24.00030136108398 32.00015640258789 Z M 8.000000953674316 8.000036239624023 L 8.000000953674316 24.0001163482666 L 24.00030136108398 24.0001163482666 L 24.00030136108398 8.000036239624023 L 8.000000953674316 8.000036239624023 Z M 16.00030136108398 23.92938613891602 L 15.99970054626465 23.92938613891602 C 15.96154022216797 19.58398628234863 12.39543056488037 16.0269660949707 8.050180435180664 16.0002269744873 C 12.40685081481934 15.97306632995605 15.97296047210693 12.40696620941162 16 8.050146102905273 C 16.02704048156738 12.43374633789062 19.61569023132324 16.00007629394531 24.00030136108398 16.00007629394531 L 24 16.00007629394531 C 19.62680053710938 16.00067710876465 16.03845977783203 19.5575065612793 16.00030136108398 23.92938613891602 Z" stroke="none" fill="#1c1c1b"/>
    </g>
  </g>
</svg>
