<svg xmlns="http://www.w3.org/2000/svg" xmlns:xlink="http://www.w3.org/1999/xlink" width="18" height="18" viewBox="0 0 18 18">
  <defs>
    <clipPath id="clip-path">
      <rect id="mask" width="18" height="18" fill="none"/>
    </clipPath>
  </defs>
  <g id="ico_18_star" clip-path="url(#clip-path)">
    <path id="star" d="M27,36a8.992,8.992,0,0,1-9-8.991A9,9,0,0,1,.707,30.5,9,9,0,0,1,8.987,18,9,9,0,0,1,2.636,2.636,9,9,0,0,1,18,8.991,9,9,0,1,1,27.009,18,9,9,0,1,1,27,36ZM9,18v9H27V18h0a9.027,9.027,0,0,0-9,8.92h0A9.037,9.037,0,0,0,9.056,18,9.033,9.033,0,0,0,18,9.056,9.021,9.021,0,0,0,27,18h0V9H9v9Z" transform="translate(-9 -9)" fill="#1c1c1b"/>
  </g>
</svg>
