<svg xmlns="http://www.w3.org/2000/svg" xmlns:xlink="http://www.w3.org/1999/xlink" width="150" height="150" viewBox="0 0 150 150">
  <defs>
    <clipPath id="clip-path">
      <rect id="mask" width="150" height="150" fill="none"/>
    </clipPath>
  </defs>
  <g id="ico_150_star" clip-path="url(#clip-path)">
    <path id="star" d="M225,300a74.941,74.941,0,0,1-75-74.924A75.019,75.019,0,0,1,5.895,254.194,74.981,74.981,0,0,1,74.895,150,75.019,75.019,0,0,1,45.812,5.894,74.973,74.973,0,0,1,150,74.924,75.042,75.042,0,1,1,225.079,150,75,75,0,1,1,225,300ZM75,150v75H225V150h0a75.221,75.221,0,0,0-75,74.337H150C149.64,183.6,116.206,150.253,75.472,150A75.274,75.274,0,0,0,150,75.47,75.179,75.179,0,0,0,225,150l0,0,0-75H75v75Z" transform="translate(-75 -75.001)" fill="#1c1c1b"/>
  </g>
</svg>
