<svg xmlns="http://www.w3.org/2000/svg" xmlns:xlink="http://www.w3.org/1999/xlink" width="18" height="18" viewBox="0 0 18 18">
  <defs>
    <clipPath id="clip-path">
      <rect id="mask" width="18" height="18" fill="none"/>
    </clipPath>
  </defs>
  <g id="ico_18_star_outline" clip-path="url(#clip-path)">
    <g id="star" transform="translate(-9 -9)" fill="none">
      <path d="M27,36a8.992,8.992,0,0,1-9-8.991A9,9,0,0,1,.707,30.5,9,9,0,0,1,8.987,18,9,9,0,0,1,2.636,2.636,9,9,0,0,1,18,8.991,9,9,0,1,1,27.009,18,9,9,0,1,1,27,36ZM9,18v9H27V18h0a9.027,9.027,0,0,0-9,8.92h0A9.037,9.037,0,0,0,9.056,18,9.033,9.033,0,0,0,18,9.056,9.021,9.021,0,0,0,27,18h0V9H9v9Z" stroke="none"/>
      <path d="M 27.00033950805664 35.00017547607422 C 28.08053016662598 35.00017547607422 29.12796974182129 34.78879547119141 30.11367988586426 34.37185668945312 C 31.06604957580566 33.96917724609375 31.92184066772461 33.39218521118164 32.65711975097656 32.65705490112305 C 33.39228820800781 31.92172622680664 33.96931838989258 31.06601524353027 34.37210845947266 30.11383628845215 C 34.78897094726562 29.12795639038086 35.00033950805664 28.08035659790039 35.00033950805664 27.00012588500977 C 35.00033950805664 25.91990661621094 34.78897094726562 24.87228584289551 34.3721809387207 23.88653564453125 C 33.96931838989258 22.9342155456543 33.39228820800781 22.07851600646973 32.65729141235352 21.3433666229248 C 31.92176055908203 20.60803604125977 31.06596946716309 20.03104591369629 30.11352920532227 19.62834548950195 C 29.43528938293457 19.3414478302002 28.72773551940918 19.15187454223633 28.00033950805664 19.06155204772949 L 28.00033950805664 28.00012588500977 L 19.06150245666504 28.00012588500977 C 19.15183258056641 28.72794342041016 19.34136581420898 29.43565368652344 19.62817001342773 30.11369514465332 C 20.0310001373291 31.06600570678711 20.60803031921387 31.92171669006348 21.34310913085938 32.65693664550781 C 22.07822036743164 33.39197540283203 22.93401908874512 33.96896743774414 23.88678932189941 34.37190628051758 C 24.87236976623535 34.78879547119141 25.91992950439453 35.00017547607422 27.00033950805664 35.00017547607422 M 9 35.00017547607422 C 10.08041000366211 35.00017547607422 11.12796974182129 34.78879547119141 12.1135196685791 34.37192535400391 C 13.06633949279785 33.96885681152344 13.92202949523926 33.39187622070312 14.65677928924561 32.65705490112305 C 15.39194011688232 31.9217357635498 15.96896934509277 31.06602668762207 16.37174987792969 30.1138858795166 C 16.65854454040527 29.43552780151367 16.84809494018555 28.72770309448242 16.93845367431641 28.00012588500977 L 7.999999523162842 28.00012588500977 L 7.999999523162842 19.06155395507812 C 7.272515773773193 19.15188217163086 6.564918994903564 19.34146881103516 5.886649608612061 19.62841606140137 C 4.934369564056396 20.03104591369629 4.078579902648926 20.60803604125977 3.343219757080078 21.34319496154785 C 2.608039855957031 22.07853507995605 2.031009674072266 22.93423652648926 1.628229737281799 23.88636589050293 C 1.211369752883911 24.87228584289551 0.9999997615814209 25.91990661621094 0.9999997615814209 27.00012588500977 C 0.9999997615814209 28.0803165435791 1.211369752883911 29.12792587280273 1.628169775009155 30.11369514465332 C 2.030999660491943 31.06600570678711 2.608029842376709 31.92171669006348 3.343059778213501 32.65688705444336 C 4.078559875488281 33.39220428466797 4.934349536895752 33.96920394897461 5.886789798736572 34.37190628051758 C 6.872369766235352 34.78879547119141 7.919809818267822 35.00017547607422 9 35.00017547607422 M 17.99823379516602 22.6571102142334 C 18.98219299316406 20.6330451965332 20.63006019592285 18.9856014251709 22.6528491973877 18.00110054016113 C 20.62943840026855 17.01755523681641 18.98184204101562 15.37060451507568 17.99811553955078 13.34646701812744 C 17.01255416870117 15.36893844604492 15.36418628692627 17.0165843963623 13.34101963043213 18.00091171264648 C 15.36341571807861 18.98610687255859 17.0125789642334 20.63448143005371 17.99823379516602 22.6571102142334 M 28.00004005432129 16.93865394592285 C 28.72750854492188 16.84833526611328 29.43526268005371 16.65873146057129 30.11367988586426 16.37176513671875 C 31.06599044799805 15.9691162109375 31.92177963256836 15.39211559295654 32.65711975097656 14.65695571899414 C 33.39228820800781 13.92165565490723 33.96931838989258 13.06595611572266 34.37210845947266 12.11380577087402 C 34.78897094726562 11.12788581848145 35.00033950805664 10.08026599884033 35.00033950805664 9.000045776367188 C 35.00033950805664 7.91985559463501 34.78897094726562 6.872245788574219 34.3721809387207 5.886505603790283 C 33.96932983398438 4.9342360496521 33.39228057861328 4.078505992889404 32.65726852416992 3.343265771865845 C 31.92177963256836 2.607925891876221 31.06599998474121 2.030935764312744 30.11355018615723 1.628255844116211 C 29.12797927856445 1.211375832557678 28.0805492401123 0.9999958276748657 27.00033950805664 0.9999958276748657 C 25.91989898681641 0.9999958276748657 24.87236022949219 1.211375832557678 23.88681030273438 1.628255844116211 C 22.93387985229492 2.031355857849121 22.07805061340332 2.608355760574341 21.34321975708008 3.34311580657959 C 20.60803031921387 4.078455924987793 20.0310001373291 4.934165954589844 19.62821006774902 5.88636589050293 C 19.34140968322754 6.564589977264404 19.15186882019043 7.272353172302246 19.06152534484863 8.000045776367188 L 28.00037956237793 8.000045776367188 L 28.00004005432129 16.93865394592285 M 7.999999523162842 16.93864059448242 L 7.999999523162842 8.000045776367188 L 16.93849563598633 8.000045776367188 C 16.84816551208496 7.272236824035645 16.65863418579102 6.564538955688477 16.37182998657227 5.886476039886475 C 15.9689998626709 4.934165954589844 15.39196968078613 4.078455924987793 14.65695953369141 3.343295812606812 C 13.92150020599365 2.608065843582153 13.06577968597412 2.031045913696289 12.11355018615723 1.628255844116211 C 11.12797927856445 1.211375832557678 10.08043956756592 0.9999958276748657 9 0.9999958276748657 C 7.919789791107178 0.9999958276748657 6.872359752655029 1.211375832557678 5.886629581451416 1.6283358335495 C 4.93433952331543 2.030935764312744 4.078559875488281 2.607925891876221 3.343249797821045 3.343085765838623 C 2.608039855957031 4.078516006469727 2.030999660491943 4.934246063232422 1.628229737281799 5.886325836181641 C 1.211369752883911 6.872245788574219 0.9999997615814209 7.91985559463501 0.9999997615814209 9.000045776367188 C 0.9999997615814209 10.08026599884033 1.211369752883911 11.12788581848145 1.628159761428833 12.11364555358887 C 2.031009674072266 13.06594562530518 2.608039855957031 13.92163562774658 3.343059778213501 14.65679550170898 C 4.078559875488281 15.39211559295654 4.934349536895752 15.9691162109375 5.886909961700439 16.37187576293945 C 6.564921379089355 16.65877342224121 7.272411823272705 16.84833145141602 7.999999523162842 16.93864059448242 M 27.00033950805664 36.00017547607422 C 25.78541946411133 36.00017547607422 24.60667037963867 35.76218414306641 23.49721908569336 35.29290771484375 C 22.42495918273926 34.83942413330078 21.46254920959473 34.19050598144531 20.63603973388672 33.36408615112305 C 19.80953025817871 32.53740692138672 19.16049003601074 31.57491493225098 18.70718002319336 30.50328636169434 C 18.23898887634277 29.39641571044922 18.00135040283203 28.22092628479004 18 27.00925636291504 C 17.99864959716797 28.2212963104248 17.76066970825195 29.39666557312012 17.29281997680664 30.50328636169434 C 16.83950996398926 31.57487487792969 16.19046974182129 32.53740692138672 15.36395931243896 33.36408615112305 C 14.53744983673096 34.19067764282227 13.57470989227295 34.83959579467773 12.50311946868896 35.29290771484375 C 11.39367008209229 35.76218414306641 10.21492004394531 36.00017547607422 9 36.00017547607422 C 7.785079956054688 36.00017547607422 6.606669902801514 35.76218414306641 5.497219562530518 35.29290771484375 C 4.425289630889893 34.83967590332031 3.462889671325684 34.19072723388672 2.636039733886719 33.36408615112305 C 1.809529781341553 32.53740692138672 1.160489797592163 31.57491493225098 0.7071797251701355 30.50328636169434 C 0.2379797548055649 29.39358520507812 -2.459716768044018e-07 28.2149658203125 -2.459716768044018e-07 27.00012588500977 C -2.459716768044018e-07 25.78525543212891 0.2379797548055649 24.60662651062012 0.7071797251701355 23.49692535400391 C 1.160489797592163 22.42533493041992 1.809529781341553 21.46284675598145 2.636039733886719 20.63616561889648 C 3.462889671325684 19.80953598022461 4.425289630889893 19.16057586669922 5.497219562530518 18.70735549926758 C 6.602619647979736 18.23971557617188 7.776969909667969 18.00177574157715 8.987159729003906 18.00008583068848 C 7.77662992477417 17.9983959197998 6.602279663085938 17.76041603088379 5.497219562530518 17.29281616210938 C 4.425289630889893 16.83958625793457 3.462889671325684 16.19063568115234 2.636039733886719 15.36399555206299 C 1.809529781341553 14.53732585906982 1.160489797592163 13.57483577728271 0.7071797251701355 12.50324630737305 C 0.2379797548055649 11.39354610443115 -2.459716768044018e-07 10.21491622924805 -2.459716768044018e-07 9.000045776367188 C -2.459716768044018e-07 7.785205841064453 0.2379797548055649 6.60658597946167 0.7071797251701355 5.496885776519775 C 1.160489797592163 4.425335884094238 1.809529781341553 3.462845802307129 2.636039733886719 2.636085748672485 C 3.462889671325684 1.80940580368042 4.425289630889893 1.160455822944641 5.497219562530518 0.7072658538818359 C 6.606669902801514 0.2379758358001709 7.785079956054688 -4.169311523583019e-06 9 -4.169311523583019e-06 C 10.21492004394531 -4.169311523583019e-06 11.39367008209229 0.2379758358001709 12.50311946868896 0.7072658538818359 C 13.57470989227295 1.16053581237793 14.537109375 1.809485793113708 15.36395931243896 2.636085748672485 C 16.19046974182129 3.46276593208313 16.83950996398926 4.42525577545166 17.29281997680664 5.496885776519775 C 17.76100921630859 6.603796005249023 17.99864959716797 7.779295921325684 18 8.99091625213623 C 18.00135040283203 7.778745651245117 18.23933029174805 6.603245735168457 18.70718002319336 5.496885776519775 C 19.16049003601074 4.42525577545166 19.80953025817871 3.46276593208313 20.63603973388672 2.636085748672485 C 21.46254920959473 1.809655785560608 22.42528915405273 1.160705804824829 23.49721908569336 0.7072658538818359 C 24.60667037963867 0.2379758358001709 25.78541946411133 -4.169311523583019e-06 27.00033950805664 -4.169311523583019e-06 C 28.21525955200195 -4.169311523583019e-06 29.39366912841797 0.2379758358001709 30.50312042236328 0.7072658538818359 C 31.57505035400391 1.160455822944641 32.53744888305664 1.80940580368042 33.36429977416992 2.636085748672485 C 34.19081115722656 3.462845802307129 34.83983993530273 4.425335884094238 35.29315948486328 5.496885776519775 C 35.76235961914062 6.60658597946167 36.00033950805664 7.785205841064453 36.00033950805664 9.000045776367188 C 36.00033950805664 10.21491622924805 35.76235961914062 11.39354610443115 35.29315948486328 12.50324630737305 C 34.83983993530273 13.57483577728271 34.19081115722656 14.53732585906982 33.36429977416992 15.36399555206299 C 32.53744888305664 16.19063568115234 31.57505035400391 16.83958625793457 30.50312042236328 17.29281616210938 C 29.39636993408203 17.76096534729004 28.22101020812988 17.99890518188477 27.00946998596191 18.00008583068848 C 28.22134017944336 18.00126647949219 29.39670944213867 18.23933601379395 30.50312042236328 18.70735549926758 C 31.57505035400391 19.16057586669922 32.53744888305664 19.80953598022461 33.36429977416992 20.63616561889648 C 34.19081115722656 21.46284675598145 34.83983993530273 22.42533493041992 35.29315948486328 23.49692535400391 C 35.76235961914062 24.60662651062012 36.00033950805664 25.78525543212891 36.00033950805664 27.00012588500977 C 36.00033950805664 28.2149658203125 35.76235961914062 29.39362525939941 35.29315948486328 30.50328636169434 C 34.83983993530273 31.57491493225098 34.19081115722656 32.53740692138672 33.36429977416992 33.36408615112305 C 32.53744888305664 34.19076538085938 31.57505035400391 34.83967590332031 30.50312042236328 35.29290771484375 C 29.39366912841797 35.76218414306641 28.21525955200195 36.00017547607422 27.00033950805664 36.00017547607422 Z M 9 9.000045776367188 L 9 27.00012588500977 L 27.00033950805664 27.00012588500977 L 27.00033950805664 9.000045776367188 L 9 9.000045776367188 Z M 18.00033950805664 26.92056655883789 L 17.99966049194336 26.92056655883789 C 17.95672988891602 22.03198623657227 13.94485950469971 18.03033638000488 9.056449890136719 18.0002555847168 C 13.95770931243896 17.96970558166504 17.96957969665527 13.95783615112305 18 9.056415557861328 C 18.03042030334473 13.98796558380127 22.06764984130859 18.00008583068848 27.00033950805664 18.00008583068848 L 27 18.00008583068848 C 22.08015060424805 18.00076675415039 18.04327011108398 22.00219535827637 18.00033950805664 26.92056655883789 Z" stroke="none" fill="#1c1c1b"/>
    </g>
  </g>
</svg>
