<svg xmlns="http://www.w3.org/2000/svg" xmlns:xlink="http://www.w3.org/1999/xlink" width="52" height="52" viewBox="0 0 52 52">
  <defs>
    <clipPath id="clip-path">
      <rect id="mask" width="52" height="52" fill="none"/>
    </clipPath>
  </defs>
  <g id="ico_52_star_outline" clip-path="url(#clip-path)">
    <g id="star" transform="translate(-13394 -1673)" fill="none">
      <path d="M13446,1751a19.33,19.33,0,1,0-28.044-15.88,26.014,26.014,0,1,1-23.994-36.12,41.37,41.37,0,0,0,28.08-36.12,26.014,26.014,0,1,1,23.984,36.12,26,26,0,1,1-.026,52Zm-52-52v26h52v-26h0a26.077,26.077,0,0,0-26,25.77h0a26.108,26.108,0,0,0-25.836-25.77,25.919,25.919,0,0,1,51.838,0h0v-26h-52v26Z" stroke="none"/>
      <path d="M 13446.0009765625 1750.000244140625 C 13449.3759765625 1750.000244140625 13452.6494140625 1749.33935546875 13455.73046875 1748.036010742188 C 13458.70703125 1746.777465820312 13461.380859375 1744.974731445312 13463.6787109375 1742.677856445312 C 13465.9755859375 1740.380737304688 13467.7783203125 1737.706909179688 13469.037109375 1734.73095703125 C 13470.33984375 1731.648803710938 13471.0009765625 1728.374877929688 13471.0009765625 1725.000122070312 C 13471.0009765625 1721.62548828125 13470.33984375 1718.351440429688 13469.037109375 1715.269409179688 C 13467.7783203125 1712.293212890625 13465.9755859375 1709.619506835938 13463.6787109375 1707.322509765625 C 13461.380859375 1705.025512695312 13458.70703125 1703.22265625 13455.73046875 1701.964233398438 C 13452.955078125 1700.7900390625 13450.0224609375 1700.13720703125 13447.0009765625 1700.019409179688 L 13447.0009765625 1726.000122070312 L 13421.01953125 1726.000122070312 C 13421.1376953125 1729.023559570312 13421.7900390625 1731.955932617188 13422.9638671875 1734.730712890625 C 13424.22265625 1737.706909179688 13426.025390625 1740.380737304688 13428.322265625 1742.677734375 C 13430.619140625 1744.973999023438 13433.29296875 1746.776733398438 13436.2705078125 1748.036010742188 C 13439.3515625 1749.33935546875 13442.6259765625 1750.000244140625 13446.0009765625 1750.000244140625 M 13394 1750.000244140625 C 13397.375 1750.000244140625 13400.6494140625 1749.33935546875 13403.73046875 1748.036010742188 C 13406.7080078125 1746.7763671875 13409.3818359375 1744.9736328125 13411.677734375 1742.677856445312 C 13413.974609375 1740.380859375 13415.77734375 1737.70703125 13417.0361328125 1734.73095703125 C 13418.2099609375 1731.954833984375 13418.8623046875 1729.022216796875 13418.98046875 1726.000122070312 L 13393 1726.000122070312 L 13393 1700.019409179688 C 13389.978515625 1700.137329101562 13387.0458984375 1700.7900390625 13384.2705078125 1701.964233398438 C 13381.2939453125 1703.22265625 13378.6201171875 1705.025512695312 13376.322265625 1707.322387695312 C 13374.025390625 1709.619506835938 13372.22265625 1712.293212890625 13370.9638671875 1715.269165039062 C 13369.6611328125 1718.351440429688 13369 1721.625366210938 13369 1725.000122070312 C 13369 1728.374755859375 13369.6611328125 1731.648681640625 13370.9638671875 1734.730712890625 C 13372.22265625 1737.706909179688 13374.025390625 1740.380737304688 13376.322265625 1742.677734375 C 13378.6201171875 1744.974731445312 13381.2939453125 1746.777587890625 13384.2705078125 1748.036010742188 C 13387.3515625 1749.33935546875 13390.625 1750.000244140625 13394 1750.000244140625 M 13419.998046875 1717.737426757812 C 13422.5390625 1708.69677734375 13429.6982421875 1701.544799804688 13438.73046875 1699.001342773438 C 13429.6923828125 1696.4619140625 13422.5380859375 1689.314086914062 13419.998046875 1680.270263671875 C 13417.4501953125 1689.299560546875 13410.2900390625 1696.458129882812 13401.259765625 1699.001220703125 C 13410.28515625 1701.546875 13417.4501953125 1708.709106445312 13419.998046875 1717.737426757812 M 13447 1697.980590820312 C 13450.021484375 1697.862915039062 13452.9541015625 1697.210083007812 13455.73046875 1696.035766601562 C 13458.70703125 1694.77734375 13461.380859375 1692.974487304688 13463.6787109375 1690.677612304688 C 13465.9755859375 1688.380493164062 13467.7783203125 1685.706787109375 13469.037109375 1682.730834960938 C 13470.33984375 1679.648559570312 13471.0009765625 1676.374633789062 13471.0009765625 1672.999877929688 C 13471.0009765625 1669.625244140625 13470.33984375 1666.351318359375 13469.037109375 1663.269287109375 C 13467.7783203125 1660.293334960938 13465.9755859375 1657.619506835938 13463.6787109375 1655.322265625 C 13461.380859375 1653.025146484375 13458.70703125 1651.222290039062 13455.73046875 1649.963989257812 C 13452.6494140625 1648.66064453125 13449.3759765625 1647.999755859375 13446.0009765625 1647.999755859375 C 13442.6259765625 1647.999755859375 13439.3515625 1648.66064453125 13436.2705078125 1649.963989257812 C 13433.2919921875 1651.2236328125 13430.6181640625 1653.026489257812 13428.322265625 1655.322143554688 C 13426.025390625 1657.619262695312 13424.22265625 1660.293090820312 13422.9638671875 1663.269165039062 C 13421.7900390625 1666.044677734375 13421.1376953125 1668.977294921875 13421.01953125 1671.999877929688 L 13447.0009765625 1671.999877929688 L 13447 1697.980590820312 M 13393 1697.980590820312 L 13393 1671.999877929688 L 13418.98046875 1671.999877929688 C 13418.8623046875 1668.9765625 13418.2099609375 1666.044189453125 13417.0361328125 1663.269287109375 C 13415.77734375 1660.293090820312 13413.974609375 1657.619262695312 13411.677734375 1655.322387695312 C 13409.3798828125 1653.025512695312 13406.7060546875 1651.222778320312 13403.73046875 1649.963989257812 C 13400.6494140625 1648.66064453125 13397.375 1647.999755859375 13394 1647.999755859375 C 13390.625 1647.999755859375 13387.3515625 1648.66064453125 13384.2705078125 1649.963989257812 C 13381.2939453125 1651.222290039062 13378.6201171875 1653.025146484375 13376.322265625 1655.322143554688 C 13374.025390625 1657.619506835938 13372.22265625 1660.293334960938 13370.9638671875 1663.26904296875 C 13369.6611328125 1666.351318359375 13369 1669.625244140625 13369 1672.999877929688 C 13369 1676.374633789062 13369.6611328125 1679.648559570312 13370.9638671875 1682.730590820312 C 13372.22265625 1685.706787109375 13374.025390625 1688.380493164062 13376.322265625 1690.677490234375 C 13378.6201171875 1692.974487304688 13381.2939453125 1694.77734375 13384.2705078125 1696.035888671875 C 13387.044921875 1697.2099609375 13389.9775390625 1697.862670898438 13393 1697.980590820312 M 13446.0009765625 1751.000244140625 C 13442.4912109375 1751.000244140625 13439.0859375 1750.312744140625 13435.880859375 1748.95703125 C 13432.783203125 1747.64697265625 13430.0029296875 1745.772338867188 13427.615234375 1743.384887695312 C 13425.2275390625 1740.996704101562 13423.3525390625 1738.216186523438 13422.04296875 1735.120361328125 C 13420.6904296875 1731.922729492188 13420.00390625 1728.52685546875 13420 1725.026489257812 C 13419.99609375 1728.527954101562 13419.30859375 1731.923461914062 13417.95703125 1735.120361328125 C 13416.6474609375 1738.216064453125 13414.7724609375 1740.996704101562 13412.384765625 1743.384887695312 C 13409.9970703125 1745.772827148438 13407.2158203125 1747.6474609375 13404.1201171875 1748.95703125 C 13400.9150390625 1750.312744140625 13397.509765625 1751.000244140625 13394 1751.000244140625 C 13390.490234375 1751.000244140625 13387.0859375 1750.312744140625 13383.880859375 1748.95703125 C 13380.7841796875 1747.647705078125 13378.00390625 1745.77294921875 13375.615234375 1743.384887695312 C 13373.2275390625 1740.996704101562 13371.3525390625 1738.216186523438 13370.04296875 1735.120361328125 C 13368.6875 1731.91455078125 13368 1728.509643554688 13368 1725.000122070312 C 13368 1721.490478515625 13368.6875 1718.085571289062 13370.04296875 1714.879760742188 C 13371.3525390625 1711.784057617188 13373.2275390625 1709.003540039062 13375.615234375 1706.615356445312 C 13378.00390625 1704.227294921875 13380.7841796875 1702.3525390625 13383.880859375 1701.043212890625 C 13387.07421875 1699.692260742188 13390.466796875 1699.0048828125 13393.962890625 1699 C 13390.4658203125 1698.9951171875 13387.0732421875 1698.3076171875 13383.880859375 1696.956787109375 C 13380.7841796875 1695.6474609375 13378.00390625 1693.772705078125 13375.615234375 1691.384643554688 C 13373.2275390625 1688.996459960938 13371.3525390625 1686.215942382812 13370.04296875 1683.120239257812 C 13368.6875 1679.914428710938 13368 1676.509521484375 13368 1672.999877929688 C 13368 1669.490356445312 13368.6875 1666.08544921875 13370.04296875 1662.879638671875 C 13371.3525390625 1659.784057617188 13373.2275390625 1657.003540039062 13375.615234375 1654.615112304688 C 13378.00390625 1652.226928710938 13380.7841796875 1650.352172851562 13383.880859375 1649.04296875 C 13387.0859375 1647.687255859375 13390.490234375 1646.999755859375 13394 1646.999755859375 C 13397.509765625 1646.999755859375 13400.9150390625 1647.687255859375 13404.1201171875 1649.04296875 C 13407.2158203125 1650.352416992188 13409.99609375 1652.227172851562 13412.384765625 1654.615112304688 C 13414.7724609375 1657.003295898438 13416.6474609375 1659.783813476562 13417.95703125 1662.879638671875 C 13419.3095703125 1666.077392578125 13419.99609375 1669.473266601562 13420 1672.973510742188 C 13420.00390625 1669.4716796875 13420.69140625 1666.075805664062 13422.04296875 1662.879638671875 C 13423.3525390625 1659.783813476562 13425.2275390625 1657.003295898438 13427.615234375 1654.615112304688 C 13430.0029296875 1652.227661132812 13432.7841796875 1650.352905273438 13435.880859375 1649.04296875 C 13439.0859375 1647.687255859375 13442.4912109375 1646.999755859375 13446.0009765625 1646.999755859375 C 13449.5107421875 1646.999755859375 13452.9150390625 1647.687255859375 13456.1201171875 1649.04296875 C 13459.216796875 1650.352172851562 13461.9970703125 1652.226928710938 13464.3857421875 1654.615112304688 C 13466.7734375 1657.003540039062 13468.6484375 1659.784057617188 13469.9580078125 1662.879638671875 C 13471.3134765625 1666.08544921875 13472.0009765625 1669.490356445312 13472.0009765625 1672.999877929688 C 13472.0009765625 1676.509521484375 13471.3134765625 1679.914428710938 13469.9580078125 1683.120239257812 C 13468.6484375 1686.215942382812 13466.7734375 1688.996459960938 13464.3857421875 1691.384643554688 C 13461.9970703125 1693.772705078125 13459.216796875 1695.6474609375 13456.1201171875 1696.956787109375 C 13452.9228515625 1698.309204101562 13449.52734375 1698.99658203125 13446.02734375 1699 C 13449.5283203125 1699.00341796875 13452.923828125 1699.691162109375 13456.1201171875 1701.043212890625 C 13459.216796875 1702.3525390625 13461.9970703125 1704.227294921875 13464.3857421875 1706.615356445312 C 13466.7734375 1709.003540039062 13468.6484375 1711.784057617188 13469.9580078125 1714.879760742188 C 13471.3134765625 1718.085571289062 13472.0009765625 1721.490478515625 13472.0009765625 1725.000122070312 C 13472.0009765625 1728.509643554688 13471.3134765625 1731.914672851562 13469.9580078125 1735.120361328125 C 13468.6484375 1738.216186523438 13466.7734375 1740.996704101562 13464.3857421875 1743.384887695312 C 13461.9970703125 1745.773071289062 13459.216796875 1747.647705078125 13456.1201171875 1748.95703125 C 13452.9150390625 1750.312744140625 13449.5107421875 1751.000244140625 13446.0009765625 1751.000244140625 Z M 13394 1672.999877929688 L 13394 1725.000122070312 L 13446.0009765625 1725.000122070312 L 13446.0009765625 1672.999877929688 L 13394 1672.999877929688 Z M 13420.0009765625 1724.770263671875 L 13419.9990234375 1724.770263671875 C 13419.875 1710.647705078125 13408.28515625 1699.08740234375 13394.1630859375 1699.00048828125 C 13408.322265625 1698.912231445312 13419.912109375 1687.322387695312 13420 1673.162719726562 C 13420.087890625 1687.409423828125 13431.7509765625 1699 13446.0009765625 1699 L 13446 1699 C 13431.787109375 1699.001953125 13420.125 1710.561645507812 13420.0009765625 1724.770263671875 Z" stroke="none" fill="#1c1c1b"/>
    </g>
  </g>
</svg>
