<svg xmlns="http://www.w3.org/2000/svg" xmlns:xlink="http://www.w3.org/1999/xlink" width="26" height="26" viewBox="0 0 26 26">
  <defs>
    <clipPath id="clip-path">
      <rect id="mask" width="26" height="26" fill="none"/>
    </clipPath>
  </defs>
  <g id="ico_26_star" clip-path="url(#clip-path)">
    <path id="star" d="M39,52A12.989,12.989,0,0,1,26,39.013,13,13,0,0,1,1.021,44.06,13,13,0,0,1,12.981,26,13,13,0,0,1,3.808,3.808,13,13,0,0,1,26,12.987,13.007,13.007,0,1,1,39.014,26,13,13,0,1,1,39,52ZM13,26V39H39V26h0A13.038,13.038,0,0,0,26,38.885h0A13.054,13.054,0,0,0,13.082,26,13.048,13.048,0,0,0,26,13.081,13.031,13.031,0,0,0,39,26h0V13H13V26Z" transform="translate(-13 -13)" fill="#1c1c1b"/>
  </g>
</svg>
