<svg xmlns="http://www.w3.org/2000/svg" width="26" height="26" viewBox="0 0 26 26">
  <g id="link_copy" transform="translate(6 -9)">
    <rect id="base" width="26" height="26" transform="translate(-6 9)" fill="none"/>
    <g id="icon" transform="translate(-99 -84)">
      <path id="패스_695" data-name="패스 695" d="M107.148,377.7l-.058,0a.8.8,0,0,0-.461.216l-3.1,3.106a3.5,3.5,0,0,1-4.95-4.952l3.3-3.3a3.476,3.476,0,0,1,.548-.447,3.53,3.53,0,0,1,.711-.361,3.361,3.361,0,0,1,.721-.178,3.4,3.4,0,0,1,.49-.034c.067,0,.135,0,.221.01a3.489,3.489,0,0,1,2.249,1.01,3.448,3.448,0,0,1,.822,1.313.756.756,0,0,0,.927.486s.01,0,.014,0,.01,0,.01,0a.751.751,0,0,0,.5-.918,4.357,4.357,0,0,0-1.182-1.971,5.058,5.058,0,0,0-2.768-1.409c-.091-.014-.183-.029-.274-.038a4.942,4.942,0,0,0-.533-.029c-.125,0-.25,0-.37.014a4.85,4.85,0,0,0-.778.12c-.053.01-.1.024-.154.038a5,5,0,0,0-.937.351,4.936,4.936,0,0,0-1.331.957l-3.3,3.3A5.072,5.072,0,0,0,96,378.56a5.052,5.052,0,0,0,8.621,3.572l3.138-3.139A.761.761,0,0,0,107.148,377.7Z" transform="translate(0 -267.609)" fill="#fff"/>
      <path id="패스_696" data-name="패스 696" d="M394.7,97.476a5.062,5.062,0,0,0-7.146,0l-3.061,3.063a.775.775,0,0,0,1.1,1.1l3.066-3.058a3.5,3.5,0,0,1,4.95,4.952l-3.3,3.3a3.478,3.478,0,0,1-.548.447,3.533,3.533,0,0,1-.711.361,3.364,3.364,0,0,1-.721.178,3.4,3.4,0,0,1-.49.034c-.067,0-.139,0-.221-.01a3.454,3.454,0,0,1-3.037-2.236.768.768,0,0,0-.918-.471.777.777,0,0,0-.543.986,4.392,4.392,0,0,0,1.139,1.8l.01.01a5.059,5.059,0,0,0,3.042,1.447,4.956,4.956,0,0,0,.533.029q.187,0,.375-.014a5.49,5.49,0,0,0,.927-.154,5,5,0,0,0,.937-.351,4.936,4.936,0,0,0,1.331-.957l3.3-3.3a5.062,5.062,0,0,0-.01-7.154Z" transform="translate(-280.183)" fill="#fff"/>
    </g>
  </g>
</svg>
