<svg xmlns="http://www.w3.org/2000/svg" width="26" height="26" viewBox="0 0 26 26">
  <g id="link_kakao" transform="translate(6 -9)">
    <rect id="base" width="26" height="26" transform="translate(-6 9)" fill="none"/>
    <g id="icon" transform="translate(-7 8)">
      <path id="path" d="M0,0H26V26H0Z" transform="translate(1 1)" fill="none"/>
      <path id="path-2" data-name="path" d="M14,3c6.9,0,12.5,4.423,12.5,9.881s-5.6,9.88-12.5,9.88a15.851,15.851,0,0,1-2.056-.133L6.7,26.109c-.6.32-.807.285-.562-.5L7.2,21.171c-3.429-1.763-5.7-4.817-5.7-8.289C1.5,7.425,7.1,3,14,3Zm7.032,9.731,1.75-1.719a.576.576,0,0,0,0-.791.556.556,0,0,0-.78-.027l-2.3,2.253V10.584a.562.562,0,1,0-1.124,0v3.087a.576.576,0,0,0,0,.268v1.737a.562.562,0,1,0,1.124,0V14.031l.508-.5,1.7,2.454a.557.557,0,0,0,.783.139.575.575,0,0,0,.137-.794l-1.8-2.6Zm-3.521,2.323H15.773V10.6a.562.562,0,0,0-1.123,0v5.021a.565.565,0,0,0,.561.57h2.3a.57.57,0,0,0,0-1.14Zm-6.973-1.318.829-2.061.76,2.061H10.538Zm3,.589,0-.019a.571.571,0,0,0-.151-.386l-1.245-3.38a.8.8,0,0,0-1.524-.033l-1.977,4.92a.573.573,0,0,0,.308.743.559.559,0,0,0,.733-.312l.393-.982h2.464l.356.966a.564.564,0,0,0,.434.378.558.558,0,0,0,.535-.2.576.576,0,0,0,.083-.573l-.411-1.118ZM9.587,10.608a.566.566,0,0,0-.561-.57H5.163a.57.57,0,0,0,0,1.14H6.544v4.51a.562.562,0,1,0,1.124,0v-4.51H9.025a.566.566,0,0,0,.562-.57Z" transform="translate(0 0)" fill="#fff"/>
    </g>
  </g>
</svg>
