<svg xmlns="http://www.w3.org/2000/svg" width="164.082" height="252" viewBox="0 0 164.082 252">
  <path id="path_num_three" d="M324.68-184.542q2.367-31,24.013-48.518t56.142-17.52q23,0,39.739,8.255t25.365,22.406a60.273,60.273,0,0,1,8.624,32.008q0,20.889-12.006,36.051a53.966,53.966,0,0,1-31.284,19.542v1.685q21.983,5.391,34.835,21.226T482.96-67.965a68.153,68.153,0,0,1-8.793,34.535q-8.793,15.33-26.38,24.09T405.511-.58q-35.85,0-58.848-18.7t-25.7-53.066h29.762q2.367,20.216,16.572,33.019t37.879,12.8q23.674,0,36.019-12.3t12.344-31.84q0-25.27-16.91-36.388t-51.069-11.119h-7.779v-25.606H385.9q31.115-.337,47.01-10.276t15.9-30.829q0-17.857-11.668-28.639T403.82-224.3q-20.969,0-33.82,10.782T354.78-184.542Z" transform="translate(-319.878 251.58)" fill="none" stroke="#dbf068" stroke-width="2"/>
</svg>
