<svg xmlns="http://www.w3.org/2000/svg" width="166" height="250" viewBox="0 0 166 250">
  <path id="path_num_two" d="M126.14-24.383q43.3-34.747,67.85-57.06a275.131,275.131,0,0,0,41.426-46.67q16.877-24.357,16.877-47.863,0-22.143-10.74-34.918t-34.607-12.775q-23.185,0-35.971,14.478t-13.809,38.665h-30q1.364-38.154,23.185-58.934t56.258-20.78q35.119,0,55.746,19.418t20.628,53.484q0,28.275-16.877,55.016a241.237,241.237,0,0,1-38.358,47.011q-21.48,20.269-54.894,47.181H290.14V-2.24h-164Z" transform="translate(-125.14 251.24)" fill="none" stroke="#dbf068" stroke-width="2"/>
</svg>
