<svg xmlns="http://www.w3.org/2000/svg" xmlns:xlink="http://www.w3.org/1999/xlink" width="220" height="260" viewBox="0 0 220 260">
  <defs>
    <clipPath id="clip-path">
      <rect id="mask" width="220" height="260" transform="translate(260 601)" fill="#fff" stroke="#707070" stroke-width="1"/>
    </clipPath>
  </defs>
  <g id="img_profile_type_02" transform="translate(-260 -601)" clip-path="url(#clip-path)">
    <g id="path" transform="translate(239 646.002)">
      <path id="path-2" data-name="path" d="M0,520.989l.781-1.868c.267-.62.543-1.236.82-1.852.567-1.225,1.149-2.445,1.762-3.649,1.222-2.41,2.521-4.784,3.925-7.1a123.112,123.112,0,0,1,9.3-13.3c.419-.532.849-1.054,1.28-1.576s.86-1.045,1.3-1.56l2.631-3.079c1.757-2.044,3.5-4.086,5.112-6.226a49.218,49.218,0,0,0,4.318-6.731,78.175,78.175,0,0,0,3.337-7.308c3.937-10.029,7.838-20.1,11.821-30.129q5.931-15.061,12.007-30.066c-.171.466.644-.1.373.638-3.446,9.394-8.037,20.069-11.679,29.7-1.905,5.048-3.8,10.1-5.728,15.139l-2.883,7.562c-.963,2.52-1.919,5.04-2.925,7.555a79.252,79.252,0,0,1-3.364,7.418c-.637,1.2-1.316,2.392-2.063,3.534s-1.535,2.254-2.357,3.337c-3.287,4.341-7.061,8.213-10.444,12.388-1.7,2.082-3.363,4.2-4.949,6.37s-3.111,4.389-4.563,6.655-2.843,4.572-4.144,6.932c-.655,1.177-1.279,2.372-1.889,3.573l-.9,1.81Z" transform="translate(6 -322.58)" fill="#1c1c1b" stroke="#1c1c1b" stroke-width="0.7"/>
      <path id="path-3" data-name="path" d="M368.981,711.2a11.582,11.582,0,0,1-2.207-1.559,14.388,14.388,0,0,1-1.792-2.044,16.986,16.986,0,0,1-1.362-2.361,21.894,21.894,0,0,1-.99-2.541,24.786,24.786,0,0,1-.68-2.641q-.258-1.341-.4-2.692c-.211-1.8-.3-3.6-.418-5.392q-.085-1.343-.2-2.677c-.076-.889-.174-1.774-.308-2.652a26.468,26.468,0,0,0-1.287-5.141,47.316,47.316,0,0,0-4.891-9.474c-.965-1.508-1.966-3-2.966-4.492s-2.014-2.968-3.095-4.392a43.863,43.863,0,0,0-3.461-4.074,24.931,24.931,0,0,0-4.057-3.428,23.631,23.631,0,0,0-9.894-3.607,69.117,69.117,0,0,0-10.69-.489c-3.592.049-7.176.068-10.728.383-1.778.152-3.536.385-5.3.7s-3.526.674-5.317.955a33.237,33.237,0,0,1-5.447.469,23.254,23.254,0,0,1-2.748-.206,23.633,23.633,0,0,1-2.7-.563,25.3,25.3,0,0,1-9.557-5.207,32.979,32.979,0,0,1-6.932-8.354c-.459-.782-.891-1.58-1.283-2.4-.205-.4-.377-.823-.564-1.236s-.374-.824-.531-1.248l-.619-1.409-.445-1.281c-.155-.425-.28-.859-.413-1.29s-.272-.861-.383-1.3c-2.316-7.126-3.281-19.643-3.281-20.073s-.475-1.615.563-1.154c.3,3.583.612,7.165,1.1,10.723.255,1.777.535,3.55.9,5.306.08.441.19.876.284,1.314s.192.875.308,1.308l.33,1.3.368,1.291c.116.432.264.855.4,1.281s.268.853.429,1.271l.459,1.26.509,1.239c.162.416.357.818.543,1.224s.366.815.574,1.209c.4.8.834,1.575,1.3,2.336a32.352,32.352,0,0,0,6.9,8.069,24.453,24.453,0,0,0,9.28,4.951,22.7,22.7,0,0,0,2.585.516,22.291,22.291,0,0,0,2.628.172,32.331,32.331,0,0,0,5.282-.506c1.758-.292,3.513-.671,5.289-1s3.581-.6,5.385-.765c3.613-.329,7.227-.351,10.823-.33a67.774,67.774,0,0,1,10.824.7c.448.077.894.168,1.341.252.444.1.888.2,1.33.311s.882.229,1.317.368l.651.21.325.105.321.121a22.02,22.02,0,0,1,4.867,2.49,26.834,26.834,0,0,1,4.167,3.518,44.541,44.541,0,0,1,3.527,4.132c1.1,1.438,2.139,2.911,3.156,4.4s2.036,2.966,3.022,4.478,1.931,3.055,2.792,4.652a34.087,34.087,0,0,1,2.241,4.969,27.364,27.364,0,0,1,1.308,5.308c.267,1.8.388,3.61.473,5.408a48.563,48.563,0,0,0,1.212,10.617,21.426,21.426,0,0,0,.871,2.516,18.794,18.794,0,0,0,1.232,2.36,14.113,14.113,0,0,0,1.644,2.1,12.783,12.783,0,0,0,2.086,1.684" transform="translate(-200.694 -480.203)" fill="#1c1c1b" stroke="#1c1c1b" stroke-width="0.7"/>
      <path id="path-4" data-name="path" d="M442.361,435.57a10.136,10.136,0,0,1,.324,2.79,36.688,36.688,0,0,1-.665,5.515c-.15.907-.293,1.812-.384,2.718a20.6,20.6,0,0,0-.071,2.717,21.757,21.757,0,0,0,.314,2.7,21.1,21.1,0,0,0,.687,2.625,20.278,20.278,0,0,0,1.045,2.5A19.126,19.126,0,0,0,445,459.457a22.476,22.476,0,0,0,3.659,4A48.494,48.494,0,0,0,453,466.787l2.275,1.547c.375.263.767.5,1.153.749l1.161.737q4.666,2.914,9.6,5.362,4.944,2.412,10.1,4.337a104.56,104.56,0,0,0,10.478,3.313l1.329.349c.444.112.892.208,1.338.313l1.339.308.67.154.674.135,2.7.531,2.711.447c.451.08.905.139,1.36.2l1.362.18c.909.123,1.816.243,2.711.3a14.033,14.033,0,0,0,2.647-.039,6.858,6.858,0,0,0,2.425-.724,5.258,5.258,0,0,0,1.847-1.632,6.857,6.857,0,0,0,1.022-2.308,11.752,11.752,0,0,0,.324-2.6,19.668,19.668,0,0,0-.156-2.671c-.051-.446-.124-.891-.2-1.335l-.123-.668c-.045-.23-.088-.465-.125-.7a7.977,7.977,0,0,1-.107-1.493,3.736,3.736,0,0,1,.389-1.591,2.854,2.854,0,0,1,1.219-1.22,4.052,4.052,0,0,1,1.564-.408c1.007-.074,1.924.041,2.759-.031a3.262,3.262,0,0,0,1.134-.272,2.841,2.841,0,0,0,.918-.664,4.186,4.186,0,0,0,1-2.151,5.367,5.367,0,0,0-.15-2.45,4.39,4.39,0,0,0-.5-1.1,2.777,2.777,0,0,0-.17-.246,2.454,2.454,0,0,0-.2-.237l-.207-.236c-.069-.079-.15-.146-.224-.22a7.073,7.073,0,0,0-2.121-1.384,10.976,10.976,0,0,0-2.508-.718,15.494,15.494,0,0,0-2.649-.207c-.217.005-.462,0-.646.015a2.876,2.876,0,0,0-.556.094,1.192,1.192,0,0,0-.4.188.291.291,0,0,0-.115.192.651.651,0,0,0,.085.336c.07.152.192.343.312.539q.356.581.73,1.151.746,1.141,1.561,2.235t1.689,2.14a9.08,9.08,0,0,0,1.836,1.808,2.508,2.508,0,0,0,2.144.366,3.345,3.345,0,0,0,1.021-.541,3.8,3.8,0,0,0,.81-.876,3.558,3.558,0,0,0,.5-1.078,3.753,3.753,0,0,0,.114-.575,3.92,3.92,0,0,0,0-.587,4.666,4.666,0,0,0-.859-2.274,6.808,6.808,0,0,0-.83-.953,7.426,7.426,0,0,0-1.006-.788,8.465,8.465,0,0,0-2.366-1.033,23.635,23.635,0,0,0-5.347-.641h-.006a.547.547,0,0,1,.013-1.094q2.841-.05,5.673-.31,1.415-.129,2.824-.315c.94-.124,1.875-.254,2.784-.445a12.764,12.764,0,0,0,2.616-.811,6.754,6.754,0,0,0,2.177-1.479,5.445,5.445,0,0,0,1.295-2.222,3.706,3.706,0,0,0-.1-2.44l.719.288-18.506,7.927a.547.547,0,1,1-.431-1.006l18.506-7.927h0a.545.545,0,0,1,.716.287v0a4.8,4.8,0,0,1,.148,3.168,6.533,6.533,0,0,1-1.555,2.678,7.835,7.835,0,0,1-2.522,1.723,13.846,13.846,0,0,1-2.839.884c-.959.2-1.916.333-2.867.459s-1.908.232-2.865.319q-2.87.266-5.755.314l.013-1.094h.007a24.61,24.61,0,0,1,5.6.657,10.653,10.653,0,0,1,1.374.474,8.474,8.474,0,0,1,1.306.688,8.576,8.576,0,0,1,1.17.909,7.971,7.971,0,0,1,.985,1.124,5.812,5.812,0,0,1,1.074,2.832,5,5,0,0,1,.007.792,4.889,4.889,0,0,1-.148.779,4.892,4.892,0,0,1-3.111,3.311,3.588,3.588,0,0,1-1.637.1,3.884,3.884,0,0,1-1.492-.6,10.113,10.113,0,0,1-2.108-2.032q-.9-1.069-1.743-2.19t-1.6-2.293q-.385-.585-.75-1.182a7.066,7.066,0,0,1-.376-.658,1.825,1.825,0,0,1-.191-1,1.52,1.52,0,0,1,.546-.982,2.359,2.359,0,0,1,.834-.419,4.041,4.041,0,0,1,.8-.138c.275-.02.491-.013.735-.019a16.721,16.721,0,0,1,2.853.222,12.181,12.181,0,0,1,2.791.8,8.29,8.29,0,0,1,2.48,1.62c.089.088.185.17.268.264l.249.283a3.381,3.381,0,0,1,.242.3c.081.1.153.211.223.321a5.629,5.629,0,0,1,.643,1.4,6.582,6.582,0,0,1,.187,3.015,5.4,5.4,0,0,1-1.315,2.779,4.067,4.067,0,0,1-1.306.943,4.237,4.237,0,0,1-.768.262l-.387.072-.381.043c-1,.079-1.932-.036-2.763.032a2.854,2.854,0,0,0-1.093.272,1.625,1.625,0,0,0-.7.7,3.953,3.953,0,0,0-.161,2.332c.033.216.072.435.115.657l.126.691c.077.464.151.928.2,1.4a15.743,15.743,0,0,1-.212,5.711,8.048,8.048,0,0,1-1.215,2.705,6.45,6.45,0,0,1-2.261,1.985,8.029,8.029,0,0,1-2.839.846,15.157,15.157,0,0,1-2.869.037c-.944-.063-1.864-.188-2.779-.314l-1.376-.186c-.459-.061-.918-.122-1.374-.2l-2.74-.459-2.724-.544-.68-.138-.676-.158-1.353-.315c-.45-.107-.9-.206-1.351-.32l-1.342-.357a103.3,103.3,0,0,1-10.575-3.382q-5.189-1.977-10.168-4.45-4.959-2.5-9.65-5.477l-1.166-.752c-.388-.252-.781-.5-1.158-.764l-2.283-1.577a49.019,49.019,0,0,1-4.377-3.445,23.274,23.274,0,0,1-3.733-4.182,19.86,19.86,0,0,1-1.414-2.433,20.983,20.983,0,0,1-1.052-2.606,21.756,21.756,0,0,1-.677-2.725,19.258,19.258,0,0,1-.165-5.592c.109-.926.269-1.839.436-2.746a36.355,36.355,0,0,0,.752-5.433,9.974,9.974,0,0,0-.258-2.688" transform="translate(-343.023 -338.23)" fill="#1c1c1b" stroke="#1c1c1b" stroke-width="0.6"/>
      <path id="path-5" data-name="path" d="M455.747,110.5a2.577,2.577,0,0,1-1.559-.723,3.264,3.264,0,0,1-.848-1.395,3.69,3.69,0,0,1-.143-1.6,3.29,3.29,0,0,1,.214-.8c.053-.125.114-.241.172-.361s.132-.23.207-.338a5.419,5.419,0,0,1,2.383-1.866,8.134,8.134,0,0,1,1.405-.453,13.289,13.289,0,0,1,1.418-.232c1.874-.213,3.683-.172,5.236-.917a8.389,8.389,0,0,0,3.794-3.387,5.892,5.892,0,0,0,.785-2.377,4.632,4.632,0,0,0-.408-2.406,11.349,11.349,0,0,0-1.456-2.18c-.573-.725-1.126-1.489-1.649-2.261A33.029,33.029,0,0,1,460.787,79c-.234-.9-.413-1.823-.57-2.744-.141-.924-.258-1.851-.327-2.786a18.128,18.128,0,0,1,0-2.839,11.115,11.115,0,0,1,.6-2.826,19.77,19.77,0,0,1,2.854-4.875c.543-.745,1.09-1.475,1.586-2.225.252-.372.477-.759.711-1.141.113-.193.217-.392.326-.588s.215-.393.311-.6a24.054,24.054,0,0,0,1.841-5.053c.207-.877.383-1.761.515-2.655s.231-1.793.285-2.7a55.762,55.762,0,0,0-.5-10.889c-.47-3.624-1.162-7.228-1.806-10.849l-.975-5.426c-.324-1.8-.669-3.6-1.11-5.362a33.088,33.088,0,0,0-1.692-5.144,17.406,17.406,0,0,0-2.8-4.53c-.148-.164-.282-.342-.442-.494l-.474-.462-.237-.231c-.083-.073-.17-.14-.255-.211l-.512-.419a6.463,6.463,0,0,0-.534-.387,6.523,6.523,0,0,0-.552-.361l-.569-.336-.592-.3a15.321,15.321,0,0,0-5.11-1.387,18.382,18.382,0,0,0-2.676-.077c-.224.005-.447.016-.67.037s-.446.033-.669.056c-.444.056-.89.1-1.331.186-.444.065-.88.169-1.319.258-.436.111-.875.211-1.307.342-.867.243-1.723.537-2.567.86a72.377,72.377,0,0,0-9.759,4.925c-1.6.908-3.178,1.816-4.668,2.841a26.308,26.308,0,0,0-2.148,1.634,23.941,23.941,0,0,0-1.93,1.871,34.173,34.173,0,0,0-5.736,9.158c-1.507,3.321-2.749,6.777-4.141,10.194a48.914,48.914,0,0,1-5.1,9.888,24.215,24.215,0,0,1-3.738,4.2c-.178.154-.349.318-.533.464l-.558.435c-.189.142-.366.3-.565.428l-.587.4c-.195.135-.4.249-.6.374s-.4.247-.617.353l-.629.332-.645.3a20.612,20.612,0,0,1-11.084,1.5,21.031,21.031,0,0,1-10.316-4.321l-.279-.22-.267-.234c-.177-.157-.359-.309-.531-.471-.339-.331-.685-.655-1-1.011-.329-.341-.621-.716-.923-1.081-.145-.188-.281-.382-.422-.573s-.277-.384-.406-.581c-1.038-1.567-1.866-3.209-2.943-4.615a9.658,9.658,0,0,0-1.818-1.861,7.934,7.934,0,0,0-2.271-1.193,9.229,9.229,0,0,0-2.552-.444,11.352,11.352,0,0,0-2.61.236,13.366,13.366,0,0,0-4.827,2.088A12.834,12.834,0,0,0,354,39.58c-.148.162-.3.319-.441.489l-.213.251-.2.266-.4.533c-.133.178-.247.37-.372.555a19.3,19.3,0,0,0-1.307,2.335,24.244,24.244,0,0,0-.989,2.5,34.144,34.144,0,0,0-1.268,5.271c-.3,1.793-.5,3.608-.668,5.431s-.313,3.642-.3,5.449a22.223,22.223,0,0,0,.62,5.334,27.179,27.179,0,0,0,1.858,5.065,33.031,33.031,0,0,0,6.027,8.953,23.1,23.1,0,0,0,2,1.8c.357.269.711.543,1.083.789l.276.19.278.172c.183.119.378.218.569.324a9.514,9.514,0,0,0,2.437.9,5.877,5.877,0,0,0,2.5.061l.3-.07c.1-.028.189-.069.284-.1a3.548,3.548,0,0,0,.54-.253,2.183,2.183,0,0,0,.246-.165,1.961,1.961,0,0,0,.237-.178,5.166,5.166,0,0,0,.422-.42,9.21,9.21,0,0,0,1.218-2.283q1.083-2.517,2.008-5.1t1.7-5.209c.254-.877.5-1.757.73-2.641s.459-1.769.619-2.644a10.005,10.005,0,0,0,.175-2.6,5.547,5.547,0,0,0-.245-1.226,4.229,4.229,0,0,0-.227-.569l-.138-.255-.167-.242a3.677,3.677,0,0,0-1.95-1.307,2.621,2.621,0,0,0-1.125-.056,1.894,1.894,0,0,0-.944.467h0l-.091-.867a1.958,1.958,0,0,1,.705.754,2.456,2.456,0,0,1,.264.923,4,4,0,0,1-.246,1.711c-.046.133-.1.267-.161.392s-.113.237-.171.352l-.335.668a4.321,4.321,0,0,0-.443,1.263,1.853,1.853,0,0,0,.209,1.162c.194.393.493.788.77,1.253a4.256,4.256,0,0,1,.368.772,3.22,3.22,0,0,1,.16.875,3.645,3.645,0,0,1-.353,1.684,4.375,4.375,0,0,1-2.423,2.243,3.27,3.27,0,0,1-1.723.146,3.181,3.181,0,0,1-.426-.112,4.219,4.219,0,0,1-1.116-.595,5.844,5.844,0,0,1-1.135-1.163,13.448,13.448,0,0,1-.852-1.3,21.4,21.4,0,0,0-1.575-2.5,4.685,4.685,0,0,0-1-.957,3.637,3.637,0,0,0-1.243-.541c-.914-.228-1.926-.224-2.966-.439a4.053,4.053,0,0,1-1.524-.622c-.058-.042-.117-.082-.173-.126l-.158-.146a2.208,2.208,0,0,1-.293-.315,3.332,3.332,0,0,1-.427-.725,5.746,5.746,0,0,1-.4-1.546c-.046-.258-.057-.52-.08-.78-.006-.261-.02-.522-.006-.783a9.48,9.48,0,0,1,2.176-5.732,9.181,9.181,0,0,1,5.283-3.064,9.286,9.286,0,0,1,3.088-.074c1.038.142,1.98.54,2.934.644a3.5,3.5,0,0,0,.7,0,1.889,1.889,0,0,0,.634-.193l.141-.083.129-.1a1.4,1.4,0,0,0,.228-.235,2.117,2.117,0,0,0,.312-.6,6.992,6.992,0,0,0,.27-1.432c.062-.5.114-.994.161-1.492a18.1,18.1,0,0,0,.051-2.977,10.53,10.53,0,0,0-.216-1.463,7.615,7.615,0,0,0-.469-1.393,5.794,5.794,0,0,0-1.8-2.275,6.315,6.315,0,0,0-2.7-1.11,9.28,9.28,0,0,0-5.752,1.047,9.046,9.046,0,0,0-2.363,1.8,11.706,11.706,0,0,0-1.694,2.457,15.591,15.591,0,0,0-1.109,2.784,20.935,20.935,0,0,0-.62,2.941,41.013,41.013,0,0,0-.335,6.01,41.077,41.077,0,0,1,.267-6.02,21.005,21.005,0,0,1,.589-2.96,15.711,15.711,0,0,1,1.086-2.819,11.873,11.873,0,0,1,1.69-2.51,9.239,9.239,0,0,1,2.392-1.862,9.516,9.516,0,0,1,5.893-1.136,6.608,6.608,0,0,1,2.837,1.132,6.125,6.125,0,0,1,1.927,2.38,7.952,7.952,0,0,1,.508,1.453,10.926,10.926,0,0,1,.241,1.514,18.522,18.522,0,0,1-.017,3.043c-.042.5-.089,1.007-.146,1.507a7.364,7.364,0,0,1-.274,1.526,2.56,2.56,0,0,1-.373.733,1.826,1.826,0,0,1-.291.308l-.166.133-.182.111a2.353,2.353,0,0,1-.8.254,3.968,3.968,0,0,1-.806,0c-1.052-.109-2-.5-2.956-.613a8.761,8.761,0,0,0-2.909.1,8.6,8.6,0,0,0-4.915,2.92,8.832,8.832,0,0,0-1.966,5.358c-.011.241.006.483.014.723.025.24.037.481.082.718a5.062,5.062,0,0,0,.366,1.358,2.622,2.622,0,0,0,.341.567,1.55,1.55,0,0,0,.223.232l.119.11c.043.032.089.061.134.093a3.318,3.318,0,0,0,1.254.487c.931.187,1.953.169,3,.411a4.437,4.437,0,0,1,1.51.641,5.488,5.488,0,0,1,1.184,1.1,21.9,21.9,0,0,1,1.671,2.575,7.394,7.394,0,0,0,1.782,2.189,3.272,3.272,0,0,0,.571.334c.1.051.2.081.305.121a2.25,2.25,0,0,0,.3.076,2.355,2.355,0,0,0,1.242-.123,3.449,3.449,0,0,0,1.867-1.775,2.684,2.684,0,0,0,.249-1.239,2.249,2.249,0,0,0-.116-.6,3.316,3.316,0,0,0-.288-.582c-.239-.4-.558-.8-.819-1.307a3.2,3.2,0,0,1-.3-.84,2.89,2.89,0,0,1-.025-.912,5.3,5.3,0,0,1,.519-1.579l.333-.683c.054-.11.105-.22.154-.327s.086-.2.121-.306a2.953,2.953,0,0,0,.174-1.25,1.384,1.384,0,0,0-.148-.515.862.862,0,0,0-.315-.331l-.033-.02a.521.521,0,0,1-.172-.717.539.539,0,0,1,.114-.13l0,0a2.992,2.992,0,0,1,1.489-.743,3.707,3.707,0,0,1,1.6.073,4.472,4.472,0,0,1,1.414.645,4.853,4.853,0,0,1,1.132,1.062l.225.325c.066.115.128.233.191.35a5.31,5.31,0,0,1,.284.709,6.65,6.65,0,0,1,.3,1.471,11.074,11.074,0,0,1-.189,2.888c-.172.934-.408,1.829-.636,2.723s-.481,1.785-.739,2.673q-.781,2.661-1.718,5.272t-2.033,5.159c-.181.423-.362.851-.578,1.286a6.5,6.5,0,0,1-.806,1.268,6.1,6.1,0,0,1-.553.552,2.92,2.92,0,0,1-.312.237,3.178,3.178,0,0,1-.326.217,4.641,4.641,0,0,1-.7.332c-.122.043-.242.093-.366.129l-.373.09a6.952,6.952,0,0,1-2.965-.061,10.6,10.6,0,0,1-2.716-1c-.211-.117-.426-.226-.628-.358l-.308-.19-.292-.2c-.394-.261-.768-.549-1.144-.834a24.156,24.156,0,0,1-2.1-1.886,28.646,28.646,0,0,1-3.506-4.381,40.745,40.745,0,0,1-2.731-4.872,28.276,28.276,0,0,1-1.931-5.27,23.326,23.326,0,0,1-.652-5.591c-.012-1.87.137-3.721.305-5.556s.375-3.677.679-5.51a35.17,35.17,0,0,1,1.309-5.438,25.322,25.322,0,0,1,1.036-2.621,20.4,20.4,0,0,1,1.383-2.471c.133-.2.254-.4.4-.589l.428-.568.214-.284.232-.275c.152-.186.32-.357.482-.534a13.935,13.935,0,0,1,2.183-1.853,14.463,14.463,0,0,1,5.226-2.258,12.444,12.444,0,0,1,2.868-.258,10.322,10.322,0,0,1,2.861.5,9.029,9.029,0,0,1,2.587,1.359,10.756,10.756,0,0,1,2.025,2.068c1.158,1.519,1.992,3.181,2.986,4.675.123.188.25.372.383.549s.26.361.4.537c.285.342.556.694.866,1.014.293.335.62.639.938.95.162.152.334.295.5.443l.251.22.263.207a19.941,19.941,0,0,0,9.779,4.091,19.521,19.521,0,0,0,10.491-1.413l.606-.28.59-.312c.2-.1.389-.215.579-.332s.385-.224.567-.351l.55-.377c.185-.122.355-.271.533-.4l.529-.412c.175-.139.337-.295.506-.441a23.123,23.123,0,0,0,3.568-4.016,47.89,47.89,0,0,0,4.98-9.669c1.381-3.389,2.626-6.858,4.158-10.234a46.213,46.213,0,0,1,2.578-4.944,28.492,28.492,0,0,1,3.349-4.5,25.049,25.049,0,0,1,2.026-1.963,27.33,27.33,0,0,1,2.237-1.7c1.54-1.058,3.149-1.981,4.747-2.89a73.34,73.34,0,0,1,9.909-5c.871-.334,1.756-.638,2.658-.891.448-.136.906-.24,1.36-.355.461-.095.919-.2,1.385-.272.463-.086.931-.136,1.4-.195.234-.024.469-.039.7-.059s.47-.033.706-.039A19.461,19.461,0,0,1,450.87.1a16.41,16.41,0,0,1,5.474,1.489l.641.321.618.364c.209.116.4.257.6.393s.4.263.581.421l.555.454c.092.076.186.15.276.229l.257.25.513.5c.173.165.317.356.477.532a18.5,18.5,0,0,1,2.975,4.811,34.131,34.131,0,0,1,1.751,5.317c.45,1.8.8,3.621,1.125,5.433l.975,5.426c.643,3.615,1.338,7.234,1.815,10.9a56.826,56.826,0,0,1,.5,11.1c-.055.93-.165,1.858-.294,2.784s-.318,1.843-.534,2.755a25.153,25.153,0,0,1-1.926,5.284c-.1.213-.211.42-.326.626s-.223.415-.342.618c-.245.4-.483.809-.746,1.2-.519.783-1.074,1.524-1.614,2.264a18.769,18.769,0,0,0-2.708,4.6,12.666,12.666,0,0,0-.535,5.22c.066.9.18,1.8.316,2.688.153.89.325,1.777.551,2.652A31.938,31.938,0,0,0,466.21,88.6c.508.75,1.033,1.475,1.6,2.192a12.319,12.319,0,0,1,1.59,2.4,5.706,5.706,0,0,1,.5,2.965,6.984,6.984,0,0,1-.925,2.819,9.068,9.068,0,0,1-1.853,2.258,9.544,9.544,0,0,1-2.443,1.584,8.576,8.576,0,0,1-1.385.489,11.671,11.671,0,0,1-1.425.257c-.94.116-1.86.159-2.749.26a8.734,8.734,0,0,0-2.515.6A4.339,4.339,0,0,0,454.7,105.9c-.056.08-.1.167-.153.249s-.088.175-.124.26a2.2,2.2,0,0,0-.139.527,2.606,2.606,0,0,0,.1,1.12,1.8,1.8,0,0,0,1.452,1.359.547.547,0,1,1-.083,1.091h-.005Z" transform="translate(-270.861)" fill="#1c1c1b" stroke="#1c1c1b" stroke-width="0.6"/>
      <path id="path-6" data-name="path" d="M750.928,281.8c.295-.525.626-1.022.955-1.515l.986-1.475,1.973-2.951c.164-.244.326-.5.52-.744a2.893,2.893,0,0,1,.711-.673,1.781,1.781,0,0,1,1.009-.285,1.253,1.253,0,0,1,1.012.51.841.841,0,0,1,.131.323.653.653,0,0,1-.064.413.869.869,0,0,1-.219.254c-.067.052-.131.11-.2.156a2.536,2.536,0,0,1-.93.39,3.278,3.278,0,0,1-1.935-.219,4.034,4.034,0,0,1-1.51-1.193,6.845,6.845,0,0,1-.942-1.615,11.567,11.567,0,0,1-.857-3.56,11.975,11.975,0,0,1,1.639-7.07c.311-.542.685-1.015.965-1.488a3.8,3.8,0,0,0,.545-1.47,9.6,9.6,0,0,0-.3-3.329l0-.01a.546.546,0,0,1,.908-.51l0,0,.113.107h0a.535.535,0,0,1,.154.264,5.689,5.689,0,0,1-.161,3.225,5.629,5.629,0,0,1-.757,1.448,3.966,3.966,0,0,1-1.246,1.159,2.736,2.736,0,0,1-.865.306,3.593,3.593,0,0,1-.869.036,9.461,9.461,0,0,1-1.543-.284,25.184,25.184,0,0,1-2.886-.889,25.5,25.5,0,0,1-5.36-2.761c-.425-.28-.813-.579-1.2-.8a2.97,2.97,0,0,0-1.185-.409c-.864-.119-1.876.069-2.991-.151a.545.545,0,0,1-.1-1.039l.009,0a27.371,27.371,0,0,1,11.951-1.919c.339.019.676.056,1.014.084s.673.082,1.01.122l1,.161.982.184a10.231,10.231,0,0,0,1.877.21,7.807,7.807,0,0,0,1.84-.266,17.557,17.557,0,0,0,3.636-1.269,7.64,7.64,0,0,0,1.54-1.032,6.069,6.069,0,0,0,1.165-1.4,6.625,6.625,0,0,0,.957-3.5,6.214,6.214,0,0,0-.293-1.8,4.21,4.21,0,0,0-2.252-2.624,7.124,7.124,0,0,0-1.743-.611,17.441,17.441,0,0,0-3.845-.283c-1.325.011-2.646.031-3.954.112a27.532,27.532,0,0,0-3.874.489,20.351,20.351,0,0,0-3.7,1.164c-1.215.492-2.421,1.056-3.678,1.552a17.722,17.722,0,0,1-3.947,1.126l-.022,0,.245-.984a12.689,12.689,0,0,0,5.717,2.415,13.273,13.273,0,0,0,1.57.143,14.371,14.371,0,0,0,1.584-.055c1.06-.091,2.123-.278,3.19-.467s2.143-.383,3.236-.484a11.341,11.341,0,0,1,3.289.118c.267.071.537.129.8.212.258.1.521.178.772.3a4.7,4.7,0,0,1,1.352.942,3.64,3.64,0,0,1,.9,1.365,2.288,2.288,0,0,1,0,1.6,2.252,2.252,0,0,0-.065-1.579,3.534,3.534,0,0,0-.929-1.291,4.537,4.537,0,0,0-1.34-.853c-.244-.1-.507-.168-.758-.253-.257-.07-.522-.114-.781-.172a11,11,0,0,0-3.193.021c-1.063.143-2.116.379-3.175.613s-2.127.469-3.224.611a15.133,15.133,0,0,1-1.662.127,14.022,14.022,0,0,1-1.673-.082,13.649,13.649,0,0,1-6.253-2.343.543.543,0,0,1,.217-.979l.029,0,.02,0a16.663,16.663,0,0,0,3.7-1.061c1.216-.48,2.419-1.042,3.668-1.548a21.451,21.451,0,0,1,3.892-1.222,28.632,28.632,0,0,1,4.029-.509c1.345-.084,2.682-.1,4.015-.115a18.446,18.446,0,0,1,4.088.309,8.217,8.217,0,0,1,2.007.706,5.3,5.3,0,0,1,2.792,3.256,7.321,7.321,0,0,1,.347,2.123,7.716,7.716,0,0,1-1.116,4.088,7.166,7.166,0,0,1-1.376,1.652,8.729,8.729,0,0,1-1.762,1.184,18.567,18.567,0,0,1-3.874,1.359,8.883,8.883,0,0,1-2.1.3,11.27,11.27,0,0,1-2.079-.228l-.978-.183-.963-.155c-.323-.039-.645-.084-.969-.117s-.648-.063-.973-.081a26.292,26.292,0,0,0-11.469,1.841l-.093-1.042a6.45,6.45,0,0,0,1.355.089,11.4,11.4,0,0,1,1.552.047,4.021,4.021,0,0,1,1.591.546c.471.273.865.579,1.263.84a24.422,24.422,0,0,0,5.13,2.642,24.133,24.133,0,0,0,2.762.851,3.479,3.479,0,0,0,2.487.048,2.9,2.9,0,0,0,.894-.848,4.53,4.53,0,0,0,.608-1.163,4.6,4.6,0,0,0,.133-2.6l.155.265-.114-.107.912-.506,0,.011c.111.584.221,1.183.281,1.8a7.143,7.143,0,0,1-.042,1.908,4.844,4.844,0,0,1-.712,1.822c-.336.537-.709.989-.994,1.47a11.089,11.089,0,0,0-1.636,6.512,10.786,10.786,0,0,0,.733,3.327,6.125,6.125,0,0,0,.81,1.458,3.342,3.342,0,0,0,1.225,1.014,2.616,2.616,0,0,0,1.533.207,1.894,1.894,0,0,0,.7-.276c.053-.033.1-.075.15-.111a.41.41,0,0,0,.077-.072s0,0,0-.018a.238.238,0,0,0-.035-.085.539.539,0,0,0-.209-.174.8.8,0,0,0-.311-.076,1.2,1.2,0,0,0-.677.179,4.173,4.173,0,0,0-1.088,1.234l-2.029,2.912-1.015,1.456c-.337.485-.672.968-.966,1.469" transform="translate(-574.511 -188.195)" fill="#1c1c1b" stroke="#1c1c1b" stroke-width="0.6"/>
      <path id="path-7" data-name="path" d="M11.152,77.621a28.312,28.312,0,0,1-.128-5.594,33.276,33.276,0,0,1,.906-5.519,40.083,40.083,0,0,1,1.724-5.313,51.937,51.937,0,0,1,2.352-5.056,101.817,101.817,0,0,1,5.823-9.474l1.565-2.294c.26-.383.53-.761.776-1.147a3.942,3.942,0,0,0,.555-1.233c.1-.437.3-.431.183.042a4.118,4.118,0,0,1-.583,1.293c-.253.394-.522.769-.782,1.151l-1.569,2.29a101.665,101.665,0,0,0-5.832,9.447,51.717,51.717,0,0,0-2.355,5.036,39.912,39.912,0,0,0-1.728,5.291,33.121,33.121,0,0,0-.913,5.5,28.2,28.2,0,0,0,.117,5.569.056.056,0,1,1-.112.015" transform="translate(91.057 91.328)" fill="#1c1c1b" stroke="#1c1c1b" stroke-width="1.2"/>
    </g>
  </g>
</svg>
