<svg xmlns="http://www.w3.org/2000/svg" xmlns:xlink="http://www.w3.org/1999/xlink" width="220" height="260" viewBox="0 0 220 260">
  <defs>
    <clipPath id="clip-path">
      <rect id="mask" width="220" height="260" transform="translate(260 222)" fill="#fff" stroke="#707070" stroke-width="1"/>
    </clipPath>
  </defs>
  <g id="img_profile_type_05" transform="translate(-260 -222)" clip-path="url(#clip-path)">
    <g id="path" transform="translate(309 262)">
      <path id="path-2" data-name="path" d="M121.8,301c-2.212-1.579-5.351-3.016-7.935-1.389a10.119,10.119,0,0,0-2.381,2.686c-.4.513-.754,1.074-1.433,1.077-.8,0-1.428-.878-1.98-1.394a6.519,6.519,0,0,0-7.552-1.218c-3.341,1.577-4.566,5.159-5.55,8.478-.183.617.662.856,1.117.835l.372-.017c2.01,2,3.315,4.605,5.321,6.631A15.481,15.481,0,0,0,124.8,315.17c1.675-2.2,3.105-5.2,2.353-8.026-.721-2.7-3.2-4.6-5.36-6.139m-20.965,1.488a3.822,3.822,0,0,1,3.933-.831,17.339,17.339,0,0,1,2.647,2.208,4.129,4.129,0,0,0,4.775.361c1.758-1.134,2.507-4.561,5.076-3.856,2.37.651,5.045,2.905,6.537,4.848a5.715,5.715,0,0,1,1.056,2.216l-27.187,1.237c-.056-.047-.111-.1-.167-.141.671-2.221,1.513-4.574,3.33-6.043m22.949,10.5a12.786,12.786,0,0,1-12.785,6.684A13.1,13.1,0,0,1,103.1,315.3c-1.49-1.708-2.622-3.68-4.124-5.35L125,308.764a8.968,8.968,0,0,1-1.223,4.226" transform="translate(-51.02 -159.635)" fill="#1c1c1b"/>
      <path id="path-3" data-name="path" d="M113.02,91.055a5,5,0,0,0-5.544-2.515,7.3,7.3,0,0,0-5.2,5.173c-1.009,3.131-.9,6.722-1.048,9.981q-.255,5.546-.2,11.1c.025,2.331.167,4.692.292,7.062-2.043-1.935-2.263-5.16-2.578-7.807C97.272,100.754,99.425,87.075,96,74,93.489,64.4,87.922,56.059,79.088,51.431c5.444-8.036,9.431-17.268,8.989-27.037A26.944,26.944,0,0,0,82.061,8.148a23.46,23.46,0,0,0-39.775,7.246,23.016,23.016,0,0,0,2.268,20.172c-1.008.385-2,.788-2.973,1.2A87.2,87.2,0,0,0,11.163,58.077C6.979,62.625,2.839,67.7.891,73.671-.972,79.383-.144,85.777,5.567,88.781c5.55,2.919,12.307,1.676,18.078.154a112.524,112.524,0,0,0,19.388-6.846,91.8,91.8,0,0,0,15.881-9.573c-2.415,2.335-5,4.491-7.56,6.71A92.243,92.243,0,0,0,38.471,92.521a57.226,57.226,0,0,0-12.038,33.836,55.739,55.739,0,0,0,10.682,33.69c1.67,2.3,3.577,4.383,5.422,6.541,1.62,1.9,3.2,3.834,4.9,5.652,3.259,3.468,7.069,6.395,11.795,7.4,5.77,1.222,11.4-.775,16.262-3.854A59.23,59.23,0,0,0,88.29,164.646a68.013,68.013,0,0,0,9.438-14.076c2.566-5.093,4.939-10.754,5.7-16.447a55.519,55.519,0,0,0,.314-9.3,4.9,4.9,0,0,0,1.4-.26,7.233,7.233,0,0,0,4.187-4.714,83.364,83.364,0,0,0,2.914-10.738,93.3,93.3,0,0,0,1.634-11.01c.2-2.338.309-4.924-.852-7.05M50.029,7.557a20.964,20.964,0,0,1,29.391.912c8.828,9.278,7.359,23.614,2.169,34.292A67.7,67.7,0,0,1,77.157,50.5c-1.324-.588-2.7-1.1-4.095-1.579a20.061,20.061,0,0,0-.86-5.448A14.693,14.693,0,0,0,60.645,33.189c-4.708-.923-9.507.072-14.049,1.634A21.786,21.786,0,0,1,50.029,7.557M75.986,52.217q-2.161,3.074-4.623,5.934a25.784,25.784,0,0,0,1.644-7.167q1.515.568,2.979,1.233M70.73,48.17c-8.179-2.522-16.917-4.256-22.516-11.083-.161-.2-.314-.4-.468-.6,5.836-1.934,12.925-3.052,18.086,1.129,3.141,2.545,4.643,6.544,4.9,10.554M23.911,86.894c-5.649,1.572-13.02,3.281-18.218-.446C.04,82.4,2.376,74.4,5.213,69.362c2.974-5.284,7.252-9.94,11.611-14.1a84.806,84.806,0,0,1,14.167-10.9A82.606,82.606,0,0,1,45.678,37.22,24.183,24.183,0,0,0,53.571,44.1c5.243,2.84,11.091,4.14,16.722,5.945.154.049.307.1.462.152-.023.588-.068,1.172-.142,1.746a29.877,29.877,0,0,1-4.425,11.711,89.992,89.992,0,0,1-8.038,6.94c-10.259,7.855-21.877,12.862-34.239,16.3m76.814,49.469a61.139,61.139,0,0,1-7.166,17.315A63.935,63.935,0,0,1,82.332,167.86c-4.657,4.4-10.493,9.056-16.977,10.073-5.839.916-10.965-1.772-15.014-5.8-1.913-1.905-3.629-4-5.374-6.057-1.907-2.249-3.916-4.4-5.672-6.777a53.971,53.971,0,0,1-4.728-56.674,65.061,65.061,0,0,1,11.959-16.1c4.519-4.58,9.711-8.379,14.277-12.893a51.082,51.082,0,0,0,7.339-9.059q2.714-2.684,5.193-5.6c1.567-1.848,3.1-3.792,4.553-5.817a28.872,28.872,0,0,1,7.476,5.512c8.587,8.925,10.181,21.776,10.4,33.644.135,7.338-.119,14.687.691,22,.348,2.933.663,6.1,2.7,8.4a6.6,6.6,0,0,0,2.288,1.686,46.638,46.638,0,0,1-.719,11.978M111.437,99.6a84.465,84.465,0,0,1-4.377,20c-.591,1.606-1.855,3.2-3.4,3.3-.131-2.792-.311-5.584-.341-8.351q-.055-5.1.156-10.2c.139-3.352-.007-7.15,1.061-10.37.813-2.454,4.215-5.469,6.239-2.33,1.444,2.239.926,5.484.66,7.958" transform="translate(0)" fill="#1c1c1b"/>
      <path id="path-4" data-name="path" d="M144.952,175.1c-3.27-.475-7.048-.822-10.268.144-2.307.693-4.879,2.96-3.923,5.672.813,2.306,3.881,2.823,5.943,2.2,2.7-.808,3.727-3.684,3.5-6.284-.072-.836-2.363-.887-2.3-.146.165,1.934-.789,6.394-3.672,5.417-1.255-.425-1.532-1.949-1.205-3.072a4.166,4.166,0,0,1,2.877-2.752c2.821-.906,6.36-.474,9.222.015,1.2.2,3.258.847,2.183,2.471-.76,1.149-2.452,1.866-3.638,2.44a22.928,22.928,0,0,1-8.37,2.212,21.313,21.313,0,0,1-4.489-.414c-1.564-.215-3.282-.392-4.23-1.852-1.821-2.8,1.815-5.484,4.024-6.476a54.406,54.406,0,0,1,7.061-2.144c2-.589,5.012-1.358,6.186-3.278,1.146-1.874-.989-3.607-2.323-4.6a17.324,17.324,0,0,0-13.5-3.285,12.633,12.633,0,0,0-9.826,8.589c-1.588,5.3-.241,11.378.312,16.747q1.116,10.85,2.233,21.7c.295,2.862,1.623,7.611-2.389,8.2a34.276,34.276,0,0,1-4.641.108l-5.4.043c-.356,0-.977.194-.847.654s1.046.492,1.39.49c3.423-.027,7.056.294,10.448-.208,2.416-.358,4.134-1.671,4.18-4.276a43.81,43.81,0,0,0-.472-5.169q-.314-3.057-.629-6.113-.566-5.5-1.132-11c-.392-3.8-.808-7.6-1.171-11.409a26.072,26.072,0,0,1,.284-9.137c1.848-6.966,9.426-9.935,15.81-7.328,2.176.889,8.094,4.03,4.425,6.52-2.6,1.764-6.016,2.141-8.961,3.039a13.431,13.431,0,0,0-6.607,3.809,3.965,3.965,0,0,0,1.053,6.336,9.38,9.38,0,0,0,3.544,1.043,35.041,35.041,0,0,0,4.815.6,25.32,25.32,0,0,0,9.125-1.762,23.935,23.935,0,0,0,3.924-1.963c.919-.569,2.2-1.347,2.381-2.537.38-2.481-3.281-3.012-4.927-3.251" transform="translate(-57.748 -86.031)" fill="#1c1c1b"/>
    </g>
  </g>
</svg>
