<svg xmlns="http://www.w3.org/2000/svg" xmlns:xlink="http://www.w3.org/1999/xlink" width="220" height="260" viewBox="0 0 220 260">
  <defs>
    <clipPath id="clip-path">
      <rect id="mask" width="220" height="260" transform="translate(260 222)" fill="#fff" stroke="#707070" stroke-width="1"/>
    </clipPath>
  </defs>
  <g id="img_profile_type_04" transform="translate(-260 -222)" clip-path="url(#clip-path)">
    <g id="path" transform="translate(297 284)">
      <path id="path-2" data-name="path" d="M85.054,38.5c.014-2.117.357-4.219.538-6.325.05-.576.366-1.875-.051-2.32a6.782,6.782,0,0,0-1.441-.843q-.843-.492-1.688-.981a110.827,110.827,0,0,0-12.6-6.453c-7.9-3.3-16.636-4.95-25.052-2.67a23.724,23.724,0,0,0-11.18,6.512.316.316,0,0,0,.307.523c10.471-2,21.114.126,31.094,3.386,2.491.814,4.957,1.7,7.409,2.624,2.327.877,4.7,1.712,6.957,2.758,3.131,1.451,7.16,4.455,5.114,8.354-1.649,3.143-5.508,4.6-6.334,8.279l.576-.075A21.073,21.073,0,0,0,70.126,42.5,27.605,27.605,0,0,0,59.514,39.41a32.688,32.688,0,0,0-9.13.369c-.8.15-4.414.669-3.9,2.032a4.439,4.439,0,0,0,1.455,1.675,18.857,18.857,0,0,0,2.818,1.842A16.3,16.3,0,0,0,57,47.572a.316.316,0,0,0,.3-.4c-.2-.682-.614-1.269-.867-1.927a3.241,3.241,0,0,1,.219-2.654C57.667,40.729,60.1,40.466,62,40.9c1.7.388,3.4,1.607,3.385,3.512-.01,1.309-1.1,1.8-1.874,2.649-.215.237-.563.681-.517,1.034.054.413.879.844,1.2,1.046a14.933,14.933,0,0,0,3.729,1.606,30.263,30.263,0,0,0,7.867,1.189,10.192,10.192,0,0,0,2.438-.12c1.107-.25,2.186-.82,3.279-1.15,1.04-.314,3.088-1.191,3.978-.2.913,1.019.725,2.883.42,4.093a58.035,58.035,0,0,1-2.214,6.081q-1.179,3.132-2.393,6.252c-1.678,4.314-3.518,8.57-5.167,12.894a9.647,9.647,0,0,0-.786,5.373,4.966,4.966,0,0,0,2.533,3.479c1.532.729,3.167.14,4.739-.092a3.062,3.062,0,0,1,2.713.614,8.486,8.486,0,0,1,1.31,2.118,3.524,3.524,0,0,0,2.613,2.044,7.125,7.125,0,0,0,3.492-.768,10.973,10.973,0,0,1,3.58-1.167c1.594-.059,2.025,1.326,2.678,2.49.6,1.076,1.592,1.749,2.806,1.159a5.888,5.888,0,0,0,2.594-3.07,15.2,15.2,0,0,0,.853-5.617,51.381,51.381,0,0,0-.4-6.339c-.574-4.488-1.7-8.857-1.274-13.416a126.579,126.579,0,0,1,2.537-13.537l2.806-13.64c.373-1.811.524-4.426,2.418-5.363a9.654,9.654,0,0,1,3.17-.656q1.831-.212,3.667-.373a104.7,104.7,0,0,1,13.508-.44c4.064.174,8.352,1.057,11.182,4.192a8.051,8.051,0,0,1,2.145,4.791l.4-.3a102.409,102.409,0,0,0-23.558-2.48c-1.958.023-3.92.091-5.873.243a15.349,15.349,0,0,0-4.759.975,8.641,8.641,0,0,0-4.918,5.926,25.171,25.171,0,0,0-.261,9.444.32.32,0,0,0,.538.221c4.756-4.736,11.988-6.445,18.5-5.037,1.428.309,9.806,2.981,7.89,5.214a7.972,7.972,0,0,1-2.386,1.56,15.185,15.185,0,0,1-2.721,1.051,19.161,19.161,0,0,1-5.94.676c-5.02-.188-9.793-2.054-14.416-3.843l.139.523a16.631,16.631,0,0,1,7.988-3.421l-.4-.3a5.138,5.138,0,0,0,5.078,5.32,5.358,5.358,0,0,0,3.553-1.41,16.034,16.034,0,0,0,1.958-2.879,2.9,2.9,0,0,1,1.38-1.189,4.043,4.043,0,0,1,2.639.381q2.81,1,5.536,2.21,2.628,1.172,5.163,2.537c1.509.813,3.463,1.648,4.394,3.158.971,1.576.266,3.886.034,5.6q-.363,2.691-.76,5.377c-.523,3.518-1.1,7.029-1.774,10.522a141.069,141.069,0,0,1-5.435,20.629,84.052,84.052,0,0,1-10.834,21.1l.431-.112c-3.909-2.955-8.806-3.961-13.121-6.149-4.487-2.274-7.546-6.545-12.219-8.5a21.994,21.994,0,0,0-6.654-1.585,21.665,21.665,0,0,0-3.223-.037c-1.214.079-2.393.372-3.6.484-2.679.248-5.008-1.2-7.559-1.724a19.464,19.464,0,0,0-6.988.006c-5.6.893-10.994,3.265-16.753,2.9a.316.316,0,0,0-.272.471,48.222,48.222,0,0,0,19.022,18.894q1.5.817,3.055,1.523a4.685,4.685,0,0,0,2.993.627c2.014-.441,1.931-2.631,2.118-4.261l.493-4.287a4.531,4.531,0,0,0-.272-3.1,6.931,6.931,0,0,0-2.6-1.834q-1.725-.944-3.505-1.784a67.618,67.618,0,0,0-16.768-5.373.314.314,0,0,0-.243.572,58.414,58.414,0,0,0,37.661,8.268,56.518,56.518,0,0,0,10.8-2.394l-.307-.523c-4.863,5.3-9.911,11.718-17.6,12.579-3.1.347-7.208.4-9.347,3.076a5.025,5.025,0,0,0-.556,4.679c.279.948.678,1.856.966,2.8a13.819,13.819,0,0,1,.574,3.388,24.658,24.658,0,0,1-.729,6.576c-.234,1.034-.5,2.059-.779,3.082a6.458,6.458,0,0,1-1.259,2.967c-1.4,1.415-3.716.591-5.307.01q-2.89-1.054-5.734-2.232a78.948,78.948,0,0,1-21.154-12.4,86.146,86.146,0,0,1-8.91-9.151q-4.411-5.07-8.8-10.162C24.994,114.8,19.722,107.989,20.2,99.869c.213-3.643,1.333-7.263,1.019-10.932a9.14,9.14,0,0,0-5.023-7.5c-2.976-1.616-6.393-2.375-8.955-4.693a17.383,17.383,0,0,1-4.785-8.7A57.27,57.27,0,0,1,1.017,57.853a67.751,67.751,0,0,1-.13-11.959c.4-3.863,1.414-8.222,3.989-11.268,1.194-1.413,2.939-2.577,4.88-2.173a5.836,5.836,0,0,1,4,3.841,17.052,17.052,0,0,1,.625,6.27.318.318,0,0,0,.315.313c2.748-.06,4.685-2.367,5.437-4.809a22.376,22.376,0,0,0,.713-4.881c.132-1.711.328-3.414.613-5.106A56.876,56.876,0,0,1,34.337.546C34.6.241,34.154-.2,33.891.1A57.767,57.767,0,0,0,24.3,15.826a60.419,60.419,0,0,0-4.146,18.2c-.26,3.249-1.259,8.138-5.455,8.23l.315.313c.083-3.66-.059-8.253-3.779-10.229-3.286-1.746-6.378.781-7.989,3.533C-.917,42.972-.135,51.889.536,59.736c.546,6.383,1.6,13.937,7.076,18.133,2.824,2.165,6.456,2.8,9.381,4.784a7.94,7.94,0,0,1,3.244,4.363,14.7,14.7,0,0,1,.235,5.716c-.426,3.828-1.337,7.56-.662,11.421a27.44,27.44,0,0,0,4.88,10.779,120.362,120.362,0,0,0,7.923,9.693c3.047,3.518,6.037,7.1,9.208,10.507A69.526,69.526,0,0,0,62.29,150.082a121.742,121.742,0,0,0,11.4,4.85c1.607.6,3.459,1.384,5.208.935s2.345-2.093,2.773-3.658c1.141-4.177,2.293-8.648,1.271-12.97-.488-2.062-1.9-4.193-1.409-6.372.417-1.856,2.237-2.754,3.9-3.319a32.026,32.026,0,0,1,6.233-.972A15.86,15.86,0,0,0,96.709,127a32.308,32.308,0,0,0,8.685-7.069c1.252-1.331,2.465-2.7,3.7-4.045.2-.218.009-.626-.307-.523a57.9,57.9,0,0,1-38.107-.926,55.6,55.6,0,0,1-9.87-4.885l-.243.572a67.181,67.181,0,0,1,13.607,3.979,66.224,66.224,0,0,1,6.515,3.116c1.013.554,2.438,1.1,2.661,2.366a13.036,13.036,0,0,1-.275,3.561q-.22,1.914-.44,3.828c-.1.857-.123,1.936-.99,2.4-1.221.657-2.608-.166-3.714-.689q-1.378-.652-2.711-1.392A47.478,47.478,0,0,1,56.744,108.8l-.272.471c4.925.316,9.637-1.355,14.372-2.42a25.115,25.115,0,0,1,7.4-.755,15.3,15.3,0,0,1,3.71.778,27.158,27.158,0,0,0,3.6,1.114c2.312.432,4.618-.4,6.938-.422a22.2,22.2,0,0,1,6.814.995,19.062,19.062,0,0,1,6.57,3.7,48.841,48.841,0,0,0,5.838,4.6c4.628,2.784,10.206,3.65,14.556,6.939a.322.322,0,0,0,.431-.112c8.356-11.6,12.923-25.318,15.792-39.164,1.446-6.981,2.507-14.043,3.408-21.112.2-1.587.175-3.039-.96-4.278a15.759,15.759,0,0,0-4.343-2.824A77.555,77.555,0,0,0,130,51.637c-1.348-.478-2.742-.854-3.937.17-.982.842-1.4,2.127-2.164,3.134a4.634,4.634,0,0,1-4.895,1.594,4.562,4.562,0,0,1-3.15-4.518.32.32,0,0,0-.4-.3,17.22,17.22,0,0,0-8.266,3.581c-.2.163-.056.447.139.523,4.57,1.768,9.255,3.573,14.205,3.847,3.942.218,8.673-.6,11.715-3.309,2.877-2.56-4.178-5.259-5.849-5.814a22.088,22.088,0,0,0-10.643-.759,19.8,19.8,0,0,0-10.63,5.367l.538.221c-.563-4.911-.966-11.916,4.28-14.561a13.438,13.438,0,0,1,5.027-1.158c1.853-.146,3.715-.212,5.574-.239a100.87,100.87,0,0,1,23.689,2.454.318.318,0,0,0,.4-.3A9.532,9.532,0,0,0,141.16,34.5c-2.9-1.932-6.481-2.438-9.9-2.552a108.136,108.136,0,0,0-12.174.378c-1.947.155-3.9.341-5.832.6-1.574.212-3.031.688-3.819,2.16A18.081,18.081,0,0,0,108.155,40l-1.233,6-2.528,12.291c-.792,3.849-1.707,7.743-1.551,11.7s1.252,7.823,1.56,11.775a48.749,48.749,0,0,1,.2,5.52,11.261,11.261,0,0,1-1.158,5.192c-.564.967-2.147,3.007-3.391,1.812-.9-.866-1-2.282-2.059-3.044-1.723-1.245-4.082.18-5.745.841a5.518,5.518,0,0,1-3.206.574c-1.419-.345-1.876-1.819-2.531-2.935a3.4,3.4,0,0,0-3.088-1.872c-1.567.017-3.165.841-4.728.429a4.207,4.207,0,0,1-2.792-3.493c-.333-1.966.464-3.964,1.194-5.752,3.122-7.644,6.15-15.322,9-23.073.635-1.73,1.35-4.816-.432-6.171-.843-.641-1.959-.343-2.9-.117a28.249,28.249,0,0,0-4,1.282,10.341,10.341,0,0,1-4.627.27,26.723,26.723,0,0,1-7.483-1.564,10.478,10.478,0,0,1-3.129-1.786l.081.3c.2-1.051,1.575-1.548,2.08-2.467a3.5,3.5,0,0,0-.682-3.851c-2.136-2.394-7.352-2.578-8.94.511a3.987,3.987,0,0,0-.394,2.431A21,21,0,0,0,56.7,47.342l.3-.4a15.682,15.682,0,0,1-6.008-2.2A17.7,17.7,0,0,1,48.329,43c-.508-.416-1.211-.968-1.319-1.658l-.081.3c.575-.7,2.041-.92,2.882-1.108a29.33,29.33,0,0,1,6.028-.65A27.675,27.675,0,0,1,71.2,43.871a20.357,20.357,0,0,1,6.962,7.717.319.319,0,0,0,.576-.075c.776-3.454,4.391-4.973,6.109-7.844a5.219,5.219,0,0,0,.421-4.6,8.311,8.311,0,0,0-3.577-3.824,36.817,36.817,0,0,0-6.1-2.731c-2.575-1-5.16-1.977-7.77-2.886a97.223,97.223,0,0,0-16.068-4.295,51.343,51.343,0,0,0-18.032.006l.307.523c4.642-4.949,11.4-7.2,18.1-7.388,7.5-.212,14.714,2.215,21.37,5.455,4.017,1.955,7.876,4.21,11.727,6.466l-.156-.27c-.018,2.8-.625,5.57-.643,8.374a.315.315,0,0,0,.63,0" transform="translate(0 0)" fill="#1c1c1b" stroke="#1c1c1b" stroke-linecap="round" stroke-linejoin="round" stroke-width="1.2"/>
    </g>
  </g>
</svg>
