<svg xmlns="http://www.w3.org/2000/svg" xmlns:xlink="http://www.w3.org/1999/xlink" width="220" height="260" viewBox="0 0 220 260">
  <defs>
    <clipPath id="clip-path">
      <rect id="mask" width="220" height="260" transform="translate(260 222)" fill="#fff" stroke="#707070" stroke-width="1"/>
    </clipPath>
  </defs>
  <g id="img_profile_type_03" transform="translate(-260 -222)" clip-path="url(#clip-path)">
    <g id="path" transform="translate(288 285)">
      <path id="path-2" data-name="path" d="M4.426,80.881c.652-3.011-.21-6.038-.038-9.069a6.279,6.279,0,0,1,1.849-4.4A17.313,17.313,0,0,1,11.047,64.8l5.439-2.451c1.64-.739,3.356-1.4,4.926-2.281.688-.388,2.444-1.442,2.18-2.384-.241-.863-.666-1.727-.956-2.583a15.982,15.982,0,0,0-.927-2.3c-.272-.52-.554-1.17-1.126-1.388a7.36,7.36,0,0,0-2.452-.453,12.974,12.974,0,0,0-4.917,1.007,22.32,22.32,0,0,0-7.586,4.87A18.087,18.087,0,0,0,.481,73.882c.827,3.342,2.846,6,5.059,8.549,2.227,2.565,4.617,5.141,5.546,8.5a.183.183,0,0,0,.351,0c2.51-9.166,10.524-16.273,19.69-18.308a23.966,23.966,0,0,1,7.913-.42l-.176-.231A28.44,28.44,0,0,1,18.847,88.951a26.225,26.225,0,0,1-7.575.6l.157.275a84.825,84.825,0,0,1,6.4-7.727c1.113-1.19,2.9-3.461,4.655-2.029a17.583,17.583,0,0,0,2.638,2.278,7.349,7.349,0,0,0,10.615-4.255,7.688,7.688,0,0,0-1.457-7.007l-.129.312a4.7,4.7,0,0,0,4.232-3.386c.916-2.591-.162-5.4-1.1-7.82l-.3.178c5.033,5.272,8.031,12,10.162,18.895,1.051,3.4,1.914,6.859,2.753,10.318.438,1.807.87,3.616,1.319,5.421a51.52,51.52,0,0,0,1.4,5.1,7.023,7.023,0,0,0,2.607,3.7,4.158,4.158,0,0,0,3.759.455c1.405-.606,1.839-2.088,2.273-3.427a10.785,10.785,0,0,1,2.774-4.411c2.424-2.385,5.525-3.853,8.157-5.965,2.489-2,4.99-4.883,4.987-8.268,0-5.245-5.445-7.153-9.515-8.643a22.053,22.053,0,0,1-6.82-3.389,8.027,8.027,0,0,1-2.384-3.335,43.105,43.105,0,0,1-1.3-5.78,53.171,53.171,0,0,0-9.475-20.423c-2.2-2.9-5.15-5.57-6.355-9.1-1.363-3.992.8-7.581,2.985-10.789,4.023-5.92,9.06-11.4,15.3-15A29.007,29.007,0,0,1,69.24,2.186c4.243-.713,8.558-.282,12.832-.5a26.517,26.517,0,0,0,5.873-.9.185.185,0,0,0,0-.353C77.1-2.017,67.555,6.477,60.376,13.445Q53.869,19.761,48.008,26.7c-.931,1.1-1.87,2.206-2.753,3.349A5.626,5.626,0,0,0,43.844,33.1a4.53,4.53,0,0,0,1.281,2.984c.842,1.042,1.748,2.037,2.683,2.995A48.014,48.014,0,0,0,62.4,49.274a.185.185,0,0,0,.267-.109c2.6-11.056,11.491-20.11,22.2-23.522A30.379,30.379,0,0,1,94.166,24.2l-.176-.231C91.545,34.5,82.7,42.929,72.359,45.59a27.076,27.076,0,0,1-8.887.778l.176.231a25.212,25.212,0,0,1,6.868-9.459l-.286-.037c2.047,2.818,5.549,5.606,9.248,5.078,3.873-.553,5.644-4.686,5.3-8.234a23.068,23.068,0,0,0-2.58-7.579l-.109.268c9.135-1.342,17.046-6.386,24.5-11.552,3.832-2.656,7.6-5.451,11.6-7.849a2.112,2.112,0,0,1,2.4-.27,4.833,4.833,0,0,1,1.184,1.409,19.449,19.449,0,0,1,1.412,2.659c.822,1.843,1.447,3.766,2.228,5.627a16.671,16.671,0,0,0,2.692,4.61c.918,1.047,2.6,2.745,4.091,1.76,1.21-.8,1.263-2.74,1.193-4.024a16.256,16.256,0,0,1,.723-6.973,6.93,6.93,0,0,1,4.833-4.348c2.356-.531,4.275.734,5.714,2.515a12.156,12.156,0,0,1,2.6,6.62c.252,2.571.429,5.15.764,7.712a35.941,35.941,0,0,0,1.6,7.226c.856,2.448,2.222,4.67,3.122,7.1a10.275,10.275,0,0,1,.416,6.986,5.018,5.018,0,0,1-5.034,3.526,3.673,3.673,0,0,1-2.637-1.33c-.135-.164-.384.046-.286.221,5.679,10.218,7.406,22.094,6.91,33.663-.124,2.893-.384,5.78-.761,8.65a24.858,24.858,0,0,1-2.535,8.927,80.571,80.571,0,0,1-4.818,7.05c-1.469,2.109-2.839,4.288-4.153,6.5-5.225,8.782-9.59,18.2-16.126,26.126a49.234,49.234,0,0,1-5.194,5.439,21.828,21.828,0,0,1-6.382,4.317c-2.207.861-5.017,1.22-6.846-.624a9.4,9.4,0,0,1-1.857-3.733,25.574,25.574,0,0,0-1.557-3.6,25.189,25.189,0,0,0-4.567-6.133,28.944,28.944,0,0,0-2.853-2.418c-1.038-.787-2.352-1.783-2.4-3.214-.053-1.5,1.324-2.947,2.063-4.163s1.414-2.444,2.041-3.709a50.452,50.452,0,0,0,3.126-7.917,48.41,48.41,0,0,0,1.742-8.336,2.809,2.809,0,0,0-.821-2.837,5.605,5.605,0,0,0-3.183-.6l-9.652-.163a42.884,42.884,0,0,0-8.3.226,9.1,9.1,0,0,0-5.763,3.46,24.4,24.4,0,0,1-2.219,2.689,5.021,5.021,0,0,1-3.629,1.359,6.865,6.865,0,0,0-3.606.6,6.069,6.069,0,0,0-2.149,2.563,12.76,12.76,0,0,0-1.119,7.357c.687,5.245,4.123,9.519,8.266,12.562,4.159,3.054,9.753,5.781,15.006,4.265,4.818-1.39,7.7-5.967,9.982-10.117,2.806-5.1,5.467-10.43,6.665-16.175q.22-1.056.369-2.126a7.539,7.539,0,0,0,.213-2.067c-.194-1.09-1.629.312-2,.567q-4.012,2.766-8.036,5.516-8.171,5.583-16.39,11.1-3.984,2.673-7.98,5.33c-.194.129-.012.446.184.316Q82.937,118.23,98.8,107.3c.308-.212,1.658-1.392,1.926-.953a3.623,3.623,0,0,1-.1,1.078q-.081.713-.2,1.422a34.579,34.579,0,0,1-.977,4.2,53.667,53.667,0,0,1-3.327,8.288c-1.2,2.457-2.479,4.9-3.9,7.236a20.667,20.667,0,0,1-4.867,5.806c-4.906,3.749-11.1,2.1-15.959-.844-4.575-2.771-8.764-6.828-10.106-12.183a12.971,12.971,0,0,1,.546-8.345,5.8,5.8,0,0,1,2.522-3.04c1.308-.623,2.812-.267,4.2-.449,2.168-.284,3.437-2.01,4.68-3.634a10.216,10.216,0,0,1,2.644-2.63A9.755,9.755,0,0,1,79.543,102a51.079,51.079,0,0,1,8.594-.142c3.168.054,6.336.087,9.5.161a5.826,5.826,0,0,1,1.828.246,1.994,1.994,0,0,1,1.276,2.19,29.56,29.56,0,0,1-.662,4.371A49.851,49.851,0,0,1,93.9,124.746c-1.151,1.907-3.162,4.028-1.5,6.236a11.446,11.446,0,0,0,2.345,2.086,24.517,24.517,0,0,1,3.016,2.723,24.862,24.862,0,0,1,4.477,6.67c.978,2.141,1.328,4.973,3.28,6.5a6.238,6.238,0,0,0,5.509.725,16.389,16.389,0,0,0,5.847-3.195,45.022,45.022,0,0,0,5.336-5c6.669-7.3,11.117-16.275,15.969-24.81a138.873,138.873,0,0,1,8.32-12.948,26.7,26.7,0,0,0,4.014-7.139,40.353,40.353,0,0,0,1.509-8.374c1.2-11.037.671-22.53-3.206-33.021a51.211,51.211,0,0,0-3.274-7.131l-.286.221a4.4,4.4,0,0,0,4.664,1.244,5.589,5.589,0,0,0,3.722-3.923c1.529-5.07-2.13-9.551-3.689-14.086a38.235,38.235,0,0,1-1.681-8.089c-.3-2.632-.37-5.312-.778-7.93-.558-3.583-3.539-8.573-7.681-8.315a6.872,6.872,0,0,0-4.848,2.615,10.863,10.863,0,0,0-2,6.278c-.052,1.157.083,2.3.087,3.452a4.812,4.812,0,0,1-.629,2.772c-1.575,2.193-4.409-1.595-5.2-2.873-2.183-3.521-2.866-7.762-5.123-11.247-.473-.732-1.056-1.647-1.966-1.851-1.04-.234-2.024.517-2.85,1.036-2.095,1.316-4.141,2.709-6.174,4.119-7.961,5.525-15.993,11.66-25.539,14.081A35.509,35.509,0,0,1,82,26.284c-.126.018-.153.175-.109.268,1.184,2.484,2.434,5.085,2.566,7.884a7.7,7.7,0,0,1-2.226,6.07c-3.858,3.479-9.242-.227-11.684-3.588a.185.185,0,0,0-.286-.037A25.59,25.59,0,0,0,63.3,46.5c-.049.119.072.223.176.231,10.829.86,21.6-5.083,27.342-14.225a27.659,27.659,0,0,0,3.528-8.446.185.185,0,0,0-.176-.232c-11.443-.026-22.4,6.632-28.255,16.409a31.017,31.017,0,0,0-3.592,8.827l.267-.109a47.731,47.731,0,0,1-12.622-8.3Q48.572,39.382,47.284,38a22.009,22.009,0,0,1-2.462-2.932c-1.814-2.813,1.295-5.54,2.987-7.562q5.414-6.466,11.407-12.412A75.832,75.832,0,0,1,71.489,4.669C76.348,1.566,82.055-.525,87.847.782V.43c-4.2,1.188-8.564.91-12.874.961a31.793,31.793,0,0,0-10.729,1.75C57.866,5.486,52.48,9.985,48.109,15.118a50.287,50.287,0,0,0-6.136,8.657,10.921,10.921,0,0,0-1.479,5.039,9.59,9.59,0,0,0,1.248,4.547c1.712,3.191,4.442,5.745,6.532,8.678a52.935,52.935,0,0,1,5.635,10.083,53.15,53.15,0,0,1,3.3,11.028,15.291,15.291,0,0,0,1.524,5.106A8.72,8.72,0,0,0,60.945,70.7c3.863,2.979,9.1,3.268,13,6.157a6.578,6.578,0,0,1,2.57,7.246c-1.069,3.6-4.313,6.027-7.3,7.988-2.626,1.724-5.472,3.478-7.2,6.192a9.724,9.724,0,0,0-.9,1.8A15.079,15.079,0,0,1,60.1,102.78c-1.048,1.707-3.252,1.669-4.783.65-1.6-1.062-2.288-3.043-2.785-4.805-.479-1.7-.891-3.416-1.31-5.129-.866-3.542-1.69-7.1-2.649-10.614-1.808-6.634-4.119-13.281-8.142-18.919a35.133,35.133,0,0,0-3.189-3.854c-.119-.125-.372,0-.3.178.841,2.178,1.817,4.633,1.276,7.005-.438,1.924-1.974,3.747-4.061,3.738a.185.185,0,0,0-.129.312,7.327,7.327,0,0,1,1.307,6.845,6.578,6.578,0,0,1-5.2,4.59,7.337,7.337,0,0,1-6.811-2.387,2.541,2.541,0,0,0-2.7-1.053,7.657,7.657,0,0,0-2.957,2.4,85.659,85.659,0,0,0-6.555,7.9c-.088.121.034.267.157.275a28.725,28.725,0,0,0,24.18-11.179,26.862,26.862,0,0,0,3.763-6.665c.047-.122-.071-.22-.176-.231-9.533-1.088-19.216,3.808-24.578,11.692a24.5,24.5,0,0,0-3.376,7.3h.351c-1.523-5.51-6.7-8.751-9.3-13.638C-.987,71.345.215,63.994,4.253,58.912a21.3,21.3,0,0,1,6.871-5.6A18.747,18.747,0,0,1,15.7,51.585a10.2,10.2,0,0,1,2.56-.254,3.549,3.549,0,0,1,2.673.879c1.035,1.332,1.367,3.181,1.959,4.729a2.914,2.914,0,0,1,.33.931c-.024.368-.4.689-.668.939a8.013,8.013,0,0,1-2.032,1.309c-3.305,1.613-6.714,3.037-10.067,4.548a16.052,16.052,0,0,0-4.477,2.486,6.215,6.215,0,0,0-1.865,3.741c-.476,3.291.671,6.612-.039,9.892-.05.229.3.327.351.1" transform="translate(0)" fill="#1c1c1b" stroke="#1c1c1b" stroke-linecap="round" stroke-linejoin="round" stroke-width="1.2"/>
    </g>
  </g>
</svg>
