<svg xmlns="http://www.w3.org/2000/svg" xmlns:xlink="http://www.w3.org/1999/xlink" width="220" height="260" viewBox="0 0 220 260">
  <defs>
    <clipPath id="clip-path">
      <rect id="mask" width="220" height="260" transform="translate(260 601)" fill="#fff" stroke="#707070" stroke-width="1"/>
    </clipPath>
  </defs>
  <g id="img_profile_type_06" transform="translate(-260 -601)" clip-path="url(#clip-path)">
    <g id="path" transform="translate(303 632)">
      <path id="path-2" data-name="path" d="M168.856,177.494s-41.685-50.764-8.7-129.66c0,0-4.731,20.075-1.535,38.617" transform="translate(-120.953 -23.059)" fill="none" stroke="#1c1c1b" stroke-linecap="round" stroke-linejoin="round" stroke-width="1.7"/>
      <path id="path-3" data-name="path" d="M203.686,42.957s-2.3,23.656,6.393,41.3" transform="translate(-160.769 -19.59)" fill="none" stroke="#1c1c1b" stroke-linecap="round" stroke-linejoin="round" stroke-width="1.7"/>
      <path id="path-4" data-name="path" d="M236.31,61.313s-21.994-18.157-22.633-41.685a117.251,117.251,0,0,0,11.381,14.321c5.754,5.882,15.984,16.623,15.984,16.623a14.069,14.069,0,0,1,4.476-1.918c2.429-.512,2.813,0,4.22-3.708,0,0,2.429,3.964,3.58,4.731s1.406.639,2.046-.639,1.023-5.243,1.023-5.243,1.407,5.882,5.243,7.289,9.846,1.79,7.033-5.626c0,0-2.685,3.2,1.662,5.37,0,0,2.43,0,3.325-1.279l4.348,3.2,1.663-2.557,4.475,2.046s2.685-19.308-14.833-37.21c0,0,15.216,8.439,24.423,43.859" transform="translate(-168.075 0.288)" fill="none" stroke="#1c1c1b" stroke-linecap="round" stroke-linejoin="round" stroke-width="1.7"/>
      <path id="path-5" data-name="path" d="M191.729,159.258s9.015-13.522,23.112-12.851c0,0,6.042-.384,8.44.384s1.535,3.165.959,3.261-2.877-.48-1.342-2.493,8.535-1.63,11.125-.671,3.069,1.535,3.165,3.548.384,11.508-2.973,15.536-6.809,5.083-10.07-.1-3.932-4.124-7.1-4.028-13.81,1.822-16.783,7.48c0,0,10.549,6.042,23.208-1.439" transform="translate(-152.457 -92.99)" fill="none" stroke="#1c1c1b" stroke-linecap="round" stroke-miterlimit="10" stroke-width="1.7"/>
      <path id="path-6" data-name="path" d="M211.968,204.215s-9.483-.1-11.741-.732c-1.717-.48-.1,1.111-.1,1.111s7.272,5.832,14.237,4.8a8.98,8.98,0,0,1,1.215.053c7.474-.076,7.777-4.191,7.777-4.191s.493-2.649-.943-3.451c-1.506-.842-9.839,2.239-9.839,2.239a1.628,1.628,0,0,0-.328,2.07,4.771,4.771,0,0,0,2.727,3.131" transform="translate(-157.942 -131.52)" fill="none" stroke="#1c1c1b" stroke-linecap="round" stroke-linejoin="round" stroke-width="1.7"/>
      <path id="path-7" data-name="path" d="M386.6,170.763s2.014,19.756,12.659,29.538c0,0,1.726,1.63,1.247,3.357s-3.069,6.9-7.384,9.015" transform="translate(-291.127 -110.538)" fill="none" stroke="#1c1c1b" stroke-linecap="round" stroke-linejoin="round" stroke-width="1.7"/>
      <path id="path-8" data-name="path" d="M370.886,293.1a1.449,1.449,0,0,0-1.726-1.726c-2.014.192-3.452,3.932-3.452,3.932a2.742,2.742,0,0,1-4.316.959c-2.877-2.014-2.973-7.385,1.918-9.111" transform="translate(-271.771 -193.362)" fill="none" stroke="#1c1c1b" stroke-linecap="round" stroke-linejoin="round" stroke-width="1.7"/>
      <path id="path-9" data-name="path" d="M273.111,233.281s5.754,24.743-2.973,61.377a49.335,49.335,0,0,0-.959,6.234c-.288,3.357-.48,7.768-6.234,9.686s-28.867.384-33.278-.575-31.744-5.85-38.936-35.58" transform="translate(-151.747 -155.026)" fill="none" stroke="#1c1c1b" stroke-linecap="round" stroke-linejoin="round" stroke-width="1.7"/>
      <path id="path-10" data-name="path" d="M398.684,180.852c.192-.288,9.782-5.562,15.632-2.973s6.33,2.4,6.33,2.4l2.877-3.261s-1.247-1.918-5.275-.575c0,0,2.4-2.014,2.493-3.836s-6.138,3.069-6.138,3.069l.959-6.617a13.413,13.413,0,0,0-5.179,5.466l-.575-5.754s-3.74,2.781-4.124,7.1c0,0-2.014-4.22-1.726-5.658s-1.918,3.74-2.014,6.138l-5.37-4.508,1.918,6.33" transform="translate(-298.226 -109.117)" fill="none" stroke="#1c1c1b" stroke-linecap="round" stroke-linejoin="round" stroke-width="1.7"/>
      <path id="path-11" data-name="path" d="M417.8,198.808s1.91,2.06.863,3.8a4.849,4.849,0,0,1-5.85,2.014c-2.206-.863-3.261-1.726-3.932-2.877" transform="translate(-306.983 -130.494)" fill="none" stroke="#1c1c1b" stroke-linecap="round" stroke-linejoin="round" stroke-width="1.7"/>
      <path id="path-12" data-name="path" d="M331.4,361.06c.288,0,3.873,2.31,12.659.575,7.529-1.486,7.5-1.247,10.453-.575,0,0,8.631-3.548,13.81-.767A9.986,9.986,0,0,0,364,355.785c-2.973-1.438-4.468-2.317-8.428-1.178,0,0-.938.179-1.354.219-2.1.2-2.733-2.038-7.864,1.055s-7.48,3.932-8.151,4.028" transform="translate(-251.846 -240.992)" fill="none" stroke="#1c1c1b" stroke-linecap="round" stroke-linejoin="round" stroke-width="1.7"/>
      <path id="path-13" data-name="path" d="M353.012,387.233s14.1,4.412,21,2.59,9.207-6.234,9.207-6.234" transform="translate(-267.227 -261.986)" fill="none" stroke="#1c1c1b" stroke-linecap="round" stroke-linejoin="round" stroke-width="1.7"/>
      <path id="path-14" data-name="path" d="M385.268,430.98s8.344-6.138,17.55-4.7" transform="translate(-290.181 -292.211)" fill="none" stroke="#1c1c1b" stroke-linecap="round" stroke-linejoin="round" stroke-width="1.7"/>
      <path id="path-15" data-name="path" d="M217.021,233.492s-1.918,6.521-2.014,9.015c0,0,2.206-5.946,5.562-6.521a13.967,13.967,0,0,0,.767,6.138s2.4-5.466,4.987-5.946c0,0,.48,4.028,2.3,6.33l3.453-7.289,3.932,5.466a43.873,43.873,0,0,1,.48-5.371c.287-.767.384-1.534,2.11-.575s5.37,3.357,5.37,3.357.48-1.726-1.822-4.412a2.928,2.928,0,0,1-.1-2.4" transform="translate(-169.022 -153.605)" fill="none" stroke="#1c1c1b" stroke-linecap="round" stroke-linejoin="round" stroke-width="1.7"/>
      <path id="path-16" data-name="path" d="M470.731,57.367s13.139,32.415,20.235,42.964,19.564,38.936,17.071,57.158c0,0-7.1,9.782-37.018,7.672" transform="translate(-350.997 -29.844)" fill="none" stroke="#1c1c1b" stroke-linecap="round" stroke-linejoin="round" stroke-width="1.7"/>
      <path id="path-17" data-name="path" d="M33.344,1.5S-18.06,84.552,9.752,149.573" transform="translate(-17.088 9.912)" fill="none" stroke="#1c1c1b" stroke-linecap="round" stroke-linejoin="round" stroke-width="1.7"/>
      <path id="path-18" data-name="path" d="M56.5,472.565s-1.535-5.37.192-17.262c0,0,4.22,9.015,9.4,12.851,0,0,1.535-12.084,4.22-15.728" transform="translate(-55.778 -310.97)" fill="none" stroke="#1c1c1b" stroke-linecap="round" stroke-linejoin="round" stroke-width="1.7"/>
      <path id="path-19" data-name="path" d="M119.9,453.756A48.8,48.8,0,0,0,139.464,471.4" transform="translate(-101.343 -311.918)" fill="none" stroke="#1c1c1b" stroke-linecap="round" stroke-linejoin="round" stroke-width="1.7"/>
      <path id="path-20" data-name="path" d="M357.047,580.717s-17.422-26.661-6.681-74.42" transform="translate(-262.855 -349.305)" fill="none" stroke="#1c1c1b" stroke-linecap="round" stroke-linejoin="round" stroke-width="1.7"/>
    </g>
  </g>
</svg>
