<svg xmlns="http://www.w3.org/2000/svg" xmlns:xlink="http://www.w3.org/1999/xlink" width="220" height="260" viewBox="0 0 220 260">
  <defs>
    <clipPath id="clip-path">
      <rect id="mask" width="220" height="260" transform="translate(260 601)" fill="#fff" stroke="#707070" stroke-width="1"/>
    </clipPath>
  </defs>
  <g id="img_profile_type_01" transform="translate(-260 -601)" clip-path="url(#clip-path)">
    <g id="path" transform="translate(239 646.002)">
      <path id="path-2" data-name="path" d="M154.436,225.856c-10.455,0-16.06-6.519-16.842-12.579-.794-6.151,2.911-11.227,9.438-12.933a39.72,39.72,0,0,1,10.026-.988c1.646-.007,3.694-.014,3.968-.365a1.308,1.308,0,0,0-.217-.544c-1.106-1.919-4.836-3.373-9.735-3.8-7.28-.631-11.734-3.259-12.544-7.4a4.337,4.337,0,0,1,.944-3.632,11.933,11.933,0,0,1-6.583-3.656,1.946,1.946,0,0,1-.518-1.945c.361-.9,1.106-1,1.968-1.123,1.3-.18,3.707-.514,8.227-3.472,5.029-3.29,7.558-1.743,9.59-.5a5.515,5.515,0,0,0,2.762,1.1,5.841,5.841,0,0,0,2.8-1.091c2.121-1.248,4.76-2.8,9.8.494,4.52,2.958,6.932,3.292,8.228,3.472.861.119,1.607.223,1.967,1.123a1.814,1.814,0,0,1-.323,1.752c-1.109,1.541-4.509,3.055-8.642,2.826a22.446,22.446,0,0,1-5.31-1.043c-2.106-.613-3.629-1.056-5.323-.113a6.641,6.641,0,0,1-6.129.008c-1.517-.79-5.2-.477-8.131.749a27.474,27.474,0,0,1,7.434.583,20.291,20.291,0,0,0,3.754.464,31.745,31.745,0,0,0,4.689-.414,33.141,33.141,0,0,1,4.838-.425c4.644,0,7,1.586,7,4.716,0,3.845-4.967,6.395-9.891,7.216a.685.685,0,1,1-.225-1.352c4.212-.7,8.745-2.837,8.745-5.864,0-.916,0-3.346-5.627-3.346a31.541,31.541,0,0,0-4.646.412,33.342,33.342,0,0,1-4.881.428,21.66,21.66,0,0,1-4-.487,25.543,25.543,0,0,0-8.784-.4,7.659,7.659,0,0,1-1.062.064,3.313,3.313,0,0,0-1.318,3.2c.671,3.437,4.8,5.733,11.315,6.3,2.6.225,8.865,1.113,10.806,4.478a1.961,1.961,0,0,1,.216,1.915c-.6,1.032-2.31,1.038-5.15,1.049a38.553,38.553,0,0,0-9.683.943c-5.819,1.52-9.126,6.008-8.425,11.432.708,5.484,5.855,11.385,15.481,11.385,15.769-.007,29.82-9.738,44.229-30.622,16-23.183,18.867-48.584,18.459-65.809-.137-5.759-2.17-10.418-6.043-13.849l-.088-.078c-5.168,4.64-11.989,7.3-20.041,7.574-7.032.243-10.431-1.014-12.916-1.931-2.248-.829-3.6-1.329-6.393-.317-1.97.716-5.607,4.043-9.628,8.522a80.331,80.331,0,0,0,3.1,18.066,21.5,21.5,0,0,0,2.466,5.4c1.078,1.812,2.009,3.376,1.766,6.055a4.778,4.778,0,0,1-2.144,3.689,9.466,9.466,0,0,1-6.755,1.045.9.9,0,0,1-.7-.717c-.1-.648.477-1.051,1.356-1.662a7.709,7.709,0,0,0,1.271-1.014,2.285,2.285,0,0,0-.465-.17c-.441-.121-1.068.472-1.795,1.157-1.153,1.087-2.732,2.576-5.137,2.576-2.384,0-3.811-1.361-4.958-2.455-.874-.834-1.443-1.34-2.064-1.259-.068.009-.127.018-.177.028a11.769,11.769,0,0,0,1.036.9c.887.716,1.528,1.233,1.394,1.908a.927.927,0,0,1-.7.7c-1.073.318-4.053.509-5.921-.988a4.272,4.272,0,0,1-1.511-3.856c.458-6.555,10.149-20.464,18.543-29.869a73.282,73.282,0,0,1,.459-12.435c.77-6.211,2.64-11.292,5.679-15.377-.828-3.4-1.164-6.757-.474-8.711.417-1.181,2.009-2.325,4.865-3.5,9.165-3.766,29.1-6.819,32.812-5.024,4.157,2.008,10.714,10.858,10.515,12.783a.855.855,0,0,1-.643.77c-.943.237-2.705-1.1-7.869-5.5-1.431-1.221-2.789-2.379-3.66-3.031-18.914.67-28.807,5.811-34.07,12.427a35.032,35.032,0,0,0,3,7.918,27.732,27.732,0,0,1,11.756-7.746c7.67-2.7,11.777-2.172,15.4-1.7a17.725,17.725,0,0,0,7.247-.121c1.814-.452,3.954-.8,4.4.534.281.832-.409,1.864-1.222,2.7a24.716,24.716,0,0,1,5.069-.3c1.059.124,1.4.622,1.5,1.017.2.761-.414,1.724-1.814,2.869.416.076.906.153,1.344.222q.568.089,1.091.177a36.937,36.937,0,0,0,3.975-12.5c1.281-9.04-1.877-38.4-16.933-54.07-7.006-7.292-15.583-10.492-25.483-9.511-7.882.78-13.106,2.907-15.967,6.5-3.9,4.9-3,11.852-2.052,19.213.933,7.215,1.9,14.676-2.074,20.146-3.875,5.338-11.028,6.764-17.946,8.144-8.472,1.689-16.475,3.284-17.084,12-.583,8.338,7.1,9.4,14.523,10.436,5,.694,9.718,1.349,11.8,4.209a6.509,6.509,0,0,1,.9,5.142c-.961,5.379-5.188,9.359-10.464,11.884a12.185,12.185,0,0,1,.663,7.669c-2.206,10.2-14.362,12.848-25.088,15.181-7.3,1.588-14.2,3.089-16.346,6.714a8.7,8.7,0,0,0-1.151,6.874c1.284,4.757,6.56,7.751,6.613,7.781a.685.685,0,1,1-.67,1.2c-.237-.133-5.836-3.311-7.269-8.62a10.015,10.015,0,0,1,1.3-7.929c2.453-4.139,9.633-5.7,17.234-7.355,10.321-2.246,22.018-4.79,24.038-14.131a10.869,10.869,0,0,0-.584-6.812,33.817,33.817,0,0,1-16.128,2.531c-6.451-.718-10.182-3.77-9.982-8.164a4.806,4.806,0,0,1,3.2-4.211c4.574-2.053,13.916-.907,20.009,4.018a14.97,14.97,0,0,1,3.519,4c4.935-2.353,8.892-6,9.76-10.862a5.143,5.143,0,0,0-.662-4.1c-1.737-2.388-6.176-3-10.877-3.657-7.676-1.066-16.375-2.274-15.7-11.888.682-9.762,9.58-11.536,18.184-13.252,6.659-1.327,13.544-2.7,17.1-7.6,3.652-5.03,2.722-12.217,1.824-19.168-.946-7.32-1.925-14.889,2.338-20.241,3.105-3.9,8.635-6.193,16.906-7.012,10.343-1.026,19.3,2.315,26.608,9.926,8.32,8.66,12.658,20.906,14.831,29.653,2.68,10.786,3.172,20.607,2.471,25.556a38.725,38.725,0,0,1-3.9,12.575c1.859.387,3.048.859,3.306,1.741a2.213,2.213,0,0,1-.485,2.151c-1.01,1.142-3.143,1.577-5.707,1.162-.112-.018-.23-.044-.354-.076A28.739,28.739,0,0,1,212,113.184c4.168,3.693,6.355,8.685,6.5,14.839.413,17.428-2.5,43.134-18.7,66.618C185.107,215.93,170.7,225.849,154.436,225.856Zm-6.479-53.046a8.676,8.676,0,0,0-4.636,1.755c-4.778,3.128-7.389,3.49-8.791,3.684-.817.113-.831.148-.883.276,0,.067.126.465.795,1.107a10.94,10.94,0,0,0,6.283,2.771c.039-.03.078-.061.118-.09,3.153-2.35,9.208-3.42,11.779-2.082a5.34,5.34,0,0,0,4.826.009c2.2-1.222,4.132-.659,6.375-.006a21.321,21.321,0,0,0,5,.991c3.87.21,6.684-1.192,7.452-2.258.133-.184.2-.358.163-.443-.051-.128-.065-.162-.882-.275-1.4-.194-4.014-.556-8.791-3.684-4.323-2.829-6.279-1.677-8.348-.459a7.036,7.036,0,0,1-3.5,1.281,6.722,6.722,0,0,1-3.479-1.3A6.473,6.473,0,0,0,147.957,172.81Zm12.775-43.381c-7.961,9.162-16.873,22.105-17.288,28.054a2.932,2.932,0,0,0,1,2.692,5.794,5.794,0,0,0,3.953.875c-.151-.127-.312-.257-.446-.365-.988-.8-1.92-1.547-1.673-2.42.217-.771,1.182-.9,1.5-.937,1.3-.174,2.262.744,3.189,1.628,1.07,1.021,2.176,2.076,4.01,2.076,1.86,0,3.1-1.17,4.195-2.2.984-.928,1.917-1.808,3.1-1.484.34.092,1.375.373,1.524,1.232.166.962-.887,1.693-1.906,2.4l-.117.081a7.928,7.928,0,0,0,4.662-1.006,3.42,3.42,0,0,0,1.548-2.679c.2-2.238-.544-3.494-1.579-5.232a22.954,22.954,0,0,1-2.6-5.716A81.882,81.882,0,0,1,160.732,129.429ZM120.419,118.2a12.055,12.055,0,0,0-4.82.85,3.476,3.476,0,0,0-2.389,3.023c-.236,5.177,6.05,6.438,8.763,6.74a32.487,32.487,0,0,0,15.321-2.432,13.557,13.557,0,0,0-3.112-3.5A23.062,23.062,0,0,0,120.419,118.2Zm46.769-16.867a30.961,30.961,0,0,0-4.749,13.915,71.424,71.424,0,0,0-.5,10.816c3.84-4.152,7.276-7.187,9.238-7.9,3.262-1.184,4.972-.553,7.337.32s5.634,2.078,12.393,1.847c7.606-.262,14.065-2.749,18.988-7.1a20.854,20.854,0,0,0-11.991-4.114c-.344,4.65-4.325,9.753-9.391,9.753a9.27,9.27,0,0,1-9.195-8.132c-1.653.921-3.139,1.876-4.474,2.735-2.516,1.617-4.331,2.792-5.679,2.683a1.382,1.382,0,0,1-1.258-1.331c-.172-1.3.628-3.5,2.415-5.871A32.915,32.915,0,0,1,167.189,101.336Zm12.747,7.61a.686.686,0,0,1,.686.685,7.892,7.892,0,0,0,7.89,7.877c4.529,0,8.043-4.854,8.043-9.03a.685.685,0,0,1,.62-.682c2.947-.284,8.834.721,13.737,4.494a27.271,27.271,0,0,0,1.892-2.053c-.312-.125-.65-.266-1.021-.421a42.931,42.931,0,0,0-17.135-3.782,41.984,41.984,0,0,0-19.554,4.178c-.611.271-1.192.528-1.754.763a1.7,1.7,0,0,1-1.9-.551c-.092-.086-.184-.183-.278-.289a12.167,12.167,0,0,0-1.716,3.271,2.455,2.455,0,0,0-.149,1.394c.915.037,2.711-1.127,4.8-2.471,1.608-1.033,3.43-2.2,5.517-3.3A.689.689,0,0,1,179.936,108.945Zm-7.92.076c.53.662.8.689.8.689.545-.23,1.118-.484,1.72-.75a43.152,43.152,0,0,1,20.127-4.3c8.581.107,15.589,3.17,20.043,4.863.515.214,4.651.8,4.964-1.437.113-.994-5.031-1.566-5.2-1.592-2.253-.355-2.777-.315-2.939-1a.8.8,0,0,1,.35-.849,7.4,7.4,0,0,0,2.138-2.034,1.623,1.623,0,0,0-.3-.058,28.932,28.932,0,0,0-5.51.4c-1.788.24-2.158.288-2.333-.346a.731.731,0,0,1,.507-.887,6.671,6.671,0,0,0,2.336-2.441,5.848,5.848,0,0,0-2.757.311,19.076,19.076,0,0,1-7.756.151c-3.473-.447-7.407-.954-14.77,1.638A25.655,25.655,0,0,0,172.016,109.021ZM200.081,83.3c-6.726,0-20.965,2.4-28.41,5.464-3.319,1.364-3.968,2.335-4.093,2.688-.525,1.484-.316,4.088.28,6.878a25.98,25.98,0,0,1,3.18-3.114c6.841-5.646,17.132-8.623,31.458-9.1a.69.69,0,0,1,.424.129c.9.65,2.375,1.907,3.935,3.238,1.76,1.5,4.458,3.8,5.909,4.763-1.3-2.515-5.984-8.888-9.4-10.539A8.882,8.882,0,0,0,200.081,83.3Z" transform="translate(-28.636 -41.857)" fill="#1c1c1b" stroke="#1c1c1b" stroke-linecap="round" stroke-linejoin="round" stroke-width="0.3"/>
    </g>
  </g>
</svg>
