<svg xmlns="http://www.w3.org/2000/svg" width="26" height="32" viewBox="0 0 26 32">
  <g id="no_color_face_type_06" transform="translate(1 -0.999)">
    <g id="color" transform="translate(-387.589 -352.187)" fill="none" stroke-linecap="round" stroke-linejoin="round" stroke-dasharray="2 4">
      <path d="M412.023,359.156c3.246-11.235-8.047-.127-18.84-5.372s-7.117,25.581,2.272,30.32c5.633,3.727,11.469-3.209,13.034-5.305C413.68,369.2,410.366,370.9,412.023,359.156Z" stroke="none"/>
      <path d="M 390.9187622070312 353.1858215332031 C 390.9203491210938 353.1858215332031 390.9220886230469 353.1858520507812 390.9234313964844 353.1858215332031 C 390.9248046875 353.1858215332031 390.9261474609375 353.185791015625 390.9274597167969 353.1858215332031 C 390.9287414550781 353.1858215332031 390.929931640625 353.1857604980469 390.9312744140625 353.1858215332031 C 390.9325256347656 353.1858215332031 390.9337463378906 353.1858825683594 390.9350891113281 353.1858520507812 C 390.936279296875 353.1858520507812 390.9375305175781 353.1858215332031 390.9387817382812 353.1858825683594 C 390.9400329589844 353.1858825683594 390.9412841796875 353.1858825683594 390.9425048828125 353.1858825683594 C 390.9439392089844 353.1859130859375 390.9451904296875 353.1858520507812 390.9467468261719 353.1859130859375 C 390.9482421875 353.1859741210938 390.9496765136719 353.1859130859375 390.9512329101562 353.1859741210938 C 390.9524536132812 353.1859436035156 390.9536743164062 353.1859741210938 390.9550170898438 353.1860046386719 C 390.956298828125 353.1860046386719 390.9575500488281 353.1860046386719 390.9587707519531 353.18603515625 C 390.9600219726562 353.18603515625 390.9612731933594 353.1860656738281 390.9624938964844 353.1860656738281 C 390.9637756347656 353.1861267089844 390.9649963378906 353.1861267089844 390.9662780761719 353.1861267089844 C 390.9674682617188 353.1861267089844 390.9687805175781 353.1860961914062 390.969970703125 353.1861877441406 C 390.9715881347656 353.1861877441406 390.9732360839844 353.1862182617188 390.974853515625 353.1862487792969 C 390.9762573242188 353.186279296875 390.9774780273438 353.186279296875 390.9789123535156 353.1863098144531 C 390.9801940917969 353.1863708496094 390.9814147949219 353.1864013671875 390.9826965332031 353.1863708496094 C 390.9839172363281 353.1864318847656 390.9852294921875 353.1864013671875 390.9862976074219 353.1864624023438 C 390.9875793457031 353.1864624023438 390.9889221191406 353.1865539550781 390.9901123046875 353.1865234375 C 390.9913635253906 353.1865844726562 390.9926452636719 353.1865234375 390.9938049316406 353.1866149902344 C 390.9953918457031 353.1866455078125 390.9968566894531 353.1866760253906 390.9984436035156 353.1867065429688 C 390.9997253417969 353.186767578125 391.0010986328125 353.186767578125 391.0024108886719 353.1867980957031 C 391.0037841796875 353.1867980957031 391.005126953125 353.1868896484375 391.0065002441406 353.1868896484375 C 391.0077819824219 353.1869506835938 391.0090637207031 353.1869812011719 391.0103454589844 353.1869812011719 C 391.0115051269531 353.1870422363281 391.0127563476562 353.1870422363281 391.0140380859375 353.1870727539062 C 391.0152587890625 353.1871032714844 391.0166320800781 353.1871337890625 391.0177612304688 353.1871948242188 C 391.0190124511719 353.1871948242188 391.0202331542969 353.1872863769531 391.0214538574219 353.1872863769531 C 391.0230712890625 353.1873168945312 391.024658203125 353.1873168945312 391.0262756347656 353.1874389648438 C 391.0276794433594 353.1874694824219 391.0289916992188 353.1875 391.0304565429688 353.1875610351562 C 391.03173828125 353.1876220703125 391.0330200195312 353.1875915527344 391.0343322753906 353.1876831054688 C 391.0355529785156 353.1876831054688 391.0368347167969 353.187744140625 391.0381164550781 353.1878051757812 C 391.0393676757812 353.1878662109375 391.0405883789062 353.1878662109375 391.0417785644531 353.1879272460938 C 391.0430603027344 353.18798828125 391.0443115234375 353.1880493164062 391.0455932617188 353.1880493164062 C 391.0473327636719 353.1881713867188 391.0490112304688 353.1882019042969 391.0507202148438 353.188232421875 C 391.052001953125 353.1882629394531 391.0532531738281 353.1882934570312 391.0545959472656 353.1883850097656 C 391.0558776855469 353.1884460449219 391.0571594238281 353.1884765625 391.0584411621094 353.1885375976562 C 391.0596313476562 353.1885986328125 391.0609436035156 353.1886291503906 391.0621337890625 353.1886901855469 C 391.0633850097656 353.1886901855469 391.0646362304688 353.1888122558594 391.0658264160156 353.1888122558594 C 391.0670776367188 353.1888732910156 391.0683288574219 353.18896484375 391.069580078125 353.18896484375 C 391.0718078613281 353.1890869140625 391.0738525390625 353.1891784667969 391.0760498046875 353.1892395019531 C 391.0770568847656 353.1894226074219 391.0779724121094 353.1893615722656 391.0789184570312 353.1893920898438 C 391.0801086425781 353.1893920898438 391.0812683105469 353.1894836425781 391.0824584960938 353.1895446777344 C 391.083740234375 353.1896057128906 391.0850219726562 353.1896667480469 391.0863037109375 353.1897277832031 C 391.0875244140625 353.1897888183594 391.0887451171875 353.1898193359375 391.0900268554688 353.1898803710938 C 391.0912780761719 353.18994140625 391.0925903320312 353.1900024414062 391.0938415527344 353.1900634765625 C 391.0950622558594 353.1901245117188 391.0963134765625 353.190185546875 391.0975341796875 353.1902465820312 C 391.0992736816406 353.1903076171875 391.1010437011719 353.1903991699219 391.1028137207031 353.1905212402344 C 391.1041870117188 353.1905517578125 391.1054992675781 353.1905822753906 391.10693359375 353.1907348632812 C 391.1082153320312 353.1908569335938 391.1094055175781 353.1908874511719 391.1105651855469 353.19091796875 C 391.1117858886719 353.1909790039062 391.1130981445312 353.1910400390625 391.1143188476562 353.1911010742188 C 391.1155700683594 353.1911926269531 391.1167907714844 353.1912536621094 391.1180419921875 353.1913146972656 C 391.1193542480469 353.19140625 391.1205749511719 353.1914672851562 391.121826171875 353.1915283203125 C 391.1230773925781 353.1916198730469 391.1243286132812 353.1916198730469 391.1255493164062 353.1917419433594 C 391.1277770996094 353.1922302246094 391.1293334960938 353.1919555664062 391.1312561035156 353.1920471191406 C 391.1325378417969 353.1921997070312 391.1336975097656 353.1921691894531 391.1349792480469 353.1922912597656 C 391.1361083984375 353.1923217773438 391.1373596191406 353.1923828125 391.1386413574219 353.1925048828125 C 391.1399230957031 353.1925964355469 391.1412353515625 353.192626953125 391.1425170898438 353.1927490234375 C 391.1437072753906 353.1927490234375 391.1449890136719 353.19287109375 391.1462097167969 353.1929626464844 C 391.1474304199219 353.1930541992188 391.148681640625 353.1930847167969 391.1499633789062 353.1932067871094 C 391.1532897949219 353.1932678222656 391.1563720703125 353.193603515625 391.1595764160156 353.1938171386719 C 391.1607360839844 353.19384765625 391.1619567871094 353.1939392089844 391.1631774902344 353.1940612792969 C 391.1644592285156 353.1941528320312 391.1656799316406 353.1942138671875 391.1668090820312 353.1943054199219 C 391.1682434082031 353.1943969726562 391.16943359375 353.1945190429688 391.1706848144531 353.1945495605469 C 391.1720275878906 353.1946716308594 391.1732177734375 353.1947021484375 391.1744995117188 353.19482421875 C 391.1785888671875 353.1948547363281 391.1812438964844 353.1953125 391.1846618652344 353.195556640625 C 391.1857299804688 353.1954956054688 391.186767578125 353.1957092285156 391.1877746582031 353.1957702636719 C 391.1891174316406 353.1958312988281 391.1902770996094 353.1959533691406 391.1914978027344 353.196044921875 C 391.1927490234375 353.1961059570312 391.1939697265625 353.1962280273438 391.1951293945312 353.1963195800781 C 391.1963195800781 353.1963806152344 391.1976623535156 353.1964721679688 391.198974609375 353.1966247558594 C 391.2037658691406 353.196533203125 391.2083740234375 353.1973266601562 391.2130126953125 353.1976928710938 C 391.2142639160156 353.1980895996094 391.2152404785156 353.1978759765625 391.21630859375 353.1979675292969 C 391.2176513671875 353.1981506347656 391.2187194824219 353.1981506347656 391.219970703125 353.1982727050781 C 391.2210388183594 353.1981811523438 391.2223205566406 353.1984558105469 391.2235717773438 353.1985473632812 C 391.224853515625 353.1986999511719 391.2260437011719 353.19873046875 391.2273254394531 353.1988830566406 C 391.2311706542969 353.1994934082031 391.2366638183594 353.1996765136719 391.2412719726562 353.2000427246094 C 391.2423706054688 353.2003173828125 391.2434997558594 353.2002563476562 391.2445983886719 353.2003479003906 C 391.2460632324219 353.2005615234375 391.2470703125 353.2005615234375 391.2482604980469 353.20068359375 C 391.2493896484375 353.2007446289062 391.2507019042969 353.2008972167969 391.2519226074219 353.2009887695312 C 391.2564697265625 353.2015075683594 391.2615356445312 353.2018737792969 391.266357421875 353.2023315429688 C 391.266357421875 353.2023315429688 391.266357421875 353.2023315429688 391.266357421875 353.2023315429688 C 391.2675476074219 353.202392578125 391.2689819335938 353.2027587890625 391.2699584960938 353.2026672363281 C 391.2712707519531 353.2027893066406 391.2724609375 353.202880859375 391.2737731933594 353.2030334472656 C 391.27490234375 353.203125 391.2759094238281 353.2029113769531 391.2772827148438 353.203369140625 C 391.2784423828125 353.2034912109375 391.2787475585938 353.2029418945312 391.28076171875 353.2037048339844 C 391.2853698730469 353.2041320800781 391.2901306152344 353.2046203613281 391.2947387695312 353.205078125 C 391.2947387695312 353.205078125 391.2948303222656 353.205078125 391.2948303222656 353.205078125 C 391.2960815429688 353.2052001953125 391.2972717285156 353.2055053710938 391.2985229492188 353.2054443359375 C 391.2997741699219 353.2055969238281 391.3009643554688 353.205810546875 391.3021240234375 353.205810546875 C 391.3115539550781 353.206787109375 391.321044921875 353.2077941894531 391.3305053710938 353.2088317871094 C 391.3305053710938 353.2088317871094 391.3305053710938 353.2088317871094 391.3305053710938 353.2088317871094 C 391.8001708984375 353.2603454589844 392.307861328125 353.3991088867188 392.8539733886719 353.6336364746094 C 393.2345581054688 353.7970886230469 393.4105834960938 354.2381286621094 393.2471618652344 354.6187438964844 C 393.0836791992188 354.9992980957031 392.6427612304688 355.1754455566406 392.2620544433594 355.0119018554688 C 391.7581787109375 354.7955322265625 391.3062438964844 354.6858215332031 390.9187622070312 354.6858215332031 C 390.9160461425781 354.685791015625 390.9132690429688 354.685791015625 390.9105529785156 354.6858215332031 C 390.5383911132812 354.6873168945312 390.2323608398438 354.7885437011719 389.9474487304688 355.0043640136719 C 389.6172790527344 355.2544555664062 389.1468505859375 355.1895751953125 388.896728515625 354.859375 C 388.6471557617188 354.5299072265625 388.7113037109375 354.0607604980469 389.0396423339844 353.8102416992188 C 389.5696411132812 353.4081115722656 390.1908874511719 353.1878967285156 390.9086303710938 353.1858215332031 C 390.9119567871094 353.1858215332031 390.9154052734375 353.1858215332031 390.9187622070312 353.1858215332031 C 390.9187622070312 353.1858215332031 390.9187622070312 353.1858215332031 390.9187622070312 353.1858215332031 Z M 396.4680786132812 354.9327697753906 C 396.5172729492188 354.9327697753906 396.5672607421875 354.9376525878906 396.6173095703125 354.94775390625 C 397.2843627929688 355.0851745605469 397.9469909667969 355.1752319335938 398.6019592285156 355.2272644042969 C 399.0134887695312 355.2615051269531 399.3201293945312 355.6221923828125 399.2873229980469 356.0341796875 C 399.2544555664062 356.4471130371094 398.8928833007812 356.7554931640625 398.4801635742188 356.7222900390625 C 397.7425231933594 356.66357421875 397.0149536132812 356.56103515625 396.3176574707031 356.4175109863281 C 395.9119567871094 356.3340148925781 395.6507568359375 355.9374389648438 395.7342529296875 355.53173828125 C 395.8072509765625 355.177001953125 396.1195373535156 354.9327392578125 396.4680786132812 354.9327697753906 Z M 404.6990661621094 354.8451538085938 C 405.0579223632812 354.8451538085938 405.3751831054688 355.1035766601562 405.4375 355.4692687988281 C 405.5071105957031 355.8775939941406 405.2324829101562 356.2650146484375 404.8241882324219 356.3345947265625 C 404.0812377929688 356.4612121582031 403.4048767089844 356.5574645996094 402.7564697265625 356.6288757324219 C 402.3445129394531 356.6746215820312 401.9742126464844 356.3772277832031 401.9288635253906 355.9654846191406 C 401.883544921875 355.5537414550781 402.1805419921875 355.1832275390625 402.59228515625 355.1378784179688 C 403.2734680175781 355.0628662109375 403.9351196289062 354.9644775390625 404.5721740722656 354.8559265136719 C 404.6148071289062 354.8486633300781 404.6571960449219 354.8451538085938 404.6990661621094 354.8451538085938 Z M 410.4175720214844 353.9014892578125 C 410.4178466796875 353.9014892578125 410.4178771972656 353.9014892578125 410.4181518554688 353.9014892578125 C 410.4181518554688 353.9014892578125 410.4181518554688 353.9014892578125 410.4181518554688 353.9014892578125 C 410.4415893554688 353.9015197753906 410.4648742675781 353.9016723632812 410.4879760742188 353.9019470214844 C 410.9021301269531 353.9073791503906 411.2334899902344 354.2475280761719 411.2280883789062 354.6617126464844 C 411.22265625 355.0758666992188 410.8822937011719 355.4093627929688 410.4683227539062 355.4018249511719 C 410.4515075683594 355.401611328125 410.4359436035156 355.4027099609375 410.4175720214844 355.4014892578125 C 410.0144958496094 355.4014892578125 409.4867858886719 355.460205078125 408.7569885253906 355.5862731933594 C 408.3485107421875 355.656494140625 407.9607543945312 355.3830261230469 407.8902893066406 354.974853515625 C 407.8197937011719 354.5666809082031 408.093505859375 354.1786499023438 408.5016784667969 354.108154296875 C 408.8110961914062 354.0547180175781 409.1063537597656 354.0090637207031 409.3863220214844 353.9743347167969 C 409.3885192871094 353.9743041992188 409.3912963867188 353.9736938476562 409.3939208984375 353.9734191894531 C 409.396240234375 353.9727783203125 409.3988342285156 353.9728088378906 409.4012451171875 353.9725036621094 C 409.4039916992188 353.9722290039062 409.406494140625 353.9718933105469 409.4090576171875 353.9715576171875 C 409.4119567871094 353.970947265625 409.4140014648438 353.970947265625 409.4165649414062 353.9706420898438 C 409.4194946289062 353.9701538085938 409.4216918945312 353.9700317382812 409.4241638183594 353.9696960449219 C 409.4269104003906 353.969482421875 409.4292297363281 353.9690856933594 409.4316711425781 353.9688110351562 C 409.4340515136719 353.9684143066406 409.4369506835938 353.9681701660156 409.4394226074219 353.9678649902344 C 409.4418029785156 353.967529296875 409.4443664550781 353.96728515625 409.4468383789062 353.9669799804688 C 409.4492797851562 353.9666442871094 409.4518737792969 353.9664306640625 409.4543762207031 353.9660949707031 C 409.4568481445312 353.9656677246094 409.4593811035156 353.9654846191406 409.4618835449219 353.9652099609375 C 409.4644470214844 353.96484375 409.467041015625 353.964599609375 409.4696350097656 353.9642944335938 C 409.4719543457031 353.9640197753906 409.4747009277344 353.9637145996094 409.4771118164062 353.9634094238281 C 409.4798278808594 353.963134765625 409.4820861816406 353.9628295898438 409.4847106933594 353.9625244140625 C 409.4872436523438 353.9622497558594 409.4898376464844 353.9619140625 409.4922790527344 353.961669921875 C 409.4949035644531 353.9612426757812 409.4974975585938 353.9610900878906 409.5000610351562 353.9607543945312 C 409.5026245117188 353.9606323242188 409.5050354003906 353.9601745605469 409.5074768066406 353.9598999023438 C 409.5101013183594 353.9596862792969 409.512451171875 353.9593200683594 409.5150451660156 353.9590454101562 C 409.5174560546875 353.9587707519531 409.5199584960938 353.9584655761719 409.5224304199219 353.9582214355469 C 409.5250244140625 353.9578857421875 409.5274963378906 353.9576110839844 409.5301818847656 353.9573364257812 C 409.5324401855469 353.957275390625 409.53515625 353.956787109375 409.5376586914062 353.9565124511719 C 409.5381469726562 353.9564514160156 409.5384521484375 353.9564208984375 409.5389404296875 353.9563598632812 C 409.5506591796875 353.9550476074219 409.5623779296875 353.9537658691406 409.5740661621094 353.9525146484375 C 409.5759887695312 353.9521179199219 409.577880859375 353.9520874023438 409.5797424316406 353.9518737792969 C 409.5821228027344 353.9516296386719 409.5846862792969 353.9513244628906 409.587158203125 353.9510803222656 C 409.5895385742188 353.9508666992188 409.5919799804688 353.9505615234375 409.5943603515625 353.9503173828125 C 409.5967407226562 353.9500122070312 409.5991516113281 353.9497375488281 409.6015930175781 353.9495544433594 C 409.6040344238281 353.9493103027344 409.6064147949219 353.9490356445312 409.6089172363281 353.9487915039062 C 409.6113586425781 353.9485168457031 409.6141052246094 353.9482421875 409.6166076660156 353.9479675292969 C 409.6190490722656 353.9477233886719 409.6217651367188 353.9474487304688 409.6241760253906 353.9471740722656 C 409.6265258789062 353.9469909667969 409.6291809082031 353.9466857910156 409.6314697265625 353.9464416503906 C 409.6339721679688 353.9461669921875 409.6363525390625 353.9459228515625 409.6387939453125 353.9456787109375 C 409.6412353515625 353.9454345703125 409.6439819335938 353.9451293945312 409.6464233398438 353.9448852539062 C 409.6489868164062 353.9446411132812 409.6513671875 353.9444274902344 409.6539306640625 353.9441223144531 C 409.6563415527344 353.9439086914062 409.6587829589844 353.9436645507812 409.6612548828125 353.9433898925781 C 409.663818359375 353.9431457519531 409.6661071777344 353.9429016113281 409.6687316894531 353.9426574707031 C 409.6712341308594 353.9424133300781 409.6737365722656 353.942138671875 409.6763000488281 353.94189453125 C 409.6788330078125 353.9416809082031 409.6811828613281 353.9414367675781 409.6837768554688 353.941162109375 C 409.686279296875 353.9409484863281 409.6886291503906 353.9407043457031 409.6911315917969 353.9404296875 C 409.693603515625 353.9401550292969 409.6960144042969 353.9399719238281 409.698486328125 353.9397277832031 C 409.7011413574219 353.9395141601562 409.7033081054688 353.9392395019531 409.7059020996094 353.9390258789062 C 409.70849609375 353.9388122558594 409.7108459472656 353.9385681152344 409.71337890625 353.9382934570312 C 409.7158508300781 353.9380187988281 409.7182312011719 353.9378051757812 409.720703125 353.9376220703125 C 409.7232055664062 353.9373779296875 409.7256164550781 353.9371643066406 409.7281188964844 353.9369201660156 C 409.7305603027344 353.9366455078125 409.7330017089844 353.9364318847656 409.7355041503906 353.9362182617188 C 409.7379455566406 353.9360046386719 409.7405700683594 353.9356994628906 409.7428894042969 353.935546875 C 409.7452392578125 353.935302734375 409.7478332519531 353.93505859375 409.7501831054688 353.9348754882812 C 409.7526245117188 353.9346618652344 409.7550964355469 353.9344787597656 409.7574157714844 353.9342041015625 C 409.7598266601562 353.9339599609375 409.7624206542969 353.9338073730469 409.7648315429688 353.9335327148438 C 409.7672424316406 353.9332580566406 409.7696533203125 353.9330749511719 409.7721862792969 353.9328918457031 C 409.7745666503906 353.9326477050781 409.777099609375 353.9324645996094 409.7795104980469 353.9322204589844 C 409.7819519042969 353.9320373535156 409.7843017578125 353.9318237304688 409.7867736816406 353.9315795898438 C 409.7892150878906 353.931396484375 409.791748046875 353.9311828613281 409.794189453125 353.9309387207031 C 409.7966003417969 353.9307250976562 409.7991027832031 353.9305114746094 409.801513671875 353.9302978515625 C 409.8039245605469 353.9300537109375 409.806396484375 353.9299011230469 409.8088073730469 353.9296875 C 409.8112182617188 353.9295043945312 409.8135986328125 353.9292297363281 409.8160400390625 353.9290771484375 C 409.818603515625 353.9288330078125 409.82080078125 353.9286804199219 409.8233337402344 353.928466796875 C 409.8258666992188 353.9282531738281 409.8282775878906 353.9280700683594 409.8306579589844 353.9278564453125 C 409.8330993652344 353.9275817871094 409.8353881835938 353.9274291992188 409.8378601074219 353.92724609375 C 409.8402709960938 353.9270629882812 409.8427124023438 353.9268188476562 409.8451232910156 353.9266662597656 C 409.8536376953125 353.9256896972656 409.8634338378906 353.9251708984375 409.8724975585938 353.9244689941406 C 409.8745727539062 353.92431640625 409.8768920898438 353.9241333007812 409.8788757324219 353.9239807128906 C 409.8811950683594 353.9237670898438 409.8836364746094 353.9236145019531 409.8858642578125 353.9234313964844 C 409.8882751464844 353.9233093261719 409.8905944824219 353.923095703125 409.8929748535156 353.9228820800781 C 409.895263671875 353.922607421875 409.8976745605469 353.9225463867188 409.9000549316406 353.92236328125 C 409.9028015136719 353.9222106933594 409.9049377441406 353.9220275878906 409.907470703125 353.9218139648438 C 409.9098205566406 353.9215087890625 409.912353515625 353.9214172363281 409.9146423339844 353.9212646484375 C 409.9168701171875 353.9211120605469 409.9190673828125 353.9209594726562 409.9214172363281 353.9207763671875 C 409.9237365722656 353.9205932617188 409.9259643554688 353.9204406738281 409.92822265625 353.9202880859375 C 409.9307250976562 353.9200744628906 409.9329833984375 353.919921875 409.9353637695312 353.9197692871094 C 409.9378967285156 353.9196472167969 409.9400634765625 353.9194641113281 409.9425659179688 353.9192810058594 C 409.9449157714844 353.9191284179688 409.9474487304688 353.9189147949219 409.9498901367188 353.9187622070312 C 409.9522705078125 353.9185791015625 409.9544372558594 353.91845703125 409.9568786621094 353.9182739257812 C 409.9594116210938 353.9181518554688 409.961669921875 353.9179382324219 409.9641418457031 353.9177856445312 C 409.9663696289062 353.9176330566406 409.9688720703125 353.9175109863281 409.97119140625 353.9172973632812 C 409.9736633300781 353.9171447753906 409.9760437011719 353.9169616699219 409.9783935546875 353.9168395996094 C 409.9806518554688 353.916748046875 409.9830932617188 353.9165344238281 409.9852600097656 353.9163818359375 C 409.9877624511719 353.9161987304688 409.9899597167969 353.9160766601562 409.9924011230469 353.9159240722656 C 409.9946899414062 353.915771484375 409.9971618652344 353.9156188964844 409.99951171875 353.9154663085938 C 410.0018920898438 353.9154052734375 410.0041809082031 353.9151916503906 410.006591796875 353.9150390625 C 410.0088806152344 353.9149475097656 410.0113525390625 353.9147338867188 410.0135498046875 353.9146118164062 C 410.0159606933594 353.9143676757812 410.0182800292969 353.914306640625 410.0206604003906 353.9141845703125 C 410.0231628417969 353.9139709472656 410.0252685546875 353.9138793945312 410.0277404785156 353.9137573242188 C 410.030029296875 353.9134521484375 410.0323791503906 353.9134216308594 410.0346984863281 353.913330078125 C 410.0368347167969 353.9132385253906 410.0393676757812 353.9130859375 410.0415954589844 353.9129333496094 C 410.0440673828125 353.912841796875 410.0462646484375 353.9126892089844 410.0486450195312 353.9125366210938 C 410.0509948730469 353.9123840332031 410.0534057617188 353.9122619628906 410.0556945800781 353.9121398925781 C 410.0582580566406 353.9119873046875 410.0603332519531 353.911865234375 410.062744140625 353.9117431640625 C 410.0650024414062 353.9116516113281 410.0673828125 353.9114990234375 410.0696411132812 353.911376953125 C 410.0718078613281 353.9111328125 410.0743713378906 353.9111328125 410.0766296386719 353.9109802246094 C 410.0789794921875 353.9110412597656 410.0812683105469 353.9107360839844 410.0836181640625 353.9106140136719 C 410.0857543945312 353.9104309082031 410.0882568359375 353.9103698730469 410.0906066894531 353.9102783203125 C 410.0927124023438 353.9099426269531 410.0951538085938 353.9100341796875 410.0974426269531 353.909912109375 C 410.0975952148438 353.909912109375 410.097900390625 353.9098815917969 410.0980224609375 353.9098815917969 C 410.1298522949219 353.9082946777344 410.1614685058594 353.9069213867188 410.1927795410156 353.90576171875 C 410.1927795410156 353.90576171875 410.19287109375 353.90576171875 410.19287109375 353.90576171875 C 410.195068359375 353.9056701660156 410.1972961425781 353.9056091308594 410.1994934082031 353.905517578125 C 410.1994934082031 353.905517578125 410.1996154785156 353.905517578125 410.1996154785156 353.905517578125 C 410.2019653320312 353.9054565429688 410.204345703125 353.9052734375 410.2064819335938 353.9052734375 C 410.2087707519531 353.9052124023438 410.2110290527344 353.9053039550781 410.2132568359375 353.905029296875 C 410.2154846191406 353.9049682617188 410.2180786132812 353.9047241210938 410.2200622558594 353.9048156738281 C 410.2222290039062 353.9047241210938 410.2246704101562 353.9046630859375 410.2267761230469 353.9046020507812 C 410.2290344238281 353.9044799804688 410.2312622070312 353.9043579101562 410.2335815429688 353.9043884277344 C 410.2356872558594 353.904296875 410.2378845214844 353.9044189453125 410.2402648925781 353.9041748046875 C 410.2424926757812 353.9041137695312 410.2446899414062 353.9038696289062 410.2470397949219 353.9039916992188 C 410.2493286132812 353.9039306640625 410.25146484375 353.9037475585938 410.2537231445312 353.90380859375 C 410.256103515625 353.9037475585938 410.2583618164062 353.9036560058594 410.2605285644531 353.9036254882812 C 410.2628173828125 353.9035034179688 410.2648620605469 353.903564453125 410.2672424316406 353.9034423828125 C 410.2693786621094 353.9033813476562 410.2717895507812 353.9031982421875 410.2740173339844 353.9032897949219 C 410.2762756347656 353.9032287597656 410.2784729003906 353.9031372070312 410.2806701660156 353.9031372070312 C 410.282958984375 353.9031066894531 410.2853088378906 353.903076171875 410.2873840332031 353.9029846191406 C 410.2895812988281 353.9028930664062 410.2918701171875 353.9027709960938 410.2941284179688 353.90283203125 C 410.2964172363281 353.9027709960938 410.2984313964844 353.9027404785156 410.3008422851562 353.9026794433594 C 410.3030700683594 353.9026489257812 410.3053283691406 353.902587890625 410.3074340820312 353.9025573730469 C 410.3096008300781 353.9025268554688 410.3119812011719 353.9024047851562 410.3141784667969 353.9024353027344 C 410.3164978027344 353.9024353027344 410.318603515625 353.9024047851562 410.3208312988281 353.9023132324219 C 410.3230895996094 353.9022827148438 410.3252563476562 353.9021911621094 410.3275451660156 353.9022216796875 C 410.3296508789062 353.9021606445312 410.3318786621094 353.9022521972656 410.3341369628906 353.902099609375 C 410.3363952636719 353.9021301269531 410.3387451171875 353.9021606445312 410.3408813476562 353.9020080566406 C 410.3430786132812 353.9020385742188 410.34521484375 353.9019775390625 410.3474426269531 353.9019470214844 C 410.3496704101562 353.9019165039062 410.3518981933594 353.90185546875 410.3540954589844 353.90185546875 C 410.3561096191406 353.9018249511719 410.3584594726562 353.9017639160156 410.3605651855469 353.9017944335938 C 410.3628234863281 353.9017639160156 410.3651733398438 353.9017944335938 410.3673400878906 353.9017333984375 C 410.3694763183594 353.9017028808594 410.3716125488281 353.9016418457031 410.3738403320312 353.9016723632812 C 410.3760681152344 353.9017028808594 410.378173828125 353.9017639160156 410.3803100585938 353.901611328125 C 410.3825378417969 353.901611328125 410.3847351074219 353.9015502929688 410.3869018554688 353.9015808105469 C 410.3891296386719 353.9015808105469 410.3912658691406 353.9015808105469 410.3934631347656 353.9015502929688 C 410.3956909179688 353.9015502929688 410.3981018066406 353.9015502929688 410.4002990722656 353.9015197753906 C 410.4025268554688 353.9015197753906 410.4051513671875 353.9015197753906 410.4073486328125 353.9015197753906 C 410.4101867675781 353.9015502929688 410.41259765625 353.9015197753906 410.4153137207031 353.9014892578125 C 410.4160461425781 353.9014892578125 410.4168090820312 353.9014892578125 410.4175720214844 353.9014892578125 Z M 411.8149719238281 355.7584533691406 C 411.8378295898438 355.7584533691406 411.8609619140625 355.7594909667969 411.8841857910156 355.7616271972656 C 412.2958679199219 355.7992858886719 412.5993041992188 356.1628723144531 412.56298828125 356.5743713378906 C 412.5129699707031 357.1228637695312 412.3912353515625 357.7735900878906 412.1915588378906 358.5426025390625 C 412.0863952636719 358.9420166015625 411.6779479980469 359.1814270019531 411.27783203125 359.07763671875 C 410.8769226074219 358.9735717773438 410.63623046875 358.564208984375 410.7402954101562 358.1632690429688 C 410.9156188964844 357.4878540039062 411.0261840820312 356.9081115722656 411.0689697265625 356.440185546875 C 411.1045837402344 356.0509033203125 411.4315795898438 355.7584228515625 411.8149719238281 355.7584533691406 Z M 410.8967590332031 361.68505859375 C 410.917236328125 361.68505859375 410.9378662109375 361.6859130859375 410.9586486816406 361.6875915527344 C 411.3712158203125 361.7212829589844 411.6784362792969 362.0828552246094 411.6451721191406 362.4953918457031 C 411.5854797363281 363.2262268066406 411.54833984375 363.8883361816406 411.5268249511719 364.4940490722656 C 411.5115356445312 364.9075012207031 411.1645812988281 365.2311096191406 410.7506713867188 365.2158508300781 C 410.3367309570312 365.2011413574219 410.0130920410156 364.8536376953125 410.0278015136719 364.4396667480469 C 410.0518493652344 363.7630615234375 410.0918579101562 363.08740234375 410.1500854492188 362.3740844726562 C 410.1820983886719 361.9819946289062 410.5101928710938 361.68505859375 410.8967590332031 361.68505859375 Z M 410.8126525878906 367.7649841308594 C 411.2155456542969 367.7649841308594 411.5484924316406 368.0848999023438 411.5617980957031 368.4903869628906 C 411.5689392089844 368.7145385742188 411.5750122070312 368.9319458007812 411.5787048339844 369.1443786621094 C 411.5787048339844 369.1444091796875 411.5787048339844 369.1445007324219 411.5787048339844 369.1445617675781 C 411.5787353515625 369.1468200683594 411.5787658691406 369.1487731933594 411.5788269042969 369.1510314941406 C 411.5788269042969 369.1513671875 411.5788269042969 369.1517028808594 411.5788269042969 369.1520385742188 C 411.578857421875 369.1540222167969 411.5788879394531 369.1559143066406 411.5789184570312 369.1578979492188 C 411.5789489746094 369.1591491699219 411.5789794921875 369.1604309082031 411.5789794921875 369.1616516113281 C 411.5790100097656 369.1633605957031 411.5790405273438 369.1644897460938 411.5790710449219 369.1661682128906 C 411.5790710449219 369.1671752929688 411.5791015625 369.168212890625 411.5791320800781 369.169189453125 C 411.5791320800781 369.1708984375 411.5791625976562 369.1727600097656 411.5791931152344 369.1744384765625 C 411.5792236328125 369.1753845214844 411.5792236328125 369.1763610839844 411.5792541503906 369.1772766113281 C 411.5792541503906 369.1784362792969 411.5792846679688 369.1799011230469 411.5793151855469 369.1810302734375 C 411.579345703125 369.1826477050781 411.579345703125 369.1842651367188 411.5793762207031 369.1858520507812 C 411.5794067382812 369.1867065429688 411.5794067382812 369.1877746582031 411.5794372558594 369.1885986328125 C 411.5794677734375 369.1903686523438 411.5794982910156 369.1921997070312 411.5794982910156 369.1939697265625 C 411.5795288085938 369.1947937011719 411.5795288085938 369.1956481933594 411.5795593261719 369.1965026855469 C 411.57958984375 369.1982421875 411.5796203613281 369.1999816894531 411.5796203613281 369.2016906738281 C 411.5796508789062 369.2028198242188 411.5796508789062 369.2035217285156 411.5796813964844 369.2046508789062 C 411.5797119140625 369.2064208984375 411.5797424316406 369.2081909179688 411.5797424316406 369.2099304199219 C 411.5797729492188 369.2107849121094 411.5797729492188 369.2111511230469 411.5797729492188 369.2119750976562 C 411.579833984375 369.2142028808594 411.5798645019531 369.21630859375 411.5798950195312 369.218505859375 C 411.5798950195312 369.2188110351562 411.5798950195312 369.2188110351562 411.5798950195312 369.2190856933594 C 411.5799560546875 369.2242431640625 411.5800476074219 369.2293701171875 411.5801086425781 369.2345275878906 C 411.5801086425781 369.2348022460938 411.5801086425781 369.2344970703125 411.5801086425781 369.2348022460938 C 411.5861511230469 369.6644592285156 411.5815734863281 370.0762329101562 411.5554504394531 370.4900512695312 C 411.5293579101562 370.9034423828125 411.1725769042969 371.217041015625 410.7597045898438 371.1913146972656 C 410.3463134765625 371.1652221679688 410.0323486328125 370.8089294433594 410.0584106445312 370.3955383300781 C 410.093505859375 369.8399353027344 410.0860290527344 369.2732238769531 410.0625610351562 368.5389099121094 C 410.0493774414062 368.1249084472656 410.374267578125 367.7785949707031 410.7882690429688 367.765380859375 C 410.7964172363281 367.7651062011719 410.8045349121094 367.7649841308594 410.8126525878906 367.7649841308594 Z M 409.928955078125 373.3376770019531 C 410.0202941894531 373.3376770019531 410.1132202148438 373.3544921875 410.203369140625 373.3899536132812 C 410.5888061523438 373.5415954589844 410.7783203125 373.9770202636719 410.6266784667969 374.3624572753906 C 410.5113220214844 374.6556701660156 410.3826293945312 374.9636535644531 410.2391662597656 375.2890319824219 C 410.2391662597656 375.2890319824219 410.2390747070312 375.2892456054688 410.2390747070312 375.2892456054688 C 410.2369995117188 375.2939147949219 410.2349243164062 375.2986755371094 410.2328491210938 375.3033447265625 C 410.2328491210938 375.3033447265625 410.2326965332031 375.3037109375 410.2326965332031 375.3037109375 C 410.2306213378906 375.3083801269531 410.2285766601562 375.3130493164062 410.2265014648438 375.3177185058594 C 410.2265014648438 375.3177185058594 410.2262878417969 375.3182067871094 410.2262878417969 375.3182067871094 C 410.2232055664062 375.3251647949219 410.2200927734375 375.3321838378906 410.2170104980469 375.339111328125 C 410.2168273925781 375.3395385742188 410.2168579101562 375.3394775390625 410.2166748046875 375.3399047851562 C 410.2156677246094 375.3421936035156 410.2146606445312 375.3444519042969 410.2136535644531 375.3467407226562 C 410.2136535644531 375.3467407226562 410.2135925292969 375.3468627929688 410.2135925292969 375.3468627929688 C 410.2125854492188 375.34912109375 410.2116088867188 375.3513793945312 410.2106018066406 375.3536376953125 C 410.2104187011719 375.3540344238281 410.2103881835938 375.3540649414062 410.210205078125 375.3544921875 C 410.2092895507812 375.3565673828125 410.2083435058594 375.3586730957031 410.2074279785156 375.3607482910156 C 410.2072448730469 375.3611450195312 410.2073364257812 375.3609619140625 410.2071533203125 375.3613891601562 C 410.2061767578125 375.3635559082031 410.2052307128906 375.3656921386719 410.2042541503906 375.3678894042969 C 410.2040710449219 375.3683166503906 410.2037353515625 375.3691101074219 410.2035217285156 375.3695068359375 C 410.202880859375 375.3710021972656 410.2022399902344 375.3724365234375 410.2015991210938 375.3739013671875 C 410.2010192871094 375.3751831054688 410.2007751464844 375.3757629394531 410.2001953125 375.3770446777344 C 410.1994018554688 375.3788452148438 410.1986083984375 375.380615234375 410.1977844238281 375.3824462890625 C 410.1974182128906 375.38330078125 410.1972045898438 375.3837890625 410.1968078613281 375.3846435546875 C 410.1962280273438 375.3859558105469 410.1956176757812 375.3872985839844 410.1950378417969 375.3886108398438 C 410.1946716308594 375.3894653320312 410.1942443847656 375.3904418945312 410.19384765625 375.3912658691406 C 410.1932678222656 375.3926086425781 410.1927185058594 375.3938293457031 410.1921081542969 375.3951721191406 C 410.1911926269531 375.3972778320312 410.1903991699219 375.3990478515625 410.189453125 375.4011535644531 C 410.189208984375 375.4017028808594 410.1889343261719 375.4023132324219 410.1886901855469 375.40283203125 C 410.1879577636719 375.404541015625 410.1875305175781 375.4054870605469 410.186767578125 375.4071960449219 C 410.1865539550781 375.4076538085938 410.1863403320312 375.4081115722656 410.1861572265625 375.4085693359375 C 410.1842651367188 375.4128112792969 410.1820068359375 375.4178161621094 410.1801147460938 375.4220886230469 C 410.1798706054688 375.422607421875 410.1795959472656 375.4232177734375 410.1793518066406 375.4237670898438 C 410.1772766113281 375.4284362792969 410.1752014160156 375.43310546875 410.173095703125 375.4377746582031 C 410.1730041503906 375.4380187988281 410.1729125976562 375.4382019042969 410.1728210449219 375.4384155273438 C 410.0642395019531 375.6810913085938 409.947998046875 375.9324645996094 409.8227233886719 376.1953430175781 C 409.6437683105469 376.5675659179688 409.1972961425781 376.7252197265625 408.8241271972656 376.5474548339844 C 408.4501953125 376.3692626953125 408.29150390625 375.9216918945312 408.4696960449219 375.5477600097656 C 408.7736206054688 374.9098815917969 409.0226135253906 374.342529296875 409.2308349609375 373.8132934570312 C 409.3470153808594 373.5179443359375 409.6297302246094 373.337646484375 409.928955078125 373.3376770019531 Z M 407.2476501464844 378.4151916503906 C 407.4154968261719 378.4151916503906 407.5844116210938 378.4712524414062 407.7240600585938 378.5863037109375 C 408.0437927246094 378.8496398925781 408.0894775390625 379.3223266601562 407.8261413574219 379.6420288085938 C 407.5235595703125 380.0093994140625 407.1632080078125 380.4247131347656 406.7534790039062 380.8587951660156 C 406.7533264160156 380.8589782714844 406.7527770996094 380.8595581054688 406.7526245117188 380.8597106933594 C 406.7511596679688 380.8612670898438 406.7497863769531 380.8627319335938 406.7483215332031 380.8642578125 C 406.7476806640625 380.8649597167969 406.7474060058594 380.865234375 406.7467651367188 380.8659362792969 C 406.7452087402344 380.8675537109375 406.7436218261719 380.8692321777344 406.7420654296875 380.8708801269531 C 406.7405090332031 380.8724670410156 406.7388916015625 380.8742370605469 406.7373352050781 380.8758850097656 C 406.7360534667969 380.8772277832031 406.7345581054688 380.8787536621094 406.7333068847656 380.8801574707031 C 406.731201171875 380.8823852539062 406.7295532226562 380.8841247558594 406.7274475097656 380.8863525390625 C 406.7270202636719 380.8868103027344 406.7266540527344 380.8871765136719 406.7262268066406 380.8876342773438 C 406.649169921875 380.968994140625 406.5704345703125 381.0509643554688 406.489990234375 381.1333923339844 C 406.2005615234375 381.427978515625 405.7270812988281 381.4332275390625 405.4312438964844 381.1445922851562 C 405.134765625 380.8553161621094 405.12890625 380.3804931640625 405.4181518554688 380.0840148925781 C 405.8468017578125 379.6446838378906 406.2674255371094 379.1751098632812 406.6683349609375 378.6883544921875 C 406.816650390625 378.50830078125 407.0312805175781 378.4151611328125 407.2476501464844 378.4151916503906 Z M 403.0179748535156 382.3015747070312 C 403.2653198242188 382.3015747070312 403.5075073242188 382.423828125 403.6506042480469 382.6476745605469 C 403.8737182617188 382.9966735839844 403.7716674804688 383.46044921875 403.4226684570312 383.6835632324219 C 403.3655700683594 383.7200622558594 403.3081665039062 383.7561340332031 403.25048828125 383.791748046875 C 403.2502746582031 383.7919006347656 403.249755859375 383.7922058105469 403.24951171875 383.7923278808594 C 403.2477111816406 383.79345703125 403.2458801269531 383.7945861816406 403.2440795898438 383.7957153320312 C 403.2436218261719 383.7959899902344 403.2433776855469 383.796142578125 403.242919921875 383.7964172363281 C 403.2410583496094 383.7975463867188 403.2391357421875 383.7987365722656 403.2372741699219 383.7998962402344 C 403.237060546875 383.8000183105469 403.2367858886719 383.8002014160156 403.2365417480469 383.8003540039062 C 403.2323303222656 383.8029174804688 403.2280883789062 383.8055419921875 403.223876953125 383.8081359863281 C 403.2218322753906 383.8094177246094 403.2198181152344 383.8106689453125 403.2177734375 383.8118896484375 C 403.2157897949219 383.8130187988281 403.2135009765625 383.8144836425781 403.2115783691406 383.815673828125 C 403.2094116210938 383.8170471191406 403.2071838378906 383.8183288574219 403.2050170898438 383.8196716308594 C 403.2043151855469 383.8200988769531 403.2035217285156 383.8205871582031 403.2028198242188 383.8210144042969 C 403.2008361816406 383.8222351074219 403.1989440917969 383.8233947753906 403.1969604492188 383.8246154785156 C 403.1965026855469 383.8248901367188 403.1959838867188 383.8251953125 403.1955261230469 383.8255004882812 C 403.19384765625 383.8265075683594 403.1921997070312 383.8275146484375 403.1905212402344 383.8285217285156 C 403.1885681152344 383.8297729492188 403.1866760253906 383.8309020996094 403.1846008300781 383.8321533203125 C 403.1824951171875 383.8334350585938 403.1806335449219 383.8345642089844 403.1785278320312 383.8358459472656 C 403.176513671875 383.8370361328125 403.1744995117188 383.8382873535156 403.1725769042969 383.8394470214844 C 403.1707763671875 383.8405456542969 403.1688232421875 383.8416442871094 403.1670837402344 383.8428039550781 C 403.1640319824219 383.8446350097656 403.1611633300781 383.8463745117188 403.1581115722656 383.8482360839844 C 403.1564331054688 383.8491516113281 403.1548461914062 383.8502197265625 403.1532287597656 383.8511962890625 C 403.1513671875 383.8522644042969 403.1492614746094 383.8535461425781 403.1474914550781 383.8546447753906 C 403.1455993652344 383.8558349609375 403.1431579589844 383.8572692871094 403.1412658691406 383.8583984375 C 403.1392822265625 383.859619140625 403.1371765136719 383.8609008789062 403.1351623535156 383.8620910644531 C 403.1351013183594 383.8621215820312 403.135009765625 383.8621826171875 403.1349487304688 383.8622131347656 C 403.1295776367188 383.865478515625 403.1242370605469 383.8686828613281 403.1188354492188 383.8719177246094 C 403.1170349121094 383.8731384277344 403.1151123046875 383.8742065429688 403.1131896972656 383.8753051757812 C 403.1112976074219 383.8763427734375 403.109130859375 383.8777465820312 403.1072082519531 383.87890625 C 403.1070861816406 383.8789672851562 403.1069641113281 383.8790283203125 403.1068420410156 383.8790893554688 C 403.0975036621094 383.8847045898438 403.0884094238281 383.89013671875 403.0790405273438 383.8957214355469 C 403.0790100097656 383.8957214355469 403.0789794921875 383.895751953125 403.0789489746094 383.8957824707031 C 402.9664611816406 383.9627380371094 402.8530578613281 384.02783203125 402.7385864257812 384.0909423828125 C 402.7385559082031 384.0909729003906 402.7384948730469 384.0910034179688 402.7384643554688 384.0910339355469 C 402.7269897460938 384.0973205566406 402.7157592773438 384.103515625 402.7042846679688 384.1098022460938 C 402.7041931152344 384.1098327636719 402.7041015625 384.1098937988281 402.7040405273438 384.1099243164062 C 402.7021179199219 384.1109619140625 402.7005004882812 384.1118774414062 402.6985778808594 384.1129150390625 C 402.6984252929688 384.1129760742188 402.6983032226562 384.1130676269531 402.6981506347656 384.1131286621094 C 402.6888427734375 384.1182250976562 402.6794128417969 384.1233520507812 402.6701049804688 384.12841796875 C 402.6679382324219 384.1293640136719 402.6661987304688 384.1305236816406 402.6643371582031 384.1315307617188 C 402.6622009277344 384.1326904296875 402.660400390625 384.1336975097656 402.658447265625 384.1347045898438 C 402.6581420898438 384.1348876953125 402.6578063964844 384.1350708007812 402.6575012207031 384.1352233886719 C 402.6502990722656 384.1391296386719 402.6433410644531 384.1428833007812 402.6361389160156 384.1467590332031 C 402.6343688964844 384.147705078125 402.6322021484375 384.1488952636719 402.6302795410156 384.14990234375 C 402.6282043457031 384.1510009765625 402.6261596679688 384.1521606445312 402.6241760253906 384.1531982421875 C 402.6236267089844 384.1534729003906 402.6230163574219 384.15380859375 402.6224670410156 384.1540832519531 C 402.617431640625 384.1567993164062 402.61181640625 384.1597900390625 402.6067810058594 384.1625061035156 C 402.605224609375 384.1629638671875 402.6036376953125 384.1641540527344 402.6020812988281 384.1650085449219 C 402.6000366210938 384.1661682128906 402.5980529785156 384.1671447753906 402.5958557128906 384.1683349609375 C 402.5938110351562 384.1693725585938 402.5919189453125 384.1704406738281 402.5897521972656 384.1715698242188 C 402.5877075195312 384.1727294921875 402.5856323242188 384.1737670898438 402.5834350585938 384.1749267578125 C 402.5830688476562 384.1751098632812 402.5826416015625 384.1753540039062 402.582275390625 384.1755676269531 C 402.5793762207031 384.1770935058594 402.575927734375 384.1789245605469 402.5730285644531 384.1804504394531 C 402.5712585449219 384.1813659667969 402.5696105957031 384.1822509765625 402.5677185058594 384.1832580566406 C 402.5657043457031 384.1844177246094 402.5636291503906 384.1854858398438 402.5615844726562 384.1864929199219 C 402.5595092773438 384.1876220703125 402.5574340820312 384.1886901855469 402.5553894042969 384.1897888183594 C 402.5531921386719 384.19091796875 402.55126953125 384.1919250488281 402.549072265625 384.193115234375 C 402.5479736328125 384.1936950683594 402.546875 384.1942749023438 402.5458068847656 384.19482421875 C 402.5438842773438 384.1958312988281 402.5420227050781 384.1968383789062 402.5401000976562 384.1978454589844 C 402.5377502441406 384.1990051269531 402.5360412597656 384.199951171875 402.5337524414062 384.201171875 C 402.5314025878906 384.2024230957031 402.5296630859375 384.2033081054688 402.5273132324219 384.2045593261719 C 402.5251770019531 384.2055969238281 402.5231628417969 384.2066955566406 402.5210876464844 384.2077941894531 C 402.51904296875 384.2089233398438 402.516845703125 384.2100524902344 402.5146789550781 384.2111511230469 C 402.5104675292969 384.2133483886719 402.5061645507812 384.215576171875 402.501953125 384.2178039550781 C 402.4997253417969 384.2189025878906 402.4974670410156 384.2200622558594 402.4953308105469 384.2212219238281 C 402.4931030273438 384.2225036621094 402.4909057617188 384.2235717773438 402.4886779785156 384.2246704101562 C 402.4862365722656 384.2260131835938 402.48388671875 384.2271423339844 402.4815368652344 384.2283935546875 C 402.4810485839844 384.2286376953125 402.480712890625 384.2287902832031 402.4802551269531 384.2290649414062 C 402.4757690429688 384.2313842773438 402.4713134765625 384.2336730957031 402.4668273925781 384.2359924316406 C 402.4665832519531 384.2361145019531 402.466552734375 384.2361145019531 402.46630859375 384.2362365722656 C 402.4642944335938 384.2373046875 402.4622497558594 384.2383422851562 402.4602355957031 384.2393798828125 C 402.4578247070312 384.240478515625 402.455810546875 384.2416381835938 402.4535217285156 384.2428283691406 C 402.4513854980469 384.2439880371094 402.4488525390625 384.2452392578125 402.4468078613281 384.2462768554688 C 402.4463195800781 384.2465209960938 402.4459533691406 384.2467346191406 402.4454650878906 384.2469787597656 C 402.4409790039062 384.249267578125 402.4364929199219 384.2515869140625 402.4320068359375 384.2538757324219 C 402.4320068359375 384.2538757324219 402.4318237304688 384.2539672851562 402.4318237304688 384.2539672851562 C 402.4295959472656 384.2550964355469 402.4274597167969 384.2561950683594 402.4252624511719 384.25732421875 C 402.4250183105469 384.2574462890625 402.4248352050781 384.2575378417969 402.4245910644531 384.2576599121094 C 402.4225463867188 384.2586975097656 402.4205322265625 384.2597351074219 402.4184875488281 384.2607727050781 C 402.4182434082031 384.2608947753906 402.4179077148438 384.2610473632812 402.4176940917969 384.2611694335938 C 402.4085388183594 384.2658386230469 402.3994445800781 384.2704467773438 402.3902893066406 384.2750854492188 C 402.3902893066406 384.2750854492188 402.3899841308594 384.2752380371094 402.3899841308594 384.2752380371094 C 402.3877563476562 384.2763671875 402.3855285644531 384.2774963378906 402.38330078125 384.2786254882812 C 402.38330078125 384.2786254882812 402.3831176757812 384.2787170410156 402.3831176757812 384.2787170410156 C 402.143798828125 384.3995361328125 401.9005432128906 384.5110168457031 401.6539306640625 384.6113891601562 C 401.2704162597656 384.7676391601562 400.8327026367188 384.5831909179688 400.676513671875 384.1995239257812 C 400.5203552246094 383.8158874511719 400.7047424316406 383.3782958984375 401.0884094238281 383.2221069335938 C 401.5839233398438 383.0203857421875 402.0974426269531 382.7504272460938 402.6147155761719 382.4197387695312 C 402.7398681640625 382.3397521972656 402.8797302246094 382.3015441894531 403.0179748535156 382.3015747070312 Z M 396.2477722167969 382.9615173339844 C 396.373291015625 382.9615478515625 396.5006103515625 382.9931030273438 396.6175537109375 383.0595397949219 C 397.0776062011719 383.3208923339844 397.5543823242188 383.5024108886719 398.0346374511719 383.5990295410156 C 398.4407348632812 383.6807250976562 398.7036743164062 384.0761413574219 398.6220092773438 384.4822387695312 C 398.5403747558594 384.8877563476562 398.1459350585938 385.1504516601562 397.7404174804688 385.0698852539062 C 397.1217041015625 384.9455871582031 396.4981689453125 384.7170104980469 395.8756713867188 384.3632507324219 C 395.5162353515625 384.1583862304688 395.3905334472656 383.7010192871094 395.594970703125 383.3411865234375 C 395.7331237792969 383.0979919433594 395.9867248535156 382.9615173339844 396.2477722167969 382.9615173339844 Z M 392.1888732910156 379.1354370117188 C 392.4327697753906 379.1354675292969 392.6719970703125 379.2542724609375 392.8161010742188 379.4732666015625 C 393.1665954589844 380.0059509277344 393.5304260253906 380.4918823242188 393.8974914550781 380.9175720214844 C 394.1679992675781 381.2312622070312 394.1329956054688 381.704833984375 393.8193054199219 381.975341796875 C 393.505615234375 382.245849609375 393.0320434570312 382.2108459472656 392.7615356445312 381.8971557617188 C 392.56591796875 381.6702880859375 392.3741455078125 381.4320373535156 392.1863098144531 381.1831970214844 C 392.1863098144531 381.1831970214844 392.186279296875 381.1831665039062 392.186279296875 381.1831665039062 C 391.973388671875 380.9011535644531 391.7655944824219 380.6056213378906 391.5630187988281 380.2977600097656 C 391.3353576660156 379.9517211914062 391.4312744140625 379.4866638183594 391.7773132324219 379.2589721679688 C 391.9043579101562 379.1753845214844 392.0473937988281 379.1354370117188 392.1888732910156 379.1354370117188 Z M 389.6451110839844 373.9080810546875 C 389.9512939453125 373.9080810546875 390.2388000488281 374.0969848632812 390.3497924804688 374.4013061523438 C 390.572509765625 375.0120849609375 390.8103942871094 375.6077270507812 391.0567932128906 376.1717224121094 C 391.2226257324219 376.5513000488281 391.0493774414062 376.9934387207031 390.6697998046875 377.1592712402344 C 390.2902221679688 377.3251342773438 389.8481140136719 377.1518249511719 389.6822509765625 376.7722473144531 C 389.4404602050781 376.2188415527344 389.2112731933594 375.6481018066406 388.9952697753906 375.0641784667969 C 388.9952697753906 375.0641784667969 388.9950256347656 375.0635070800781 388.9950256347656 375.0635070800781 C 388.993408203125 375.0591735839844 388.9918212890625 375.0548706054688 388.990234375 375.050537109375 C 388.9899291992188 375.0497131347656 388.9896850585938 375.0491027832031 388.9893798828125 375.0482788085938 C 388.98779296875 375.0439758300781 388.9861755371094 375.0395812988281 388.9845886230469 375.0352783203125 C 388.9839782714844 375.0336303710938 388.98388671875 375.0333557128906 388.9832763671875 375.0317077636719 C 388.9821472167969 375.0286254882812 388.9810180664062 375.0256042480469 388.9798889160156 375.0224914550781 C 388.9792785644531 375.0208435058594 388.9786682128906 375.0191955566406 388.9780578613281 375.0175476074219 C 388.9767150878906 375.0138549804688 388.975341796875 375.0101928710938 388.9739990234375 375.0065307617188 C 388.9730834960938 375.0040588378906 388.9725646972656 375.0025939941406 388.9716491699219 375.0001525878906 C 388.9709167480469 374.9981689453125 388.9701843261719 374.9961547851562 388.9694519042969 374.9941711425781 C 388.9661254882812 374.9851379394531 388.9630432128906 374.9766845703125 388.959716796875 374.9676208496094 C 388.9596252441406 374.9673767089844 388.9595336914062 374.9671020507812 388.9594421386719 374.9668884277344 C 388.9530944824219 374.9495849609375 388.9464721679688 374.9314575195312 388.9401550292969 374.9141540527344 C 388.7990112304688 374.5252685546875 388.9994201660156 374.095458984375 389.3882141113281 373.9536743164062 C 389.4730224609375 373.9227294921875 389.5597839355469 373.9080810546875 389.6451110839844 373.9080810546875 Z M 388.0726928710938 368.2424621582031 C 388.4230346679688 368.2424621582031 388.7362670898438 368.4892272949219 388.8074035644531 368.8459167480469 C 388.9328308105469 369.4748840332031 389.074951171875 370.107666015625 389.2297668457031 370.7266540527344 C 389.3302612304688 371.1284790039062 389.0859680175781 371.5357055664062 388.6841430664062 371.6361999511719 C 388.2824096679688 371.7366027832031 387.8750915527344 371.4924621582031 387.7745666503906 371.090576171875 C 387.6127624511719 370.4435729980469 387.4664916992188 369.7916564941406 387.3363952636719 369.1393127441406 C 387.25537109375 368.7330932617188 387.5190124511719 368.3381042480469 387.9252014160156 368.2571105957031 C 387.9747314453125 368.2472229003906 388.0240783691406 368.2424621582031 388.0726928710938 368.2424621582031 Z M 387.3614501953125 362.4102783203125 C 387.7622680664062 362.4102783203125 388.0947265625 362.7272644042969 388.1103515625 363.1312866210938 C 388.13427734375 363.7496032714844 388.17822265625 364.3916015625 388.240966796875 365.0394592285156 C 388.2808837890625 365.4517517089844 387.9790344238281 365.8183288574219 387.5667724609375 365.8582763671875 C 387.1542663574219 365.8980407714844 386.7878723144531 365.5963745117188 386.7479553222656 365.1840515136719 C 386.6824340820312 364.5075073242188 386.6366882324219 363.8407897949219 386.6114807128906 363.1892700195312 C 386.5954895019531 362.7753601074219 386.9180297851562 362.4268493652344 387.3319396972656 362.4108581542969 C 387.3418273925781 362.4104614257812 387.3516235351562 362.4102783203125 387.3614501953125 362.4102783203125 Z M 387.8362426757812 356.6672973632812 C 387.8984069824219 356.6673278808594 387.9616394042969 356.6751098632812 388.0246276855469 356.69140625 C 388.4256286621094 356.795166015625 388.6665954589844 357.204345703125 388.5628662109375 357.6053466796875 C 388.4251098632812 358.1377563476562 388.3155212402344 358.7337036132812 388.2372131347656 359.3765563964844 C 388.1871337890625 359.7877197265625 387.8135681152344 360.0804748535156 387.4020080566406 360.0303344726562 C 386.9908142089844 359.980224609375 386.6981201171875 359.6062927246094 386.7482299804688 359.1951293945312 C 386.8336486816406 358.4940185546875 386.9539794921875 357.8352966308594 387.1106872558594 357.2296447753906 C 387.1981201171875 356.8916015625 387.5025634765625 356.6672973632812 387.8362426757812 356.6672973632812 Z" stroke="none" fill="#76777a"/>
    </g>
  </g>
</svg>
