<svg xmlns="http://www.w3.org/2000/svg" width="24" height="38" viewBox="0 0 24 38">
  <g id="no_color_face_type_05" transform="translate(-2 -7.999)">
    <g id="color" transform="translate(-384.873 -343.929)" fill="none" stroke-linecap="round" stroke-dasharray="2 4">
      <path d="M387.522,359.6c-3.16-11.483,5.7.17,16.2-6.8s8.5,29.95,0,36.657c-4.9,2.526-9.873-5.808-11.4-7.951C387.319,371.864,389.078,364.751,387.522,359.6Z" stroke="none"/>
      <path d="M 409.1659851074219 355.5606384277344 C 409.4887084960938 355.5606689453125 409.7868347167969 355.7706604003906 409.8841552734375 356.095703125 C 409.8843688964844 356.0964050292969 409.8844604492188 356.0966796875 409.8846435546875 356.0973815917969 C 409.8850402832031 356.0986938476562 409.8854064941406 356.0999450683594 409.8858032226562 356.1012573242188 C 409.8860168457031 356.1019592285156 409.8863220214844 356.1029663085938 409.8865356445312 356.1036376953125 C 409.8870239257812 356.1052856445312 409.8875122070312 356.10693359375 409.8880004882812 356.1085815429688 C 409.8883972167969 356.1099548339844 409.888427734375 356.1100463867188 409.8888549804688 356.1114196777344 C 409.88916015625 356.1125183105469 409.8894958496094 356.1135559082031 409.8898010253906 356.1146545410156 C 409.8902282714844 356.1160278320312 409.8907470703125 356.1177978515625 409.8911437988281 356.1191711425781 C 409.8913879394531 356.1199951171875 409.8916320800781 356.1207885742188 409.8918762207031 356.1216125488281 C 409.8922729492188 356.1229858398438 409.8932495117188 356.1262512207031 409.8936767578125 356.1276245117188 C 409.893798828125 356.1281127929688 409.8939819335938 356.128662109375 409.8941345214844 356.129150390625 C 409.89453125 356.1305236816406 409.8948364257812 356.1315612792969 409.895263671875 356.1329650878906 C 409.8952941894531 356.1331176757812 409.8953247070312 356.1332397460938 409.8953857421875 356.1333923339844 C 409.8962097167969 356.1361694335938 409.8967895507812 356.1382141113281 409.8976135253906 356.1409606933594 C 409.897705078125 356.1412353515625 409.8977661132812 356.1414794921875 409.8978576660156 356.1417236328125 C 410.0715637207031 356.7289123535156 410.2212829589844 357.3658447265625 410.34765625 358.0440673828125 C 410.4218139648438 358.4502563476562 410.1535339355469 358.8403015136719 409.7472534179688 358.9160461425781 C 409.3401794433594 358.9918518066406 408.9484252929688 358.7233581542969 408.8725280761719 358.316162109375 C 408.7515563964844 357.6671142578125 408.6084289550781 357.0647888183594 408.4471740722656 356.52587890625 C 408.3283996582031 356.1290588378906 408.5538024902344 355.7110900878906 408.9506530761719 355.5923461914062 C 409.0223693847656 355.5708618164062 409.0947570800781 355.5606384277344 409.1659851074219 355.5606384277344 Z M 410.0553283691406 361.3045043945312 C 410.449951171875 361.3045349121094 410.7806091308594 361.6128234863281 410.8034057617188 362.0116882324219 C 410.8401794433594 362.6626892089844 410.8622436523438 363.3309326171875 410.8699951171875 364.0142517089844 C 410.8731994628906 364.4271545410156 410.5418395996094 364.7652282714844 410.1285705566406 364.7699584960938 C 409.7152404785156 364.7739868164062 409.3747863769531 364.4427490234375 409.3700561523438 364.028564453125 C 409.3625183105469 363.3681030273438 409.3409118652344 362.7181701660156 409.3058471679688 362.0968017578125 C 409.282470703125 361.6832275390625 409.5988159179688 361.3290710449219 410.0123596191406 361.3057250976562 C 410.0267639160156 361.3049011230469 410.0410461425781 361.3045043945312 410.0553283691406 361.3045043945312 Z M 410.0135803222656 367.2123413085938 C 410.0293273925781 367.2123413085938 410.0452270507812 367.2128295898438 410.0611877441406 367.2138061523438 C 410.4736328125 367.2396545410156 410.7872619628906 367.5942077636719 410.7630310058594 368.0063781738281 C 410.7215576171875 368.6691284179688 410.6686401367188 369.3357543945312 410.6043395996094 370.0056457519531 C 410.5635070800781 370.4166564941406 410.1977233886719 370.7171936035156 409.7864074707031 370.6780090332031 C 409.3740844726562 370.6384582519531 409.0718994140625 370.2721252441406 409.1114501953125 369.8598022460938 C 409.1736755371094 369.2111206054688 409.2256164550781 368.5569458007812 409.2657775878906 367.9154663085938 C 409.2906494140625 367.5180053710938 409.6207580566406 367.2123107910156 410.0135803222656 367.2123413085938 Z M 409.3524780273438 373.0997009277344 C 409.3923645019531 373.0997009277344 409.4328002929688 373.1028747558594 409.4734497070312 373.1094665527344 C 409.8814086914062 373.1756591796875 410.1587524414062 373.5592346191406 410.0941467285156 373.9670715332031 C 409.9866638183594 374.6298828125 409.8681945800781 375.2899169921875 409.7395629882812 375.9406127929688 C 409.6581726074219 376.3456420898438 409.264404296875 376.6088256835938 408.8588562011719 376.5285949707031 C 408.4524841308594 376.4483032226562 408.1881713867188 376.0537719726562 408.2684936523438 375.6474304199219 C 408.3924865722656 375.0200805664062 408.5084228515625 374.3748779296875 408.6130676269531 373.729736328125 C 408.6727600097656 373.3615112304688 408.9911193847656 373.0997009277344 409.3524780273438 373.0997009277344 Z M 408.0935363769531 378.8759155273438 C 408.1607971191406 378.8759155273438 408.2292175292969 378.8850402832031 408.2971496582031 378.9041748046875 C 408.6953735351562 379.0162658691406 408.9275207519531 379.4295349121094 408.8163146972656 379.8277893066406 C 408.6315002441406 380.4843139648438 408.4352111816406 381.1235656738281 408.2274780273438 381.7424011230469 C 408.0949096679688 382.1338500976562 407.6703796386719 382.3442687988281 407.2784729003906 382.2128295898438 C 406.8857727050781 382.0810241699219 406.6742858886719 381.6558532714844 406.8060913085938 381.2631530761719 C 407.0028991699219 380.6767883300781 407.1932983398438 380.0576171875 407.3719787597656 379.4228820800781 C 407.4651184082031 379.0921020507812 407.7660217285156 378.8759155273438 408.0935363769531 378.8759155273438 Z M 406.0457763671875 384.3536376953125 C 406.1589050292969 384.3536376953125 406.2737426757812 384.3793334960938 406.3817138671875 384.4335632324219 C 406.7511291503906 384.6190185546875 406.9006652832031 385.0683288574219 406.7165832519531 385.4380798339844 C 406.4014587402344 386.0658569335938 406.069580078125 386.6492919921875 405.7228088378906 387.1785278320312 C 405.495361328125 387.5234680175781 405.0315246582031 387.6195678710938 404.6856994628906 387.3930358886719 C 404.3392028808594 387.1660461425781 404.2423095703125 386.701171875 404.4692993164062 386.3546752929688 C 404.7779235839844 385.883544921875 405.0826110839844 385.3494567871094 405.3749389648438 384.7672729492188 C 405.506591796875 384.5050659179688 405.7711181640625 384.3536376953125 406.0457763671875 384.3536376953125 Z M 402.648681640625 388.3234558105469 C 402.9819030761719 388.3234558105469 403.2861633300781 388.5472106933594 403.3739929199219 388.8847351074219 C 403.4783325195312 389.2855834960938 403.2379455566406 389.6951293945312 402.8370971679688 389.7994384765625 C 402.7738952636719 389.81591796875 402.710693359375 389.8307189941406 402.6475524902344 389.8439331054688 C 402.6470031738281 389.843994140625 402.6423034667969 389.8450317382812 402.6396484375 389.8455810546875 C 402.6396179199219 389.8455810546875 402.6395874023438 389.8455810546875 402.6395568847656 389.8455810546875 C 402.6303405761719 389.8475036621094 402.6211547851562 389.849365234375 402.6119689941406 389.8511962890625 C 402.6119689941406 389.8511962890625 402.6119384765625 389.8511962890625 402.6119384765625 389.8511962890625 C 402.6104125976562 389.8515014648438 402.6088562011719 389.8516845703125 402.6073913574219 389.8521118164062 C 402.6060791015625 389.8523254394531 402.6048278808594 389.8525695800781 402.6033935546875 389.8529052734375 C 402.6020812988281 389.8531494140625 402.6006774902344 389.8534240722656 402.5994262695312 389.8536682128906 C 402.59814453125 389.8539123535156 402.5968933105469 389.8541259765625 402.5954895019531 389.8544616699219 C 402.5941772460938 389.8546752929688 402.5927429199219 389.8549194335938 402.5914611816406 389.855224609375 C 402.5901184082031 389.8554992675781 402.5888061523438 389.8557434082031 402.5874633789062 389.8560180664062 C 402.5862121582031 389.8562316894531 402.5848083496094 389.8564758300781 402.5835571289062 389.8567504882812 C 402.5822143554688 389.8569946289062 402.5810241699219 389.8572082519531 402.5796813964844 389.8575134277344 C 402.5784301757812 389.8577270507812 402.5771179199219 389.8580017089844 402.5758361816406 389.8582458496094 C 402.5745544433594 389.8584899902344 402.5733032226562 389.8587341308594 402.572021484375 389.8589477539062 C 402.5707702636719 389.8592224121094 402.5694885253906 389.8594055175781 402.5682373046875 389.8596801757812 C 402.5669860839844 389.85986328125 402.5657043457031 389.860107421875 402.5643920898438 389.8603820800781 C 402.5609741210938 389.8611145019531 402.5574645996094 389.8617248535156 402.5540466308594 389.8623046875 C 402.5527648925781 389.862548828125 402.5516662597656 389.8627319335938 402.5505065917969 389.8629760742188 C 402.5493469238281 389.8631591796875 402.5480651855469 389.8634033203125 402.546875 389.8636474609375 C 402.5455627441406 389.86376953125 402.5443115234375 389.8641357421875 402.5430297851562 389.8643188476562 C 402.5418395996094 389.8645324707031 402.5405883789062 389.86474609375 402.5393676757812 389.864990234375 C 402.5379943847656 389.8652038574219 402.5367431640625 389.8654174804688 402.5354614257812 389.8656921386719 C 402.5342407226562 389.8659973144531 402.5328674316406 389.8661804199219 402.5316467285156 389.8663940429688 C 402.5302429199219 389.8665771484375 402.5290222167969 389.8668212890625 402.5277404785156 389.8670654296875 C 402.5265197753906 389.8673095703125 402.525146484375 389.8675231933594 402.5238952636719 389.8677673339844 C 402.5226135253906 389.867919921875 402.521240234375 389.8682250976562 402.5199890136719 389.8684387207031 C 402.5188903808594 389.8686828613281 402.5174865722656 389.868896484375 402.5162353515625 389.8691101074219 C 402.5161437988281 389.8691101074219 402.5160827636719 389.8691101074219 402.5159912109375 389.869140625 C 402.5037841796875 389.8712768554688 402.4915466308594 389.8733520507812 402.4793395996094 389.8753662109375 C 402.4768676757812 389.8759765625 402.4742736816406 389.8761901855469 402.4717712402344 389.8765869140625 C 402.4704284667969 389.8768615722656 402.4692993164062 389.8769836425781 402.4680786132812 389.877197265625 C 402.4662780761719 389.8770446777344 402.465576171875 389.8775634765625 402.4643859863281 389.8777770996094 C 402.4642944335938 389.8778076171875 402.4642333984375 389.8778076171875 402.4641723632812 389.8778076171875 C 402.3666381835938 389.8934936523438 402.2691955566406 389.9054260253906 402.171875 389.9137268066406 C 402.1700439453125 389.9130249023438 402.1695251464844 389.9139404296875 402.1683654785156 389.9140319824219 C 402.1669311523438 389.9138488769531 402.1658630371094 389.9142150878906 402.1646423339844 389.9143371582031 C 402.1630859375 389.914794921875 402.162109375 389.91455078125 402.1608581542969 389.9146728515625 C 402.1599426269531 389.9150695800781 402.1583862304688 389.9148864746094 402.1571655273438 389.9149780273438 C 402.1557922363281 389.9148864746094 402.1547241210938 389.9151306152344 402.1535034179688 389.9152526855469 C 402.1533813476562 389.915283203125 402.1532592773438 389.915283203125 402.1531066894531 389.915283203125 C 402.1420288085938 389.9161987304688 402.1330871582031 389.9156494140625 402.1200866699219 389.9178161621094 C 402.1188049316406 389.9179382324219 402.1174621582031 389.9181518554688 402.1163024902344 389.9180908203125 C 402.1150817871094 389.918212890625 402.1138610839844 389.9179077148438 402.1126403808594 389.9183654785156 C 402.1113891601562 389.9184265136719 402.1101989746094 389.9183654785156 402.1087646484375 389.9186401367188 C 402.1075744628906 389.918701171875 402.106201171875 389.9188842773438 402.10498046875 389.9188842773438 C 402.1036376953125 389.9189758300781 402.1024780273438 389.9190063476562 402.1011962890625 389.9191589355469 C 402.1000061035156 389.9192199707031 402.0987548828125 389.9192199707031 402.0975341796875 389.9194030761719 C 402.0962524414062 389.9194641113281 402.0949401855469 389.9193725585938 402.09375 389.9196472167969 C 402.0924987792969 389.9197387695312 402.0914001464844 389.9195556640625 402.0901794433594 389.9198913574219 C 402.0888977050781 389.919921875 402.0875854492188 389.9200134277344 402.0865478515625 389.9201049804688 C 402.0792236328125 389.9205627441406 402.0694885253906 389.9209594726562 402.0646667480469 389.9214477539062 C 402.0634155273438 389.9215393066406 402.06201171875 389.921630859375 402.0609130859375 389.9216613769531 C 402.0596313476562 389.9217224121094 402.0583801269531 389.9218444824219 402.0570983886719 389.921875 C 402.0558166503906 389.9219665527344 402.0545654296875 389.9220886230469 402.0533142089844 389.9220886230469 C 402.0520629882812 389.9221496582031 402.0507507324219 389.9221496582031 402.0495300292969 389.9223022460938 C 402.0482177734375 389.9223937988281 402.0470275878906 389.9224243164062 402.0457458496094 389.9225158691406 C 402.0444641113281 389.9225769042969 402.0433044433594 389.9227294921875 402.0419616699219 389.9226989746094 C 402.0408020019531 389.9228210449219 402.0393676757812 389.9228515625 402.0381469726562 389.9229125976562 C 402.036865234375 389.9229736328125 402.0355834960938 389.923095703125 402.0343017578125 389.923095703125 C 402.0330810546875 389.9231872558594 402.0318298339844 389.9232177734375 402.0305786132812 389.9233093261719 C 402.0293884277344 389.9233703613281 402.0281066894531 389.9234313964844 402.0268249511719 389.9234924316406 C 402.0256042480469 389.9235229492188 402.0243530273438 389.923583984375 402.0232238769531 389.9236450195312 C 402.0220031738281 389.9237060546875 402.0208740234375 389.9236450195312 402.0197448730469 389.923828125 C 402.0149841308594 389.9240417480469 402.0101013183594 389.9240112304688 402.0055236816406 389.9244689941406 C 402.0042724609375 389.9244995117188 402.0030822753906 389.9246520996094 402.0018310546875 389.9246215820312 C 402.0005493164062 389.9246826171875 401.9991455078125 389.9247131347656 401.9979553222656 389.9248046875 C 401.9966430664062 389.9248657226562 401.9954528808594 389.9248962402344 401.9942016601562 389.9249572753906 C 401.9929809570312 389.9249877929688 401.9916687011719 389.925048828125 401.9903259277344 389.9251098632812 C 401.9891052246094 389.9251403808594 401.9878845214844 389.9251708984375 401.9866027832031 389.9252624511719 C 401.9852905273438 389.92529296875 401.9840393066406 389.9253540039062 401.9827270507812 389.9253845214844 C 401.9814147949219 389.9254150390625 401.9801330566406 389.925537109375 401.9788818359375 389.925537109375 C 401.9776000976562 389.9255981445312 401.9762573242188 389.9256286621094 401.9749755859375 389.9256896972656 C 401.9737548828125 389.9257507324219 401.9725036621094 389.9258117675781 401.9712829589844 389.9258117675781 C 401.9699401855469 389.9258728027344 401.9686889648438 389.9258728027344 401.9674072265625 389.9259643554688 C 401.9661254882812 389.9259643554688 401.9648132324219 389.926025390625 401.9635925292969 389.9260864257812 C 401.9623718261719 389.9261474609375 401.9610900878906 389.9261474609375 401.9598693847656 389.9262084960938 C 401.9588317871094 389.9262390136719 401.9577331542969 389.9263000488281 401.9567260742188 389.9263000488281 C 401.9533081054688 389.9264526367188 401.9498596191406 389.9264831542969 401.9464111328125 389.9266052246094 C 401.9451904296875 389.9266662597656 401.9438171386719 389.9266662597656 401.9425964355469 389.9267272949219 C 401.9413452148438 389.9267272949219 401.9401550292969 389.9268188476562 401.9389038085938 389.9268188476562 C 401.9375915527344 389.9268493652344 401.9364318847656 389.9268493652344 401.9350891113281 389.9269409179688 C 401.9338073730469 389.9269714355469 401.9325256347656 389.927001953125 401.9312438964844 389.9270324707031 C 401.9299011230469 389.9270324707031 401.9286499023438 389.9270629882812 401.927490234375 389.9271240234375 C 401.92626953125 389.9271545410156 401.925048828125 389.9271850585938 401.9237365722656 389.9272155761719 C 401.9224548339844 389.92724609375 401.9211730957031 389.92724609375 401.9199523925781 389.9273071289062 C 401.9186706542969 389.9273071289062 401.9174194335938 389.9273376464844 401.9160766601562 389.9273681640625 C 401.9148254394531 389.9274291992188 401.9136352539062 389.9274597167969 401.9123840332031 389.9274597167969 C 401.9111328125 389.9275207519531 401.9099731445312 389.9275512695312 401.9086608886719 389.9275207519531 C 401.9074096679688 389.9275817871094 401.9061279296875 389.9276123046875 401.9048461914062 389.9276123046875 C 401.9035949707031 389.9276428222656 401.90234375 389.9277038574219 401.9009704589844 389.9276733398438 C 401.8997497558594 389.9277038574219 401.8986511230469 389.927734375 401.8973999023438 389.927734375 C 401.896240234375 389.9277954101562 401.89501953125 389.9277954101562 401.8937683105469 389.9277954101562 C 401.8917236328125 389.9278259277344 401.8896789550781 389.9278564453125 401.887451171875 389.9278869628906 C 401.8862609863281 389.9279174804688 401.8849487304688 389.927978515625 401.8837585449219 389.9279479980469 C 401.8825073242188 389.9279479980469 401.8811340332031 389.9279479980469 401.8798828125 389.9280090332031 C 401.8786315917969 389.927978515625 401.8773193359375 389.9280395507812 401.8761291503906 389.9280395507812 C 401.8748474121094 389.9280700683594 401.8735656738281 389.9280700683594 401.8722229003906 389.9281005859375 C 401.8709716796875 389.9281311035156 401.8697509765625 389.9281616210938 401.8684997558594 389.9281311035156 C 401.8672180175781 389.9281311035156 401.8659057617188 389.9281616210938 401.8646240234375 389.9281616210938 C 401.8633728027344 389.9281921386719 401.8621826171875 389.92822265625 401.8608703613281 389.9281921386719 C 401.8595581054688 389.9281616210938 401.8582153320312 389.92822265625 401.8569641113281 389.92822265625 C 401.8557739257812 389.9282531738281 401.8544921875 389.9282836914062 401.8532409667969 389.9282531738281 C 401.8519287109375 389.9282836914062 401.8506469726562 389.9282531738281 401.8492736816406 389.9282836914062 C 401.8481140136719 389.9282836914062 401.8467712402344 389.9282836914062 401.845458984375 389.9282836914062 C 401.8441162109375 389.9282836914062 401.8428039550781 389.9282836914062 401.8414001464844 389.9283142089844 C 401.8401184082031 389.9283447265625 401.8388366699219 389.9283142089844 401.8375549316406 389.9283142089844 C 401.8362121582031 389.9283142089844 401.8348388671875 389.9283447265625 401.8334655761719 389.9283142089844 C 401.8316955566406 389.9283447265625 401.8302307128906 389.9283142089844 401.8285522460938 389.9283142089844 C 401.8285522460938 389.9283142089844 401.8285522460938 389.9283142089844 401.8285522460938 389.9283142089844 C 401.8263549804688 389.9282836914062 401.8240966796875 389.92822265625 401.8218994140625 389.9283142089844 C 401.8197631835938 389.9283142089844 401.8179626464844 389.9282836914062 401.8154907226562 389.9283142089844 C 401.813720703125 389.9282836914062 401.8118896484375 389.9282836914062 401.8097534179688 389.9282836914062 C 401.8075561523438 389.9282836914062 401.8055419921875 389.9283142089844 401.8031311035156 389.9282531738281 C 401.8011779785156 389.92822265625 401.7992858886719 389.928466796875 401.7973022460938 389.9281921386719 C 401.7951049804688 389.9281921386719 401.7932739257812 389.9281921386719 401.791015625 389.9281616210938 C 401.7888793945312 389.9281311035156 401.7867736816406 389.9281921386719 401.7845764160156 389.9280700683594 C 401.7826232910156 389.9280700683594 401.7803039550781 389.927734375 401.7789306640625 389.9280090332031 C 401.7767028808594 389.927978515625 401.7744750976562 389.9279174804688 401.7723388671875 389.9279479980469 C 401.7702331542969 389.9279174804688 401.7681884765625 389.9278869628906 401.7660827636719 389.9278564453125 C 401.7643127441406 389.9278259277344 401.7621459960938 389.9278869628906 401.7602233886719 389.9277648925781 C 401.7580261230469 389.927734375 401.7558898925781 389.9276428222656 401.7536010742188 389.9276428222656 C 401.7516174316406 389.9276428222656 401.7500915527344 389.9275207519531 401.7475891113281 389.9275207519531 C 401.7456665039062 389.9274597167969 401.7433471679688 389.9273071289062 401.741455078125 389.9273986816406 C 401.739501953125 389.9273986816406 401.7367553710938 389.9274597167969 401.7349853515625 389.92724609375 C 401.7332458496094 389.9271850585938 401.7311401367188 389.9270629882812 401.7293701171875 389.9271240234375 C 401.7272033691406 389.9270935058594 401.7250061035156 389.9269409179688 401.7228393554688 389.9269714355469 C 401.7207641601562 389.9268798828125 401.7186889648438 389.9266357421875 401.7165832519531 389.9267883300781 C 401.71484375 389.9267578125 401.7127380371094 389.9266662597656 401.7107238769531 389.9266357421875 C 401.7085876464844 389.9265747070312 401.7063903808594 389.9265441894531 401.7042236328125 389.9264526367188 C 401.7003479003906 389.9263000488281 401.6958618164062 389.9259948730469 401.6920471191406 389.9260559082031 C 401.6897277832031 389.9259643554688 401.68798828125 389.9258728027344 401.6856994628906 389.9258422851562 C 401.6837463378906 389.9257507324219 401.6820983886719 389.9256286621094 401.6798706054688 389.9256286621094 C 401.6777648925781 389.925537109375 401.6754455566406 389.9256591796875 401.67333984375 389.9253845214844 C 401.6713256835938 389.9253234863281 401.6694030761719 389.9253540039062 401.6671752929688 389.9251708984375 C 401.6654357910156 389.9250793457031 401.6628723144531 389.9249572753906 401.6612243652344 389.9249267578125 C 401.6590576171875 389.9248046875 401.6567077636719 389.924560546875 401.6546325683594 389.9246520996094 C 401.6506958007812 389.9244995117188 401.6465454101562 389.9245300292969 401.6424865722656 389.9241027832031 C 401.640380859375 389.9240112304688 401.6383056640625 389.9237670898438 401.6360778808594 389.923828125 C 401.6343383789062 389.9237060546875 401.6321411132812 389.923583984375 401.6304016113281 389.9235534667969 C 401.6282043457031 389.9234619140625 401.6259460449219 389.9233093261719 401.6238098144531 389.9232482910156 C 401.621826171875 389.9231567382812 401.6192321777344 389.9227600097656 401.6178588867188 389.9229431152344 C 401.6157836914062 389.9228210449219 401.6138305664062 389.9227905273438 401.6117248535156 389.922607421875 C 401.6095886230469 389.9224853515625 401.6074523925781 389.9224853515625 401.605224609375 389.9222717285156 C 401.6013488769531 389.9220886230469 401.5968627929688 389.9218444824219 401.5931091308594 389.9216003417969 C 401.5908508300781 389.9214477539062 401.5893249511719 389.9217529296875 401.5869445800781 389.9212341308594 C 401.5847778320312 389.9210815429688 401.5831604003906 389.9208374023438 401.5809936523438 389.9208984375 C 401.5787353515625 389.9207458496094 401.5767822265625 389.9209594726562 401.5745849609375 389.9205017089844 C 401.5702819824219 389.9202575683594 401.5668640136719 389.9195251464844 401.5623779296875 389.9197387695312 C 401.56005859375 389.9196166992188 401.5583190917969 389.9197387695312 401.5559997558594 389.9193115234375 C 401.5521545410156 389.9190673828125 401.5475463867188 389.9189758300781 401.5437316894531 389.9184875488281 C 401.5415649414062 389.9183654785156 401.5395812988281 389.9184265136719 401.5376892089844 389.9180908203125 C 401.5354919433594 389.9179382324219 401.5339660644531 389.9176635742188 401.5315856933594 389.9176635742188 C 401.5293273925781 389.9175109863281 401.5276794433594 389.9175720214844 401.5251770019531 389.9171752929688 C 401.5209350585938 389.9169006347656 401.5180969238281 389.9165649414062 401.5130004882812 389.9162902832031 C 401.5108337402344 389.9161376953125 401.5091247558594 389.916015625 401.5067443847656 389.9158020019531 C 401.50244140625 389.9154663085938 401.4985961914062 389.9151916503906 401.4944152832031 389.9148254394531 C 401.4923400878906 389.9146728515625 401.4905700683594 389.9145202636719 401.488525390625 389.9143371582031 C 401.488525390625 389.9143371582031 401.4884643554688 389.9143371582031 401.4884643554688 389.9143371582031 C 401.486328125 389.9141845703125 401.4832153320312 389.9140319824219 401.4822692871094 389.9138488769531 C 401.4800720214844 389.9136352539062 401.4783020019531 389.9140930175781 401.4759521484375 389.9132995605469 C 401.4718017578125 389.9129638671875 401.4703674316406 389.9121704101562 401.4637451171875 389.9122619628906 C 401.4616088867188 389.9120483398438 401.4595336914062 389.911865234375 401.45751953125 389.9117126464844 C 401.4532470703125 389.9113464355469 401.4495849609375 389.9107971191406 401.445068359375 389.9105834960938 C 401.4408874511719 389.9102172851562 401.4368286132812 389.9100646972656 401.4329223632812 389.9094543457031 C 401.4307861328125 389.9092407226562 401.4285583496094 389.9098510742188 401.4266662597656 389.9088439941406 C 401.4224853515625 389.9084167480469 401.4189453125 389.9063720703125 401.4144592285156 389.9076538085938 C 401.4082946777344 389.9070434570312 401.4022216796875 389.9064331054688 401.3960571289062 389.9057922363281 C 401.3960266113281 389.9057922363281 401.3959655761719 389.9057922363281 401.3959655761719 389.9057922363281 C 401.2144165039062 389.8869934082031 401.0339050292969 389.8568115234375 400.8539123535156 389.8159484863281 C 400.451416015625 389.7233581542969 400.1993713378906 389.3226013183594 400.2906188964844 388.9194641113281 C 400.3821105957031 388.5154724121094 400.783935546875 388.2622680664062 401.1877136230469 388.3535461425781 C 401.6336364746094 388.4544982910156 402.0556640625 388.452880859375 402.4592895507812 388.3478088378906 C 402.5226135253906 388.3313293457031 402.5861511230469 388.3234558105469 402.648681640625 388.3234558105469 Z M 396.5652465820312 385.1841735839844 C 396.7705383300781 385.1841735839844 396.9750366210938 385.2679748535156 397.1231079101562 385.4326171875 C 397.5624084472656 385.9210205078125 397.9973449707031 386.3569030761719 398.4158325195312 386.7281494140625 C 398.7257080078125 387.0030517578125 398.7540588378906 387.47705078125 398.4791564941406 387.7869262695312 C 398.2042846679688 388.0967712402344 397.730224609375 388.1251220703125 397.4203796386719 387.8502502441406 C 397.42041015625 387.8502502441406 397.4203186035156 387.8501892089844 397.4203186035156 387.8501892089844 C 397.4184265136719 387.8485107421875 397.41650390625 387.8468017578125 397.4146118164062 387.8451232910156 C 397.4146118164062 387.8451232910156 397.4146118164062 387.8451232910156 397.4146118164062 387.8451232910156 C 397.2972412109375 387.7408752441406 397.1810607910156 387.6342468261719 397.0660400390625 387.5254821777344 C 397.0658264160156 387.5252685546875 397.0661315917969 387.5255737304688 397.06591796875 387.5253601074219 C 397.0640563964844 387.5235900878906 397.0622253417969 387.5218811035156 397.0603942871094 387.5201110839844 C 397.0603942871094 387.5201110839844 397.0602722167969 387.52001953125 397.0602722167969 387.52001953125 C 397.0585021972656 387.5183410644531 397.0567321777344 387.5166625976562 397.0549621582031 387.5149841308594 C 397.0547485351562 387.5147705078125 397.0545043945312 387.5145568847656 397.0542907714844 387.5143432617188 C 397.0526123046875 387.5127563476562 397.0509643554688 387.5111999511719 397.0492858886719 387.5096130371094 C 397.0492858886719 387.5096130371094 397.0487976074219 387.5091247558594 397.0487976074219 387.5091247558594 C 397.047119140625 387.5075378417969 397.04541015625 387.5059509277344 397.0437622070312 387.5043640136719 C 397.0435180664062 387.504150390625 397.0433044433594 387.5039367675781 397.0430908203125 387.5037231445312 C 397.0414123535156 387.5021362304688 397.0396423339844 387.5004577636719 397.0379638671875 387.4988708496094 C 397.0379638671875 387.4988708496094 397.03759765625 387.4985046386719 397.03759765625 387.4985046386719 C 397.035888671875 387.4968872070312 397.0341796875 387.4952697753906 397.032470703125 387.49365234375 C 397.0322570800781 387.4934387207031 397.0321044921875 387.4932861328125 397.0318908691406 387.4930725097656 C 397.0169067382812 387.4788208007812 397.0020141601562 387.464599609375 396.9870910644531 387.4503173828125 C 396.9868774414062 387.4501037597656 396.9868774414062 387.4501037597656 396.9866638183594 387.4498901367188 C 396.9849243164062 387.4482421875 396.9831848144531 387.446533203125 396.9814453125 387.4448852539062 C 396.9814453125 387.4448852539062 396.9811401367188 387.4446105957031 396.9811401367188 387.4446105957031 C 396.9794311523438 387.4429321289062 396.9776611328125 387.4412536621094 396.9759216308594 387.4396057128906 C 396.9757080078125 387.4393920898438 396.9756164550781 387.4392700195312 396.9753723144531 387.4390563964844 C 396.9736938476562 387.4374389648438 396.9719848632812 387.4358215332031 396.9702758789062 387.4341735839844 C 396.9702758789062 387.4341735839844 396.9697875976562 387.4336853027344 396.9697875976562 387.4336853027344 C 396.9682312011719 387.4321899414062 396.9666442871094 387.4306640625 396.965087890625 387.4291687011719 C 396.9646606445312 387.4287414550781 396.9641418457031 387.4282531738281 396.9637145996094 387.4278564453125 C 396.9623107910156 387.4264831542969 396.9609375 387.4251708984375 396.9595336914062 387.423828125 C 396.9590759277344 387.4234008789062 396.9586486816406 387.4229736328125 396.9582214355469 387.4225463867188 C 396.9568176269531 387.4212036132812 396.9553527832031 387.4197998046875 396.9539489746094 387.41845703125 C 396.9535217285156 387.4180297851562 396.9531555175781 387.4176940917969 396.9527282714844 387.4172668457031 C 396.9512634277344 387.4158630371094 396.9497985839844 387.4144592285156 396.9483337402344 387.4130554199219 C 396.9479064941406 387.4126281738281 396.9476013183594 387.4123229980469 396.9471435546875 387.4118957519531 C 396.94580078125 387.4105834960938 396.9443969726562 387.4092407226562 396.9430541992188 387.407958984375 C 396.942626953125 387.4075317382812 396.9419555664062 387.4068603515625 396.9414978027344 387.4064331054688 C 396.9401245117188 387.4051208496094 396.938720703125 387.4037475585938 396.9373474121094 387.4024353027344 C 396.9371337890625 387.4022216796875 396.936279296875 387.4013977050781 396.9360656738281 387.4011840820312 C 396.9345092773438 387.3996887207031 396.9330139160156 387.3982238769531 396.9314575195312 387.396728515625 C 396.9310302734375 387.3963012695312 396.9310913085938 387.3963623046875 396.9306335449219 387.3959350585938 C 396.9290466308594 387.3943786621094 396.9273986816406 387.3927917480469 396.92578125 387.3912353515625 C 396.9255676269531 387.3910217285156 396.92529296875 387.3907470703125 396.9250793457031 387.3905334472656 C 396.9235229492188 387.3890380859375 396.9219970703125 387.3875732421875 396.9204711914062 387.3860778808594 C 396.9200134277344 387.3856506347656 396.919921875 387.3855590820312 396.9194946289062 387.3851318359375 C 396.9139709472656 387.3797912597656 396.908447265625 387.3744201660156 396.9029541015625 387.3690795898438 C 396.9027099609375 387.3688659667969 396.9020080566406 387.3681640625 396.9017944335938 387.3679504394531 C 396.9004211425781 387.3666076660156 396.8989562988281 387.3652038574219 396.8975830078125 387.3638610839844 C 396.8969116210938 387.3632202148438 396.8963623046875 387.3626708984375 396.8957214355469 387.3620300292969 C 396.8944702148438 387.36083984375 396.8932189941406 387.359619140625 396.8919982910156 387.3584289550781 C 396.891357421875 387.3577880859375 396.89111328125 387.3575744628906 396.8904724121094 387.35693359375 C 396.8891906738281 387.3556823730469 396.8879089355469 387.3544311523438 396.8866271972656 387.3531799316406 C 396.8859558105469 387.3525390625 396.8851623535156 387.3517761230469 396.884521484375 387.3511352539062 C 396.8834533691406 387.35009765625 396.8823852539062 387.3490600585938 396.8813171386719 387.3480224609375 C 396.8797912597656 387.3464965820312 396.8776245117188 387.3443908691406 396.8760986328125 387.3429260253906 C 396.8744812011719 387.34130859375 396.8723449707031 387.3392333984375 396.8706970214844 387.337646484375 C 396.8688659667969 387.3358459472656 396.866943359375 387.3339233398438 396.8651123046875 387.3321838378906 C 396.8633728027344 387.3304443359375 396.8614196777344 387.3285522460938 396.8596801757812 387.3268737792969 C 396.858154296875 387.3254089355469 396.8559875488281 387.3232116699219 396.8543701171875 387.3216552734375 C 396.8527221679688 387.3200073242188 396.8506469726562 387.3180236816406 396.8490600585938 387.3164367675781 C 396.8472595214844 387.314697265625 396.8452453613281 387.3126831054688 396.8434753417969 387.3109741210938 C 396.8419189453125 387.3094482421875 396.8401184082031 387.3076477050781 396.8385620117188 387.30615234375 C 396.8374633789062 387.3050537109375 396.8363647460938 387.3039855957031 396.8352661132812 387.3029174804688 C 396.8348083496094 387.302490234375 396.8343505859375 387.302001953125 396.8339233398438 387.3015747070312 C 396.8277893066406 387.2955627441406 396.8213500976562 387.2892150878906 396.8152160644531 387.2831726074219 C 396.8148193359375 387.2827758789062 396.8143920898438 387.2823486328125 396.81396484375 387.2819519042969 C 396.8126525878906 387.2806396484375 396.8116455078125 387.2796325683594 396.8103332519531 387.2783508300781 C 396.8097534179688 387.2777709960938 396.8092041015625 387.2772521972656 396.8086242675781 387.2766723632812 C 396.8075256347656 387.2756042480469 396.806396484375 387.2744750976562 396.8052978515625 387.2733764648438 C 396.8045959472656 387.2726745605469 396.8038635253906 387.27197265625 396.8031311035156 387.271240234375 C 396.8020629882812 387.2701721191406 396.8009033203125 387.26904296875 396.7998046875 387.2679748535156 C 396.7991638183594 387.267333984375 396.7985534667969 387.2667236328125 396.7979125976562 387.2660827636719 C 396.7968444824219 387.2650146484375 396.7952880859375 387.2634887695312 396.7942199707031 387.2624206542969 C 396.7937316894531 387.2619323730469 396.7931823730469 387.2613830566406 396.7926940917969 387.2608947753906 C 396.7913818359375 387.2596130371094 396.789794921875 387.258056640625 396.7884826660156 387.2567443847656 C 396.7882080078125 387.2564697265625 396.7879028320312 387.2561645507812 396.7876281738281 387.2558898925781 C 396.7863159179688 387.2546081542969 396.7846069335938 387.2528991699219 396.7832946777344 387.2515869140625 C 396.7829284667969 387.251220703125 396.7825622558594 387.2508850097656 396.7821960449219 387.2505187988281 C 396.7808837890625 387.2492065429688 396.779296875 387.2476501464844 396.7779846191406 387.246337890625 C 396.7776489257812 387.2460021972656 396.7772827148438 387.2456665039062 396.7769470214844 387.2453002929688 C 396.775634765625 387.2440185546875 396.7739868164062 387.2423706054688 396.7726745605469 387.2410583496094 C 396.7723388671875 387.2407531738281 396.7720031738281 387.2404174804688 396.7716979980469 387.2400817871094 C 396.7701721191406 387.2385864257812 396.768798828125 387.2372131347656 396.7672729492188 387.2357177734375 C 396.76708984375 387.2355041503906 396.7668151855469 387.2352600097656 396.7666320800781 387.2350463867188 C 396.7651062011719 387.2335510253906 396.7635192871094 387.2319641113281 396.7619934082031 387.23046875 C 396.7618103027344 387.2302551269531 396.7615966796875 387.2300415039062 396.7613830566406 387.2298583984375 C 396.5948181152344 387.0641174316406 396.4306640625 386.8941650390625 396.2698974609375 386.7218627929688 C 396.2696533203125 386.7215881347656 396.2693786621094 386.7212829589844 396.2691040039062 386.7210083007812 C 396.2674255371094 386.7192077636719 396.2662048339844 386.7178955078125 396.2645263671875 386.7160949707031 C 396.2644348144531 386.7160034179688 396.2643737792969 386.7159118652344 396.2642822265625 386.7158203125 C 396.2626037597656 386.7140197753906 396.2611999511719 386.7125244140625 396.259521484375 386.7107238769531 C 396.2594299316406 386.7106018066406 396.25927734375 386.7104187011719 396.2591552734375 386.7103271484375 C 396.2574768066406 386.7085266113281 396.2561950683594 386.7071533203125 396.2545166015625 386.7053527832031 C 396.25439453125 386.7052001953125 396.2541809082031 386.7049865722656 396.2540588378906 386.704833984375 C 396.2525939941406 386.7032470703125 396.2511596679688 386.7017211914062 396.2496948242188 386.7001647949219 C 396.2493286132812 386.6997680664062 396.2489013671875 386.6993103027344 396.24853515625 386.6989135742188 C 396.2470703125 386.6973571777344 396.2459716796875 386.6961364746094 396.2445068359375 386.6945495605469 C 396.2442626953125 386.6943359375 396.2440185546875 386.6940612792969 396.2438049316406 386.6938171386719 C 396.2423400878906 386.6922607421875 396.2408142089844 386.6905822753906 396.2393493652344 386.6890258789062 C 396.2391967773438 386.6888732910156 396.2390441894531 386.6886901855469 396.2389221191406 386.6885681152344 C 396.2374572753906 386.6869812011719 396.2357177734375 386.6851196289062 396.2342529296875 386.6835327148438 C 396.2341918945312 386.6834716796875 396.2341003417969 386.6833801269531 396.2340393066406 386.6833190917969 C 396.2323608398438 386.6815185546875 396.23095703125 386.6799926757812 396.2292785644531 386.6781921386719 C 396.2290649414062 386.6779479980469 396.2288513183594 386.6777038574219 396.2286376953125 386.677490234375 C 396.2204895019531 386.6686706542969 396.2123413085938 386.6598815917969 396.2041931152344 386.6510925292969 C 396.2041320800781 386.6510314941406 396.2041625976562 386.6510314941406 396.2041015625 386.6509704589844 C 396.20263671875 386.6494140625 396.2013549804688 386.6480102539062 396.1998901367188 386.6464233398438 C 396.1995544433594 386.6460571289062 396.1992492675781 386.6457214355469 396.1989135742188 386.6453552246094 C 396.1976623535156 386.6440124511719 396.1965637207031 386.642822265625 396.1953125 386.6414794921875 C 396.1939086914062 386.6399230957031 396.1921081542969 386.6380004882812 396.1907348632812 386.6365051269531 C 396.1899108886719 386.6356201171875 396.1891174316406 386.634765625 396.1883239746094 386.6338806152344 C 396.1872863769531 386.6327514648438 396.1864624023438 386.6318969726562 396.1854248046875 386.6307678222656 C 396.1847229003906 386.6299743652344 396.1839904785156 386.6292114257812 396.1832885742188 386.62841796875 C 396.1822204589844 386.6272888183594 396.1814270019531 386.6264038085938 396.1803894042969 386.6252746582031 C 396.1788330078125 386.6235656738281 396.1768493652344 386.6214294433594 396.1752014160156 386.6196594238281 C 396.1735534667969 386.6178283691406 396.1721496582031 386.6162719726562 396.17041015625 386.6144409179688 C 396.1693725585938 386.6133117675781 396.1683044433594 386.6121520996094 396.1672668457031 386.6110229492188 C 396.1666564941406 386.6103515625 396.1659240722656 386.6095886230469 396.1653137207031 386.60888671875 C 396.1641235351562 386.6076049804688 396.1629638671875 386.6063537597656 396.1617736816406 386.6050415039062 C 396.161376953125 386.6045837402344 396.1607360839844 386.6039123535156 396.1603088378906 386.6034545898438 C 396.1589965820312 386.6020202636719 396.1576538085938 386.6005859375 396.1563415527344 386.59912109375 C 396.1559143066406 386.5986633300781 396.1555786132812 386.5982971191406 396.1551513671875 386.5978393554688 C 396.1057434082031 386.5440063476562 396.0566711425781 386.4899597167969 396.0078735351562 386.4357299804688 C 395.7308654785156 386.1277465820312 395.7559509277344 385.653564453125 396.0639343261719 385.3765563964844 C 396.207275390625 385.2476196289062 396.3865356445312 385.1841430664062 396.5652465820312 385.1841735839844 Z M 393.0337829589844 380.4539489746094 C 393.2706909179688 380.4539489746094 393.5038452148438 380.5659484863281 393.6496276855469 380.7750244140625 C 393.7778015136719 380.9588317871094 393.9192810058594 381.1673278808594 394.0831298828125 381.4087829589844 C 394.2888488769531 381.7119445800781 394.5220031738281 382.0555419921875 394.7795104980469 382.4243774414062 C 395.0166320800781 382.7640075683594 394.9335021972656 383.2315673828125 394.5938720703125 383.4686889648438 C 394.2542419433594 383.705810546875 393.7866821289062 383.6226806640625 393.5495910644531 383.2830505371094 C 393.5333557128906 383.2597961425781 393.5172729492188 383.2366943359375 393.5012512207031 383.2136840820312 C 393.5009460449219 383.2132568359375 393.50048828125 383.2125854492188 393.5001831054688 383.212158203125 C 393.4963684082031 383.2066650390625 393.4925842285156 383.2012023925781 393.48876953125 383.1957397460938 C 393.4877319335938 383.1942443847656 393.4867248535156 383.19287109375 393.4857177734375 383.1913757324219 C 393.4846801757812 383.1897888183594 393.4836120605469 383.1882629394531 393.4825134277344 383.1867370605469 C 393.479248046875 383.1820373535156 393.4757995605469 383.1770935058594 393.4725646972656 383.1724243164062 C 393.4725341796875 383.1723937988281 393.4725646972656 383.1724243164062 393.4725341796875 383.1723937988281 C 393.4715576171875 383.1709899902344 393.4707641601562 383.1698608398438 393.4697875976562 383.1684265136719 C 393.46923828125 383.1676330566406 393.4686889648438 383.1668395996094 393.4681396484375 383.1660461425781 C 393.4595336914062 383.1536560058594 393.4512329101562 383.1416931152344 393.4426879882812 383.1293640136719 C 393.4423217773438 383.1288452148438 393.4419860839844 383.1283569335938 393.4416198730469 383.1278381347656 C 393.4396667480469 383.1250305175781 393.43798828125 383.1226196289062 393.43603515625 383.1197814941406 C 393.4357604980469 383.119384765625 393.4354553222656 383.1189575195312 393.4351806640625 383.1185607910156 C 393.0392456054688 382.5473327636719 392.7073974609375 382.0482788085938 392.451904296875 381.6799926757812 C 392.4513854980469 381.6792297363281 392.45068359375 381.67822265625 392.4501647949219 381.6774597167969 C 392.4495544433594 381.6766052246094 392.4490966796875 381.6759033203125 392.4483032226562 381.6747741699219 C 392.4384765625 381.66064453125 392.4288024902344 381.646728515625 392.4192199707031 381.6329956054688 C 392.1823120117188 381.293212890625 392.2656860351562 380.8257141113281 392.60546875 380.5888061523438 C 392.7361450195312 380.4976806640625 392.8856811523438 380.4539184570312 393.0337829589844 380.4539489746094 Z M 390.8009948730469 375.1412963867188 C 391.119384765625 375.1412963867188 391.414794921875 375.3456420898438 391.5158996582031 375.6653747558594 C 391.7061767578125 376.26708984375 391.9184875488281 376.8727416992188 392.1468505859375 377.4654846191406 C 392.2958068847656 377.8519897460938 392.1031799316406 378.2860412597656 391.7166748046875 378.4349670410156 C 391.330078125 378.5838928222656 390.8960876464844 378.3913269042969 390.7471618652344 378.0047912597656 C 390.71826171875 377.9297485351562 390.689697265625 377.8548278808594 390.6615600585938 377.7801208496094 C 390.6609191894531 377.7784729003906 390.6602783203125 377.7767944335938 390.65966796875 377.775146484375 C 390.6586303710938 377.7723693847656 390.6575927734375 377.7695922851562 390.6565551757812 377.766845703125 C 390.6557312011719 377.7646484375 390.6549682617188 377.7626342773438 390.6541442871094 377.7604370117188 C 390.6532897949219 377.7581787109375 390.6524047851562 377.755859375 390.6515808105469 377.7536010742188 C 390.6507568359375 377.7514343261719 390.6499633789062 377.7493591308594 390.6491394042969 377.7471618652344 C 390.6484069824219 377.7452392578125 390.647705078125 377.7433166503906 390.64697265625 377.7413635253906 C 390.6459350585938 377.7386169433594 390.6448059082031 377.7356262207031 390.6437683105469 377.7328796386719 C 390.643310546875 377.7315979003906 390.6427917480469 377.7302551269531 390.6423034667969 377.7289428710938 C 390.6410827636719 377.7256774902344 390.6397399902344 377.7221374511719 390.6385192871094 377.7188720703125 C 390.6381225585938 377.7178039550781 390.6377258300781 377.7167358398438 390.6373291015625 377.7156677246094 C 390.6358947753906 377.7118530273438 390.6346435546875 377.70849609375 390.6332092285156 377.7046813964844 C 390.6331176757812 377.7044067382812 390.6329956054688 377.7041015625 390.6329040527344 377.7038269042969 C 390.6314697265625 377.7000122070312 390.6300964355469 377.6963195800781 390.628662109375 377.6925048828125 C 390.6284484863281 377.6919250488281 390.6282653808594 377.69140625 390.6280517578125 377.6908264160156 C 390.6264038085938 377.6864624023438 390.6251831054688 377.6831970214844 390.6235656738281 377.6788330078125 C 390.6234130859375 377.678466796875 390.623291015625 377.6781005859375 390.6231689453125 377.6777648925781 C 390.6215209960938 377.6733703613281 390.6201477050781 377.6697082519531 390.6185302734375 377.6653137207031 C 390.6184387207031 377.6651306152344 390.618408203125 377.6649780273438 390.6183166503906 377.664794921875 C 390.4227600097656 377.1400451660156 390.2459411621094 376.6244506835938 390.0853271484375 376.1163940429688 C 389.9612731933594 375.7218322753906 390.1801452636719 375.3011779785156 390.5746765136719 375.1763916015625 C 390.64990234375 375.1526184082031 390.72607421875 375.1412963867188 390.8009948730469 375.1412963867188 Z M 389.5413513183594 369.4141540527344 C 389.9109191894531 369.4141540527344 390.2327575683594 369.6873779296875 390.2836608886719 370.0637512207031 C 390.3729553222656 370.7242431640625 390.4728088378906 371.344970703125 390.5889587402344 371.9614562988281 C 390.6656188964844 372.3685302734375 390.3977966308594 372.7606811523438 389.9907531738281 372.8373413085938 C 389.5837097167969 372.9140625 389.1915283203125 372.646240234375 389.1148681640625 372.2391662597656 C 389.0751647949219 372.0283508300781 389.0377197265625 371.8192138671875 389.0023803710938 371.6116638183594 C 389.0023803710938 371.6116638183594 389.0022583007812 371.6109619140625 389.0022583007812 371.6109619140625 C 389.0013732910156 371.6058959960938 389.0005187988281 371.6008911132812 388.9996643066406 371.5958251953125 C 388.9996643066406 371.5958251953125 388.9996643066406 371.5958251953125 388.9996643066406 371.5958251953125 C 388.9979553222656 371.5856323242188 388.9962158203125 371.5754699707031 388.9945068359375 371.5653076171875 C 388.9944152832031 371.5648498535156 388.9943542480469 371.564453125 388.9942626953125 371.56396484375 C 388.9934692382812 371.5592346191406 388.99267578125 371.5545043945312 388.9918823242188 371.5497436523438 C 388.9917907714844 371.5492858886719 388.9918212890625 371.5493774414062 388.9917297363281 371.5488891601562 C 388.9908752441406 371.5438537597656 388.9900207519531 371.5387573242188 388.9891662597656 371.53369140625 C 388.9890747070312 371.5332336425781 388.9891967773438 371.5337829589844 388.9891052246094 371.5333251953125 C 388.9883422851562 371.5287170410156 388.987548828125 371.5240783691406 388.9867858886719 371.5194702148438 C 388.9866333007812 371.5185241699219 388.9864807128906 371.5177612304688 388.986328125 371.5168151855469 C 388.9855651855469 371.5122375488281 388.9848022460938 371.5077209472656 388.9840393066406 371.503173828125 C 388.9840393066406 371.503173828125 388.9839172363281 371.5023498535156 388.9839172363281 371.5023498535156 C 388.9831237792969 371.4976196289062 388.9823303222656 371.4928894042969 388.9815368652344 371.4881591796875 C 388.9812927246094 371.4867248535156 388.9811706542969 371.4859313964844 388.9809265136719 371.4844970703125 C 388.9803466796875 371.48095703125 388.979736328125 371.4773864746094 388.9791564941406 371.4738159179688 C 388.9789123535156 371.472412109375 388.9787292480469 371.4712829589844 388.9784851074219 371.4698486328125 C 388.977783203125 371.4656066894531 388.9770812988281 371.4613952636719 388.9763793945312 371.4571533203125 C 388.9762878417969 371.4566650390625 388.9762268066406 371.4562377929688 388.9761352539062 371.4557495117188 C 388.9754028320312 371.4512329101562 388.9746398925781 371.4467163085938 388.9739074707031 371.4421997070312 C 388.9735717773438 371.4403076171875 388.9734497070312 371.4395141601562 388.97314453125 371.4376220703125 C 388.9725952148438 371.4343872070312 388.9720458984375 371.4310607910156 388.9715270996094 371.4278259277344 C 388.9712829589844 371.4263916015625 388.9710388183594 371.4248962402344 388.9707946777344 371.4234924316406 C 388.9700622558594 371.4189453125 388.9693298339844 371.4144897460938 388.9685668945312 371.4099731445312 C 388.9684143066406 371.4090270996094 388.96826171875 371.4081420898438 388.9681091308594 371.4071960449219 C 388.9674987792969 371.4035339355469 388.9669189453125 371.3998718261719 388.96630859375 371.3962097167969 C 388.966064453125 371.3948059082031 388.9656982421875 371.3924560546875 388.9654541015625 371.3910217285156 C 388.9649658203125 371.3880310058594 388.9644775390625 371.385009765625 388.9639892578125 371.3820495605469 C 388.9637451171875 371.380615234375 388.9634094238281 371.3784790039062 388.9631652832031 371.3770446777344 C 388.9624633789062 371.3728332519531 388.9617919921875 371.36865234375 388.9610900878906 371.3644104003906 C 388.9607849121094 371.3625183105469 388.9604797363281 371.360595703125 388.9601745605469 371.3587036132812 C 388.959716796875 371.3560180664062 388.9592895507812 371.3533325195312 388.9588317871094 371.3506164550781 C 388.9585266113281 371.3487243652344 388.9581298828125 371.3463439941406 388.9578247070312 371.3444519042969 C 388.9573974609375 371.341796875 388.9569702148438 371.3391418457031 388.95654296875 371.3364868164062 C 388.9562377929688 371.3345947265625 388.9559326171875 371.3327026367188 388.9556274414062 371.330810546875 C 388.9549560546875 371.3267822265625 388.9543151855469 371.32275390625 388.9536437988281 371.3187255859375 C 388.9532775878906 371.3163452148438 388.952880859375 371.3140563964844 388.9525146484375 371.3116760253906 C 388.9521789550781 371.3095703125 388.9518127441406 371.3074645996094 388.9514770507812 371.3053588867188 C 388.9511108398438 371.3030090332031 388.9506530761719 371.3002624511719 388.9502868652344 371.2978820800781 C 388.9499206542969 371.2957458496094 388.9495849609375 371.293701171875 388.9492492675781 371.2915649414062 C 388.9486389160156 371.2877807617188 388.9479064941406 371.2832946777344 388.9472961425781 371.2795104980469 C 388.9469604492188 371.2774047851562 388.9466247558594 371.2752380371094 388.9462890625 371.2731628417969 C 388.9458312988281 371.2703247070312 388.9454650878906 371.2680053710938 388.9450073242188 371.2651672363281 C 388.9447326660156 371.2634887695312 388.9444274902344 371.2616882324219 388.9441833496094 371.260009765625 C 388.9437255859375 371.2571716308594 388.9432983398438 371.2545166015625 388.9428405761719 371.251708984375 C 388.9426574707031 371.2505187988281 388.9424743652344 371.2493896484375 388.9422912597656 371.2481994628906 C 388.9413757324219 371.2425537109375 388.9403991699219 371.2364807128906 388.9394836425781 371.2308044433594 C 388.9393310546875 371.2298583984375 388.9391784667969 371.2288818359375 388.9390258789062 371.2279052734375 C 388.9385070800781 371.224609375 388.9381103515625 371.2221374511719 388.9375915527344 371.2188415527344 C 388.9373779296875 371.2174987792969 388.9371643066406 371.2162475585938 388.9369506835938 371.2149047851562 C 388.9354553222656 371.2054748535156 388.933837890625 371.1953125 388.9323425292969 371.1858825683594 C 388.93212890625 371.1846313476562 388.9319458007812 371.1834106445312 388.9317321777344 371.1821594238281 C 388.9313049316406 371.1793212890625 388.9307556152344 371.1759948730469 388.9303283691406 371.1731567382812 C 388.9301147460938 371.171875 388.9299011230469 371.1706237792969 388.9297180175781 371.1693420410156 C 388.9281311035156 371.1594543457031 388.9266357421875 371.1499328613281 388.9250793457031 371.1400451660156 C 388.9249267578125 371.1389770507812 388.9247436523438 371.1378173828125 388.924560546875 371.1367492675781 C 388.9240417480469 371.1334533691406 388.9236145019531 371.1305847167969 388.923095703125 371.1272888183594 C 388.9229736328125 371.1265869140625 388.9228515625 371.1258850097656 388.9227600097656 371.1251831054688 C 388.9211120605469 371.1148071289062 388.9194641113281 371.104248046875 388.9178466796875 371.0939025878906 C 388.9177551269531 371.0932312011719 388.9176330566406 371.0925598144531 388.9175415039062 371.0918884277344 C 388.9152526855469 371.0773010253906 388.9130249023438 371.0629272460938 388.9107666015625 371.0483703613281 C 388.9106750488281 371.0478820800781 388.9106140136719 371.0473327636719 388.9105224609375 371.0468444824219 C 388.908935546875 371.0365295410156 388.9071655273438 371.0250854492188 388.9055786132812 371.0147705078125 C 388.905517578125 371.0143432617188 388.9054565429688 371.0139465332031 388.9053955078125 371.0135498046875 C 388.9048156738281 371.0097961425781 388.9043273925781 371.0066528320312 388.9037475585938 371.0028991699219 C 388.9037170410156 371.0026550292969 388.9036865234375 371.00244140625 388.9036254882812 371.002197265625 C 388.9019775390625 370.9913940429688 388.9002990722656 370.9805297851562 388.8986511230469 370.9697570800781 C 388.8985900878906 370.9692993164062 388.8985290527344 370.9688110351562 388.8984375 370.9683532714844 C 388.8961486816406 370.953369140625 388.8939819335938 370.9390258789062 388.8916931152344 370.9240417480469 C 388.8916931152344 370.9239501953125 388.8916625976562 370.923828125 388.8916625976562 370.9237365722656 C 388.8893737792969 370.9087524414062 388.8871459960938 370.89404296875 388.8848876953125 370.8790588378906 C 388.8848876953125 370.8789672851562 388.8848876953125 370.8789367675781 388.8848571777344 370.8788146972656 C 388.8572387695312 370.6954956054688 388.8311767578125 370.5135803222656 388.8064270019531 370.3328552246094 C 388.8064270019531 370.3328552246094 388.8064270019531 370.3328552246094 388.8064270019531 370.3328552246094 C 388.8044128417969 370.318115234375 388.8024291992188 370.3035278320312 388.8004455566406 370.2887878417969 C 388.8004150390625 370.2886352539062 388.8003845214844 370.2885131835938 388.8003845214844 370.2883605957031 C 388.7992553710938 370.2800903320312 388.7982177734375 370.2724914550781 388.7970886230469 370.2641906738281 C 388.7419128417969 369.8539428710938 389.0296325683594 369.4764709472656 389.43994140625 369.4209899902344 C 389.4740295410156 369.4163818359375 389.5078735351562 369.4141540527344 389.5413513183594 369.4141540527344 Z M 389.0105590820312 363.4806518554688 C 389.39794921875 363.4806518554688 389.7263488769531 363.7787170410156 389.7574157714844 364.1715087890625 C 389.7925109863281 364.6150817871094 389.8241577148438 365.0582885742188 389.8576354980469 365.5275268554688 C 389.8728637695312 365.7413024902344 389.8882751464844 365.9573364257812 389.9042053222656 366.1756896972656 C 389.9343566894531 366.5888061523438 389.6238708496094 366.9481201171875 389.2107543945312 366.9782409667969 C 388.7976684570312 367.0091247558594 388.4382934570312 366.6979064941406 388.4081726074219 366.2847900390625 C 388.4070434570312 366.2691040039062 388.4059143066406 366.2534790039062 388.4047546386719 366.2378234863281 C 388.3961791992188 366.11962890625 388.3877258300781 366.0021057128906 388.3793640136719 365.8852844238281 C 388.3757934570312 365.8355712890625 388.3722534179688 365.7859802246094 388.3687133789062 365.7365112304688 C 388.362548828125 365.6500244140625 388.3563842773438 365.5636901855469 388.3502807617188 365.4779663085938 C 388.3500671386719 365.4750061035156 388.349853515625 365.4720458984375 388.3496398925781 365.4690856933594 C 388.3495483398438 365.4678955078125 388.3494262695312 365.4663696289062 388.349365234375 365.4651794433594 C 388.3321228027344 365.2239990234375 388.3149719238281 364.9857177734375 388.2974243164062 364.7503356933594 C 388.2973327636719 364.7491760253906 388.2972717285156 364.7482604980469 388.2971801757812 364.7470703125 C 388.2970581054688 364.7454223632812 388.2969360351562 364.7437438964844 388.2968139648438 364.7420959472656 C 388.2966613769531 364.7401428222656 388.2965087890625 364.7381591796875 388.2963562011719 364.7362060546875 C 388.2962951660156 364.7353210449219 388.2962341308594 364.7344055175781 388.2961730957031 364.7335205078125 C 388.2959594726562 364.7308044433594 388.2957458496094 364.7279968261719 388.2955322265625 364.7252502441406 C 388.2955017089844 364.7245788574219 388.2954406738281 364.723876953125 388.2953796386719 364.7232055664062 C 388.2844543457031 364.5770568847656 388.2733459472656 364.4320678710938 388.261962890625 364.2881774902344 C 388.2302551269531 363.8759460449219 388.5382080078125 363.5156555175781 388.9505920410156 363.4830322265625 C 388.9707336425781 363.4814147949219 388.99072265625 363.4806518554688 389.0105590820312 363.4806518554688 Z M 387.9467468261719 357.4766235351562 C 388.2879333496094 357.4766235351562 388.5965270996094 357.7109985351562 388.6767578125 358.0576171875 C 388.7560119628906 358.39990234375 388.8524780273438 358.7782897949219 388.9635009765625 359.1824645996094 C 389.0406494140625 359.4393310546875 389.1128845214844 359.7089233398438 389.1783142089844 359.984130859375 C 389.2741088867188 360.3871154785156 389.0251159667969 360.7914733886719 388.6221313476562 360.8872680664062 C 388.2196960449219 360.9827880859375 387.816162109375 360.7349243164062 387.719482421875 360.3331604003906 C 387.7026977539062 360.262451171875 387.6855163574219 360.1925659179688 387.6676940917969 360.1225891113281 C 387.6676025390625 360.1222839355469 387.6675415039062 360.1219787597656 387.6674499511719 360.1216735839844 C 387.6661376953125 360.1165161132812 387.6649169921875 360.1117248535156 387.6636047363281 360.1065673828125 C 387.6633911132812 360.1057739257812 387.6632080078125 360.10498046875 387.6629943847656 360.1041870117188 C 387.6626586914062 360.1029052734375 387.6623229980469 360.1015319824219 387.6619873046875 360.1002502441406 C 387.6617126464844 360.0991821289062 387.6614379882812 360.0981140136719 387.6611633300781 360.0970458984375 C 387.6608276367188 360.0957641601562 387.66064453125 360.0950012207031 387.6603088378906 360.0937194824219 C 387.6597595214844 360.0916137695312 387.6592102050781 360.0894470214844 387.6586608886719 360.0873413085938 C 387.6584167480469 360.0863647460938 387.6583557128906 360.0861511230469 387.6581115722656 360.0851745605469 C 387.6576843261719 360.0835571289062 387.6572570800781 360.0819091796875 387.6568603515625 360.0802612304688 C 387.6566772460938 360.0796203613281 387.6563720703125 360.0784606933594 387.6562194824219 360.0778198242188 C 387.65576171875 360.0760803222656 387.6553039550781 360.0743103027344 387.6548767089844 360.0725708007812 C 387.65478515625 360.072265625 387.6545104980469 360.0712585449219 387.6544494628906 360.0709533691406 C 387.6538391113281 360.068603515625 387.6532287597656 360.0662536621094 387.6526184082031 360.0639038085938 C 387.6525268554688 360.0635681152344 387.6524047851562 360.0631408691406 387.65234375 360.0628051757812 C 387.6517944335938 360.0607604980469 387.6512756347656 360.0587158203125 387.6507263183594 360.0566711425781 C 387.6505737304688 360.0560302734375 387.6505126953125 360.0557861328125 387.6503295898438 360.0551452636719 C 387.6497497558594 360.0528869628906 387.649169921875 360.0506286621094 387.6485595703125 360.0483703613281 C 387.6485595703125 360.0483703613281 387.6484985351562 360.0481262207031 387.6484985351562 360.0481262207031 C 387.6471862792969 360.0430297851562 387.6458435058594 360.0379333496094 387.64453125 360.0328369140625 C 387.64453125 360.0328369140625 387.6444702148438 360.0326538085938 387.6444702148438 360.0326538085938 C 387.6108093261719 359.9042053222656 387.5753173828125 359.7769165039062 387.5379028320312 359.6508178710938 C 387.5379028320312 359.6508178710938 387.5379028320312 359.6508178710938 387.5379028320312 359.6508178710938 C 387.5364379882812 359.6458435058594 387.5349426269531 359.640869140625 387.5334777832031 359.6359252929688 C 387.5334777832031 359.6359252929688 387.5332641601562 359.6352233886719 387.5332641601562 359.6352233886719 C 387.5326232910156 359.633056640625 387.531982421875 359.6308898925781 387.5313415527344 359.6287536621094 C 387.53125 359.62841796875 387.5310974121094 359.6279907226562 387.531005859375 359.627685546875 C 387.5296020507812 359.6229553222656 387.5281982421875 359.6182556152344 387.5267639160156 359.613525390625 C 387.5265808105469 359.6128845214844 387.5265197753906 359.6127014160156 387.5263366699219 359.612060546875 C 387.5257873535156 359.6101989746094 387.5252380371094 359.6083984375 387.524658203125 359.6065368652344 C 387.5244750976562 359.6058959960938 387.5243225097656 359.6054077148438 387.5241394042969 359.6047668457031 C 387.5234375 359.6024780273438 387.5227661132812 359.6001892089844 387.5220642089844 359.597900390625 L 387.5220642089844 359.597900390625 C 387.5220642089844 359.597900390625 387.5220642089844 359.597900390625 387.5220642089844 359.597900390625 C 387.521484375 359.5957946777344 387.5209655761719 359.5939025878906 387.5203857421875 359.591796875 C 387.5203247070312 359.5915832519531 387.520263671875 359.5914001464844 387.5202026367188 359.5911865234375 C 387.5197143554688 359.58935546875 387.5191650390625 359.58740234375 387.5186767578125 359.5855712890625 C 387.5186157226562 359.5854187011719 387.5185852050781 359.585205078125 387.5185241699219 359.5850524902344 C 387.4006042480469 359.1560363769531 387.2995910644531 358.7596740722656 387.2147827148438 358.3931884765625 C 387.1231689453125 357.9906005859375 387.3743286132812 357.58935546875 387.7769165039062 357.4961242675781 C 387.8338317871094 357.4829406738281 387.8907165527344 357.4766235351562 387.9467468261719 357.4766235351562 Z M 387.7623596191406 354.3373107910156 L 387.7772827148438 354.38232421875 C 387.6304931640625 354.3954467773438 387.4860534667969 354.451904296875 387.3644104003906 354.5533752441406 C 387.4784240722656 354.4580993652344 387.6113891601562 354.3873596191406 387.7623596191406 354.3373107910156 Z M 387.3644104003906 354.5533752441406 C 387.3638000488281 354.5538635253906 387.3632202148438 354.5543823242188 387.3626098632812 354.5548706054688 C 387.3632202148438 354.5543823242188 387.3638000488281 354.5538940429688 387.3644104003906 354.5533752441406 Z M 388.4940185546875 354.2380676269531 C 388.4963684082031 354.2380676269531 388.4985961914062 354.238037109375 388.5008544921875 354.2380676269531 C 388.5027465820312 354.2380676269531 388.5045166015625 354.2380981445312 388.5063781738281 354.2380981445312 C 388.5081176757812 354.2380676269531 388.5098571777344 354.238037109375 388.5116271972656 354.2380981445312 C 388.5134582519531 354.2381591796875 388.5152893066406 354.2381896972656 388.5169677734375 354.2381286621094 C 388.5191955566406 354.2381591796875 388.5211486816406 354.2381286621094 388.5234375 354.2381896972656 C 388.5252685546875 354.2381896972656 388.5272827148438 354.2383117675781 388.5291442871094 354.2382202148438 C 388.5309753417969 354.23828125 388.53271484375 354.2383117675781 388.5346069335938 354.23828125 C 388.5363159179688 354.23828125 388.538330078125 354.2383422851562 388.5399780273438 354.2383422851562 C 388.5419006347656 354.2383728027344 388.5442810058594 354.2385864257812 388.5457153320312 354.2384033203125 C 388.5478820800781 354.2384338378906 388.5497741699219 354.2384338378906 388.552001953125 354.2384948730469 C 388.5537719726562 354.238525390625 388.5556945800781 354.2383728027344 388.5575256347656 354.2385864257812 C 388.5592651367188 354.2385864257812 388.5610961914062 354.2384033203125 388.56298828125 354.2386779785156 C 388.5668334960938 354.2387390136719 388.5701599121094 354.2391052246094 388.5747985839844 354.2388916015625 C 388.5767517089844 354.2389526367188 388.5787353515625 354.2388610839844 388.5806274414062 354.239013671875 C 388.5824584960938 354.2390441894531 388.584228515625 354.2388610839844 388.5862121582031 354.2391357421875 C 388.5919494628906 354.2392578125 388.598876953125 354.2394409179688 388.6035461425781 354.2395324707031 C 388.6054382324219 354.2395935058594 388.6067504882812 354.2392272949219 388.6093444824219 354.2397155761719 C 388.8197631835938 354.2455139160156 389.0474853515625 354.2666320800781 389.2914428710938 354.298828125 C 389.7020874023438 354.3530578613281 389.9910278320312 354.7298889160156 389.9368286132812 355.1405639648438 C 389.882568359375 355.5511779785156 389.5057373046875 355.8399963378906 389.0950927734375 355.7859191894531 C 388.8512573242188 355.7537231445312 388.6546325683594 355.7380676269531 388.4940185546875 355.7380676269531 C 388.3059692382812 355.7380676269531 388.2373046875 355.7601318359375 388.2344665527344 355.7610778808594 C 388.2344665527344 355.7610778808594 388.2344665527344 355.7610778808594 388.2344665527344 355.7610778808594 L 387.7772827148438 354.38232421875 C 387.7772827148438 354.38232421875 387.7772827148438 354.38232421875 387.7772827148438 354.38232421875 L 387.7623596191406 354.3373107910156 C 387.9394836425781 354.278564453125 388.1414184570312 354.248291015625 388.3665161132812 354.2402954101562 C 388.3717041015625 354.2377319335938 388.3789367675781 354.2398376464844 388.3852844238281 354.2396545410156 C 388.3852844238281 354.2396545410156 388.3855285644531 354.2396545410156 388.3855285644531 354.2396545410156 C 388.3865661621094 354.2396545410156 388.3877868652344 354.239501953125 388.3885803222656 354.2395629882812 C 388.3907165527344 354.239501953125 388.3930053710938 354.2393493652344 388.3950500488281 354.2393798828125 C 388.3960571289062 354.2393493652344 388.3971252441406 354.2393493652344 388.3980407714844 354.2393188476562 C 388.400146484375 354.2392578125 388.40234375 354.2391357421875 388.4046020507812 354.2391357421875 C 388.4056396484375 354.2391052246094 388.4069213867188 354.2391052246094 388.4075622558594 354.2390747070312 C 388.4085693359375 354.2390441894531 388.4095764160156 354.239013671875 388.4105834960938 354.239013671875 C 388.4105834960938 354.239013671875 388.4107666015625 354.2389831542969 388.4107666015625 354.2389831542969 C 388.4118041992188 354.2389831542969 388.4132080078125 354.2389831542969 388.4140319824219 354.2389221191406 C 388.4151306152344 354.2388916015625 388.4159240722656 354.2388305664062 388.4170837402344 354.2388610839844 C 388.4180908203125 354.2388305664062 388.4191284179688 354.2388305664062 388.4201354980469 354.2388000488281 C 388.4201354980469 354.2388000488281 388.4201354980469 354.2388000488281 388.4201354980469 354.2388000488281 C 388.4213562011719 354.23876953125 388.4225463867188 354.2387390136719 388.4236450195312 354.2387390136719 C 388.4246520996094 354.2387390136719 388.4257507324219 354.2386169433594 388.4266052246094 354.2386779785156 C 388.4277954101562 354.2386474609375 388.4291687011719 354.2386474609375 388.4302062988281 354.2386169433594 C 388.431396484375 354.2385559082031 388.4322509765625 354.2385559082031 388.433349609375 354.2385559082031 C 388.4342651367188 354.2385559082031 388.435302734375 354.2385559082031 388.4362182617188 354.238525390625 C 388.4374694824219 354.2384948730469 388.4385681152344 354.2384643554688 388.4399108886719 354.2384643554688 C 388.4409484863281 354.2384033203125 388.4420166015625 354.2384338378906 388.4430847167969 354.2384033203125 C 388.4439392089844 354.2384033203125 388.4450378417969 354.2383728027344 388.4458312988281 354.2383728027344 C 388.4469604492188 354.2383422851562 388.4480590820312 354.2382507324219 388.4493713378906 354.2383422851562 C 388.4503784179688 354.23828125 388.4515686035156 354.2383117675781 388.4524536132812 354.2383117675781 C 388.4534606933594 354.23828125 388.4545593261719 354.2383117675781 388.455322265625 354.23828125 C 388.4565124511719 354.2382202148438 388.4576110839844 354.2381896972656 388.4588928222656 354.2382202148438 C 388.4599609375 354.2382507324219 388.4610900878906 354.2383117675781 388.4621276855469 354.2381896972656 C 388.4630737304688 354.2381896972656 388.4640197753906 354.2383117675781 388.4649658203125 354.2381896972656 C 388.4662475585938 354.2381286621094 388.4674987792969 354.2380981445312 388.4687194824219 354.2381591796875 C 388.4696960449219 354.2381591796875 388.4705200195312 354.2380981445312 388.4717102050781 354.2381286621094 C 388.4738464355469 354.2380981445312 388.4758911132812 354.2379150390625 388.4782409667969 354.2380981445312 C 388.479248046875 354.2380981445312 388.4803466796875 354.2380981445312 388.4813842773438 354.2380981445312 C 388.4836120605469 354.2380981445312 388.4858093261719 354.2380065917969 388.4880676269531 354.2380676269531 C 388.489013671875 354.2380676269531 388.490234375 354.2380981445312 388.4910583496094 354.2380676269531 C 388.4920349121094 354.2380676269531 388.4930419921875 354.2380676269531 388.4940185546875 354.2380676269531 C 388.4940185546875 354.2380676269531 388.4940185546875 354.2380676269531 388.4940185546875 354.2380676269531 Z M 393.1242065429688 354.9889526367188 C 393.1589965820312 354.9889526367188 393.1942443847656 354.9913940429688 393.2297058105469 354.9963684082031 C 393.8597106933594 355.0850830078125 394.5251159667969 355.1537780761719 395.2205200195312 355.180908203125 C 395.6343994140625 355.1970520019531 395.9568481445312 355.5456848144531 395.9407043457031 355.9595947265625 C 395.924560546875 356.3735046386719 395.5747375488281 356.6942138671875 395.1620483398438 356.6797790527344 C 394.4780883789062 356.653076171875 393.7776184082031 356.5882873535156 393.0205993652344 356.4817199707031 C 392.6104431152344 356.4239807128906 392.3247375488281 356.044677734375 392.3824768066406 355.6344909667969 C 392.4352416992188 355.259765625 392.75634765625 354.9889526367188 393.1242065429688 354.9889526367188 Z M 401.3738708496094 354.1426696777344 C 401.67041015625 354.1426696777344 401.9512939453125 354.3197326660156 402.0693664550781 354.6115417480469 C 402.2247314453125 354.9955139160156 402.0394287109375 355.4327392578125 401.6554565429688 355.5881042480469 C 400.9678649902344 355.8663635253906 400.2566833496094 356.0948181152344 399.5417175292969 356.2671203613281 C 399.1390686035156 356.3641662597656 398.7339477539062 356.1163635253906 398.6368713378906 355.7137145996094 C 398.5398254394531 355.3110046386719 398.78759765625 354.9059143066406 399.1902770996094 354.8088684082031 C 399.8124694824219 354.658935546875 400.447509765625 354.4587707519531 401.0928039550781 354.1976318359375 C 401.1849670410156 354.1603393554688 401.2802124023438 354.1426696777344 401.3738708496094 354.1426696777344 Z M 406.1520690917969 351.9283142089844 C 406.1532897949219 351.9283142089844 406.1544799804688 351.9283142089844 406.1557006835938 351.9283142089844 C 406.1557006835938 351.9283142089844 406.1566162109375 351.9283142089844 406.1566162109375 351.9283142089844 C 406.1581115722656 351.9283142089844 406.1588134765625 351.9282836914062 406.1602783203125 351.9283142089844 C 406.1620178222656 351.9283142089844 406.1628723144531 351.9283447265625 406.1645202636719 351.9283447265625 C 406.1660766601562 351.9283447265625 406.1668701171875 351.9283752441406 406.1683654785156 351.9283447265625 C 406.1696166992188 351.9283752441406 406.1708984375 351.9283752441406 406.1721496582031 351.9283752441406 C 406.1721496582031 351.9283752441406 406.1722412109375 351.9283752441406 406.1722412109375 351.9283752441406 C 406.1734924316406 351.9284057617188 406.1746215820312 351.9284057617188 406.1759033203125 351.9284057617188 C 406.1759033203125 351.9284057617188 406.1764221191406 351.9284057617188 406.1764221191406 351.9284057617188 C 406.1789245605469 351.9284362792969 406.1814880371094 351.928466796875 406.1839904785156 351.9284973144531 C 406.1839904785156 351.9284973144531 406.1844482421875 351.9284973144531 406.1844482421875 351.9284973144531 C 406.1869812011719 351.9285278320312 406.1896057128906 351.9285583496094 406.192138671875 351.9285888671875 C 406.192138671875 351.9285888671875 406.1923217773438 351.9285888671875 406.1923217773438 351.9285888671875 C 406.1962890625 351.9286499023438 406.2001953125 351.9287109375 406.2041625976562 351.9288024902344 C 406.2041625976562 351.9288024902344 406.2042541503906 351.9288024902344 406.2042541503906 351.9288024902344 C 406.6612854003906 351.9372863769531 407.08251953125 352.0576477050781 407.4689025878906 352.2776794433594 C 407.4689025878906 352.2776794433594 407.468994140625 352.2777404785156 407.468994140625 352.2777404785156 C 407.4768676757812 352.2822265625 407.484619140625 352.2866821289062 407.4924621582031 352.291259765625 C 407.4924621582031 352.291259765625 407.49267578125 352.2913818359375 407.49267578125 352.2913818359375 C 407.4948120117188 352.2926330566406 407.4969787597656 352.2938842773438 407.4991149902344 352.2951354980469 C 407.4991149902344 352.2951354980469 407.49951171875 352.2953796386719 407.49951171875 352.2953796386719 C 407.5005187988281 352.2959594726562 407.5014953613281 352.2965393066406 407.5024719238281 352.297119140625 C 407.5024719238281 352.297119140625 407.5027160644531 352.2972717285156 407.5027160644531 352.2972717285156 C 407.504150390625 352.2981262207031 407.5048522949219 352.2984313964844 407.5063171386719 352.2993774414062 C 407.5075988769531 352.3001403808594 407.5083312988281 352.300537109375 407.5096130371094 352.3013305664062 C 407.5106811523438 352.3019409179688 407.5116577148438 352.3025207519531 407.5126953125 352.3031616210938 C 407.5126953125 352.3031616210938 407.5128479003906 352.3032531738281 407.5128479003906 352.3032531738281 C 407.5138244628906 352.3038330078125 407.5148315429688 352.3044128417969 407.5158081054688 352.3049926757812 C 407.5158081054688 352.3049926757812 407.516357421875 352.3053283691406 407.516357421875 352.3053283691406 C 407.5184020996094 352.3065185546875 407.5204467773438 352.3077697753906 407.5224609375 352.3089599609375 C 407.5224609375 352.3089599609375 407.523193359375 352.3094177246094 407.523193359375 352.3094177246094 C 407.5244750976562 352.3102111816406 407.5249633789062 352.3104858398438 407.5262451171875 352.3112182617188 C 407.5276489257812 352.3120727539062 407.528564453125 352.312744140625 407.5299377441406 352.3134460449219 C 407.5311279296875 352.3141479492188 407.5317077636719 352.3144836425781 407.5330505371094 352.3153381347656 C 407.5344543457031 352.3161926269531 407.5354614257812 352.3167419433594 407.5366821289062 352.3175354003906 C 407.5374755859375 352.3179931640625 407.5382690429688 352.3185119628906 407.5390625 352.3189697265625 C 407.5390625 352.3189697265625 407.5399475097656 352.3195190429688 407.5399475097656 352.3195190429688 C 407.5419311523438 352.3207397460938 407.5438537597656 352.3218994140625 407.5458374023438 352.3231201171875 C 407.5458374023438 352.3231201171875 407.5466918945312 352.3236083984375 407.5466918945312 352.3236083984375 C 407.5479125976562 352.3243713378906 407.5485534667969 352.3248291015625 407.5497436523438 352.3254699707031 C 407.5510864257812 352.3263549804688 407.5519409179688 352.326904296875 407.5533752441406 352.3277282714844 C 407.5545043945312 352.3283996582031 407.5554809570312 352.3291015625 407.5565795898438 352.3296813964844 C 407.5578918457031 352.3304748535156 407.5589904785156 352.3311767578125 407.5602722167969 352.3320007324219 C 407.5613708496094 352.3326416015625 407.5624389648438 352.3333435058594 407.5634765625 352.333984375 C 407.5645446777344 352.3346252441406 407.5655517578125 352.3352661132812 407.5666809082031 352.3359680175781 C 407.56787109375 352.3367004394531 407.5689697265625 352.3374328613281 407.5701599121094 352.338134765625 C 407.5712585449219 352.3388061523438 407.5721130371094 352.3393859863281 407.5731506347656 352.3399963378906 C 407.5744018554688 352.3407897949219 407.5757446289062 352.3416442871094 407.5769653320312 352.3423767089844 C 407.5779418945312 352.343017578125 407.578857421875 352.3435974121094 407.5798950195312 352.34423828125 C 407.5811462402344 352.3450012207031 407.5823059082031 352.3457641601562 407.5836181640625 352.3465881347656 C 407.5846252441406 352.3471984863281 407.5856323242188 352.3478698730469 407.5867309570312 352.3485412597656 C 407.5877685546875 352.3492126464844 407.5887145996094 352.3498229980469 407.5899353027344 352.3505859375 C 407.5910949707031 352.351318359375 407.5921936035156 352.3519897460938 407.5934448242188 352.3528137207031 C 407.5944519042969 352.3534851074219 407.5953979492188 352.3541259765625 407.596435546875 352.354736328125 C 407.5976867675781 352.3555297851562 407.5991516113281 352.3564147949219 407.6002807617188 352.3572082519531 C 407.6011962890625 352.3578186035156 407.6023559570312 352.3585510253906 407.6032409667969 352.3591003417969 C 407.6044311523438 352.35986328125 407.6055297851562 352.3606567382812 407.6069030761719 352.3614501953125 C 407.6082763671875 352.3623352050781 407.6086730957031 352.3625793457031 407.6099853515625 352.3634643554688 C 407.6112365722656 352.3642272949219 407.6125183105469 352.3651123046875 407.6138610839844 352.365966796875 C 407.6151428222656 352.3668212890625 407.6156311035156 352.3670959472656 407.6168212890625 352.3678894042969 C 407.6176452636719 352.3683471679688 407.6188049316406 352.3691101074219 407.6196594238281 352.3697509765625 C 407.6209106445312 352.3705444335938 407.6223449707031 352.3714294433594 407.6233825683594 352.3721923828125 C 407.6243896484375 352.372802734375 407.625244140625 352.3733520507812 407.6262512207031 352.3740539550781 C 407.6272888183594 352.3747253417969 407.6291198730469 352.3758239746094 407.6301879882812 352.3766479492188 C 407.6314392089844 352.3774719238281 407.6317749023438 352.377685546875 407.6330871582031 352.3785400390625 C 407.6343994140625 352.3794250488281 407.6356201171875 352.3802185058594 407.6369323730469 352.381103515625 C 407.6382446289062 352.3818969726562 407.6387023925781 352.3822937011719 407.6398620605469 352.3830261230469 C 407.6411437988281 352.3838806152344 407.6422424316406 352.3846435546875 407.6434936523438 352.3854370117188 C 407.6443786621094 352.3860473632812 407.6456298828125 352.3869323730469 407.6466064453125 352.3875122070312 C 407.6477661132812 352.3883056640625 407.6482849121094 352.3886413574219 407.6494750976562 352.3894348144531 C 407.6505126953125 352.39013671875 407.6522521972656 352.3913269042969 407.6534118652344 352.39208984375 C 407.6545104980469 352.3927917480469 407.6551818847656 352.3932189941406 407.6563110351562 352.3940124511719 C 407.6573486328125 352.3947143554688 407.6593017578125 352.3960876464844 407.6603393554688 352.396728515625 C 407.6614074707031 352.3974609375 407.6618347167969 352.3977661132812 407.6629028320312 352.3984985351562 C 407.6632995605469 352.3987426757812 407.6636657714844 352.3989868164062 407.6640319824219 352.3992614746094 C 407.6659545898438 352.4005432128906 407.6680297851562 352.4019470214844 407.669921875 352.4032592773438 C 407.6708068847656 352.4039001464844 407.6715087890625 352.4043579101562 407.6724853515625 352.4049987792969 C 407.6725769042969 352.4050598144531 407.6727600097656 352.4051818847656 407.6728515625 352.4052429199219 C 407.6743774414062 352.4062805175781 407.6750793457031 352.4067687988281 407.6765747070312 352.4078063964844 C 407.6776733398438 352.4084777832031 407.6782836914062 352.4089660644531 407.6792602539062 352.4096374511719 C 407.6794128417969 352.4097290039062 407.6796264648438 352.4098815917969 407.6798095703125 352.4100036621094 C 407.6813354492188 352.4110412597656 407.6820983886719 352.4115905761719 407.6836242675781 352.4126281738281 C 407.6844787597656 352.4132080078125 407.6850280761719 352.41357421875 407.6859436035156 352.4142456054688 C 407.6862182617188 352.4144287109375 407.6864318847656 352.41455078125 407.6867065429688 352.4147644042969 C 407.68896484375 352.4163208007812 407.6904907226562 352.4173889160156 407.6927795410156 352.4189758300781 C 407.6929626464844 352.4190979003906 407.6931457519531 352.4192199707031 407.693359375 352.4193725585938 C 407.6956481933594 352.4209594726562 407.6970825195312 352.4219665527344 407.6993713378906 352.4235534667969 C 407.700439453125 352.4242248535156 407.7011108398438 352.4247131347656 407.7021179199219 352.4254760742188 C 407.7022399902344 352.4255676269531 407.702392578125 352.4256896972656 407.7025451660156 352.42578125 C 407.7048034667969 352.4273681640625 407.7065734863281 352.4285888671875 407.7088623046875 352.4302062988281 C 407.7090148925781 352.4303283691406 407.7091979980469 352.4304504394531 407.7093505859375 352.4305419921875 C 407.7116394042969 352.4321594238281 407.7135009765625 352.4334716796875 407.7157592773438 352.4350891113281 C 407.7158508300781 352.4351196289062 407.7159118652344 352.4351806640625 407.7159729003906 352.4352111816406 C 407.7212829589844 352.43896484375 407.7264099121094 352.442626953125 407.731689453125 352.4464111328125 C 407.7317504882812 352.4464721679688 407.7318115234375 352.446533203125 407.7318725585938 352.4465637207031 C 407.7341613769531 352.4481811523438 407.7361755371094 352.4496459960938 407.7384643554688 352.4512939453125 C 407.7385559082031 352.4513549804688 407.7385559082031 352.4513549804688 407.7386474609375 352.4514465332031 C 407.8194274902344 352.5097045898438 407.8980407714844 352.5721435546875 407.9755249023438 352.6395263671875 C 408.2873840332031 352.9112854003906 408.3203735351562 353.3843994140625 408.0490112304688 353.6968078613281 C 407.7774353027344 354.009521484375 407.3037109375 354.0428466796875 406.990966796875 353.7711791992188 C 406.7179870605469 353.5340576171875 406.4592590332031 353.4283142089844 406.152099609375 353.4283142089844 C 406.152099609375 353.4283142089844 406.152099609375 353.4283142089844 406.152099609375 353.4283142089844 C 405.8865356445312 353.4283142089844 405.5775756835938 353.5082702636719 405.2337646484375 353.6659545898438 C 404.8572692871094 353.8387451171875 404.4120178222656 353.6734313964844 404.2393493652344 353.2969360351562 C 404.0669250488281 352.9209594726562 404.2314453125 352.4765319824219 404.6067504882812 352.3032836914062 C 405.0727844238281 352.08935546875 405.5108032226562 351.9700927734375 405.9215087890625 351.9375305175781 C 405.9244689941406 351.938720703125 405.9272155761719 351.9371337890625 405.9300842285156 351.9368896484375 C 405.9329223632812 351.9366455078125 405.9358215332031 351.9364318847656 405.9386901855469 351.9362182617188 C 405.9413757324219 351.9364624023438 405.9444274902344 351.9358215332031 405.9472351074219 351.9356079101562 C 405.9499816894531 351.9358825683594 405.9530944824219 351.9352111816406 405.9559631347656 351.9349975585938 C 405.9579162597656 351.9346008300781 405.9616394042969 351.9346313476562 405.9645080566406 351.9344482421875 C 405.9673767089844 351.9345397949219 405.9702453613281 351.9341125488281 405.97314453125 351.9338989257812 C 405.97509765625 351.9337158203125 405.9787902832031 351.9335021972656 405.9816284179688 351.9333801269531 C 405.9844360351562 351.9334411621094 405.9873657226562 351.9330444335938 405.9902038574219 351.9328918457031 C 405.9930114746094 351.9328918457031 405.9958801269531 351.9325561523438 405.9987182617188 351.9324340820312 C 406.0015869140625 351.9318542480469 406.0044250488281 351.9321594238281 406.0072326660156 351.9319763183594 C 406.0087585449219 351.9319152832031 406.0102844238281 351.9318542480469 406.0118713378906 351.9317626953125 C 406.0127868652344 351.9311218261719 406.0144958496094 351.9316101074219 406.0157775878906 351.9315490722656 C 406.0171813964844 351.9315795898438 406.0188293457031 351.931396484375 406.0203857421875 351.9313354492188 C 406.0219421386719 351.93115234375 406.0230407714844 351.9312133789062 406.0243530273438 351.9311828613281 C 406.0255737304688 351.930908203125 406.0274047851562 351.9310302734375 406.0289611816406 351.9309692382812 C 406.0298767089844 351.9308166503906 406.031494140625 351.9308471679688 406.0328369140625 351.9308166503906 C 406.0347290039062 351.9307250976562 406.0359497070312 351.9306945800781 406.0374450683594 351.9306030273438 C 406.0386352539062 351.9304504394531 406.0400695800781 351.9305114746094 406.0414733886719 351.9304504394531 C 406.0429077148438 351.9304809570312 406.0444946289062 351.9303283691406 406.0459594726562 351.9302978515625 C 406.047607421875 351.9303894042969 406.0486450195312 351.93017578125 406.0499877929688 351.9301452636719 C 406.0512390136719 351.9299926757812 406.0529479980469 351.9300231933594 406.0545349121094 351.9299926757812 C 406.0558471679688 351.9298095703125 406.0572509765625 351.9299011230469 406.0586242675781 351.9298400878906 C 406.0601806640625 351.9299621582031 406.0615539550781 351.9297790527344 406.0630493164062 351.9297180175781 C 406.0643920898438 351.9287109375 406.0657043457031 351.9296264648438 406.0670471191406 351.9295959472656 C 406.0686950683594 351.9293823242188 406.0700378417969 351.9295349121094 406.0714721679688 351.929443359375 C 406.0726928710938 351.9292297363281 406.0741577148438 351.9293823242188 406.0755310058594 351.9293518066406 C 406.0767822265625 351.9292297363281 406.0784301757812 351.9292602539062 406.0798950195312 351.9292297363281 C 406.0811462402344 351.9292297363281 406.0826110839844 351.9291381835938 406.083984375 351.9291381835938 C 406.0852966308594 351.9292297363281 406.0868835449219 351.9290466308594 406.0883483886719 351.9290161132812 C 406.089599609375 351.9289855957031 406.091064453125 351.9289855957031 406.0923767089844 351.9289245605469 C 406.0939025878906 351.9288635253906 406.0953369140625 351.9288635253906 406.0968627929688 351.9288635253906 C 406.0982360839844 351.9287109375 406.0995483398438 351.9288330078125 406.1009216308594 351.9287719726562 C 406.1023864746094 351.9288024902344 406.1037902832031 351.9287109375 406.1052856445312 351.9287109375 C 406.10693359375 351.928466796875 406.108154296875 351.9286499023438 406.1095581054688 351.9286193847656 C 406.1108703613281 351.9286804199219 406.1123352050781 351.9285888671875 406.1136779785156 351.9285583496094 C 406.1152038574219 351.9285278320312 406.1165466308594 351.9285278320312 406.117919921875 351.9285278320312 C 406.1191711425781 351.9284362792969 406.1206665039062 351.9284973144531 406.1220703125 351.928466796875 C 406.1234130859375 351.9284973144531 406.1249084472656 351.9284057617188 406.1263732910156 351.9284362792969 C 406.1274719238281 351.928466796875 406.129150390625 351.9283752441406 406.1305847167969 351.9284057617188 C 406.1319274902344 351.9283447265625 406.1334228515625 351.9283752441406 406.1349487304688 351.9283752441406 C 406.13623046875 351.9283752441406 406.1376037597656 351.9283447265625 406.1389465332031 351.9283447265625 C 406.1404113769531 351.9283752441406 406.1418762207031 351.9283447265625 406.1434020996094 351.9283142089844 C 406.1448669433594 351.9282531738281 406.1460571289062 351.9283142089844 406.1473999023438 351.9283142089844 C 406.1489868164062 351.9283752441406 406.1505432128906 351.9283447265625 406.1520690917969 351.9283142089844 Z" stroke="none" fill="#76777a"/>
    </g>
  </g>
</svg>
