<svg xmlns="http://www.w3.org/2000/svg" width="16" height="16" viewBox="0 0 16 16">
  <g id="ico_16_login" transform="translate(-236 -252)">
    <path id="base" d="M0,0H16V16H0Z" transform="translate(236 252)" fill="none" opacity="0"/>
    <g id="icon" transform="translate(-0.333 -0.334)">
      <path id="path" d="M12,4.25v-.5C12,.75,11.3,0,8.5,0h-7C-1.3,0-2,.75-2,3.75v.5C-2,7.25-1.3,8,1.5,8h7a4.218,4.218,0,0,0,2.6-.562" transform="translate(239.333 259.335)" fill="none" stroke="#fff" stroke-linecap="round" stroke-linejoin="round" stroke-width="1.5"/>
      <path id="path-2" data-name="path" d="M0,6V3.75C0,1.681.667,0,4,0" transform="translate(240.333 253.334)" fill="none" stroke="#fff" stroke-linecap="round" stroke-linejoin="round" stroke-width="1.5"/>
      <path id="path-3" data-name="path" d="M4,6V3.75C4,1.681,3.333,0,0,0" transform="translate(244.333 253.334)" fill="none" stroke="#fff" stroke-linecap="round" stroke-linejoin="round" stroke-width="1.5"/>
    </g>
  </g>
</svg>
