<svg xmlns="http://www.w3.org/2000/svg" width="26" height="26" viewBox="0 0 26 26">
  <g id="link_youtube" transform="translate(-244 -4274)">
    <rect id="base" width="26" height="26" transform="translate(244 4274)" fill="none"/>
    <g id="icon" transform="translate(-28 -1)">
      <path id="icons8-youtube" d="M14.916,8.5a54.051,54.051,0,0,0-9.232.65l-.013,0A3.926,3.926,0,0,0,2.463,12.1V12.1A29.519,29.519,0,0,0,2,17.5a24.906,24.906,0,0,0,.523,5.415,3.961,3.961,0,0,0,3.206,2.931l.022.006a55.352,55.352,0,0,0,9.22.648,55.387,55.387,0,0,0,9.223-.648l.022-.006A3.926,3.926,0,0,0,27.424,22.9l0-.012A34.289,34.289,0,0,0,28,17.466q0-.009,0-.019a24.838,24.838,0,0,0-.577-5.462,3.96,3.96,0,0,0-3.207-2.938l-.07-.012A75.435,75.435,0,0,0,14.916,8.5Z" transform="translate(270 4270.5)" fill="#fff"/>
      <path id="icons8-youtube-2" data-name="icons8-youtube" d="M12.621,13.014A1.722,1.722,0,0,0,11,14.75v4.526a1.665,1.665,0,0,0,2.454,1.518s0,0,0,0L17.2,18.53a1.834,1.834,0,0,0,0-3.035l-3.743-2.263A1.5,1.5,0,0,0,12.621,13.014Z" transform="translate(271 4270.987)" fill="#1c1c1b"/>
    </g>
  </g>
</svg>
