<svg xmlns="http://www.w3.org/2000/svg" width="26" height="26" viewBox="0 0 26 26">
  <g id="link_instagram" transform="translate(26 -1)">
    <rect id="base" width="26" height="26" transform="translate(-26 1)" fill="none"/>
    <g id="icon" transform="translate(-28 -1)">
      <path id="combined" d="M16.505,22H5.494A5.5,5.5,0,0,1,0,16.505V5.494A5.5,5.5,0,0,1,5.494,0H16.505A5.5,5.5,0,0,1,22,5.494V16.505A5.5,5.5,0,0,1,16.505,22ZM5.494,2.2A3.3,3.3,0,0,0,2.2,5.494V16.505A3.3,3.3,0,0,0,5.494,19.8H16.505A3.3,3.3,0,0,0,19.8,16.505V5.494A3.3,3.3,0,0,0,16.505,2.2ZM11,16.5A5.5,5.5,0,1,1,16.5,11,5.507,5.507,0,0,1,11,16.5Zm0-8.8A3.3,3.3,0,1,0,14.3,11,3.3,3.3,0,0,0,11,7.7Zm5.5-1.1a1.1,1.1,0,1,1,1.1-1.1A1.1,1.1,0,0,1,16.5,6.6Z" transform="translate(4 4)" fill="#fff"/>
    </g>
  </g>
</svg>
