<svg xmlns="http://www.w3.org/2000/svg" xmlns:xlink="http://www.w3.org/1999/xlink" width="38" height="38" viewBox="0 0 38 38">
  <defs>
    <clipPath id="clip-path">
      <rect id="mask" width="16" height="10" fill="#2185d0"/>
    </clipPath>
  </defs>
  <g id="profile_admin" transform="translate(8 -3.5)">
    <circle id="oval" cx="19" cy="19" r="19" transform="translate(-8 3.5)" fill="#1c1c1b"/>
    <g id="ico_26_logo_symbol" transform="translate(-2 9.516)">
      <rect id="base" width="26" height="26" transform="translate(0 -0.015)" fill="none"/>
      <g id="icon" transform="translate(4 4.984)">
        <g id="btm" transform="translate(1 8)" clip-path="url(#clip-path)">
          <path id="path" d="M10.918,20.179s-.421-.113-.421,4.392,3.073,8.777,7.911,8.777h-16c4.838,0,7.911-4.273,7.911-8.777S11.6,19.9,11.6,19.9" transform="translate(-2.408 -23.348)" fill="#fff"/>
        </g>
        <path id="path-2" data-name="path" d="M0,8V0H18V8S16.8.431,9.069.431,0,8,0,8" fill="#fff"/>
        <path id="icon_26_star" d="M0,5s4.851-.1,5-5c0,0,.4,5,5,5-4.6,0-5,5-5,5C4.851,5.1,0,5,0,5Z" transform="translate(4)" fill="#fff"/>
      </g>
    </g>
  </g>
</svg>
